<?xml version="1.0" standalone="no"?>
<!DOCTYPE svg PUBLIC "-//W3C//DTD SVG 1.1//EN" "http://www.w3.org/Graphics/SVG/1.1/DTD/svg11.dtd" >
<svg xmlns="http://www.w3.org/2000/svg" xmlns:xlink="http://www.w3.org/1999/xlink" version="1.1">
<metadata>
Created by FontForge 20170731 at Sat Sep  5 15:52:31 2020
 By Aleksey,,,
Copyright Achaz Reuss 2000. Digital data and hinting by URW++ Design &#38; Development 
</metadata>
<defs>
<font id="NiveaBoldTextScreen" horiz-adv-x="1366" >
  <font-face 
    font-family="NiveaBoldTextScreen"
    font-weight="700"
    font-stretch="normal"
    units-per-em="2048"
    panose-1="0 0 8 0 0 0 0 0 0 0"
    ascent="1483"
    descent="-565"
    x-height="1130"
    cap-height="1450"
    bbox="-246 -553 6840 2183"
    underline-thickness="272"
    underline-position="-544"
    unicode-range="U+0020-FB02"
  />
<missing-glyph horiz-adv-x="681" 
 />
    <glyph glyph-name="fi" unicode="fi" horiz-adv-x="1462" 
d="M1343 0h-393v1130l393 33v-1163zM1147 1677q91 0 152 -61t61 -152q0 -89 -62.5 -152t-150.5 -63q-89 0 -152 63t-63 152q0 91 62 152t153 61zM864 1630l-41 -311q-60 16 -100 16q-57 0 -91 -25.5t-34 -66.5v-113h266v-325h-266v-805h-395v805h-162v325h162v93
q0 195 136 305t376 110q39 0 149 -8z" />
    <glyph glyph-name="fl" unicode="fl" horiz-adv-x="1466" 
d="M1331 0h-393v1450l393 33v-1483zM864 1630l-41 -311q-60 16 -100 16q-57 0 -91 -25.5t-34 -66.5v-113h266v-325h-266v-805h-395v805h-162v325h162v93q0 195 136 305t376 110q39 0 149 -8z" />
    <glyph glyph-name=".notdef" horiz-adv-x="681" 
 />
    <glyph glyph-name=".null" horiz-adv-x="0" 
 />
    <glyph glyph-name="nonmarkingreturn" horiz-adv-x="682" 
 />
    <glyph glyph-name="space" unicode=" " horiz-adv-x="681" 
 />
    <glyph glyph-name="exclam" unicode="!" horiz-adv-x="765" 
d="M639 547l-326 -55l-73 968l485 35zM471 397q89 0 151 -62t62 -153q0 -85 -63 -147t-150 -62q-88 0 -149.5 62t-61.5 151q0 88 61.5 149.5t149.5 61.5z" />
    <glyph glyph-name="quotedbl" unicode="&#x22;" horiz-adv-x="1159" 
d="M164 874v576h313v-576h-313zM682 874v576h313v-576h-313z" />
    <glyph glyph-name="numbersign" unicode="#" horiz-adv-x="1300" 
d="M465 342l-47 -274h-268l49 274h-199v268h246l41 232h-199v268h246l47 268h268l-47 -268h234l47 268h266l-47 -268h198v-268h-245l-41 -232h198v-268h-245l-47 -270h-269l47 270h-233zM543 856l-45 -260h260l45 260h-260z" />
    <glyph glyph-name="dollar" unicode="$" horiz-adv-x="1200" 
d="M487 1665h222v-180q131 -18 295 -82v-373q-261 135 -408 135q-63 0 -98 -23.5t-35 -66.5q0 -26 23.5 -52.5t62.5 -45.5l182 -84q220 -105 309.5 -210t89.5 -261q0 -171 -112.5 -292t-308.5 -161v-241h-222v231q-129 6 -352 76l-49 424q149 -81 262.5 -117.5t218.5 -36.5
q72 0 114 29.5t42 81.5q0 43 -30.5 67t-160.5 82l-141 72q-160 79 -235.5 183.5t-75.5 244.5q0 166 108.5 277.5t298.5 142.5v180z" />
    <glyph glyph-name="percent" unicode="%" horiz-adv-x="1863" 
d="M465 1495q167 0 284 -113t117 -274q0 -163 -117 -276t-284 -113q-171 0 -287.5 113t-116.5 280q0 158 118.5 270.5t285.5 112.5zM465 1231q-46 0 -78.5 -36t-32.5 -87q0 -53 32 -89t79 -36q44 0 76 36t32 87q0 52 -31.5 88.5t-76.5 36.5zM1243 1450h264l-895 -1450h-264z
M1399 731q169 0 286 -113t117 -276q0 -161 -117 -274t-284 -113q-172 0 -288 113t-116 280q0 158 118 270.5t284 112.5zM1401 467q-46 0 -78.5 -36t-32.5 -87q0 -53 32 -89t79 -36q44 0 76 36t32 87q0 52 -31.5 88.5t-76.5 36.5z" />
    <glyph glyph-name="ampersand" unicode="&#x26;" horiz-adv-x="1515" 
d="M1507 0h-469l-47 63h-12q-55 -61 -132 -84.5t-220 -23.5q-251 0 -405 122.5t-154 321.5q0 152 86 266t237 160v15q-71 34 -118.5 117.5t-47.5 175.5q0 155 123 258.5t307 103.5q187 0 312 -105t125 -262q0 -121 -69 -214.5t-183 -127.5v-14q12 -8 37 -33l108 -127
q28 -32 45 -65h14q3 9 11 26l10 23q35 77 57 145l320 -94q-32 -133 -78.5 -228.5t-93.5 -127.5v-10zM668 983q46 40 65 72.5t19 72.5q0 44 -22.5 71.5t-57.5 27.5q-37 0 -61.5 -28t-24.5 -69q0 -35 13 -60.5t56 -72.5q11 -11 13 -14zM553 618l-10 3q-43 -41 -61.5 -82
t-18.5 -93q0 -78 49 -126t129 -48q77 0 152 45v9q-20 15 -28 23t-30 34l-145 180q-23 27 -25 31z" />
    <glyph glyph-name="quotesingle" unicode="'" horiz-adv-x="641" 
d="M164 874v576h313v-576h-313z" />
    <glyph glyph-name="parenleft" unicode="(" horiz-adv-x="712" 
d="M328 1552h358q-137 -257 -189.5 -428.5t-52.5 -363.5q0 -194 50 -358t192 -437h-358q-146 233 -206.5 413.5t-60.5 381.5q0 198 64.5 389t202.5 403z" />
    <glyph glyph-name="parenright" unicode=")" horiz-adv-x="712" 
d="M385 -35h-358q141 275 191 438.5t50 356.5q0 192 -52 362.5t-189 429.5h358q138 -214 202 -404t64 -388q0 -201 -60 -381t-206 -414z" />
    <glyph glyph-name="asterisk" unicode="*" horiz-adv-x="1050" 
d="M692 1501l-67 -297l14 -8l262 162l96 -301l-315 -33l-2 -14l235 -207l-266 -189l-117 271h-12l-117 -271l-266 189l236 207l-2 14l-316 33l99 301l260 -162l14 8l-66 297h330z" />
    <glyph glyph-name="plus" unicode="+" horiz-adv-x="1202" 
d="M436 573h-307v328h307v307h328v-307h307v-328h-307v-307h-328v307z" />
    <glyph glyph-name="comma" unicode="," horiz-adv-x="669" 
d="M41 -242l188 611h383l-243 -611h-328z" />
    <glyph glyph-name="hyphen" unicode="-" horiz-adv-x="423" 
d="M0 901h424v-328h-424v328z" />
    <glyph glyph-name="period" unicode="." horiz-adv-x="587" 
d="M293 397q89 0 151 -62t62 -153q0 -85 -62.5 -147t-148.5 -62q-89 0 -151 62t-62 151q0 88 61.5 149.5t149.5 61.5z" />
    <glyph glyph-name="slash" unicode="/" horiz-adv-x="890" 
d="M514 1450h369l-506 -1450h-369z" />
    <glyph glyph-name="zero" unicode="0" horiz-adv-x="1202" 
d="M602 1495q255 0 400 -204.5t145 -565.5t-145.5 -565.5t-401.5 -204.5q-257 0 -401 205.5t-144 572.5q0 355 146 558.5t401 203.5zM602 1126q-64 0 -100.5 -105.5t-36.5 -291.5q0 -193 35.5 -299t101.5 -106q63 0 99 106t36 295t-36 295t-99 106z" />
    <glyph glyph-name="one" unicode="1" horiz-adv-x="907" 
d="M342 0v1120h-227l49 330h588v-1450h-410z" />
    <glyph glyph-name="two" unicode="2" horiz-adv-x="1202" 
d="M1153 362l-61 -362h-1106l616 776q62 77 83.5 121.5t21.5 93.5q0 61 -36.5 98t-95.5 37q-64 0 -113.5 -41t-115.5 -149l-317 186q117 200 248 286.5t317 86.5q152 0 272.5 -61t188 -171t67.5 -249q0 -154 -90 -285q-3 -4 -8 -11q-41 -60 -161 -206q-10 -12 -21 -25
l-103 -125h414z" />
    <glyph glyph-name="three" unicode="3" horiz-adv-x="1202" 
d="M27 158l211 305q115 -81 181.5 -110t137.5 -29q77 0 121.5 40.5t44.5 112.5q0 88 -63 122t-236 42v217q153 5 210.5 37t57.5 113q0 59 -40.5 95t-106.5 36q-120 0 -258 -129l-213 260q252 225 534 225q214 0 354 -119t140 -301q0 -93 -38.5 -163.5t-125.5 -137.5
q195 -120 195 -352q0 -207 -153.5 -337t-399.5 -130q-153 0 -277 45.5t-276 157.5z" />
    <glyph glyph-name="four" unicode="4" horiz-adv-x="1202" 
d="M1098 592h104l-26 -322h-76v-270h-395v270h-732l746 1180h379v-858zM571 557h154v260q0 69 14 135l-14 4q-24 -66 -63 -131l-103 -163q-21 -31 -40.5 -51t-61.5 -52l4 -10q95 7 110 8z" />
    <glyph glyph-name="five" unicode="5" horiz-adv-x="1202" 
d="M203 1450h864l-47 -348h-336q-62 0 -139 14v-133q35 4 73 4q223 0 369 -141.5t146 -358.5q0 -155 -75 -276t-209.5 -188.5t-305.5 -67.5q-267 0 -512 162l164 332q167 -125 321 -125q88 0 140.5 49t52.5 131q0 85 -61.5 133.5t-170.5 48.5q-118 0 -274 -45v809z" />
    <glyph glyph-name="six" unicode="6" horiz-adv-x="1202" 
d="M606 1450h473q-154 -141 -250.5 -247t-181.5 -226q232 -20 368 -154.5t136 -343.5q0 -146 -73 -266.5t-201 -189t-283 -68.5q-233 0 -391 157t-158 390q0 211 128 427t433 521zM600 664q-64 0 -107.5 -52t-43.5 -127q0 -78 43.5 -131t107.5 -53q62 0 106 52.5t44 127.5
q0 77 -43.5 130t-106.5 53z" />
    <glyph glyph-name="seven" unicode="7" horiz-adv-x="1202" 
d="M106 1450h1082l-610 -1450h-439l484 1102h-557z" />
    <glyph glyph-name="eight" unicode="8" horiz-adv-x="1202" 
d="M307 770v14q-104 28 -160.5 106.5t-56.5 194.5q0 178 144.5 294t367.5 116q224 0 368 -115.5t144 -294.5q0 -115 -57 -193.5t-162 -107.5v-14q120 -28 186 -121.5t66 -234.5q0 -198 -154.5 -328.5t-390.5 -130.5q-156 0 -281.5 59t-195.5 164t-70 236q0 141 66 234.5
t186 121.5zM600 907q74 29 105.5 64.5t31.5 87.5q0 57 -37 92t-98 35q-60 0 -97.5 -34.5t-37.5 -88.5q0 -55 29.5 -90t103.5 -66zM598 621q-81 -32 -114 -72.5t-33 -106.5q0 -69 41.5 -112t107.5 -43q68 0 110 43t42 112q0 67 -35 107.5t-119 71.5z" />
    <glyph glyph-name="nine" unicode="9" horiz-adv-x="1202" 
d="M596 0h-473q162 150 254.5 251.5t177.5 221.5q-231 20 -367.5 154.5t-136.5 343.5q0 145 73 265.5t200.5 189.5t281.5 69t280.5 -71.5t198.5 -197.5t72 -280q0 -209 -128 -425t-433 -521zM604 1159q-63 0 -106 -52.5t-43 -129.5q0 -75 43.5 -127.5t107.5 -52.5
q62 0 106 52.5t44 127.5q0 76 -44.5 129t-107.5 53z" />
    <glyph glyph-name="colon" unicode=":" horiz-adv-x="628" 
d="M334 1085q89 0 151 -62t62 -153q0 -85 -62.5 -146.5t-148.5 -61.5q-89 0 -151 61.5t-62 150.5q0 88 61.5 149.5t149.5 61.5zM334 397q89 0 151 -62t62 -153q0 -85 -62.5 -147t-148.5 -62q-89 0 -151 62t-62 151q0 88 61.5 149.5t149.5 61.5z" />
    <glyph glyph-name="semicolon" unicode=";" horiz-adv-x="628" 
d="M-45 -242l188 611h383l-243 -611h-328zM334 1085q89 0 151 -62t62 -153q0 -86 -62.5 -147t-150.5 -61t-149.5 61.5t-61.5 150.5q0 88 61.5 149.5t149.5 61.5z" />
    <glyph glyph-name="less" unicode="&#x3c;" horiz-adv-x="1044" 
d="M586 737l327 -319l-233 -234l-551 553l551 553l233 -233z" />
    <glyph glyph-name="equal" unicode="=" horiz-adv-x="1202" 
d="M129 629h942v-328h-942v328zM129 1147h942v-328h-942v328z" />
    <glyph glyph-name="greater" unicode="&#x3e;" horiz-adv-x="1044" 
d="M459 737l-330 320l231 233l553 -553l-553 -553l-231 234z" />
    <glyph glyph-name="question" unicode="?" horiz-adv-x="1046" 
d="M616 545l-352 -53v366q169 38 243.5 87.5t74.5 121.5q0 51 -34.5 79t-96.5 28q-135 0 -261 -48l41 342q115 19 154 23t96 4q235 0 372.5 -106t137.5 -287q0 -287 -368 -416zM444 397q89 0 151 -62t62 -153q0 -86 -62.5 -147.5t-148.5 -61.5q-89 0 -151 62t-62 151
q0 88 61.5 149.5t149.5 61.5z" />
    <glyph glyph-name="at" unicode="@" horiz-adv-x="1513" 
d="M1032 266l113 -233q-105 -40 -172 -54t-154 -14q-210 0 -380 98.5t-266.5 272.5t-96.5 389q0 159 57 300t155 242.5t235.5 160.5t291.5 59q149 0 278 -46t332 -171v-662q0 -131 13 -233l-283 -21l-16 68q-83 -46 -117.5 -58t-89.5 -12q-140 0 -234 105.5t-94 263.5
q0 170 107 278.5t274 108.5q60 0 156 -16v63q-134 70 -287 70q-201 0 -318.5 -132t-117.5 -356t121 -361.5t319 -137.5q77 0 174 28zM1126 588v301q-43 22 -79 22q-74 0 -120 -52.5t-46 -137.5q0 -79 38.5 -125.5t104.5 -46.5q47 0 102 39z" />
    <glyph glyph-name="A" unicode="A" horiz-adv-x="1507" 
d="M1534 0h-453l-71 170h-525l-71 -170h-441l789 1583zM909 473l-98 199q-31 64 -40.5 91t-16.5 79h-17q-8 -69 -55 -170l-98 -199h325z" />
    <glyph glyph-name="B" unicode="B" horiz-adv-x="1304" 
d="M150 0v1450h477q268 0 407.5 -96t139.5 -281q0 -124 -60.5 -196t-185.5 -95v-14q146 -29 216 -112t70 -228q0 -211 -162.5 -319.5t-476.5 -108.5h-425zM537 848h63q86 0 134 39.5t48 111.5q0 65 -47.5 100.5t-134.5 35.5h-63v-287zM535 319h73q100 0 154.5 42t54.5 120
q0 80 -54.5 124t-154.5 44h-73v-330z" />
    <glyph glyph-name="C" unicode="C" horiz-adv-x="1331" 
d="M1276 1378l-47 -424q-104 88 -190.5 126t-180.5 38q-158 0 -256 -108t-98 -283q0 -180 105.5 -288.5t277.5 -108.5q103 0 198.5 42t204.5 134l-49 -445q-183 -106 -412 -106q-212 0 -386.5 101t-274.5 277.5t-100 391.5q0 162 59 305t161 245t245 161t305 59
q220 0 438 -117z" />
    <glyph glyph-name="D" unicode="D" horiz-adv-x="1515" 
d="M150 0v1450h423q407 0 637 -192t230 -533t-230 -533t-637 -192h-423zM573 369h54q177 0 277 94.5t100 261.5t-100 261.5t-277 94.5h-54v-712z" />
    <glyph glyph-name="E" unicode="E" horiz-adv-x="1189" 
d="M150 0v1450h937v-354h-542v-217h467v-301h-467v-224h549v-354h-944z" />
    <glyph glyph-name="F" unicode="F" horiz-adv-x="1163" 
d="M150 0v1450h944v-360h-521v-248h480v-328h-480v-514h-423z" />
    <glyph glyph-name="G" unicode="G" horiz-adv-x="1525" 
d="M1337 1378l-47 -397q-207 145 -391 145q-172 0 -279.5 -111.5t-107.5 -289.5t105.5 -294t267.5 -116q76 0 153 39v185h-229v301h608v-731q-131 -72 -279.5 -113t-281.5 -41q-166 0 -311 58t-248 159.5t-162 244.5t-59 306q0 220 102.5 396.5t285 276t410.5 99.5
q229 0 463 -117z" />
    <glyph glyph-name="H" unicode="H" horiz-adv-x="1570" 
d="M150 0v1450h423v-508h422v508h424v-1450h-424v573h-422v-573h-423z" />
    <glyph glyph-name="I" unicode="I" horiz-adv-x="722" 
d="M150 0v1450h423v-1450h-423z" />
    <glyph glyph-name="J" unicode="J" horiz-adv-x="950" 
d="M68 -16l-41 401q64 -31 106.5 -43t91.5 -12q78 0 114 49t36 156v915h424v-967q0 -252 -134 -390t-378 -138q-86 0 -219 29z" />
    <glyph glyph-name="K" unicode="K" horiz-adv-x="1488" 
d="M150 0v1450h423v-373q0 -37 -6 -172h13q58 117 104 178l279 367h477l-453 -559q-22 -28 -88 -84q27 -31 33 -35q27 -31 41 -45l516 -727h-512l-295 430q-52 81 -102 199h-13q6 -138 6 -207v-422h-423z" />
    <glyph glyph-name="L" unicode="L" horiz-adv-x="1107" 
d="M150 0v1450h423v-1081h521v-369h-944z" />
    <glyph glyph-name="M" unicode="M" horiz-adv-x="1761" 
d="M6 0l397 1583l400 -770q28 -55 69 -174h15q37 114 69 172l400 772l397 -1583h-424l-102 387q-17 70 -29 160h-14q-22 -65 -29 -76q-12 -29 -43 -88l-246 -492l-245 490q-13 27 -27 56.5t-16 33.5q-21 51 -29 76h-14q-5 -60 -8.5 -84.5t-18.5 -81.5l-92 -381h-410z" />
    <glyph glyph-name="N" unicode="N" horiz-adv-x="1570" 
d="M150 0v1583l634 -565q87 -77 121 -111q30 -26 105 -108l14 6q-14 119 -14 242v403h409v-1587l-635 579q-24 23 -69.5 64.5t-50.5 46.5q-37 37 -105 117l-14 -8q14 -129 14 -261v-401h-409z" />
    <glyph glyph-name="O" unicode="O" horiz-adv-x="1693" 
d="M848 1495q162 0 305 -59t245 -161t161 -245t59 -305t-59 -305t-160.5 -245t-245 -161t-305.5 -59q-220 0 -396.5 100t-276 278.5t-99.5 401.5q0 211 102 385.5t279 274.5t391 100zM848 1118q-141 0 -238.5 -112t-97.5 -275q0 -172 95.5 -285.5t240.5 -113.5
q141 0 237.5 113t96.5 280t-96.5 280t-237.5 113z" />
    <glyph glyph-name="P" unicode="P" horiz-adv-x="1222" 
d="M150 0v1450h393q161 0 264 -23.5t186 -80.5q94 -63 147.5 -166.5t53.5 -221.5q0 -220 -165.5 -353.5t-438.5 -133.5h-31v-471h-409zM537 758l63 4q92 4 143.5 56t51.5 140q0 177 -195 177h-63v-377z" />
    <glyph glyph-name="Q" unicode="Q" horiz-adv-x="1693" 
d="M735 10l-6 -18q227 -55 238 -60q22 -6 75 -21.5t82 -23.5q68 -20 120 -26.5t190 -14.5l-93 -329q-150 8 -253 34.5t-326 116.5q-168 66 -256.5 85.5t-243.5 27.5q18 110 35.5 177.5t54.5 162.5l88 -19l4 15q-166 71 -267 244t-101 387q0 157 59 296t161.5 238t246 156
t305.5 57q130 0 248 -36.5t212.5 -104t164.5 -159t107.5 -206.5t37.5 -241q0 -158 -59 -297t-161 -238t-246 -156t-308 -57q-45 0 -109 10zM848 1118q-141 0 -238.5 -112.5t-97.5 -276.5q0 -170 95.5 -283.5t240.5 -113.5q141 0 237.5 113t96.5 280t-96.5 280t-237.5 113z
" />
    <glyph glyph-name="R" unicode="R" horiz-adv-x="1337" 
d="M150 0v1450h421q303 0 460 -114t157 -335q0 -123 -58 -210t-186 -158q42 -49 80 -105l340 -528h-490l-237 422q-32 63 -72 166h-12q6 -127 6 -166v-422h-409zM537 770l67 4q90 4 140.5 55t50.5 136q0 170 -191 170h-67v-365z" />
    <glyph glyph-name="S" unicode="S" horiz-adv-x="1153" 
d="M963 1405v-389q-233 137 -369 137q-54 0 -84.5 -20.5t-30.5 -55.5q0 -48 68 -86l166 -92q122 -65 171 -99.5t91 -82.5q108 -117 108 -293q0 -211 -152.5 -340t-400.5 -129q-164 0 -403 80l-47 436q136 -81 242 -117.5t206 -36.5q60 0 95.5 27t35.5 72q0 40 -26.5 64
t-134.5 77l-133 72q-148 80 -218.5 184.5t-70.5 245.5q0 194 136.5 315t356.5 121q93 0 182 -20.5t212 -69.5z" />
    <glyph glyph-name="T" unicode="T" horiz-adv-x="1206" 
d="M391 0v1081h-405v369h1235v-369h-406v-1081h-424z" />
    <glyph glyph-name="U" unicode="U" horiz-adv-x="1529" 
d="M150 1450h423v-819q0 -154 53 -234t156 -80q97 0 149 79.5t52 228.5v825h395v-825q0 -315 -162.5 -492.5t-451.5 -177.5q-290 0 -452 176.5t-162 491.5v827z" />
    <glyph glyph-name="V" unicode="V" horiz-adv-x="1425" 
d="M-20 1450h460l211 -485q45 -105 70 -240h12q17 104 68 238l209 487h436l-733 -1587z" />
    <glyph glyph-name="W" unicode="W" horiz-adv-x="1843" 
d="M-20 1450h444l180 -446q28 -80 47 -191h13q14 71 23.5 103.5t31.5 87.5l215 552l227 -552q26 -63 53 -191h13q19 111 47 191l170 446h420l-621 -1587l-254 622q-7 17 -12 30t-9 22.5t-8 22t-5.5 17.5t-5.5 21t-5 21t-6.5 29t-7.5 34h-15q-15 -77 -23 -104t-34 -91
l-258 -624z" />
    <glyph glyph-name="X" unicode="X" horiz-adv-x="1488" 
d="M451 0h-465l442 627q51 69 117 125q-81 78 -113 127l-391 571h471l174 -260q24 -36 59 -154h13q20 70 31 98t30 56l178 260h451l-393 -563q-35 -49 -54.5 -70t-56.5 -49q38 -30 60.5 -52.5t48.5 -60.5l448 -655h-483l-195 289q-41 62 -80 176h-14q-49 -123 -84 -172z" />
    <glyph glyph-name="Y" unicode="Y" horiz-adv-x="1402" 
d="M475 0v682l-495 768h466l181 -262q22 -32 37 -64.5t43 -105.5h14q45 118 80 172l178 260h444l-524 -756v-694h-424z" />
    <glyph glyph-name="Z" unicode="Z" horiz-adv-x="1323" 
d="M119 1450h1177l-518 -920q-26 -44 -53.5 -77.5t-87.5 -90.5l8 -8q79 15 133 15h525l-56 -369h-1261l522 926q31 54 55 82t82 79l-6 9q-74 -15 -131 -15h-445z" />
    <glyph glyph-name="bracketleft" unicode="[" horiz-adv-x="589" 
d="M590 -35h-549v1591h549v-286h-191v-1018h191v-287z" />
    <glyph glyph-name="backslash" unicode="\" horiz-adv-x="890" 
d="M377 1450l506 -1450h-369l-506 1450h369z" />
    <glyph glyph-name="bracketright" unicode="]" horiz-adv-x="589" 
d="M0 1556h549v-1591h-549v287h190v1018h-190v286z" />
    <glyph glyph-name="asciicircum" unicode="^" horiz-adv-x="1185" 
d="M594 1016l-322 -330l-231 234l553 550l551 -550l-232 -234z" />
    <glyph glyph-name="underscore" unicode="_" horiz-adv-x="1161" 
d="M-20 -137h1202v-273h-1202v273z" />
    <glyph glyph-name="grave" unicode="`" 
d="M389 1718l600 -219l-94 -264l-602 221z" />
    <glyph glyph-name="a" unicode="a" horiz-adv-x="1357" 
d="M1235 1163v-790q0 -241 20 -373l-364 -33l-12 115h-13q-71 -65 -132.5 -90t-151.5 -25q-146 0 -265.5 76t-187.5 209.5t-68 298.5q0 270 171 441t438 171q106 0 233 -33zM848 340v477q-64 35 -129 35q-117 0 -189.5 -83.5t-72.5 -217.5q0 -126 61.5 -199t165.5 -73
q79 0 164 61z" />
    <glyph glyph-name="b" unicode="b" horiz-adv-x="1370" 
d="M135 -33v1483l387 33v-285q0 -46 -6 -154h12q68 68 126.5 93.5t148.5 25.5q229 0 367.5 -158.5t138.5 -422.5q0 -289 -165 -452t-458 -163q-71 0 -217 21l-86 12zM522 774v-475q66 -20 127 -20q120 0 192 80t72 212q0 117 -60.5 193t-154.5 76q-40 0 -76.5 -14t-99.5 -52
z" />
    <glyph glyph-name="c" unicode="c" horiz-adv-x="1144" 
d="M1063 453l-35 -373q-103 -62 -186.5 -87.5t-182.5 -25.5q-125 0 -236.5 44.5t-190.5 121t-125 184t-46 228.5q0 172 85 314t233 223t328 81q199 0 356 -98l-43 -352q-78 67 -145.5 96t-145.5 29q-125 0 -204 -82t-79 -211q0 -121 74 -193.5t197 -72.5q82 0 157 38
t189 136z" />
    <glyph glyph-name="d" unicode="d" horiz-adv-x="1370" 
d="M879 68h-13q-74 -56 -138 -78.5t-150 -22.5q-108 0 -204 45t-164.5 122.5t-108.5 185.5t-40 231q0 169 76 310t208 221.5t292 80.5q58 0 100.5 -13t104.5 -50h12q-6 102 -6 153v197l387 33v-1110q0 -245 20 -373l-364 -33zM848 340v477q-64 35 -129 35
q-117 0 -189.5 -83.5t-72.5 -217.5q0 -126 61.5 -199t165.5 -73q79 0 164 61z" />
    <glyph glyph-name="e" unicode="e" horiz-adv-x="1286" 
d="M1171 428l-43 -356q-130 -57 -230.5 -81t-207.5 -24q-278 0 -453.5 165.5t-175.5 428.5q0 125 48.5 237t131.5 192t198.5 126.5t244.5 46.5q242 0 392.5 -149.5t150.5 -390.5q0 -2 -4 -68l-795 -137q35 -75 107.5 -117.5t166.5 -42.5q100 0 210 40t259 130zM399 643
l525 80q-41 164 -234 164q-121 0 -198.5 -65t-92.5 -179z" />
    <glyph glyph-name="f" unicode="f" horiz-adv-x="862" 
d="M864 1630l-41 -311q-60 16 -100 16q-57 0 -91 -25.5t-34 -66.5v-113h266v-325h-266v-805h-395v805h-162v325h162v93q0 195 136 305t376 110q39 0 149 -8z" />
    <glyph glyph-name="g" unicode="g" horiz-adv-x="1357" 
d="M872 84h-12q-55 -63 -119.5 -90t-158.5 -27q-146 0 -265.5 76t-187.5 209.5t-68 298.5q0 178 77.5 317.5t217 217t316.5 77.5q104 0 231 -33l332 33v-1126q0 -284 -150 -434t-434 -150q-113 0 -222.5 23.5t-252.5 77.5l-6 321q143 -72 235.5 -100.5t186.5 -28.5
q151 0 215 77t65 261zM848 340v477q-64 35 -129 35q-117 0 -189.5 -83.5t-72.5 -217.5q0 -126 61.5 -199t165.5 -73q79 0 164 61z" />
    <glyph glyph-name="h" unicode="h" horiz-adv-x="1363" 
d="M522 0h-387v1450l387 33v-398q0 -33 -6 -122h12q79 107 166 153.5t209 46.5q175 0 267 -101t92 -296v-766h-385v631q0 176 -146 176q-100 0 -154.5 -69t-54.5 -195v-543z" />
    <glyph glyph-name="i" unicode="i" horiz-adv-x="636" 
d="M516 0h-393v1130l393 33v-1163zM319 1677q90 0 151.5 -61.5t61.5 -151.5q0 -89 -62.5 -152t-150.5 -63t-151.5 63.5t-63.5 151.5q0 91 62 152t153 61z" />
    <glyph glyph-name="j" unicode="j" horiz-adv-x="636" 
d="M516 1163v-1515l-393 -39v1521zM319 1677q89 0 151 -61t62 -150q0 -90 -62.5 -153.5t-150.5 -63.5t-151.5 63.5t-63.5 151.5q0 91 62 152t153 61z" />
    <glyph glyph-name="k" unicode="k" horiz-adv-x="1343" 
d="M510 0h-375v1450l375 33v-600q0 -50 -4 -99l-2 -102h12q36 70 56.5 101.5t72.5 93.5l207 253h405l-346 -399q-18 -20 -80 -78q63 -58 82 -84l443 -569h-428l-312 430q-42 59 -100 176h-12l2 -92q4 -43 4 -86v-428z" />
    <glyph glyph-name="l" unicode="l" horiz-adv-x="663" 
d="M528 0h-393v1450l393 33v-1483z" />
    <glyph glyph-name="m" unicode="m" horiz-adv-x="2074" 
d="M1219 936h14q88 128 172 177.5t211 49.5q181 0 268.5 -105.5t87.5 -322.5v-735h-387v631q0 85 -37 130.5t-106 45.5q-94 0 -147.5 -70t-53.5 -194v-543h-387v631q0 85 -37 130.5t-106 45.5q-94 0 -147.5 -70t-53.5 -194v-543h-387v1130l381 33v-200h12q80 106 165.5 153
t201.5 47q129 0 207 -52.5t129 -174.5z" />
    <glyph glyph-name="n" unicode="n" horiz-adv-x="1351" 
d="M1249 0h-385v631q0 176 -145 176q-100 0 -154.5 -69t-54.5 -195v-543h-387v1130l381 33v-200h12q82 108 168.5 154t208.5 46q173 0 264.5 -102t91.5 -295v-766z" />
    <glyph glyph-name="o" unicode="o" horiz-adv-x="1339" 
d="M670 1163q173 0 314 -78t221.5 -215t80.5 -305q0 -167 -81 -304t-223 -215.5t-314 -78.5q-171 0 -312 78t-221 214.5t-80 303.5q0 126 47 237.5t128.5 191t196 125.5t243.5 46zM670 838q-97 0 -158 -77t-61 -198q0 -129 60.5 -206.5t160.5 -77.5q96 0 156.5 78t60.5 202
q0 123 -61 201t-158 78z" />
    <glyph glyph-name="p" unicode="p" horiz-adv-x="1357" 
d="M510 -358l-387 -31v1147q0 229 -21 372l365 33l12 -100h15q72 55 135.5 77.5t148.5 22.5q145 0 264 -76t186.5 -209.5t67.5 -297.5q0 -169 -75.5 -309.5t-207.5 -222t-290 -81.5q-63 0 -106.5 15.5t-100.5 58.5h-12q6 -105 6 -147v-252zM510 791v-478q63 -32 129 -32
q117 0 189.5 83.5t72.5 215.5q0 126 -61.5 199t-165.5 73q-44 0 -80.5 -13.5t-83.5 -47.5z" />
    <glyph glyph-name="q" unicode="q" horiz-adv-x="1357" 
d="M848 -389v301q0 49 6 154h-12q-55 -55 -114 -77t-150 -22q-108 0 -204 45t-164.5 122.5t-108.5 185.5t-40 231q0 270 171 441t438 171q106 0 233 -33l332 33v-1521zM848 340v477q-64 35 -129 35q-117 0 -189.5 -83.5t-72.5 -217.5q0 -126 61.5 -199t165.5 -73
q79 0 164 61z" />
    <glyph glyph-name="r" unicode="r" horiz-adv-x="944" 
d="M514 0h-391v1130l371 33v-256h14q23 67 44 103t50 61q51 43 123.5 67.5t148.5 24.5h31l-41 -420l-43 2q-158 9 -232.5 -70.5t-74.5 -258.5v-416z" />
    <glyph glyph-name="s" unicode="s" horiz-adv-x="1030" 
d="M139 57l-18 355q146 -92 227 -126t156 -34q52 0 84.5 21t32.5 55q0 29 -24.5 51.5t-78.5 44.5l-94 37q-157 62 -225 140t-68 196q0 163 118.5 267.5t303.5 104.5q147 0 309 -65v-311q-109 55 -175 76.5t-122 21.5q-47 0 -73.5 -20t-26.5 -54q0 -28 18.5 -43.5t79.5 -38.5
l117 -41q160 -60 226.5 -137.5t66.5 -206.5q0 -182 -120.5 -285.5t-332.5 -103.5q-193 0 -381 96z" />
    <glyph glyph-name="t" unicode="t" horiz-adv-x="849" 
d="M864 340l-37 -340q-88 -8 -143 -8q-220 0 -350.5 113t-130.5 303v397h-162v325h162v320l395 33v-353h252v-325h-252v-377q0 -49 41 -76.5t113 -27.5q49 0 112 16z" />
    <glyph glyph-name="u" unicode="u" horiz-adv-x="1351" 
d="M858 -27v201h-14q-82 -110 -171 -158.5t-212 -48.5q-175 0 -267 102t-92 296v765l387 33v-663q0 -176 146 -176q100 0 154.5 69t54.5 195v542l385 33v-1163z" />
    <glyph glyph-name="v" unicode="v" horiz-adv-x="1148" 
d="M590 -137l-604 1267h428l131 -337q29 -79 47 -170h14q11 61 17.5 83.5t31.5 86.5l131 337h377z" />
    <glyph glyph-name="w" unicode="w" horiz-adv-x="1734" 
d="M588 -137l-602 1267h405l154 -354q18 -42 57 -184h12q36 117 68 184l203 434l194 -432q26 -59 64 -186h14q32 134 53 186l154 352h383l-594 -1267l-190 469q-45 109 -78 229h-15q-41 -127 -84 -227z" />
    <glyph glyph-name="x" unicode="x" horiz-adv-x="1247" 
d="M-14 0l342 440q31 40 100 117q-66 77 -100 127l-316 446h453l123 -169q33 -47 57 -140h14q17 55 26.5 74t41.5 66l119 169h393l-313 -411q-41 -55 -105 -119q61 -63 105 -125l334 -475h-457l-123 178q-42 58 -76 160h-14q-39 -101 -82 -160l-123 -178h-399z" />
    <glyph glyph-name="y" unicode="y" horiz-adv-x="1171" 
d="M414 0l-428 1130h420l145 -487q21 -79 28 -113t17 -110h14q12 75 20 109t32 112l151 489h371l-551 -1488l-391 -33z" />
    <glyph glyph-name="z" unicode="z" horiz-adv-x="1130" 
d="M-14 0l417 690q20 34 40 56t63 59l-6 14q-64 -14 -142 -14h-305l70 325h979l-412 -686q-22 -35 -42.5 -57.5t-65.5 -60.5l6 -15q88 15 172 15h325l-45 -326h-1054z" />
    <glyph glyph-name="braceleft" unicode="{" horiz-adv-x="702" 
d="M328 768v-14q89 -10 123 -37.5t34 -87.5v-15l-8 -157q-5 -89 40 -147t118 -58h27v-287h-58q-246 0 -365.5 80t-119.5 246v33l8 127q2 14 2 45q0 90 -23.5 139.5t-101.5 126.5q78 75 101.5 125t23.5 139q0 31 -2 45l-8 127v33q0 166 119 245.5t366 79.5h58v-286h-27
q-73 0 -118 -58t-40 -147l8 -158v-10q0 -63 -31 -88.5t-126 -40.5z" />
    <glyph glyph-name="bar" unicode="|" horiz-adv-x="6955" 
d="M4979 1081h-455v-202h455v-275h-455v-225h455v-379h-928v1450h928v-369zM2236 0h-475v1450h475v-1450zM860 889v561h473v-1559l-768 670v-561h-475v1561zM3144 801l325 649h504l-829 -1559l-830 1559h506zM6840 0h-499l-78 158h-592l-80 -158h-496l873 1569zM6146 397
l-178 371l-180 -371h358z" />
    <glyph glyph-name="braceright" unicode="}" horiz-adv-x="702" 
d="M375 754v14q-89 11 -123.5 38.5t-34.5 88.5v12l8 158q5 89 -39.5 147t-117.5 58h-27v286h57q248 0 367 -79.5t119 -245.5v-33l-9 -127q-2 -14 -2 -45q0 -90 23.5 -139.5t101.5 -124.5q-78 -77 -101.5 -126t-23.5 -138q0 -33 2 -47l9 -127v-31q0 -167 -119 -247.5
t-367 -80.5h-57v287h27q73 0 117.5 58t39.5 147l-8 157v11q0 63 32 89.5t126 39.5z" />
    <glyph glyph-name="asciitilde" unicode="~" horiz-adv-x="1202" 
d="M952 969l135 -260q-92 -83 -161 -114.5t-160 -31.5q-71 0 -129 25l-90 37q-65 24 -111 24q-40 0 -82.5 -20t-107.5 -70l-133 258q91 82 161 114t160 32q68 0 129 -23l90 -37q70 -26 111 -26q42 0 83 20t105 72z" />
    <glyph glyph-name="uni00A0" unicode="&#xa0;" horiz-adv-x="681" 
 />
    <glyph glyph-name="exclamdown" unicode="&#xa1;" horiz-adv-x="765" 
d="M293 1487q89 0 151 -62t62 -151q0 -88 -61.5 -149.5t-149.5 -61.5q-91 0 -152 62t-61 153q0 86 62.5 147.5t148.5 61.5zM127 913l326 56l73 -969l-485 -35z" />
    <glyph glyph-name="cent" unicode="&#xa2;" horiz-adv-x="1255" 
d="M649 1214v179h221v-181q84 -13 139 -33t117 -59l-45 -370q-82 71 -152 101t-153 30q-132 0 -215.5 -86t-83.5 -222q0 -126 77.5 -202t205.5 -76q86 0 166 39.5t200 142.5l-36 -391q-61 -38 -103.5 -57.5t-116.5 -42.5v-185h-221v170q-264 29 -419.5 191.5t-155.5 408.5
q0 172 81.5 317t227.5 234q55 33 110.5 52t155.5 40z" />
    <glyph glyph-name="sterling" unicode="&#xa3;" horiz-adv-x="1202" 
d="M57 -45v373q213 86 219 301h-219v260h179q-43 138 -43 209q0 177 126 287t326 110q147 0 248 -54t217 -194l-262 -200q-3 4 -7 8.5t-6.5 7t-3.5 4.5q-7 7 -19 22.5t-13 16.5q-25 31 -59 49.5t-66 18.5q-43 0 -67.5 -26.5t-24.5 -70.5q0 -33 24 -104q1 -3 6.5 -20.5
t10.5 -34.5l8 -29h297v-260h-273q-6 -151 -61 -256q105 -62 172 -62q46 0 72.5 19.5t72.5 85.5l283 -176q-115 -275 -393 -275q-94 0 -174 29.5t-215 114.5q-82 -66 -166 -102.5t-189 -51.5z" />
    <glyph glyph-name="currency" unicode="&#xa4;" horiz-adv-x="1241" 
d="M242 1073l-154 154l191 192l153 -153q85 43 189 43q103 0 192 -45l154 155l192 -192l-158 -156q43 -82 43 -186q0 -100 -40 -187l159 -159l-192 -191l-158 160q-79 -45 -190 -45q-104 0 -191 43l-158 -158l-190 191l158 157q-43 79 -43 189q0 107 43 188zM625 1071
q-78 0 -133.5 -54.5t-55.5 -131.5q0 -76 55 -130.5t132 -54.5t131.5 54.5t54.5 130.5q0 75 -54.5 130.5t-129.5 55.5z" />
    <glyph glyph-name="yen" unicode="&#xa5;" horiz-adv-x="1447" 
d="M2 1450h467l197 -295q33 -49 75 -166h15q23 73 35.5 104t31.5 62l176 295h447l-342 -477q-17 -24 -36 -39t-62 -39v-16l188 10v-260h-246v-629h-424v629h-245v260l180 -8v14q-76 42 -101 74z" />
    <glyph glyph-name="brokenbar" unicode="&#xa6;" horiz-adv-x="538" 
d="M84 682v768h369v-768h-369zM84 -410v768h369v-768h-369z" />
    <glyph glyph-name="section" unicode="&#xa7;" horiz-adv-x="952" 
d="M23 -195l-19 371q157 -98 240 -132t168 -34q61 0 96 21.5t35 58.5q0 31 -20.5 49t-80.5 43l-213 88q-123 53 -179 127.5t-56 186.5q0 165 147 280q-54 58 -74 108t-20 122q0 173 124.5 283t320.5 110q147 0 323 -70v-327q-115 58 -184 80t-129 22q-49 0 -77 -20.5
t-28 -55.5q0 -29 20 -45t85 -41l121 -45q183 -68 254 -147t71 -215q0 -86 -30.5 -153.5t-96.5 -129.5q88 -85 88 -223q0 -193 -128 -302.5t-353 -109.5q-111 0 -206.5 23.5t-198.5 76.5zM543 672l-181 80q-55 -55 -55 -107q0 -68 94 -108l193 -84q35 26 49 47.5t14 50.5
q0 38 -25.5 65.5t-88.5 55.5z" />
    <glyph glyph-name="dieresis" unicode="&#xa8;" 
d="M377 1610q72 0 122 -50t50 -122t-50.5 -123t-121.5 -51q-72 0 -123 51t-51 123t50.5 122t123.5 50zM991 1610q72 0 122 -50t50 -122t-50.5 -123t-121.5 -51q-72 0 -123 51t-51 123t50.5 122t123.5 50z" />
    <glyph glyph-name="copyright" unicode="&#xa9;" horiz-adv-x="1099" 
d="M723 1305l-18 -160q-47 32 -75.5 43.5t-62.5 11.5q-53 0 -88 -39.5t-35 -99.5q0 -66 39 -108t101 -42q29 0 52 9.5t71 40.5l20 12l-16 -168q-74 -41 -158 -41q-123 0 -206 84t-83 209q0 126 84 209.5t209 83.5q80 0 166 -45zM551 1569q218 0 363 -145t145 -363
q0 -217 -145.5 -362.5t-362.5 -145.5q-221 0 -365.5 145.5t-144.5 368.5q0 213 147 357.5t363 144.5zM547 1411q-149 0 -250.5 -100t-101.5 -246q0 -154 99 -254t253 -100q149 0 249.5 100.5t100.5 249.5t-100.5 249.5t-249.5 100.5z" />
    <glyph glyph-name="ordfeminine" unicode="&#xaa;" horiz-adv-x="1202" 
d="M958 1505v-497q0 -140 13 -236l-244 -20l-16 55q-89 -55 -183 -55q-137 0 -230 106t-93 262q0 169 107 277t276 108q71 0 147 -20zM700 1001v273q-39 16 -73 16q-65 0 -106.5 -47.5t-41.5 -122.5q0 -71 34.5 -112t94.5 -41q45 0 92 34z" />
    <glyph glyph-name="guillemotleft" unicode="&#xab;" horiz-adv-x="1003" 
d="M465 682l244 422l254 -148l-160 -274l160 -274l-254 -148zM41 682l242 422l256 -148l-160 -274l160 -274l-256 -148z" />
    <glyph glyph-name="logicalnot" unicode="&#xac;" horiz-adv-x="1474" 
d="M55 901h1366v-600h-327v272h-1039v328z" />
    <glyph glyph-name="uni00AD" unicode="&#xad;" horiz-adv-x="423" 
d="M0 901h424v-328h-424v328z" />
    <glyph glyph-name="registered" unicode="&#xae;" horiz-adv-x="1099" 
d="M551 1569q218 0 363 -145t145 -363q0 -217 -145 -362.5t-363 -145.5q-221 0 -365.5 146t-144.5 370q0 212 146.5 356t363.5 144zM684 1022l127 -203q51 64 70.5 117.5t19.5 124.5q0 151 -99.5 251.5t-250.5 100.5q-152 0 -252 -99.5t-100 -250.5t99.5 -251.5
t250.5 -100.5q117 0 223 69h-125l-119 213v-213h-170v551h181q235 0 235 -170q0 -46 -21.5 -78.5t-68.5 -60.5zM528 1085h21q28 2 43.5 18t15.5 44q0 51 -59 51h-21v-113z" />
    <glyph glyph-name="macron" unicode="&#xaf;" 
d="M385 1262v264h596v-264h-596z" />
    <glyph glyph-name="degree" unicode="&#xb0;" horiz-adv-x="673" 
d="M340 1495q120 0 206.5 -88t86.5 -211t-87 -210t-210 -87t-210 87.5t-87 211.5t87.5 210.5t213.5 86.5zM334 1305q-44 0 -75.5 -31.5t-31.5 -75.5t30.5 -75t76.5 -31q43 0 73.5 31t30.5 75q0 43 -31 75t-73 32z" />
    <glyph glyph-name="plusminus" unicode="&#xb1;" horiz-adv-x="1202" 
d="M1071 137h-942v279h942v-279zM436 711h-307v327h307v308h328v-308h307v-327h-307v-240h-328v240z" />
    <glyph glyph-name="twosuperior" unicode="&#xb2;" horiz-adv-x="800" 
d="M770 725l-41 -242h-737l411 518q40 51 55 82t15 62q0 40 -24 65t-64 25q-43 0 -75.5 -27t-78.5 -100l-211 125q75 130 164.5 189t212.5 59q154 0 253.5 -91t99.5 -231q0 -83 -30 -139.5t-157 -210.5l-69 -84h276z" />
    <glyph glyph-name="threesuperior" unicode="&#xb3;" horiz-adv-x="800" 
d="M18 590l140 203q78 -54 123 -73.5t92 -19.5q51 0 80.5 27.5t29.5 73.5q0 58 -41.5 81t-158.5 29v144q106 5 143 26t37 76q0 39 -27.5 63.5t-70.5 24.5q-77 0 -175 -88l-141 172q169 152 357 152q142 0 235.5 -79.5t93.5 -201.5q0 -118 -110 -201q131 -81 131 -235
q0 -136 -103 -222.5t-266 -86.5q-101 0 -187.5 31.5t-181.5 103.5z" />
    <glyph glyph-name="acute" unicode="&#xb4;" 
d="M977 1718l94 -262l-600 -221l-96 264z" />
    <glyph glyph-name="mu" unicode="&#xb5;" horiz-adv-x="1372" 
d="M504 -20l-4 -5q10 -82 10 -135v-198l-387 -31v1519l387 33v-663q0 -178 145 -178q100 0 154.5 69.5t54.5 196.5v542l385 33v-1163l-370 -27v201h-15q-150 -203 -317 -203q-16 0 -43 9z" />
    <glyph glyph-name="paragraph" unicode="&#xb6;" horiz-adv-x="1150" 
d="M1034 -375l-272 -14v1485h-98v-1489l-273 -17v1024q-163 26 -256.5 136t-93.5 274q0 109 44.5 199.5t123.5 144.5q71 47 155 64.5t244 17.5h504l-35 -369h-43v-1456z" />
    <glyph glyph-name="periodcentered" unicode="&#xb7;" horiz-adv-x="681" 
d="M340 942q79 0 134.5 -56t55.5 -136q0 -77 -56 -133t-134 -56t-134 56.5t-56 134.5t56 134t134 56z" />
    <glyph glyph-name="cedilla" unicode="&#xb8;" 
d="M608 -43l70 -2q103 -28 159 -91t56 -151q0 -101 -73 -167t-185 -66q-51 0 -92.5 12t-93.5 43l20 199q55 -39 86.5 -52.5t69.5 -13.5t63 18t25 44q0 64 -127 73z" />
    <glyph glyph-name="onesuperior" unicode="&#xb9;" horiz-adv-x="800" 
d="M330 483v748h-152l33 219h391v-967h-272z" />
    <glyph glyph-name="ordmasculine" unicode="&#xba;" horiz-adv-x="1202" 
d="M606 1505q165 0 276 -108t111 -269q0 -160 -111.5 -268t-277.5 -108q-164 0 -274.5 107t-110.5 267q0 163 110.5 271t276.5 108zM606 1282q-55 0 -90 -43.5t-35 -112.5q0 -72 34 -115.5t91 -43.5q54 0 88.5 44t34.5 113t-34.5 113.5t-88.5 44.5z" />
    <glyph glyph-name="guillemotright" unicode="&#xbb;" horiz-adv-x="1003" 
d="M539 682l-242 -422l-256 148l160 274l-160 274l256 148zM963 682l-242 -422l-256 148l160 274l-160 274l256 148z" />
    <glyph glyph-name="onequarter" unicode="&#xbc;" horiz-adv-x="2131" 
d="M330 483v748h-152l33 219h391v-967h-272zM1313 1450h264l-760 -1450h-262zM2071 395h69l-16 -215h-51v-180h-265v180h-487l498 787h252v-572zM1673 371h150v250z" />
    <glyph glyph-name="onehalf" unicode="&#xbd;" horiz-adv-x="2131" 
d="M330 483v748h-152l33 219h391v-967h-272zM1313 1450h264l-760 -1450h-262zM2099 242l-41 -242h-735l410 518q39 49 54 80t15 64q0 40 -24 65t-62 25q-41 0 -73 -24.5t-70 -86.5l-10 -16l-213 125q76 132 164.5 189.5t211.5 57.5q154 0 253.5 -90t99.5 -231
q0 -83 -30 -139.5t-157 -210.5l-67 -84h274z" />
    <glyph glyph-name="threequarters" unicode="&#xbe;" horiz-adv-x="2131" 
d="M18 590l140 203q78 -54 123 -73.5t92 -19.5q51 0 80.5 27.5t29.5 73.5q0 58 -41.5 81t-158.5 29v144q106 5 143 26t37 76q0 39 -27.5 63.5t-70.5 24.5q-77 0 -175 -88l-141 172q169 152 357 152q142 0 235.5 -79.5t93.5 -201.5q0 -118 -110 -201q131 -81 131 -235
q0 -136 -103 -222.5t-266 -86.5q-101 0 -187.5 31.5t-181.5 103.5zM1315 1450h262l-758 -1450h-264zM2071 395h69l-16 -215h-51v-180h-265v180h-487l498 787h252v-572zM1673 371h152v250z" />
    <glyph glyph-name="questiondown" unicode="&#xbf;" horiz-adv-x="1046" 
d="M430 913l352 56v-367q-169 -38 -243 -87.5t-74 -123.5q0 -49 34.5 -76.5t96.5 -27.5q137 0 260 47l-41 -342q-114 -18 -154 -22.5t-96 -4.5q-234 0 -372 106t-138 287q0 284 369 416zM602 1487q89 0 151 -62t62 -151q0 -88 -61.5 -149.5t-149.5 -61.5q-91 0 -152 62
t-61 153q0 86 62.5 147.5t148.5 61.5z" />
    <glyph glyph-name="Agrave" unicode="&#xc0;" horiz-adv-x="1507" 
d="M463 2064l631 -231l-101 -277l-633 230zM1534 0h-453l-71 170h-525l-71 -170h-441l789 1583zM909 473l-98 199q-31 64 -40.5 91t-16.5 79h-17q-8 -69 -55 -170l-98 -199h325z" />
    <glyph glyph-name="Aacute" unicode="&#xc1;" horiz-adv-x="1507" 
d="M1044 2064l101 -278l-631 -230l-100 277zM1534 0h-453l-71 170h-525l-71 -170h-441l789 1583zM909 473l-98 199q-31 64 -40.5 91t-16.5 79h-17q-8 -69 -55 -170l-98 -199h325z" />
    <glyph glyph-name="Acircumflex" unicode="&#xc2;" horiz-adv-x="1507" 
d="M764 2054l420 -244l-148 -254l-272 160l-275 -160l-147 254zM1534 0h-453l-71 170h-525l-71 -170h-441l789 1583zM909 473l-98 199q-31 64 -40.5 91t-16.5 79h-17q-8 -69 -55 -170l-98 -199h325z" />
    <glyph glyph-name="Atilde" unicode="&#xc3;" horiz-adv-x="1507" 
d="M1069 1968l109 -282q-71 -60 -129.5 -83.5t-137.5 -23.5q-59 0 -108 18l-90 31q-61 21 -105 21q-37 0 -70.5 -15t-84.5 -53l-103 287q66 52 122 73t130 21q58 0 111 -16l90 -33q59 -21 102 -21q38 0 74.5 17t89.5 59zM1534 0h-453l-71 170h-525l-71 -170h-441l789 1554z
M909 473l-98 199q-31 64 -40.5 91t-16.5 79h-17q-8 -69 -55 -170l-98 -199h325z" />
    <glyph glyph-name="Adieresis" unicode="&#xc4;" horiz-adv-x="1507" 
d="M432 1925q75 0 127.5 -52.5t52.5 -127.5t-52.5 -128.5t-127.5 -53.5t-128.5 53.5t-53.5 128.5t53 127.5t129 52.5zM1104 1925q75 0 127.5 -52.5t52.5 -127.5t-52.5 -128.5t-127.5 -53.5t-128.5 53.5t-53.5 128.5t53 127.5t129 52.5zM1534 0h-453l-71 170h-525l-71 -170
h-441l789 1583zM909 473l-98 199q-31 64 -40.5 91t-16.5 79h-17q-8 -69 -55 -170l-98 -199h325z" />
    <glyph glyph-name="Aring" unicode="&#xc5;" horiz-adv-x="1525" 
d="M819 1491l723 -1491h-452l-72 170h-524l-72 -170h-440l741 1491q-100 25 -153.5 89.5t-53.5 160.5q0 109 72.5 181.5t181.5 72.5t181.5 -72.5t72.5 -181.5q0 -95 -52.5 -159.5t-152.5 -90.5zM768 1843q-43 0 -72.5 -29.5t-29.5 -70.5q0 -46 29 -75.5t73 -29.5
q43 0 72.5 30t29.5 73t-29.5 72.5t-72.5 29.5zM918 473l-99 199q-31 64 -40.5 91t-16.5 79h-17q-8 -69 -55 -170l-98 -199h326z" />
    <glyph glyph-name="AE" unicode="&#xc6;" horiz-adv-x="1845" 
d="M793 1450h952v-354h-772l110 -217h586v-301h-428l115 -224h395v-354h-670l-71 170h-525l-71 -170h-441l789 1501zM907 473l-96 199q-32 65 -40.5 91.5t-16.5 78.5h-17q-8 -68 -55 -170l-98 -199h323z" />
    <glyph glyph-name="Ccedilla" unicode="&#xc7;" horiz-adv-x="1331" 
d="M752 -207l22 162q-206 19 -367 123.5t-250 273t-89 373.5q0 162 59 305t161 245t245 161t305 59q220 0 438 -117l-47 -424q-104 88 -190.5 126t-180.5 38q-158 0 -256 -108t-98 -283q0 -178 105.5 -286.5t277.5 -108.5q101 0 197.5 41.5t205.5 130.5l-49 -443
q-86 -48 -172.5 -72t-220.5 -36q109 -29 168 -95.5t59 -160.5q0 -106 -77 -175t-195 -69q-52 0 -95.5 13.5t-101.5 46.5l23 206q55 -40 90.5 -54.5t73.5 -14.5q40 0 66 18t26 47q0 66 -133 78z" />
    <glyph glyph-name="Egrave" unicode="&#xc8;" horiz-adv-x="1189" 
d="M362 2064l631 -231l-100 -277l-631 230zM150 0v1450h937v-354h-542v-217h467v-301h-467v-224h549v-354h-944z" />
    <glyph glyph-name="Eacute" unicode="&#xc9;" horiz-adv-x="1189" 
d="M930 2064l102 -278l-633 -230l-100 277zM150 0v1450h937v-354h-542v-217h467v-301h-467v-224h549v-354h-944z" />
    <glyph glyph-name="Ecircumflex" unicode="&#xca;" horiz-adv-x="1189" 
d="M602 2054l422 -244l-147 -254l-275 160l-274 -160l-148 254zM150 0v1450h937v-354h-542v-217h467v-301h-467v-224h549v-354h-944z" />
    <glyph glyph-name="Edieresis" unicode="&#xcb;" horiz-adv-x="1189" 
d="M285 1925q75 0 127.5 -52.5t52.5 -127.5t-53 -128.5t-127 -53.5q-75 0 -129 53.5t-54 128.5t53.5 127.5t129.5 52.5zM958 1925q75 0 128 -52.5t53 -127.5t-53 -128.5t-128 -53.5t-128.5 53.5t-53.5 128.5t53 127.5t129 52.5zM150 0v1450h937v-354h-542v-217h467v-301
h-467v-224h549v-354h-944z" />
    <glyph glyph-name="Igrave" unicode="&#xcc;" horiz-adv-x="722" 
d="M152 0v1450h423v-1450h-423zM250 2042l393 -232l-147 -254l-394 230z" />
    <glyph glyph-name="Iacute" unicode="&#xcd;" horiz-adv-x="722" 
d="M150 0v1450h423v-1450h-423zM475 2042l148 -256l-394 -230l-147 254z" />
    <glyph glyph-name="Icircumflex" unicode="&#xce;" horiz-adv-x="722" 
d="M150 0v1450h423v-1450h-423zM356 2052l383 -217l-147 -254l-236 133l-229 -131l-147 256z" />
    <glyph glyph-name="Idieresis" unicode="&#xcf;" horiz-adv-x="722" 
d="M150 0v1450h423v-1450h-423zM172 1853q61 0 103 -41.5t42 -101.5q0 -61 -42.5 -104t-102.5 -43t-102.5 42.5t-42.5 102.5q0 62 41.5 103.5t103.5 41.5zM551 1853q61 0 103 -41.5t42 -101.5q0 -61 -42.5 -104t-102.5 -43t-102.5 42.5t-42.5 102.5q0 62 42 103.5t103 41.5z
" />
    <glyph glyph-name="Eth" unicode="&#xd0;" horiz-adv-x="1515" 
d="M152 573h-142v328h142v549h423q408 0 637.5 -192.5t229.5 -534.5q0 -338 -230.5 -530.5t-636.5 -192.5h-423v573zM575 586v-217h52q177 0 278 94.5t101 261.5q0 166 -100.5 261t-278.5 95h-52v-194h146v-301h-146z" />
    <glyph glyph-name="Ntilde" unicode="&#xd1;" horiz-adv-x="1570" 
d="M1081 1968l109 -282q-71 -60 -129 -83.5t-137 -23.5q-60 0 -109 18l-90 31q-62 21 -104 21q-37 0 -71 -15t-85 -53l-103 287q66 52 122 73t130 21q58 0 111 -16l90 -33q58 -21 103 -21q38 0 74 17t89 59zM150 0v1583l634 -565q87 -77 121 -111q30 -26 105 -108l14 6
q-14 119 -14 242v403h409v-1587l-635 579q-24 23 -69.5 64.5t-50.5 46.5q-37 37 -105 117l-14 -8q14 -129 14 -261v-401h-409z" />
    <glyph glyph-name="Ograve" unicode="&#xd2;" horiz-adv-x="1693" 
d="M848 1495q162 0 305 -59t245 -161t161 -245t59 -305t-59 -305t-160.5 -245t-245 -161t-305.5 -59q-220 0 -396.5 100t-276 278.5t-99.5 401.5q0 211 102 385.5t279 274.5t391 100zM848 1118q-141 0 -238.5 -112t-97.5 -275q0 -172 95.5 -285.5t240.5 -113.5
q141 0 237.5 113t96.5 280t-96.5 280t-237.5 113zM567 2064l631 -231l-100 -277l-631 230z" />
    <glyph glyph-name="Oacute" unicode="&#xd3;" horiz-adv-x="1693" 
d="M848 1495q162 0 305 -59t245 -161t161 -245t59 -305t-59 -305t-160.5 -245t-245 -161t-305.5 -59q-220 0 -396.5 100t-276 278.5t-99.5 401.5q0 211 102 385.5t279 274.5t391 100zM848 1118q-141 0 -238.5 -112t-97.5 -275q0 -172 95.5 -285.5t240.5 -113.5
q141 0 237.5 113t96.5 280t-96.5 280t-237.5 113zM1159 2064l101 -278l-631 -230l-101 277z" />
    <glyph glyph-name="Ocircumflex" unicode="&#xd4;" horiz-adv-x="1693" 
d="M848 1495q162 0 305 -59t245 -161t161 -245t59 -305t-59 -305t-160.5 -245t-245 -161t-305.5 -59q-220 0 -396.5 100t-276 278.5t-99.5 401.5q0 211 102 385.5t279 274.5t391 100zM848 1118q-141 0 -238.5 -112t-97.5 -275q0 -172 95.5 -285.5t240.5 -113.5
q141 0 237.5 113t96.5 280t-96.5 280t-237.5 113zM854 2054l422 -244l-148 -254l-274 160l-274 -160l-148 254z" />
    <glyph glyph-name="Otilde" unicode="&#xd5;" horiz-adv-x="1693" 
d="M848 1495q162 0 305 -59t245 -161t161 -245t59 -305t-59 -305t-160.5 -245t-245 -161t-305.5 -59q-220 0 -396.5 100t-276 278.5t-99.5 401.5q0 211 102 385.5t279 274.5t391 100zM848 1118q-141 0 -238.5 -112t-97.5 -275q0 -172 95.5 -285.5t240.5 -113.5
q141 0 237.5 113t96.5 280t-96.5 280t-237.5 113zM1145 1968l108 -282q-72 -60 -130 -83.5t-136 -23.5q-59 0 -108 18l-93 31q-58 21 -102 21q-37 0 -71 -15t-85 -53l-102 287q64 52 120.5 73t131.5 21q58 0 108 -16l93 -33q58 -21 100 -21q39 0 74.5 17t91.5 59z" />
    <glyph glyph-name="Odieresis" unicode="&#xd6;" horiz-adv-x="1665" 
d="M834 1495q162 0 305 -59t245 -161t161 -245t59 -305t-59 -305t-160.5 -245t-245 -161t-305.5 -59q-220 0 -397 100t-276.5 278.5t-99.5 401.5q0 158 60 299t163 242t246.5 160t303.5 59zM834 1118q-141 0 -238.5 -112t-97.5 -275q0 -172 95.5 -285.5t240.5 -113.5
q141 0 237 113t96 280t-96 280t-237 113zM487 1925q75 0 128 -52.5t53 -127.5t-53 -128.5t-128 -53.5t-128.5 53.5t-53.5 128.5t53 127.5t129 52.5zM1161 1925q75 0 127.5 -52.5t52.5 -127.5t-53 -128.5t-127 -53.5q-75 0 -128.5 53.5t-53.5 128.5t53 127.5t129 52.5z" />
    <glyph glyph-name="multiply" unicode="&#xd7;" horiz-adv-x="1202" 
d="M371 737l-238 236l232 231l237 -235l236 235l231 -231l-235 -236l235 -237l-231 -232l-236 238l-237 -238l-232 232z" />
    <glyph glyph-name="Oslash" unicode="&#xd8;" horiz-adv-x="1691" 
d="M1352 1505h323l-235 -276q178 -221 178 -504q0 -162 -59 -305t-161 -245t-245 -161t-305 -59q-220 0 -408 108l-100 -118h-326l238 278q-176 209 -176 502q0 162 59 305t161 245t245 161t305 59q216 0 403 -109zM846 1118q-140 0 -237 -112.5t-97 -276.5
q0 -170 95.5 -283.5t240.5 -113.5q141 0 237.5 113t96.5 280t-96.5 280t-239.5 113z" />
    <glyph glyph-name="Ugrave" unicode="&#xd9;" horiz-adv-x="1529" 
d="M150 1450h423v-819q0 -154 53 -234t156 -80q97 0 149 79.5t52 228.5v825h395v-825q0 -315 -162.5 -492.5t-451.5 -177.5q-290 0 -452 176.5t-162 491.5v827zM510 2064l631 -231l-101 -277l-630 230z" />
    <glyph glyph-name="Uacute" unicode="&#xda;" horiz-adv-x="1529" 
d="M150 1450h423v-819q0 -154 53 -234t156 -80q97 0 149 79.5t52 228.5v825h395v-825q0 -315 -162.5 -492.5t-451.5 -177.5q-290 0 -452 176.5t-162 491.5v827zM1051 2064l100 -278l-631 -230l-102 277z" />
    <glyph glyph-name="Ucircumflex" unicode="&#xdb;" horiz-adv-x="1529" 
d="M150 1450h423v-819q0 -154 53 -234t156 -80q97 0 149 79.5t52 228.5v825h395v-825q0 -315 -162.5 -492.5t-451.5 -177.5q-290 0 -452 176.5t-162 491.5v827zM784 2040l422 -242l-147 -256l-275 160l-274 -160l-148 256z" />
    <glyph glyph-name="Udieresis" unicode="&#xdc;" horiz-adv-x="1529" 
d="M150 1450h423v-819q0 -154 53 -234t156 -80q97 0 149 79.5t52 228.5v825h395v-825q0 -315 -162.5 -492.5t-451.5 -177.5q-290 0 -452 176.5t-162 491.5v827zM449 1925q75 0 127.5 -52.5t52.5 -127.5t-52.5 -128.5t-127.5 -53.5t-129 53.5t-54 128.5t53.5 127.5
t129.5 52.5zM1120 1925q75 0 127.5 -52.5t52.5 -127.5t-52.5 -128.5t-127.5 -53.5t-128.5 53.5t-53.5 128.5t53 127.5t129 52.5z" />
    <glyph glyph-name="Yacute" unicode="&#xdd;" horiz-adv-x="1402" 
d="M979 2064l100 -278l-630 -230l-101 277zM475 0v682l-495 768h466l181 -262q22 -32 37 -64.5t43 -105.5h14q45 118 80 172l178 260h444l-524 -756v-694h-424z" />
    <glyph glyph-name="Thorn" unicode="&#xde;" horiz-adv-x="1234" 
d="M150 0v1450h409v-205h33q292 0 454 -133.5t162 -372.5q0 -233 -164.5 -366t-453.5 -133h-31v-240h-409zM535 522l63 2q106 3 160.5 57.5t54.5 157.5q0 98 -54.5 149.5t-160.5 51.5h-63v-418z" />
    <glyph glyph-name="germandbls" unicode="&#xdf;" horiz-adv-x="1388" 
d="M645 715v250q96 3 147.5 42.5t51.5 108.5q0 65 -45 107.5t-115 42.5q-97 0 -135.5 -74t-38.5 -262v-1288l-387 -31v1132q0 204 15 327t50 200q63 140 194.5 215.5t311.5 75.5q217 0 362.5 -116.5t145.5 -289.5q0 -117 -69 -196t-181 -91v-14q158 -25 256.5 -146.5
t98.5 -291.5q0 -192 -127.5 -323.5t-313.5 -131.5q-98 0 -215 43l-30 350q82 -53 145 -53t103 46.5t40 121.5q0 106 -72.5 176t-181.5 70h-10z" />
    <glyph glyph-name="agrave" unicode="&#xe0;" horiz-adv-x="1357" 
d="M438 1718l600 -219l-96 -264l-600 221zM1235 1163v-790q0 -241 20 -373l-364 -33l-12 115h-13q-71 -65 -132.5 -90t-151.5 -25q-146 0 -265.5 76t-187.5 209.5t-68 298.5q0 270 171 441t438 171q106 0 233 -33zM848 340v477q-64 35 -129 35q-117 0 -189.5 -83.5
t-72.5 -217.5q0 -126 61.5 -199t165.5 -73q79 0 164 61z" />
    <glyph glyph-name="aacute" unicode="&#xe1;" horiz-adv-x="1357" 
d="M948 1718l96 -262l-600 -221l-96 264zM1235 1163v-790q0 -241 20 -373l-364 -33l-12 115h-13q-71 -65 -132.5 -90t-151.5 -25q-146 0 -265.5 76t-187.5 209.5t-68 298.5q0 270 171 441t438 171q106 0 233 -33zM848 340v477q-64 35 -129 35q-117 0 -189.5 -83.5
t-72.5 -217.5q0 -126 61.5 -199t165.5 -73q79 0 164 61z" />
    <glyph glyph-name="acircumflex" unicode="&#xe2;" horiz-adv-x="1357" 
d="M678 1710l401 -231l-141 -244l-260 154l-262 -154l-140 244zM1235 1163v-790q0 -241 20 -373l-364 -33l-12 115h-13q-71 -65 -132.5 -90t-151.5 -25q-146 0 -265.5 76t-187.5 209.5t-68 298.5q0 270 171 441t438 171q106 0 233 -33zM848 340v477q-64 35 -129 35
q-117 0 -189.5 -83.5t-72.5 -217.5q0 -126 61.5 -199t165.5 -73q79 0 164 61z" />
    <glyph glyph-name="atilde" unicode="&#xe3;" horiz-adv-x="1357" 
d="M1016 1722l106 -284q-71 -59 -129 -82t-137 -23q-55 0 -108 17l-91 30q-59 21 -104 21q-37 0 -71 -15t-85 -53l-102 287q66 52 122 73t130 21q57 0 110 -16l91 -33q59 -18 102 -18q38 0 75 16.5t91 58.5zM1235 1163v-790q0 -241 20 -373l-364 -33l-12 115h-13
q-71 -65 -132.5 -90t-151.5 -25q-146 0 -265.5 76t-187.5 209.5t-68 298.5q0 270 171 441t438 171q106 0 233 -33zM848 340v477q-64 35 -129 35q-117 0 -189.5 -83.5t-72.5 -217.5q0 -126 61.5 -199t165.5 -73q79 0 164 61z" />
    <glyph glyph-name="adieresis" unicode="&#xe4;" horiz-adv-x="1357" 
d="M424 1610q72 0 122 -50t50 -122t-50.5 -123t-121.5 -51q-72 0 -123 51t-51 123t50.5 122t123.5 50zM1038 1610q72 0 122 -50t50 -122t-50.5 -123t-121.5 -51q-72 0 -123 51t-51 123t50.5 122t123.5 50zM1235 1163v-790q0 -241 20 -373l-364 -33l-12 115h-13
q-71 -65 -132.5 -90t-151.5 -25q-146 0 -265.5 76t-187.5 209.5t-68 298.5q0 270 171 441t438 171q106 0 233 -33zM848 340v477q-64 35 -129 35q-117 0 -189.5 -83.5t-72.5 -217.5q0 -126 61.5 -199t165.5 -73q79 0 164 61z" />
    <glyph glyph-name="aring" unicode="&#xe5;" horiz-adv-x="1357" 
d="M733 1714q107 0 179.5 -72t72.5 -178q0 -107 -72.5 -179.5t-179.5 -72.5q-109 0 -180.5 72t-71.5 182q0 104 73 176t179 72zM731 1561q-41 0 -69.5 -28.5t-28.5 -68.5q0 -43 27.5 -70.5t70.5 -27.5q41 0 69.5 28t28.5 68q0 41 -28.5 70t-69.5 29zM1235 1163v-790
q0 -241 20 -373l-364 -33l-12 115h-13q-71 -65 -132.5 -90t-151.5 -25q-146 0 -265.5 76t-187.5 209.5t-68 298.5q0 270 171 441t438 171q106 0 233 -33zM848 340v477q-64 35 -129 35q-117 0 -189.5 -83.5t-72.5 -217.5q0 -126 61.5 -199t165.5 -73q79 0 164 61z" />
    <glyph glyph-name="ae" unicode="&#xe6;" horiz-adv-x="2064" 
d="M1235 29v-29l-356 -33v115h-15q-69 -65 -130.5 -90t-151.5 -25q-146 0 -265.5 76t-187.5 209.5t-68 298.5q0 270 171 441t438 171q106 0 233 -33l332 33v-39q107 39 221 39q243 0 393 -149t150 -391q0 -6 -0.5 -15t-1.5 -24.5t-2 -28.5l-795 -137q35 -75 108 -117.5
t167 -42.5q100 0 210.5 39.5t260.5 130.5l-43 -356q-243 -105 -416 -105q-110 0 -252 62zM848 340v477q-64 35 -129 35q-117 0 -189.5 -83.5t-72.5 -217.5q0 -126 61.5 -199t165.5 -73q79 0 164 61zM1171 643l527 80q-44 164 -236 164q-120 0 -198 -65t-93 -179z" />
    <glyph glyph-name="ccedilla" unicode="&#xe7;" horiz-adv-x="1144" 
d="M1063 453l-35 -373q-176 -113 -346 -113q103 -22 162 -85.5t59 -155.5q0 -102 -73 -168t-187 -66q-93 0 -184 55l20 199q54 -39 86.5 -53.5t69.5 -14.5q38 0 63 18t25 46q0 65 -127 74l18 151q-155 9 -282 87.5t-199 208t-72 282.5q0 172 85 314t233 223t328 81
q199 0 356 -98l-43 -352q-78 68 -145 96.5t-146 28.5q-125 0 -204 -82t-79 -211q0 -120 74 -193t197 -73q81 0 155.5 37.5t190.5 136.5z" />
    <glyph glyph-name="egrave" unicode="&#xe8;" horiz-adv-x="1286" 
d="M393 1718l600 -219l-96 -264l-600 221zM1171 428l-43 -356q-130 -57 -230.5 -81t-207.5 -24q-278 0 -453.5 165.5t-175.5 428.5q0 125 48.5 237t131.5 192t198.5 126.5t244.5 46.5q242 0 392.5 -149.5t150.5 -390.5q0 -2 -4 -68l-795 -137q35 -75 107.5 -117.5
t166.5 -42.5q100 0 210 40t259 130zM399 643l525 80q-41 164 -234 164q-121 0 -198.5 -65t-92.5 -179z" />
    <glyph glyph-name="eacute" unicode="&#xe9;" horiz-adv-x="1286" 
d="M895 1718l96 -262l-600 -221l-96 264zM1171 428l-43 -356q-130 -57 -230.5 -81t-207.5 -24q-278 0 -453.5 165.5t-175.5 428.5q0 125 48.5 237t131.5 192t198.5 126.5t244.5 46.5q242 0 392.5 -149.5t150.5 -390.5q0 -2 -4 -68l-795 -137q35 -75 107.5 -117.5
t166.5 -42.5q100 0 210 40t259 130zM399 643l525 80q-41 164 -234 164q-121 0 -198.5 -65t-92.5 -179z" />
    <glyph glyph-name="ecircumflex" unicode="&#xea;" horiz-adv-x="1286" 
d="M641 1710l401 -231l-141 -244l-260 154l-262 -154l-139 244zM1171 428l-43 -356q-130 -57 -230.5 -81t-207.5 -24q-278 0 -453.5 165.5t-175.5 428.5q0 125 48.5 237t131.5 192t198.5 126.5t244.5 46.5q242 0 392.5 -149.5t150.5 -390.5q0 -2 -4 -68l-795 -137
q35 -75 107.5 -117.5t166.5 -42.5q100 0 210 40t259 130zM399 643l525 80q-41 164 -234 164q-121 0 -198.5 -65t-92.5 -179z" />
    <glyph glyph-name="edieresis" unicode="&#xeb;" horiz-adv-x="1286" 
d="M365 1610q72 0 122 -50t50 -122t-50.5 -123t-121.5 -51q-72 0 -123.5 51t-51.5 123t51 122t124 50zM979 1610q72 0 122 -50t50 -122t-51 -123t-123 -51q-71 0 -121.5 51t-50.5 123t50.5 122t123.5 50zM1171 428l-43 -356q-130 -57 -230.5 -81t-207.5 -24
q-278 0 -453.5 165.5t-175.5 428.5q0 125 48.5 237t131.5 192t198.5 126.5t244.5 46.5q242 0 392.5 -149.5t150.5 -390.5q0 -2 -4 -68l-795 -137q35 -75 107.5 -117.5t166.5 -42.5q100 0 210 40t259 130zM399 643l525 80q-41 164 -234 164q-121 0 -198.5 -65t-92.5 -179z
" />
    <glyph glyph-name="igrave" unicode="&#xec;" horiz-adv-x="616" 
d="M506 0h-393v1130l393 33v-1163zM184 1698l373 -219l-141 -244l-373 221z" />
    <glyph glyph-name="iacute" unicode="&#xed;" horiz-adv-x="616" 
d="M506 0h-393v1130l393 33v-1163zM467 1698l141 -242l-372 -221l-142 244z" />
    <glyph glyph-name="icircumflex" unicode="&#xee;" horiz-adv-x="616" 
d="M506 0h-393v1130l393 33v-1163zM317 1710l365 -207l-141 -243l-224 129l-219 -127l-141 243z" />
    <glyph glyph-name="idieresis" unicode="&#xef;" horiz-adv-x="552" 
d="M481 0h-393v1130l393 33v-1163zM109 1575q59 0 99 -39.5t40 -97.5q0 -57 -40 -98.5t-97 -41.5t-98.5 41.5t-41.5 98.5t40.5 97t97.5 40zM442 1575q59 0 99.5 -39.5t40.5 -97.5t-40.5 -99t-97.5 -41q-58 0 -98.5 41.5t-40.5 98.5t40 97t97 40z" />
    <glyph glyph-name="eth" unicode="&#xf0;" horiz-adv-x="1353" 
d="M696 1477l109 -119l137 127l209 -221l-152 -136q178 -195 235.5 -304.5t57.5 -254.5q0 -126 -47.5 -238t-129 -191.5t-196.5 -126t-245 -46.5q-173 0 -313 77.5t-220 215t-80 307.5q0 116 43 223t115.5 185.5t173 126.5t209.5 49l2 8q-41 6 -72 30t-147 138
q-22 23 -129 123zM676 840q-97 0 -158 -77.5t-61 -199.5q0 -129 60.5 -206.5t160.5 -77.5q95 0 156 78.5t61 201.5q0 124 -61 202.5t-158 78.5z" />
    <glyph glyph-name="ntilde" unicode="&#xf1;" horiz-adv-x="1351" 
d="M993 1718l107 -284q-70 -60 -129 -83.5t-137 -23.5q-54 0 -109 19l-90 30q-61 21 -105 21q-37 0 -70.5 -15t-84.5 -53l-103 287q66 52 122.5 73t131.5 21q56 0 109 -16l90 -33q68 -21 102 -21q38 0 75 17.5t91 60.5zM1249 0h-385v631q0 176 -145 176q-100 0 -154.5 -69
t-54.5 -195v-543h-387v1130l381 33v-200h12q82 108 168.5 154t208.5 46q173 0 264.5 -102t91.5 -295v-766z" />
    <glyph glyph-name="ograve" unicode="&#xf2;" horiz-adv-x="1339" 
d="M670 1163q173 0 314 -78t221.5 -215t80.5 -305q0 -167 -81 -304t-223 -215.5t-314 -78.5q-171 0 -312 78t-221 214.5t-80 303.5q0 126 47 237.5t128.5 191t196 125.5t243.5 46zM670 838q-97 0 -158 -77t-61 -198q0 -129 60 -206.5t161 -77.5q95 0 156 78.5t61 201.5
q0 122 -61.5 200.5t-157.5 78.5zM369 1718l600 -219l-97 -264l-600 221z" />
    <glyph glyph-name="oacute" unicode="&#xf3;" horiz-adv-x="1339" 
d="M670 1163q172 0 313 -78t221 -215t80 -305q0 -167 -80.5 -304t-222 -215.5t-313.5 -78.5q-171 0 -312 78t-221 214.5t-80 303.5q0 126 47 237.5t128.5 191t196 125.5t243.5 46zM670 838q-97 0 -158 -77t-61 -198q0 -129 59.5 -206.5t159.5 -77.5q96 0 156.5 78t60.5 202
q0 123 -61 201t-156 78zM963 1718l96 -262l-602 -221l-97 264z" />
    <glyph glyph-name="ocircumflex" unicode="&#xf4;" horiz-adv-x="1339" 
d="M670 1163q173 0 314 -78t221.5 -215t80.5 -305q0 -167 -81 -304t-223 -215.5t-314 -78.5q-171 0 -312 78t-221 214.5t-80 303.5q0 126 47 237.5t128.5 191t196 125.5t243.5 46zM670 838q-97 0 -158 -77t-61 -198q0 -129 60 -206.5t161 -77.5q95 0 156 78.5t61 201.5
q0 122 -61.5 200.5t-157.5 78.5zM670 1710l401 -231l-139 -244l-262 154l-260 -154l-142 244z" />
    <glyph glyph-name="otilde" unicode="&#xf5;" horiz-adv-x="1339" 
d="M670 1163q173 0 314 -78t221.5 -215t80.5 -305q0 -167 -81 -304t-223 -215.5t-314 -78.5q-171 0 -312 78t-221 214.5t-80 303.5q0 126 47 237.5t128.5 191t196 125.5t243.5 46zM670 838q-97 0 -158 -77t-61 -198q0 -129 60.5 -206.5t160.5 -77.5q96 0 156.5 78t60.5 202
q0 123 -61 201t-158 78zM967 1720l106 -284q-71 -60 -129 -83.5t-137 -23.5q-54 0 -109 19l-90 30q-59 21 -104 21q-37 0 -71 -15t-85 -53l-102 287q67 53 122.5 73.5t131.5 20.5q55 0 108 -16l90 -33q72 -21 103 -21q38 0 75 17.5t91 60.5z" />
    <glyph glyph-name="odieresis" unicode="&#xf6;" horiz-adv-x="1339" 
d="M371 1610q72 0 122 -50t50 -122t-51 -123t-123 -51q-71 0 -121.5 51t-50.5 123t50.5 122t123.5 50zM983 1610q73 0 123.5 -50t50.5 -122t-51 -123t-123 -51q-71 0 -121.5 51t-50.5 123t50 122t122 50zM670 1163q172 0 313 -78t221 -215t80 -305q0 -167 -80.5 -304
t-222 -215.5t-313.5 -78.5q-171 0 -312 78t-221 214.5t-80 303.5q0 126 47 237.5t128.5 191t196 125.5t243.5 46zM670 838q-97 0 -158 -77t-61 -198q0 -129 59.5 -206.5t159.5 -77.5q96 0 156.5 78t60.5 202q0 123 -61 201t-156 78z" />
    <glyph glyph-name="divide" unicode="&#xf7;" horiz-adv-x="1202" 
d="M129 901h942v-328h-942v328zM604 1389q89 0 151 -62t62 -153q0 -86 -62.5 -147.5t-148.5 -61.5q-89 0 -151 62t-62 151q0 88 61.5 149.5t149.5 61.5zM604 508q89 0 151 -62t62 -153q0 -86 -62.5 -147.5t-148.5 -61.5q-89 0 -151 62t-62 151q0 88 61.5 149.5t149.5 61.5z
" />
    <glyph glyph-name="oslash" unicode="&#xf8;" horiz-adv-x="1351" 
d="M1065 1163h274l-186 -213q137 -170 137 -385q0 -167 -81 -304t-223.5 -215.5t-315.5 -78.5q-94 0 -164.5 18.5t-165.5 69.5l-88 -88h-270l200 223q-121 172 -121 375q0 165 80 302.5t219 216.5t306 79q172 0 317 -90zM676 838q-97 0 -157 -76.5t-60 -198.5
q0 -129 59.5 -205.5t157.5 -76.5q95 0 156 77.5t61 200.5t-61 201t-156 78z" />
    <glyph glyph-name="ugrave" unicode="&#xf9;" horiz-adv-x="1351" 
d="M311 1718l600 -219l-96 -264l-600 221zM858 -27v201h-14q-82 -110 -171 -158.5t-212 -48.5q-175 0 -267 102t-92 296v765l387 33v-663q0 -176 146 -176q100 0 154.5 69t54.5 195v542l385 33v-1163z" />
    <glyph glyph-name="uacute" unicode="&#xfa;" horiz-adv-x="1351" 
d="M1026 1718l96 -262l-600 -221l-96 264zM858 -27v201h-14q-82 -110 -171 -158.5t-212 -48.5q-175 0 -267 102t-92 296v765l387 33v-663q0 -176 146 -176q100 0 154.5 69t54.5 195v542l385 33v-1163z" />
    <glyph glyph-name="ucircumflex" unicode="&#xfb;" horiz-adv-x="1351" 
d="M670 1710l401 -231l-139 -244l-262 154l-260 -154l-142 244zM858 -27v201h-14q-82 -110 -171 -158.5t-212 -48.5q-175 0 -267 102t-92 296v765l387 33v-663q0 -176 146 -176q100 0 154.5 69t54.5 195v542l385 33v-1163z" />
    <glyph glyph-name="udieresis" unicode="&#xfc;" horiz-adv-x="1351" 
d="M365 1610q72 0 122 -50t50 -122t-50.5 -123t-121.5 -51q-72 0 -123.5 51t-51.5 123t51 122t124 50zM979 1610q72 0 122 -50t50 -122t-50.5 -123t-121.5 -51q-72 0 -123 51t-51 123t50.5 122t123.5 50zM858 -27v201h-14q-82 -110 -171 -158.5t-212 -48.5q-175 0 -267 102
t-92 296v765l387 33v-663q0 -176 146 -176q100 0 154.5 69t54.5 195v542l385 33v-1163z" />
    <glyph glyph-name="yacute" unicode="&#xfd;" horiz-adv-x="1171" 
d="M891 1718l96 -262l-600 -221l-96 264zM414 0l-428 1130h420l145 -487q21 -79 28 -113t17 -110h14q12 75 20 109t32 112l151 489h371l-551 -1488l-391 -33z" />
    <glyph glyph-name="thorn" unicode="&#xfe;" horiz-adv-x="1376" 
d="M535 41h-13q6 -102 6 -147v-252l-393 -31v1839l393 33v-285q0 -52 -6 -154h13q69 69 123.5 94t140.5 25q144 0 262.5 -76t186 -209.5t67.5 -297.5q0 -168 -76 -309t-207 -222.5t-287 -81.5q-56 0 -101 16t-109 58zM528 791v-478q63 -32 129 -32q117 0 190 83.5t73 215.5
q0 126 -61.5 199t-166.5 73q-79 0 -164 -61z" />
    <glyph glyph-name="ydieresis" unicode="&#xff;" horiz-adv-x="1171" 
d="M307 1610q72 0 122 -50t50 -122t-50.5 -123t-121.5 -51q-72 0 -123 51t-51 123t50.5 122t123.5 50zM922 1610q72 0 122 -50t50 -122t-50.5 -123t-121.5 -51q-72 0 -123 51t-51 123t50.5 122t123.5 50zM414 0l-428 1130h420l145 -487q21 -79 28 -113t17 -110h14
q12 75 20 109t32 112l151 489h371l-551 -1488l-391 -33z" />
    <glyph glyph-name="Amacron" unicode="&#x100;" horiz-adv-x="1507" 
d="M440 1595v279h627v-279h-627zM1534 0h-453l-71 170h-525l-71 -170h-441l789 1583zM909 473l-98 199q-31 64 -40.5 91t-16.5 79h-17q-8 -69 -55 -170l-98 -199h325z" />
    <glyph glyph-name="amacron" unicode="&#x101;" horiz-adv-x="1357" 
d="M399 1262v264h596v-264h-596zM1235 1163v-790q0 -241 20 -373l-364 -33l-12 115h-13q-71 -65 -132.5 -90t-151.5 -25q-146 0 -265.5 76t-187.5 209.5t-68 298.5q0 270 171 441t438 171q106 0 233 -33zM848 340v477q-64 35 -129 35q-117 0 -189.5 -83.5t-72.5 -217.5
q0 -126 61.5 -199t165.5 -73q79 0 164 61z" />
    <glyph glyph-name="Abreve" unicode="&#x102;" horiz-adv-x="1507" 
d="M1049 1985l133 -238q-118 -86 -217 -124t-203 -38q-106 0 -205 38t-217 124l135 238q154 -113 287 -113q130 0 287 113zM1534 0h-453l-71 170h-525l-71 -170h-441l789 1583zM909 473l-98 199q-31 64 -40.5 91t-16.5 79h-17q-8 -69 -55 -170l-98 -199h325z" />
    <glyph glyph-name="abreve" unicode="&#x103;" horiz-adv-x="1357" 
d="M987 1661l133 -238q-116 -86 -215 -123.5t-205 -37.5t-204 37.5t-215 123.5l133 238q158 -113 286 -113q129 0 287 113zM1235 1163v-790q0 -241 20 -373l-364 -33l-12 115h-13q-71 -65 -132.5 -90t-151.5 -25q-146 0 -265.5 76t-187.5 209.5t-68 298.5q0 270 171 441
t438 171q106 0 233 -33zM848 340v477q-64 35 -129 35q-117 0 -189.5 -83.5t-72.5 -217.5q0 -126 61.5 -199t165.5 -73q79 0 164 61z" />
    <glyph glyph-name="Aogonek" unicode="&#x104;" horiz-adv-x="1507" 
d="M1081 0l-71 170h-525l-71 -170h-441l789 1583l772 -1583q-120 -70 -175.5 -127.5t-55.5 -110.5q0 -37 31 -61.5t77 -24.5q38 0 72 15t92 55l-10 -209q-96 -59 -197 -59q-120 0 -200.5 71.5t-80.5 178.5q0 85 59 161.5t150 110.5h-215zM909 473l-98 199q-31 64 -40.5 91
t-16.5 79h-17q-8 -69 -55 -170l-98 -199h325z" />
    <glyph glyph-name="aogonek" unicode="&#x105;" horiz-adv-x="1357" 
d="M1266 -242l-11 -198q-54 -32 -94.5 -45t-89.5 -13q-117 0 -192.5 68.5t-75.5 173.5q0 118 92 223l-12 115h-13q-69 -63 -133.5 -89t-156.5 -26q-146 0 -264.5 76t-186.5 209.5t-68 298.5q0 270 171 441t438 171q106 0 233 -33l332 33v-790q0 -241 20 -373
q-134 -47 -190.5 -98t-56.5 -125q0 -37 29 -61.5t73 -24.5q35 0 68.5 14.5t87.5 52.5zM848 340v477q-64 35 -129 35q-117 0 -189.5 -83.5t-72.5 -217.5q0 -126 61.5 -199t165.5 -73q79 0 164 61z" />
    <glyph glyph-name="Cacute" unicode="&#x106;" horiz-adv-x="1331" 
d="M1276 1378l-47 -424q-104 88 -190.5 126t-180.5 38q-158 0 -256 -108t-98 -283q0 -180 105.5 -288.5t277.5 -108.5q103 0 198.5 42t204.5 134l-49 -445q-183 -106 -412 -106q-212 0 -386.5 101t-274.5 277.5t-100 391.5q0 162 59 305t161 245t245 161t305 59
q220 0 438 -117zM1065 2064l100 -278l-630 -230l-101 277z" />
    <glyph glyph-name="cacute" unicode="&#x107;" horiz-adv-x="1144" 
d="M1063 453l-35 -373q-103 -62 -186.5 -87.5t-182.5 -25.5q-125 0 -236.5 44.5t-190.5 121t-125 184t-46 228.5q0 172 85 314t233 223t328 81q199 0 356 -98l-43 -352q-78 67 -145.5 96t-145.5 29q-125 0 -204 -82t-79 -211q0 -121 74 -193.5t197 -72.5q82 0 157 38
t189 136zM891 1718l94 -262l-600 -221l-96 264z" />
    <glyph glyph-name="Ccaron" unicode="&#x10c;" horiz-adv-x="1331" 
d="M1276 1378l-47 -424q-104 88 -190.5 126t-180.5 38q-158 0 -256 -108t-98 -283q0 -180 105.5 -288.5t277.5 -108.5q103 0 198.5 42t204.5 134l-49 -445q-183 -106 -412 -106q-212 0 -386.5 101t-274.5 277.5t-100 391.5q0 162 59 305t161 245t245 161t305 59
q220 0 438 -117zM819 1569l-422 243l148 254l274 -159l275 159l147 -254z" />
    <glyph glyph-name="ccaron" unicode="&#x10d;" horiz-adv-x="1144" 
d="M1063 453l-35 -373q-103 -62 -186.5 -87.5t-182.5 -25.5q-125 0 -236.5 44.5t-190.5 121t-125 184t-46 228.5q0 172 85 314t233 223t328 81q199 0 356 -98l-43 -352q-78 67 -145.5 96t-145.5 29q-125 0 -204 -82t-79 -211q0 -121 74 -193.5t197 -72.5q82 0 157 38
t189 136zM662 1223l-402 231l139 242l263 -152l260 152l141 -242z" />
    <glyph glyph-name="Dcaron" unicode="&#x10e;" horiz-adv-x="1515" 
d="M150 0v1450h423q407 0 637 -192t230 -533t-230 -533t-637 -192h-423zM573 369h54q177 0 277 94.5t100 261.5t-100 261.5t-277 94.5h-54v-712zM604 1569l-420 243l148 254l272 -159l275 159l147 -254z" />
    <glyph glyph-name="dcaron" unicode="&#x10f;" horiz-adv-x="1370" 
d="M1290 1059l156 428h313l-200 -428h-269zM879 68h-13q-74 -56 -138 -78.5t-150 -22.5q-108 0 -204 45t-164.5 122.5t-108.5 185.5t-40 231q0 169 76 310t208 221.5t292 80.5q58 0 100.5 -13t104.5 -50h12q-6 102 -6 153v197l387 33v-1110q0 -245 20 -373l-364 -33z
M848 340v477q-64 35 -129 35q-117 0 -189.5 -83.5t-72.5 -217.5q0 -126 61.5 -199t165.5 -73q79 0 164 61z" />
    <glyph glyph-name="Dcroat" unicode="&#x110;" horiz-adv-x="1515" 
d="M152 573h-142v328h142v549h423q408 0 637.5 -192.5t229.5 -534.5q0 -338 -230.5 -530.5t-636.5 -192.5h-423v573zM575 586v-217h52q177 0 278 94.5t101 261.5q0 166 -100.5 261t-278.5 95h-52v-194h146v-301h-146z" />
    <glyph glyph-name="dcroat" unicode="&#x111;" horiz-adv-x="1394" 
d="M1255 0l-364 -33l-12 101h-13q-74 -56 -138 -78.5t-150 -22.5q-145 0 -263.5 76.5t-186 210t-67.5 297.5q0 128 45 241.5t121.5 194.5t183 128.5t226.5 47.5q58 0 100.5 -13t104.5 -50h12q-6 102 -6 153v197l387 33v-142h121v-313h-121v-655q0 -245 20 -373zM848 342v477
q-65 33 -129 33q-117 0 -189.5 -83.5t-72.5 -217.5q0 -125 61 -197.5t166 -72.5q45 0 81.5 13t82.5 48z" />
    <glyph glyph-name="Emacron" unicode="&#x112;" horiz-adv-x="1189" 
d="M150 0v1450h937v-354h-528v-217h453v-301h-453v-224h535v-354h-944zM309 1581v279h627v-279h-627z" />
    <glyph glyph-name="emacron" unicode="&#x113;" horiz-adv-x="1286" 
d="M377 1262v264h596v-264h-596zM1171 428l-43 -356q-130 -57 -230.5 -81t-207.5 -24q-278 0 -453.5 165.5t-175.5 428.5q0 125 48.5 237t131.5 192t198.5 126.5t244.5 46.5q242 0 392.5 -149.5t150.5 -390.5q0 -2 -4 -68l-795 -137q35 -75 107.5 -117.5t166.5 -42.5
q100 0 210 40t259 130zM399 643l525 80q-41 164 -234 164q-121 0 -198.5 -65t-92.5 -179z" />
    <glyph glyph-name="Edotaccent" unicode="&#x116;" horiz-adv-x="1189" 
d="M623 1925q75 0 127.5 -52.5t52.5 -127.5t-53 -128.5t-127 -53.5q-75 0 -129 53.5t-54 128.5t53.5 127.5t129.5 52.5zM150 0v1450h937v-354h-542v-217h467v-301h-467v-224h549v-354h-944z" />
    <glyph glyph-name="edotaccent" unicode="&#x117;" horiz-adv-x="1286" 
d="M659 1610q72 0 122 -50t50 -122t-51 -123t-123 -51q-71 0 -121.5 51t-50.5 123t50.5 122t123.5 50zM1171 428l-43 -356q-130 -57 -230.5 -81t-207.5 -24q-278 0 -453.5 165.5t-175.5 428.5q0 125 48.5 237t131.5 192t198.5 126.5t244.5 46.5q242 0 392.5 -149.5
t150.5 -390.5q0 -2 -4 -68l-795 -137q35 -75 107.5 -117.5t166.5 -42.5q100 0 210 40t259 130zM399 643l525 80q-41 164 -234 164q-121 0 -198.5 -65t-92.5 -179z" />
    <glyph glyph-name="Eogonek" unicode="&#x118;" horiz-adv-x="1189" 
d="M1133 -254l-11 -209q-93 -59 -194 -59q-120 0 -200.5 71.5t-80.5 178.5q0 85 59 161.5t150 110.5h-706v1450h937v-354h-528v-217h453v-301h-453v-224h535v-354q-129 -79 -180.5 -132t-51.5 -104q0 -38 31.5 -63t77.5 -25q38 0 70.5 14t91.5 56z" />
    <glyph glyph-name="eogonek" unicode="&#x119;" horiz-adv-x="1286" 
d="M1223 555l-795 -137q35 -75 107.5 -117.5t166.5 -42.5q100 0 210 40t259 130l-43 -356q-73 -32 -88 -37q-50 -18 -96 -39q-94 -37 -161.5 -101t-67.5 -118q0 -35 29.5 -58.5t72.5 -23.5q36 0 69.5 14t86.5 51l-8 -198q-96 -56 -187 -56q-115 0 -191.5 68t-76.5 170
q0 79 43.5 135t136.5 96l-6 15q-52 -6 -88 -6q-146 0 -269 76.5t-194.5 209.5t-71.5 291q0 125 48.5 237t131.5 192t198.5 126.5t244.5 46.5q242 0 392.5 -149.5t150.5 -390.5q0 -2 -4 -68zM399 643l525 80q-41 164 -234 164q-121 0 -198.5 -65t-92.5 -179z" />
    <glyph glyph-name="Ecaron" unicode="&#x11a;" horiz-adv-x="1189" 
d="M623 1569l-422 243l147 254l275 -159l274 159l147 -254zM150 0v1450h937v-354h-542v-217h467v-301h-467v-224h549v-354h-944z" />
    <glyph glyph-name="ecaron" unicode="&#x11b;" horiz-adv-x="1286" 
d="M657 1223l-401 231l141 242l260 -152l263 152l139 -242zM1171 428l-43 -356q-130 -57 -230.5 -81t-207.5 -24q-278 0 -453.5 165.5t-175.5 428.5q0 125 48.5 237t131.5 192t198.5 126.5t244.5 46.5q242 0 392.5 -149.5t150.5 -390.5q0 -2 -4 -68l-795 -137
q35 -75 107.5 -117.5t166.5 -42.5q100 0 210 40t259 130zM399 643l525 80q-41 164 -234 164q-121 0 -198.5 -65t-92.5 -179z" />
    <glyph glyph-name="Gbreve" unicode="&#x11e;" horiz-adv-x="1525" 
d="M1106 1958l133 -238q-116 -86 -215 -123.5t-205 -37.5t-205 37.5t-217 123.5l135 238q83 -60 150.5 -86.5t136.5 -26.5t136.5 26.5t150.5 86.5zM1337 1378l-47 -397q-207 145 -391 145q-172 0 -279.5 -111.5t-107.5 -289.5t105.5 -294t267.5 -116q76 0 153 39v185h-229
v301h608v-731q-131 -72 -279.5 -113t-281.5 -41q-166 0 -311 58t-248 159.5t-162 244.5t-59 306q0 220 102.5 396.5t285 276t410.5 99.5q229 0 463 -117z" />
    <glyph glyph-name="gbreve" unicode="&#x11f;" horiz-adv-x="1357" 
d="M973 1661l135 -238q-116 -86 -215.5 -123.5t-206.5 -37.5q-106 0 -205 37.5t-215 123.5l133 238q161 -113 287 -113q129 0 287 113zM872 84h-12q-55 -63 -119.5 -90t-158.5 -27q-146 0 -265.5 76t-187.5 209.5t-68 298.5q0 178 77.5 317.5t217 217t316.5 77.5
q104 0 231 -33l332 33v-1126q0 -284 -150 -434t-434 -150q-113 0 -222.5 23.5t-252.5 77.5l-6 321q143 -72 235.5 -100.5t186.5 -28.5q151 0 215 77t65 261zM848 340v477q-64 35 -129 35q-117 0 -189.5 -83.5t-72.5 -217.5q0 -126 61.5 -199t165.5 -73q79 0 164 61z" />
    <glyph glyph-name="Gcommaaccent" unicode="&#x122;" horiz-adv-x="1525" 
d="M520 -553l170 428h344l-219 -428h-295zM1337 1378l-47 -397q-207 145 -391 145q-172 0 -279.5 -111.5t-107.5 -289.5t105.5 -294t267.5 -116q76 0 153 39v185h-229v301h608v-731q-131 -72 -279.5 -113t-281.5 -41q-166 0 -311 58t-248 159.5t-162 244.5t-59 306
q0 220 102.5 396.5t285 276t410.5 99.5q229 0 463 -117z" />
    <glyph glyph-name="gcommaaccent" unicode="&#x123;" horiz-adv-x="1357" 
d="M961 1729l-150 -429h-305l194 429h261zM872 84h-12q-55 -63 -119.5 -90t-158.5 -27q-146 0 -265.5 76t-187.5 209.5t-68 298.5q0 178 77.5 317.5t217 217t316.5 77.5q104 0 231 -33l332 33v-1126q0 -284 -150 -434t-434 -150q-113 0 -222.5 23.5t-252.5 77.5l-6 321
q143 -72 235.5 -100.5t186.5 -28.5q151 0 215 77t65 261zM848 340v477q-64 35 -129 35q-117 0 -189.5 -83.5t-72.5 -217.5q0 -126 61.5 -199t165.5 -73q79 0 164 61z" />
    <glyph glyph-name="Imacron" unicode="&#x12a;" horiz-adv-x="722" 
d="M150 0v1450h423v-1450h-423zM47 1581v279h627v-279h-627z" />
    <glyph glyph-name="imacron" unicode="&#x12b;" horiz-adv-x="638" 
d="M516 0h-393v1130l393 33v-1163zM23 1262v264h595v-264h-595z" />
    <glyph glyph-name="Iogonek" unicode="&#x12e;" horiz-adv-x="722" 
d="M612 -254l-10 -209q-96 -59 -196 -59q-120 0 -200.5 71.5t-80.5 178.5q0 85 59 161.5t150 110.5h-184v1450h423v-1450q-128 -79 -179.5 -132t-51.5 -104q0 -38 31.5 -63t77.5 -25q38 0 70 14t91 56z" />
    <glyph glyph-name="iogonek" unicode="&#x12f;" horiz-adv-x="636" 
d="M514 1163v-1163q-123 -76 -171 -125.5t-48 -99.5q0 -35 29 -58.5t73 -23.5q37 0 68.5 13.5t87.5 51.5l-10 -200q-98 -56 -187 -56q-114 0 -190 68.5t-76 169.5q0 82 54.5 154t140.5 106h-164v1130zM319 1677q91 0 152 -61t61 -152q0 -89 -62.5 -152t-150.5 -63
t-151.5 63.5t-63.5 151.5q0 91 62 152t153 61z" />
    <glyph glyph-name="Idotaccent" unicode="&#x130;" horiz-adv-x="722" 
d="M150 0v1450h423v-1450h-423zM362 1925q75 0 128 -52.5t53 -127.5t-53 -128.5t-128 -53.5t-128.5 53.5t-53.5 128.5t53 127.5t129 52.5z" />
    <glyph glyph-name="dotlessi" unicode="&#x131;" horiz-adv-x="638" 
d="M516 0h-393v1130l393 33v-1163z" />
    <glyph glyph-name="Kcommaaccent" unicode="&#x136;" horiz-adv-x="1488" 
d="M459 -553l170 428h344l-219 -428h-295zM150 0v1450h423v-373q0 -37 -6 -172h13q58 117 104 178l279 367h477l-453 -559q-22 -28 -88 -84q27 -31 33 -35q27 -31 41 -45l516 -727h-512l-295 430q-52 81 -102 199h-13q6 -138 6 -207v-422h-423z" />
    <glyph glyph-name="kcommaaccent" unicode="&#x137;" horiz-adv-x="1343" 
d="M510 0h-375v1450l375 33v-774l342 421h405l-413 -477l512 -653h-428l-418 580v-580zM360 -532l170 428h344l-219 -428h-295z" />
    <glyph glyph-name="Lacute" unicode="&#x139;" horiz-adv-x="1107" 
d="M150 0v1450h423v-1081h521v-369h-944zM788 2064l101 -278l-631 -230l-100 277z" />
    <glyph glyph-name="lacute" unicode="&#x13a;" horiz-adv-x="663" 
d="M528 0h-393v1450l393 33v-1483zM637 2036l100 -277l-631 -231l-100 276z" />
    <glyph glyph-name="Lcommaaccent" unicode="&#x13b;" horiz-adv-x="1107" 
d="M150 0v1450h423v-1081h521v-369h-944zM248 -553l170 428h344l-219 -428h-295z" />
    <glyph glyph-name="lcommaaccent" unicode="&#x13c;" horiz-adv-x="663" 
d="M528 0h-393v1450l393 33v-1483zM18 -532l170 428h344l-219 -428h-295z" />
    <glyph glyph-name="Lcaron" unicode="&#x13d;" horiz-adv-x="1107" 
d="M150 0v1450h423v-1081h521v-369h-944zM627 1022l159 428h324l-207 -428h-276z" />
    <glyph glyph-name="lcaron" unicode="&#x13e;" horiz-adv-x="663" 
d="M528 0h-393v1450l393 33v-1483zM606 1024l154 428h311l-199 -428h-266z" />
    <glyph glyph-name="Lslash" unicode="&#x141;" horiz-adv-x="1107" 
d="M152 485l-142 -49v328l142 49v637h423v-494l240 82v-327l-240 -82v-260h521v-369h-944v485z" />
    <glyph glyph-name="lslash" unicode="&#x142;" horiz-adv-x="675" 
d="M535 612v-612h-394v477l-118 -41v316l118 41v657l394 33v-555l116 39v-314z" />
    <glyph glyph-name="Nacute" unicode="&#x143;" horiz-adv-x="1570" 
d="M1096 2064l100 -278l-631 -230l-102 277zM150 0v1583l634 -565q87 -77 121 -111q30 -26 105 -108l14 6q-14 119 -14 242v403h409v-1587l-635 579q-24 23 -69.5 64.5t-50.5 46.5q-37 37 -105 117l-14 -8q14 -129 14 -261v-401h-409z" />
    <glyph glyph-name="nacute" unicode="&#x144;" horiz-adv-x="1351" 
d="M979 1718l96 -262l-602 -221l-94 264zM1249 0h-385v631q0 176 -145 176q-100 0 -154.5 -69t-54.5 -195v-543h-387v1130l381 33v-200h12q82 108 168.5 154t208.5 46q173 0 264.5 -102t91.5 -295v-766z" />
    <glyph glyph-name="Ncommaaccent" unicode="&#x145;" horiz-adv-x="1570" 
d="M532 -553l170 428h342l-217 -428h-295zM150 0v1583l634 -565q87 -77 121 -111q30 -26 105 -108l14 6q-14 119 -14 242v403h409v-1587l-635 579q-24 23 -69.5 64.5t-50.5 46.5q-37 37 -105 117l-14 -8q14 -129 14 -261v-401h-409z" />
    <glyph glyph-name="ncommaaccent" unicode="&#x146;" horiz-adv-x="1351" 
d="M387 -532l170 428h344l-219 -428h-295zM1249 0h-385v631q0 176 -145 176q-100 0 -154.5 -69t-54.5 -195v-543h-387v1130l381 33v-200h12q82 108 168.5 154t208.5 46q173 0 264.5 -102t91.5 -295v-766z" />
    <glyph glyph-name="Ncaron" unicode="&#x147;" horiz-adv-x="1570" 
d="M793 1569l-422 243l147 254l275 -159l274 159l147 -254zM150 0v1583l634 -565q87 -77 121 -111q30 -26 105 -108l14 6q-14 119 -14 242v403h409v-1587l-635 579q-24 23 -69.5 64.5t-50.5 46.5q-37 37 -105 117l-14 -8q14 -129 14 -261v-401h-409z" />
    <glyph glyph-name="ncaron" unicode="&#x148;" horiz-adv-x="1351" 
d="M686 1223l-401 231l139 242l262 -152l260 152l141 -242zM1249 0h-385v631q0 176 -145 176q-100 0 -154.5 -69t-54.5 -195v-543h-387v1130l381 33v-200h12q82 108 168.5 154t208.5 46q173 0 264.5 -102t91.5 -295v-766z" />
    <glyph glyph-name="Omacron" unicode="&#x14c;" horiz-adv-x="1693" 
d="M848 1495q162 0 305 -59t245 -161t161 -245t59 -305t-59 -305t-160.5 -245t-245 -161t-305.5 -59q-220 0 -396.5 100t-276 278.5t-99.5 401.5q0 211 102 385.5t279 274.5t391 100zM848 1118q-141 0 -238.5 -112t-97.5 -275q0 -172 95.5 -285.5t240.5 -113.5
q141 0 237.5 113t96.5 280t-96.5 280t-237.5 113zM535 1581v279h626v-279h-626z" />
    <glyph glyph-name="omacron" unicode="&#x14d;" horiz-adv-x="1353" 
d="M676 1163q173 0 314 -78t221.5 -215t80.5 -305q0 -167 -81 -304t-223 -215.5t-314 -78.5q-171 0 -312 78t-221 214.5t-80 303.5q0 126 47 237.5t128.5 191t196 125.5t243.5 46zM676 838q-97 0 -158 -77t-61 -198q0 -129 60.5 -206.5t160.5 -77.5q96 0 156.5 78t60.5 202
q0 123 -61 201t-158 78zM379 1262v264h596v-264h-596z" />
    <glyph glyph-name="Ohungarumlaut" unicode="&#x150;" horiz-adv-x="1693" 
d="M848 1495q162 0 305 -59t245 -161t161 -245t59 -305t-59 -305t-160.5 -245t-245 -161t-305.5 -59q-220 0 -396.5 100t-276 278.5t-99.5 401.5q0 211 102 385.5t279 274.5t391 100zM848 1118q-141 0 -238.5 -112t-97.5 -275q0 -172 95.5 -285.5t240.5 -113.5
q141 0 237.5 113t96.5 280t-96.5 280t-237.5 113zM709 2183l227 -190l-371 -445l-225 189zM1266 2183l225 -190l-369 -445l-227 189z" />
    <glyph glyph-name="ohungarumlaut" unicode="&#x151;" horiz-adv-x="1353" 
d="M676 1163q173 0 314 -78t221.5 -215t80.5 -305q0 -167 -81 -304t-223 -215.5t-314 -78.5q-171 0 -312 78t-221 214.5t-80 303.5q0 126 47 237.5t128.5 191t196 125.5t243.5 46zM676 838q-97 0 -158 -77t-61 -198q0 -129 60.5 -206.5t160.5 -77.5q96 0 156.5 78t60.5 202
q0 123 -61 201t-158 78zM532 1839l216 -180l-353 -424l-215 180zM1063 1839l215 -180l-352 -424l-215 180z" />
    <glyph glyph-name="OE" unicode="&#x152;" horiz-adv-x="2160" 
d="M1606 879h379v-301h-379q-16 -114 -74 -224h534v-354h-952q-134 -45 -268 -45q-162 0 -305 59t-245 160.5t-161 245t-59 305.5t59 305t161 245t245 161t305 59q134 0 268 -45h946v-354h-528q52 -109 74 -217zM848 1120q-142 0 -239 -112.5t-97 -276.5q0 -172 95.5 -285.5
t240.5 -113.5q143 0 238.5 113t95.5 282q0 167 -96 280t-238 113z" />
    <glyph glyph-name="oe" unicode="&#x153;" horiz-adv-x="2097" 
d="M1075 150h-14q-70 -100 -157.5 -141.5t-225.5 -41.5q-178 0 -320.5 77.5t-222.5 214t-80 306.5q0 125 47 236.5t128.5 190.5t195.5 125t242 46q145 0 230 -42t177 -160h15q75 106 171 154t234 48q243 0 393 -149t150 -391q0 -35 -4 -68l-795 -137q37 -75 109 -117.5
t165 -42.5q101 0 211 39.5t261 130.5l-43 -356q-133 -58 -233.5 -81.5t-217.5 -23.5q-136 0 -228 40.5t-188 142.5zM670 838q-97 0 -158 -77t-61 -198q0 -129 59.5 -206.5t159.5 -77.5q96 0 156.5 78t60.5 202q0 123 -61 201t-156 78zM1212 643l525 80q-44 164 -236 164
q-120 0 -198 -65t-91 -179z" />
    <glyph glyph-name="Racute" unicode="&#x154;" horiz-adv-x="1337" 
d="M905 2064l101 -278l-631 -230l-103 277zM150 0v1450h421q303 0 460 -114t157 -335q0 -123 -58 -210t-186 -158q42 -49 80 -105l340 -528h-490l-237 422q-32 63 -72 166h-12q6 -127 6 -166v-422h-409zM537 770l67 4q90 4 140.5 55t50.5 136q0 170 -191 170h-67v-365z" />
    <glyph glyph-name="racute" unicode="&#x155;" horiz-adv-x="944" 
d="M784 1718l97 -262l-602 -221l-97 264zM514 0h-391v1130l371 33v-256h14q23 67 44 103t50 61q51 43 123.5 67.5t148.5 24.5h31l-41 -420l-43 2q-158 9 -232.5 -70.5t-74.5 -258.5v-416z" />
    <glyph glyph-name="Rcommaaccent" unicode="&#x156;" horiz-adv-x="1337" 
d="M379 -553l170 428h344l-219 -428h-295zM150 0v1450h421q303 0 460 -114t157 -335q0 -123 -58 -210t-186 -158q42 -49 80 -105l340 -528h-490l-237 422q-32 63 -72 166h-12q6 -127 6 -166v-422h-409zM537 770l67 4q90 4 140.5 55t50.5 136q0 170 -191 170h-67v-365z" />
    <glyph glyph-name="rcommaaccent" unicode="&#x157;" horiz-adv-x="944" 
d="M6 -532l170 428h344l-219 -428h-295zM514 0h-391v1130l371 33v-256h14q23 67 44 103t50 61q49 43 122 67.5t150 24.5h31l-41 -420l-43 2q-158 9 -232.5 -70.5t-74.5 -258.5v-416z" />
    <glyph glyph-name="Rcaron" unicode="&#x158;" horiz-adv-x="1337" 
d="M594 1569l-422 243l147 254l275 -159l274 159l148 -254zM150 0v1450h421q303 0 460 -114t157 -335q0 -123 -58 -210t-186 -158q42 -49 80 -105l340 -528h-490l-237 422q-32 63 -72 166h-12q6 -127 6 -166v-422h-409zM537 770l67 4q90 4 140.5 55t50.5 136q0 170 -191 170
h-67v-365z" />
    <glyph glyph-name="rcaron" unicode="&#x159;" horiz-adv-x="944" 
d="M471 1223l-401 231l141 242l260 -152l260 152l141 -242zM514 0h-391v1130l371 33v-256h14q23 67 44 103t50 61q51 43 123.5 67.5t148.5 24.5h31l-41 -420l-43 2q-158 9 -232.5 -70.5t-74.5 -258.5v-416z" />
    <glyph glyph-name="Sacute" unicode="&#x15a;" horiz-adv-x="1153" 
d="M963 1405v-389q-233 137 -369 137q-54 0 -84.5 -20.5t-30.5 -55.5q0 -48 68 -86l166 -92q122 -65 171 -99.5t91 -82.5q108 -117 108 -293q0 -211 -152.5 -340t-400.5 -129q-164 0 -403 80l-47 436q136 -81 242 -117.5t206 -36.5q60 0 95.5 27t35.5 72q0 40 -26.5 64
t-134.5 77l-133 72q-148 80 -218.5 184.5t-70.5 245.5q0 194 136.5 315t356.5 121q93 0 182 -20.5t212 -69.5zM834 2064l100 -278l-631 -230l-100 277z" />
    <glyph glyph-name="sacute" unicode="&#x15b;" horiz-adv-x="1030" 
d="M139 57l-18 355q146 -92 227 -126t156 -34q52 0 84.5 21t32.5 55q0 29 -24.5 51.5t-78.5 44.5l-94 37q-157 62 -225 140t-68 196q0 163 118.5 267.5t303.5 104.5q147 0 309 -65v-311q-109 55 -175 76.5t-122 21.5q-47 0 -73.5 -20t-26.5 -54q0 -28 18.5 -43.5t79.5 -38.5
l117 -41q160 -60 226.5 -137.5t66.5 -206.5q0 -182 -120.5 -285.5t-332.5 -103.5q-193 0 -381 96zM803 1718l94 -262l-600 -221l-96 264z" />
    <glyph glyph-name="Scedilla" unicode="&#x15e;" horiz-adv-x="1153" 
d="M561 -43l25 -4q110 -29 169.5 -95.5t59.5 -158.5q0 -106 -77.5 -176t-194.5 -70q-94 0 -197 60l23 206q56 -40 90 -54.5t73 -14.5q40 0 66.5 18t26.5 47q0 66 -136 78l25 162q-151 3 -387 80l-47 436q136 -81 242 -117.5t206 -36.5q60 0 95.5 27t35.5 72q0 40 -26.5 64
t-134.5 77l-133 72q-149 79 -219 184t-70 246q0 194 136.5 315t356.5 121q93 0 182 -20.5t212 -69.5v-389q-233 137 -369 137q-54 0 -84.5 -20.5t-30.5 -55.5q0 -48 68 -86l166 -92q126 -69 173.5 -102t88.5 -80q108 -117 108 -293q0 -202 -143 -330t-379 -137z" />
    <glyph glyph-name="scedilla" unicode="&#x15f;" horiz-adv-x="1030" 
d="M475 -39l-6 2l-45 4q-154 19 -285 90l-18 353q146 -92 227 -126t156 -34q52 0 84.5 21t32.5 55q0 30 -24 53t-79 45l-94 37q-157 62 -225 140t-68 196q0 163 118.5 267.5t303.5 104.5q147 0 309 -65v-311q-109 55 -175 76.5t-122 21.5q-47 0 -73.5 -20t-26.5 -54
q0 -28 18.5 -43.5t79.5 -38.5l117 -41q160 -60 226.5 -138t66.5 -206q0 -184 -122.5 -286.5t-342.5 -102.5l35 -6q103 -28 160 -91t57 -151q0 -101 -73 -167t-185 -66q-95 0 -189 55l21 199q54 -38 87 -52t71 -14t63 18t25 44q0 62 -129 71z" />
    <glyph glyph-name="Scaron" unicode="&#x160;" horiz-adv-x="1153" 
d="M963 1405v-389q-233 137 -369 137q-54 0 -84.5 -20.5t-30.5 -55.5q0 -48 68 -86l166 -92q122 -65 171 -99.5t91 -82.5q108 -117 108 -293q0 -211 -152.5 -340t-400.5 -129q-164 0 -403 80l-47 436q136 -81 242 -117.5t206 -36.5q60 0 95.5 27t35.5 72q0 40 -26.5 64
t-134.5 77l-133 72q-148 80 -218.5 184.5t-70.5 245.5q0 194 136.5 315t356.5 121q93 0 182 -20.5t212 -69.5zM565 1569l-422 243l148 254l274 -159l275 159l147 -254z" />
    <glyph glyph-name="scaron" unicode="&#x161;" horiz-adv-x="1030" 
d="M139 57l-18 355q146 -92 227 -126t156 -34q52 0 84.5 21t32.5 55q0 29 -24.5 51.5t-78.5 44.5l-94 37q-157 62 -225 140t-68 196q0 163 118.5 267.5t303.5 104.5q147 0 309 -65v-311q-109 55 -175 76.5t-122 21.5q-47 0 -73.5 -20t-26.5 -54q0 -28 18.5 -43.5t79.5 -38.5
l117 -41q160 -60 226.5 -137.5t66.5 -206.5q0 -182 -120.5 -285.5t-332.5 -103.5q-193 0 -381 96zM532 1235l-401 231l139 244l262 -154l261 154l141 -244z" />
    <glyph glyph-name="Tcommaaccent" unicode="&#x162;" horiz-adv-x="1206" 
d="M391 0v1081h-405v369h1235v-369h-406v-1081h-424zM274 -553l170 428h344l-219 -428h-295z" />
    <glyph glyph-name="tcommaaccent" unicode="&#x163;" horiz-adv-x="849" 
d="M864 340l-37 -340q-88 -8 -143 -8q-220 0 -350.5 113t-130.5 303v397h-162v325h162v320l395 33v-353h252v-325h-252v-377q0 -49 41 -76.5t113 -27.5q49 0 112 16zM176 -532l170 428h344l-219 -428h-295z" />
    <glyph glyph-name="Tcaron" unicode="&#x164;" horiz-adv-x="1206" 
d="M391 0v1081h-405v369h1235v-369h-406v-1081h-424zM602 1569l-420 243l148 254l272 -159l275 159l147 -254z" />
    <glyph glyph-name="tcaron" unicode="&#x165;" horiz-adv-x="849" 
d="M864 340l-37 -340q-88 -8 -143 -8q-220 0 -350.5 113t-130.5 303v397h-162v325h162v320l395 33v-353h252v-325h-252v-377q0 -49 41 -76.5t113 -27.5q49 0 112 16zM727 1268l170 428h344l-219 -428h-295z" />
    <glyph glyph-name="Umacron" unicode="&#x16a;" horiz-adv-x="1529" 
d="M150 1450h423v-819q0 -154 53 -234t156 -80q97 0 149 79.5t52 228.5v825h395v-825q0 -315 -162.5 -492.5t-451.5 -177.5q-290 0 -452 176.5t-162 491.5v827zM463 1581v279h627v-279h-627z" />
    <glyph glyph-name="umacron" unicode="&#x16b;" horiz-adv-x="1351" 
d="M383 1262v264h596v-264h-596zM858 -27v201h-14q-82 -110 -171 -158.5t-212 -48.5q-175 0 -267 102t-92 296v765l387 33v-663q0 -176 146 -176q100 0 154.5 69t54.5 195v542l385 33v-1163z" />
    <glyph glyph-name="Uring" unicode="&#x16e;" horiz-adv-x="1529" 
d="M150 1450h423v-819q0 -154 53 -234t156 -80q97 0 149 79.5t52 228.5v825h395v-825q0 -315 -162.5 -492.5t-451.5 -177.5q-290 0 -452 176.5t-162 491.5v827zM778 1942q107 0 180.5 -72.5t73.5 -179.5t-73.5 -179.5t-180.5 -72.5q-110 0 -183 73t-73 183q0 105 74 176.5
t182 71.5zM776 1782q-40 0 -67 -27t-27 -65q0 -41 26.5 -68t67.5 -27q39 0 65.5 27t26.5 66q0 40 -27 67t-65 27z" />
    <glyph glyph-name="uring" unicode="&#x16f;" horiz-adv-x="1351" 
d="M666 1710q102 0 171.5 -69t69.5 -171q0 -103 -69 -172t-172 -69q-104 0 -173 69t-69 175q0 100 70.5 168.5t171.5 68.5zM664 1556q-37 0 -63 -25.5t-26 -62.5q0 -40 25.5 -65t63.5 -25t63 26t25 64q0 37 -25.5 62.5t-62.5 25.5zM858 -27v201h-14q-82 -110 -171 -158.5
t-212 -48.5q-175 0 -267 102t-92 296v765l387 33v-663q0 -176 146 -176q100 0 154.5 69t54.5 195v542l385 33v-1163z" />
    <glyph glyph-name="Uhungarumlaut" unicode="&#x170;" horiz-adv-x="1529" 
d="M150 1450h423v-819q0 -154 53 -234t156 -80q97 0 149 79.5t52 228.5v825h395v-825q0 -315 -162.5 -492.5t-451.5 -177.5q-290 0 -452 176.5t-162 491.5v827zM637 2183l227 -190l-370 -445l-226 189zM1194 2183l225 -190l-370 -445l-226 189z" />
    <glyph glyph-name="uhungarumlaut" unicode="&#x171;" horiz-adv-x="1351" 
d="M563 1839l215 -180l-352 -424l-215 180zM1094 1839l215 -180l-353 -424l-215 180zM858 -27v201h-14q-82 -110 -171 -158.5t-212 -48.5q-175 0 -267 102t-92 296v765l387 33v-663q0 -176 146 -176q100 0 154.5 69t54.5 195v542l385 33v-1163z" />
    <glyph glyph-name="Uogonek" unicode="&#x172;" horiz-adv-x="1529" 
d="M1102 -231l-10 -209q-55 -33 -98.5 -46.5t-96.5 -13.5q-118 0 -199.5 70.5t-81.5 173.5q0 112 113 213q-275 10 -427 185t-152 481v827h423v-819q0 -154 53 -234t156 -80q97 0 149 79.5t52 228.5v825h395v-825q0 -229 -74 -368t-255 -249q-130 -80 -172.5 -123.5
t-42.5 -97.5q0 -37 31 -62.5t75 -25.5q38 0 72 15t90 55z" />
    <glyph glyph-name="uogonek" unicode="&#x173;" horiz-adv-x="1351" 
d="M858 0v174h-14q-82 -110 -171 -158.5t-212 -48.5q-175 0 -267 102t-92 296v765l387 33v-663q0 -176 146 -176q100 0 154.5 69t54.5 195v542l385 33v-1163q-119 -71 -170 -122.5t-51 -102.5q0 -34 29.5 -57t72.5 -23q39 0 70.5 13t87.5 52l-11 -200q-95 -56 -186 -56
q-115 0 -191.5 68.5t-76.5 171.5q0 73 44 141t122 115h-111z" />
    <glyph glyph-name="Ydieresis" unicode="&#x178;" horiz-adv-x="1402" 
d="M379 1925q75 0 127.5 -52.5t52.5 -127.5t-53 -128.5t-127 -53.5q-75 0 -128.5 53.5t-53.5 128.5t53 127.5t129 52.5zM1053 1925q75 0 127.5 -52.5t52.5 -127.5t-52.5 -128.5t-127.5 -53.5t-129 53.5t-54 128.5t53.5 127.5t129.5 52.5zM475 0v682l-495 768h466l181 -262
q22 -32 37 -64.5t43 -105.5h14q45 118 80 172l178 260h444l-524 -756v-694h-424z" />
    <glyph glyph-name="Zacute" unicode="&#x179;" horiz-adv-x="1323" 
d="M977 2064l100 -278l-631 -230l-100 277zM119 1450h1177l-518 -920q-26 -44 -53.5 -77.5t-87.5 -90.5l8 -8q79 15 133 15h525l-56 -369h-1261l522 926q31 54 55 82t82 79l-6 9q-74 -15 -131 -15h-445z" />
    <glyph glyph-name="zacute" unicode="&#x17a;" horiz-adv-x="1130" 
d="M838 1718l94 -262l-600 -221l-96 264zM-14 0l417 690q20 34 40 56t63 59l-6 14q-64 -14 -142 -14h-305l70 325h979l-412 -686q-22 -35 -42.5 -57.5t-65.5 -60.5l6 -15q88 15 172 15h325l-45 -326h-1054z" />
    <glyph glyph-name="Zdotaccent" unicode="&#x17b;" horiz-adv-x="1323" 
d="M702 1925q75 0 128 -51.5t53 -126.5q0 -76 -53 -130t-128 -54t-128.5 53t-53.5 127q0 77 53 129.5t129 52.5zM119 1450h1177l-518 -920q-26 -44 -53.5 -77.5t-87.5 -90.5l8 -8q79 15 133 15h525l-56 -369h-1261l522 926q31 54 55 82t82 79l-6 9q-74 -15 -131 -15h-445z
" />
    <glyph glyph-name="zdotaccent" unicode="&#x17c;" horiz-adv-x="1130" 
d="M588 1610q72 0 122 -50t50 -122t-51 -123t-123 -51q-71 0 -121.5 51t-50.5 123t50.5 122t123.5 50zM-14 0l417 690q20 34 40 56t63 59l-6 14q-64 -14 -142 -14h-305l70 325h979l-412 -686q-22 -35 -42.5 -57.5t-65.5 -60.5l6 -15q88 15 172 15h325l-45 -326h-1054z" />
    <glyph glyph-name="Zcaron" unicode="&#x17d;" horiz-adv-x="1323" 
d="M700 1569l-419 243l147 254l272 -159l275 159l147 -254zM119 1450h1177l-518 -920q-26 -44 -53.5 -77.5t-87.5 -90.5l8 -8q79 15 133 15h525l-56 -369h-1261l522 926q31 54 55 82t82 79l-6 9q-74 -15 -131 -15h-445z" />
    <glyph glyph-name="zcaron" unicode="&#x17e;" horiz-adv-x="1130" 
d="M596 1235l-401 231l139 244l262 -154l260 154l141 -244zM-14 0l417 690q20 34 40 56t63 59l-6 14q-64 -14 -142 -14h-305l70 325h979l-412 -686q-22 -35 -42.5 -57.5t-65.5 -60.5l6 -15q88 15 172 15h325l-45 -326h-1054z" />
    <glyph glyph-name="uni018F" unicode="&#x18f;" horiz-adv-x="1693" 
d="M1167 555l-6 8q-69 -14 -127 -14h-372q-61 0 -130 14l-6 -8q41 -109 127 -171t195 -62q107 0 193 63t126 170zM358 965l43 426q129 57 229.5 80.5t213.5 23.5q163 0 307 -59t246.5 -160.5t161.5 -245t59 -305.5q0 -163 -59 -306t-160.5 -244.5t-245 -160.5t-305.5 -59
q-161 0 -304 58.5t-245.5 159.5t-162.5 241.5t-60 298.5q0 72 18 180h940q58 0 127 -14l6 8q-84 231 -350 231q-108 0 -205 -32t-254 -121z" />
    <glyph glyph-name="florin" unicode="&#x192;" horiz-adv-x="1032" 
d="M1032 1653l-78 -357q-67 17 -98 17q-139 0 -166 -168l-45 -256h223v-260h-268l-178 -1004l-422 -35l184 1039h-129v260h174l60 336q35 198 197 316t399 118q68 0 147 -6z" />
    <glyph glyph-name="uni01DD" unicode="&#x1dd;" horiz-adv-x="1339" 
d="M854 682l6 8q-59 170 -244 170q-78 0 -155 -22t-246 -93l43 314q237 104 422 104q167 0 306.5 -79t219.5 -216.5t80 -302.5q0 -167 -81 -304t-223 -215.5t-314 -78.5q-173 0 -313 78t-220 216t-80 308q0 45 15 127h657q58 0 127 -14zM860 414l-6 8q-69 -14 -127 -14h-115
q-60 0 -129 14l-6 -8q55 -150 193 -150t190 150z" />
    <glyph glyph-name="uni021A" unicode="&#x21a;" horiz-adv-x="1206" 
d="M391 0v1081h-405v369h1235v-369h-406v-1081h-424zM274 -553l170 428h344l-219 -428h-295z" />
    <glyph glyph-name="uni021B" unicode="&#x21b;" horiz-adv-x="849" 
d="M864 340l-37 -340q-88 -8 -143 -8q-220 0 -350.5 113t-130.5 303v397h-162v325h162v320l395 33v-353h252v-325h-252v-377q0 -49 41 -76.5t113 -27.5q49 0 112 16zM176 -532l170 428h344l-219 -428h-295z" />
    <glyph glyph-name="uni0259" unicode="&#x259;" horiz-adv-x="1339" 
d="M854 682l6 8q-59 170 -244 170q-78 0 -155 -22t-246 -93l43 314q237 104 422 104q167 0 306.5 -79t219.5 -216.5t80 -302.5q0 -167 -81 -304t-223 -215.5t-314 -78.5q-173 0 -313 78t-220 216t-80 308q0 45 15 127h657q58 0 127 -14zM860 414l-6 8q-69 -14 -127 -14h-115
q-60 0 -129 14l-6 -8q55 -150 193 -150t190 150z" />
    <glyph glyph-name="afii57929" unicode="&#x2bc;" horiz-adv-x="649" 
d="M25 874l188 576h354l-241 -576h-301z" />
    <glyph glyph-name="circumflex" unicode="&#x2c6;" 
d="M682 1710l401 -231l-141 -244l-260 154l-260 -154l-141 244z" />
    <glyph glyph-name="caron" unicode="&#x2c7;" 
d="M682 1223l-401 231l141 242l260 -152l260 152l141 -242z" />
    <glyph glyph-name="uni02C9" unicode="&#x2c9;" 
d="M385 1262v264h596v-264h-596z" />
    <glyph glyph-name="breve" unicode="&#x2d8;" 
d="M969 1661l135 -238q-116 -86 -215.5 -123.5t-206.5 -37.5q-105 0 -204.5 38t-215.5 123l133 238q161 -113 287 -113q129 0 287 113z" />
    <glyph glyph-name="dotaccent" unicode="&#x2d9;" 
d="M684 1610q72 0 122 -50t50 -122t-50.5 -123t-121.5 -51q-72 0 -123 51t-51 123t50.5 122t123.5 50z" />
    <glyph glyph-name="ring" unicode="&#x2da;" 
d="M684 1710q103 0 172.5 -69.5t69.5 -170.5q0 -103 -69.5 -172t-172.5 -69q-105 0 -174.5 69.5t-69.5 174.5q0 100 70.5 168.5t173.5 68.5zM680 1556q-37 0 -62.5 -25.5t-25.5 -62.5q0 -39 25.5 -64.5t64.5 -25.5q37 0 62.5 26t25.5 64q0 37 -26 62.5t-64 25.5z" />
    <glyph glyph-name="ogonek" unicode="&#x2db;" 
d="M903 -242l-10 -200q-98 -56 -186 -56q-114 0 -190.5 68.5t-76.5 171.5q0 89 55 148t183 110h186q-120 -74 -169.5 -125t-49.5 -102q0 -34 30 -57t73 -23q37 0 69 13.5t86 51.5z" />
    <glyph glyph-name="tilde" unicode="&#x2dc;" 
d="M987 1655l109 -285q-70 -58 -129.5 -81t-137.5 -23q-55 0 -108 16l-92 31q-56 20 -103 20q-37 0 -70.5 -14t-84.5 -51l-103 286q66 51 122.5 72t129.5 21q56 0 109 -17l92 -31q56 -20 102 -20q38 0 74.5 17t89.5 59z" />
    <glyph glyph-name="hungarumlaut" unicode="&#x2dd;" 
d="M498 1839l215 -180l-353 -424l-215 180zM1028 1839l215 -180l-352 -424l-215 180z" />
    <glyph glyph-name="uni037E" unicode="&#x37e;" horiz-adv-x="628" 
d="M-45 -242l188 611h383l-243 -611h-328zM334 1085q89 0 151 -62t62 -153q0 -86 -62.5 -147t-150.5 -61t-149.5 61.5t-61.5 150.5q0 88 61.5 149.5t149.5 61.5z" />
    <glyph glyph-name="tonos" unicode="&#x384;" horiz-adv-x="866" 
d="M272 1681h322l-29 -419h-266z" />
    <glyph glyph-name="dieresistonos" unicode="&#x385;" 
d="M340 1610q72 0 122 -50t50 -122t-50.5 -123t-121.5 -51q-72 0 -123 51t-51 123t50.5 122t123.5 50zM1026 1610q72 0 122 -50t50 -122t-50.5 -123t-121.5 -51q-72 0 -123 51t-51 123t50.5 122t123.5 50zM520 1681h322l-56 -419h-211z" />
    <glyph glyph-name="Alphatonos" unicode="&#x386;" horiz-adv-x="1533" 
d="M219 1450h307l-28 -420h-252zM1561 0h-453l-72 170h-524l-72 -170h-440l788 1583zM936 473l-98 199q-32 66 -41.5 92.5t-16.5 77.5h-16q-8 -69 -55 -170l-99 -199h326z" />
    <glyph glyph-name="uni0387" unicode="&#x387;" horiz-adv-x="681" 
d="M340 942q79 0 134.5 -56t55.5 -136q0 -77 -56 -133t-134 -56t-134 56.5t-56 134.5t56 134t134 56z" />
    <glyph glyph-name="Epsilontonos" unicode="&#x388;" horiz-adv-x="1341" 
d="M-41 1450h307l-26 -420h-254zM301 0v1450h938v-354h-543v-217h467v-301h-467v-224h549v-354h-944z" />
    <glyph glyph-name="Etatonos" unicode="&#x389;" horiz-adv-x="1720" 
d="M-41 1450h307l-26 -420h-254zM301 0v1450h424v-508h422v508h424v-1450h-424v573h-422v-573h-424z" />
    <glyph glyph-name="Iotatonos" unicode="&#x38a;" horiz-adv-x="874" 
d="M-41 1450h307l-26 -420h-254zM301 0v1450h424v-1450h-424z" />
    <glyph glyph-name="Omicrontonos" unicode="&#x38c;" horiz-adv-x="1826" 
d="M-41 1450h307l-26 -420h-254zM981 1495q162 0 305 -59t245 -161t161 -245t59 -305t-59 -305t-161 -245t-245 -161t-305 -59q-220 0 -396.5 100t-276 278.5t-99.5 401.5q0 158 60 299t162.5 242t245.5 160t304 59zM979 1118q-140 0 -237 -112.5t-97 -276.5
q0 -170 95.5 -283.5t240.5 -113.5q141 0 237.5 113t96.5 280t-96.5 280t-239.5 113z" />
    <glyph glyph-name="Upsilontonos" unicode="&#x38e;" horiz-adv-x="1705" 
d="M-41 1450h307l-26 -420h-254zM778 0v682l-495 768h467l180 -262q22 -32 37 -64.5t43 -105.5h14q45 118 80 172l178 260h444l-524 -756v-694h-424z" />
    <glyph glyph-name="Omegatonos" unicode="&#x38f;" horiz-adv-x="1826" 
d="M-41 1450h307l-26 -420h-254zM1122 0v367q91 50 142 144t51 214q0 167 -96.5 280t-239.5 113q-142 0 -238 -113t-96 -280q0 -118 53.5 -216.5t139.5 -141.5v-367h-629v342l162 -14q-100 138 -131 218.5t-31 201.5q0 153 60.5 291.5t163.5 238.5t246.5 158.5t301.5 58.5
q211 0 388 -99.5t279.5 -271t102.5 -376.5q0 -115 -24.5 -186t-104.5 -185q-31 -43 -35 -49l164 14v-342h-629z" />
    <glyph glyph-name="iotadieresistonos" unicode="&#x390;" horiz-adv-x="868" 
d="M92 1610q72 0 122 -50t50 -122t-50.5 -123t-121.5 -51q-72 0 -123 51t-51 123t50.5 122t123.5 50zM778 1610q72 0 122 -50t50 -122t-50.5 -123t-121.5 -51q-72 0 -123 51t-51 123t50.5 122t123.5 50zM272 1681h322l-55 -419h-211zM635 0h-393v1130l393 33v-1163z" />
    <glyph glyph-name="Alpha" unicode="&#x391;" horiz-adv-x="1507" 
d="M1534 0h-453l-71 170h-525l-71 -170h-441l789 1583zM909 473l-98 199q-31 64 -40.5 91t-16.5 79h-17q-8 -69 -55 -170l-98 -199h325z" />
    <glyph glyph-name="Beta" unicode="&#x392;" horiz-adv-x="1304" 
d="M150 0v1450h477q268 0 407.5 -96t139.5 -281q0 -124 -60.5 -196t-185.5 -95v-14q146 -29 216 -112t70 -228q0 -211 -162.5 -319.5t-476.5 -108.5h-425zM537 848h63q86 0 134 39.5t48 111.5q0 65 -47.5 100.5t-134.5 35.5h-63v-287zM535 319h73q100 0 154.5 42t54.5 120
q0 80 -54.5 124t-154.5 44h-73v-330z" />
    <glyph glyph-name="Gamma" unicode="&#x393;" horiz-adv-x="1116" 
d="M150 0v1450h937v-369h-528v-1081h-409z" />
    <glyph glyph-name="uni0394" unicode="&#x394;" horiz-adv-x="1507" 
d="M1534 0h-1561l789 1585zM492 336l8 -8q77 14 133 14h225q69 -2 133 -14l8 8q-46 58 -65.5 88.5t-48.5 89.5l-74 160q-45 92 -57 170h-17q-8 -66 -55 -170l-76 -160q-29 -60 -48.5 -90.5t-65.5 -87.5z" />
    <glyph glyph-name="Epsilon" unicode="&#x395;" horiz-adv-x="1189" 
d="M150 0v1450h937v-354h-542v-217h467v-301h-467v-224h549v-354h-944z" />
    <glyph glyph-name="Zeta" unicode="&#x396;" horiz-adv-x="1323" 
d="M119 1450h1177l-518 -920q-26 -44 -53.5 -77.5t-87.5 -90.5l8 -8q79 15 133 15h525l-56 -369h-1261l522 926q31 54 55 82t82 79l-6 9q-74 -15 -131 -15h-445z" />
    <glyph glyph-name="Eta" unicode="&#x397;" horiz-adv-x="1570" 
d="M150 0v1450h423v-508h422v508h424v-1450h-424v573h-422v-573h-423z" />
    <glyph glyph-name="Theta" unicode="&#x398;" horiz-adv-x="1693" 
d="M848 1495q162 0 305 -59t245 -161t161 -245t59 -305t-59 -305t-160.5 -245t-245 -161t-305.5 -59q-220 0 -396.5 100t-276 278.5t-99.5 401.5q0 211 102 385.5t279 274.5t391 100zM848 1118q-141 0 -238.5 -112t-97.5 -275q0 -172 95.5 -285.5t240.5 -113.5
q141 0 237.5 113t96.5 280t-96.5 280t-237.5 113zM649 887h395v-314h-395v314z" />
    <glyph glyph-name="Iota" unicode="&#x399;" horiz-adv-x="722" 
d="M150 0v1450h423v-1450h-423z" />
    <glyph glyph-name="Kappa" unicode="&#x39a;" horiz-adv-x="1488" 
d="M150 0v1450h423v-373q0 -37 -6 -172h13q58 117 104 178l279 367h477l-453 -559q-22 -28 -88 -84q27 -31 33 -35q27 -31 41 -45l516 -727h-512l-295 430q-52 81 -102 199h-13q6 -138 6 -207v-422h-423z" />
    <glyph glyph-name="Lambda" unicode="&#x39b;" horiz-adv-x="1507" 
d="M754 801h-17q-8 -60 -53 -170l-270 -631h-441l789 1583l772 -1583h-453l-272 631q-33 77 -40.5 99t-14.5 71z" />
    <glyph glyph-name="Mu" unicode="&#x39c;" horiz-adv-x="1761" 
d="M6 0l397 1583l400 -770q28 -55 69 -174h15q37 114 69 172l400 772l397 -1583h-424l-102 387q-17 70 -29 160h-14q-22 -65 -29 -76q-12 -29 -43 -88l-246 -492l-245 490q-13 27 -27 56.5t-16 33.5q-21 51 -29 76h-14q-5 -60 -8.5 -84.5t-18.5 -81.5l-92 -381h-410z" />
    <glyph glyph-name="Nu" unicode="&#x39d;" horiz-adv-x="1570" 
d="M150 0v1583l634 -565q87 -77 121 -111q30 -26 105 -108l14 6q-14 119 -14 242v403h409v-1587l-635 579q-24 23 -69.5 64.5t-50.5 46.5q-37 37 -105 117l-14 -8q14 -129 14 -261v-401h-409z" />
    <glyph glyph-name="Xi" unicode="&#x39e;" horiz-adv-x="1271" 
d="M96 1450h1075v-369h-1075v369zM233 893h801v-328h-801v328zM96 369h1082v-369h-1082v369z" />
    <glyph glyph-name="Omicron" unicode="&#x39f;" horiz-adv-x="1693" 
d="M848 1495q162 0 305 -59t245 -161t161 -245t59 -305t-59 -305t-160.5 -245t-245 -161t-305.5 -59q-220 0 -396.5 100t-276 278.5t-99.5 401.5q0 211 102 385.5t279 274.5t391 100zM848 1118q-141 0 -238.5 -112t-97.5 -275q0 -172 95.5 -285.5t240.5 -113.5
q141 0 237.5 113t96.5 280t-96.5 280t-237.5 113z" />
    <glyph glyph-name="Pi" unicode="&#x3a0;" horiz-adv-x="1570" 
d="M150 0v1450h1269v-1450h-424v1081h-422v-1081h-423z" />
    <glyph glyph-name="Rho" unicode="&#x3a1;" horiz-adv-x="1222" 
d="M150 0v1450h393q161 0 264 -23.5t186 -80.5q94 -63 147.5 -166.5t53.5 -221.5q0 -220 -165.5 -353.5t-438.5 -133.5h-31v-471h-409zM537 758l63 4q92 4 143.5 56t51.5 140q0 177 -195 177h-63v-377z" />
    <glyph glyph-name="Sigma" unicode="&#x3a3;" horiz-adv-x="1327" 
d="M793 1087l329 -358l-350 -367l8 -8q76 15 133 15h320v-369h-1260l668 729l-668 721h1252v-369h-291q-38 0 -133 15z" />
    <glyph glyph-name="Tau" unicode="&#x3a4;" horiz-adv-x="1206" 
d="M391 0v1081h-405v369h1235v-369h-406v-1081h-424z" />
    <glyph glyph-name="Upsilon" unicode="&#x3a5;" horiz-adv-x="1402" 
d="M475 0v682l-495 768h466l181 -262q22 -32 37 -64.5t43 -105.5h14q45 118 80 172l178 260h444l-524 -756v-694h-424z" />
    <glyph glyph-name="Phi" unicode="&#x3a6;" horiz-adv-x="1787" 
d="M684 1335v115h424v-115q278 -34 453.5 -204t175.5 -406t-175.5 -406t-453.5 -204v-115h-424v115q-276 32 -452.5 203.5t-176.5 406.5q0 236 176 407t453 203zM696 446v558q-101 -37 -158 -110.5t-57 -168.5q0 -93 57.5 -167.5t157.5 -111.5zM1092 1004v-558
q92 25 155.5 105t63.5 174q0 96 -62 175t-157 104z" />
    <glyph glyph-name="Chi" unicode="&#x3a7;" horiz-adv-x="1488" 
d="M451 0h-465l442 627q51 69 117 125q-81 78 -113 127l-391 571h471l174 -260q24 -36 59 -154h13q20 70 31 98t30 56l178 260h451l-393 -563q-35 -49 -54.5 -70t-56.5 -49q38 -30 60.5 -52.5t48.5 -60.5l448 -655h-483l-195 289q-41 62 -80 176h-14q-49 -123 -84 -172z" />
    <glyph glyph-name="Psi" unicode="&#x3a8;" horiz-adv-x="1968" 
d="M1421 1450h424v-539q0 -299 -172 -489t-477 -227v-195h-424v195q-307 38 -478 227t-171 489v539h424v-535q0 -166 49.5 -247.5t185.5 -141.5l6 2q-16 93 -16 154v768h424v-768q0 -61 -16 -154l6 -2q135 58 185 141.5t50 247.5v535z" />
    <glyph glyph-name="uni03A9" unicode="&#x3a9;" horiz-adv-x="1693" 
d="M989 0v367q91 50 142 144t51 214q0 167 -96.5 280t-237.5 113q-143 0 -239.5 -113t-96.5 -280q0 -119 53 -217t140 -141v-367h-629v342l162 -14q-1 2 -6.5 9.5t-18 25t-25.5 36.5q-63 91 -87.5 167t-24.5 182q0 153 60.5 291.5t163.5 238.5t246.5 158.5t301.5 58.5
q211 0 388 -99.5t279.5 -271t102.5 -376.5q0 -120 -31.5 -201t-132.5 -219l164 14v-342h-629z" />
    <glyph glyph-name="Iotadieresis" unicode="&#x3aa;" horiz-adv-x="722" 
d="M150 0v1450h423v-1450h-423zM186 1827q61 0 103.5 -42t42.5 -102q0 -61 -43 -104t-103 -43t-102.5 42.5t-42.5 102.5q0 62 42 104t103 42zM539 1827q61 0 103 -42t42 -102q0 -61 -42.5 -104t-102.5 -43t-103 42.5t-43 102.5q0 61 42.5 103.5t103.5 42.5z" />
    <glyph glyph-name="Upsilondieresis" unicode="&#x3ab;" horiz-adv-x="1402" 
d="M381 1898q75 0 127.5 -52t52.5 -128q0 -75 -52.5 -128.5t-127.5 -53.5t-128.5 53t-53.5 127q0 76 52.5 129t129.5 53zM1055 1898q75 0 127.5 -52.5t52.5 -127.5t-53 -128.5t-127 -53.5q-75 0 -129 53.5t-54 128.5t53.5 127.5t129.5 52.5zM475 0v682l-495 768h466
l181 -262q22 -32 37 -64.5t43 -105.5h14q45 118 80 172l178 260h444l-524 -756v-694h-424z" />
    <glyph glyph-name="alphatonos" unicode="&#x3ac;" horiz-adv-x="1347" 
d="M438 1681h320l-27 -419h-266zM795 571q-32 157 -72.5 219t-110.5 62q-75 0 -118 -76.5t-43 -208.5q0 -133 43 -209.5t118 -76.5q71 0 112.5 65.5t70.5 224.5zM936 0l-10 96h-15q-57 -67 -130.5 -98t-176.5 -31q-250 0 -399.5 163t-149.5 435q0 274 149.5 436t401.5 162
q106 0 178 -30t129 -99h17l8 96h383l-150 -559l150 -571h-385z" />
    <glyph glyph-name="epsilontonos" unicode="&#x3ad;" horiz-adv-x="1056" 
d="M395 1681h322l-29 -419h-266zM862 379l195 -254q-121 -82 -237.5 -120t-250.5 -38q-220 0 -360.5 102.5t-140.5 262.5q0 102 59 180t145 88v14q-75 9 -126.5 75.5t-51.5 152.5q0 141 126 231t323 90q129 0 237.5 -39.5t231.5 -130.5l-195 -207q-65 50 -112 68t-109 18
q-125 0 -125 -81q0 -49 49.5 -68.5t184.5 -24.5v-223q-139 -5 -200 -30t-61 -80q0 -43 40.5 -68t111.5 -25q63 0 112.5 20t153.5 87z" />
    <glyph glyph-name="etatonos" unicode="&#x3ae;" horiz-adv-x="1351" 
d="M573 1681h322l-29 -419h-266zM1249 -358l-385 -31v1020q0 176 -145 176q-100 0 -154.5 -69t-54.5 -195v-543h-387v1130l381 33v-200h12q82 108 168.5 154t208.5 46q173 0 264.5 -102t91.5 -295v-1124z" />
    <glyph glyph-name="iotatonos" unicode="&#x3af;" horiz-adv-x="638" 
d="M158 1681h321l-26 -419h-267zM516 0h-393v1130l393 33v-1163z" />
    <glyph glyph-name="upsilondieresistonos" unicode="&#x3b0;" horiz-adv-x="1331" 
d="M322 1610q72 0 122 -50t50 -122t-50.5 -123t-121.5 -51q-72 0 -123.5 51t-51.5 123t51 122t124 50zM1006 1610q73 0 123.5 -50t50.5 -122t-51 -123t-123 -51q-71 0 -121.5 51t-50.5 123t50 122t122 50zM502 1681h321l-55 -419h-211zM102 1130l390 33v-600q0 -160 38 -222
t136 -62t136 61.5t38 222.5v567l389 33v-581q0 -292 -148 -453.5t-415 -161.5t-415.5 161.5t-148.5 453.5v548z" />
    <glyph glyph-name="alpha" unicode="&#x3b1;" horiz-adv-x="1347" 
d="M795 571q-32 157 -72.5 219t-110.5 62q-75 0 -118 -76.5t-43 -208.5q0 -133 43 -209.5t118 -76.5q71 0 112.5 65.5t70.5 224.5zM936 0l-10 96h-15q-57 -67 -130.5 -98t-176.5 -31q-250 0 -399.5 163t-149.5 435q0 274 149.5 436t401.5 162q106 0 178 -30t129 -99h17l8 96
h383l-150 -559l150 -571h-385z" />
    <glyph glyph-name="beta" unicode="&#x3b2;" horiz-adv-x="1361" 
d="M123 -389v1055q0 279 25.5 404t101.5 220q152 193 444 193q220 0 363 -116t143 -294q0 -118 -62 -192t-171 -86v-13q161 -26 250.5 -130t89.5 -265q0 -198 -126 -309t-350 -111q-171 0 -321 82v-407zM510 383l10 -8l15 -13q92 -83 200 -83q79 0 126.5 45t47.5 120
q0 85 -65 129.5t-189 44.5h-10v269q100 5 147.5 38t47.5 99q0 58 -42.5 95.5t-107.5 37.5q-97 0 -138.5 -71.5t-41.5 -235.5v-467z" />
    <glyph glyph-name="gamma" unicode="&#x3b3;" horiz-adv-x="1286" 
d="M414 1130l200 -595q28 -85 50 -185h12q18 94 49 185l199 595h376l-448 -1130v-358l-389 -33v391l-477 1130h428z" />
    <glyph glyph-name="delta" unicode="&#x3b4;" horiz-adv-x="1339" 
d="M836 1145l-2 -21q193 -22 322.5 -182t129.5 -377q0 -167 -81 -304t-223 -215.5t-314 -78.5q-173 0 -313 77.5t-220 215t-80 307.5q0 203 124.5 365t316.5 209l-287 309h960v-326h-116q-83 0 -217 21zM670 838q-97 0 -158 -77t-61 -198q0 -129 60.5 -206.5t160.5 -77.5
q96 0 156.5 78t60.5 202q0 123 -61 201t-158 78z" />
    <glyph glyph-name="epsilon" unicode="&#x3b5;" horiz-adv-x="1056" 
d="M862 379l195 -254q-121 -82 -237.5 -120t-250.5 -38q-220 0 -360.5 102.5t-140.5 262.5q0 102 59 180t145 88v14q-75 9 -126.5 75.5t-51.5 152.5q0 141 126 231t323 90q129 0 237.5 -39.5t231.5 -130.5l-195 -207q-65 50 -112 68t-109 18q-125 0 -125 -81
q0 -49 49.5 -68.5t184.5 -24.5v-223q-139 -5 -200 -30t-61 -80q0 -43 40.5 -68t111.5 -25q63 0 112.5 20t153.5 87z" />
    <glyph glyph-name="zeta" unicode="&#x3b6;" horiz-adv-x="1169" 
d="M502 1124l-10 15q-144 -15 -193 -15h-160l68 326h967l-619 -834q-46 -62 -62 -93.5t-16 -61.5q0 -53 51 -84.5t189 -63.5l117 -26q164 -39 207.5 -56.5t91.5 -60.5q55 -46 55 -135q0 -80 -35 -180l-70 -213l-387 -33l60 203q18 62 18 73q0 29 -29 44t-172 59l-104 28
q-192 52 -296.5 154.5t-104.5 237.5q0 126 96 284.5t338 431.5z" />
    <glyph glyph-name="eta" unicode="&#x3b7;" horiz-adv-x="1351" 
d="M1249 -358l-385 -31v1020q0 176 -145 176q-100 0 -154.5 -69t-54.5 -195v-543h-387v1130l381 33v-200h12q82 108 168.5 154t208.5 46q173 0 264.5 -102t91.5 -295v-1124z" />
    <glyph glyph-name="theta" unicode="&#x3b8;" horiz-adv-x="1353" 
d="M678 1483q286 0 453 -203.5t167 -552.5t-168 -554.5t-452 -205.5q-293 0 -458 199.5t-165 552.5q0 355 167 559.5t456 204.5zM459 874h434q1 123 -60.5 203t-156.5 80q-97 0 -154.5 -75.5t-62.5 -207.5zM893 573h-434q4 -142 60.5 -218t156.5 -76q98 0 158 81t59 213z
" />
    <glyph glyph-name="iota" unicode="&#x3b9;" horiz-adv-x="638" 
d="M516 0h-393v1130l393 33v-1163z" />
    <glyph glyph-name="kappa" unicode="&#x3ba;" horiz-adv-x="1331" 
d="M498 0h-375v1130h375v-276q0 -47 -4 -96l-2 -103h12q42 72 61 101t68 94l207 280h405l-414 -503l512 -627h-428l-311 403q-6 8 -11.5 15t-12 18t-10.5 18t-13 24t-14 26t-18.5 35.5t-20.5 40.5h-12l2 -93q4 -45 4 -86v-401z" />
    <glyph glyph-name="lambda" unicode="&#x3bb;" horiz-adv-x="1171" 
d="M813 0l-164 543q-34 117 -47 182h-14l-17 -82q-5 -20 -14 -53t-12 -47l-139 -543h-420l428 1130l-144 320l365 33l549 -1483h-371z" />
    <glyph glyph-name="uni03BC" unicode="&#x3bc;" horiz-adv-x="1372" 
d="M504 -20l-4 -5q10 -82 10 -135v-198l-387 -31v1519l387 33v-663q0 -178 145 -178q100 0 154.5 69.5t54.5 196.5v542l385 33v-1163l-370 -27v201h-15q-150 -203 -317 -203q-16 0 -43 9z" />
    <glyph glyph-name="nu" unicode="&#x3bd;" horiz-adv-x="1148" 
d="M590 -137l-604 1267h428l131 -337q29 -79 47 -170h14q11 61 17.5 83.5t31.5 86.5l131 337h377z" />
    <glyph glyph-name="xi" unicode="&#x3be;" horiz-adv-x="1048" 
d="M946 -356l-387 -33l59 203q19 62 19 73q0 22 -16.5 33.5t-81.5 36.5l-209 78q-145 54 -210 136.5t-65 211.5q0 146 79 242t208 110v15q-98 15 -161.5 80t-63.5 151q0 97 90 135v14l-137 -6l67 326h791v-326h-107q-166 0 -212 -2.5t-79 -13.5q-26 -9 -42.5 -34.5
t-16.5 -57.5q0 -62 49 -81.5t201 -19.5h207v-327h-154q-164 0 -249 -39.5t-85 -114.5q0 -20 3.5 -31t11 -22t32.5 -20.5t54.5 -19.5t89.5 -28l112 -34q141 -44 178.5 -60t73.5 -47q26 -22 41 -58.5t15 -76.5q0 -84 -35 -180z" />
    <glyph glyph-name="omicron" unicode="&#x3bf;" horiz-adv-x="1339" 
d="M670 1163q173 0 314 -78t221.5 -215t80.5 -305q0 -167 -81 -304t-223 -215.5t-314 -78.5q-171 0 -312 78t-221 214.5t-80 303.5q0 126 47 237.5t128.5 191t196 125.5t243.5 46zM670 838q-97 0 -158 -77t-61 -198q0 -129 60.5 -206.5t160.5 -77.5q96 0 156.5 78t60.5 202
q0 123 -61 201t-158 78z" />
    <glyph glyph-name="pi" unicode="&#x3c0;" horiz-adv-x="1474" 
d="M565 805v-805h-389v805h-190l67 325h1413v-325h-163v-805h-390v805h-348z" />
    <glyph glyph-name="rho" unicode="&#x3c1;" horiz-adv-x="1380" 
d="M709 840q-95 0 -156 -77t-61 -198q0 -129 59.5 -206.5t159.5 -77.5q95 0 156 77.5t61 200.5q0 124 -61 202.5t-158 78.5zM489 20h-12q6 -105 6 -147v-231l-387 -31v952q0 126 47 237.5t128 191t195 125.5t243 46q173 0 314 -78t221.5 -215t80.5 -305q0 -122 -47.5 -232.5
t-127.5 -190.5t-190.5 -127.5t-232.5 -47.5q-129 0 -238 53z" />
    <glyph glyph-name="uni03C2" unicode="&#x3c2;" horiz-adv-x="1120" 
d="M1094 1059l-27 -318q-110 62 -184.5 86.5t-155.5 24.5q-124 0 -206.5 -83t-82.5 -208q0 -93 46.5 -147.5t154.5 -91.5l219 -74q125 -43 177 -88.5t52 -112.5q0 -64 -40 -192l-70 -213l-389 -33l59 203q19 62 19 73q0 23 -18 35t-99 43l-80 31q-218 86 -316 217t-98 336
q0 178 80 318.5t223.5 219t325.5 78.5q110 0 204 -23.5t206 -80.5z" />
    <glyph glyph-name="sigma" unicode="&#x3c3;" 
d="M1210 813v-14q76 -76 76 -232q0 -168 -80.5 -305.5t-222.5 -216t-315 -78.5t-313 77.5t-220 215t-80 307.5q0 165 80.5 302t220 215.5t308.5 78.5q103 0 215 -33h487l-68 -325zM670 838q-97 0 -158 -77t-61 -198q0 -129 60.5 -206.5t160.5 -77.5q96 0 156.5 78t60.5 202
q0 123 -61 201t-158 78z" />
    <glyph glyph-name="tau" unicode="&#x3c4;" horiz-adv-x="1071" 
d="M340 0v805h-354v325h1099v-325h-356v-805h-389z" />
    <glyph glyph-name="upsilon" unicode="&#x3c5;" horiz-adv-x="1331" 
d="M102 1130l390 33v-600q0 -160 38 -222t136 -62t136 61.5t38 222.5v567l389 33v-581q0 -292 -148 -453.5t-415 -161.5t-415.5 161.5t-148.5 453.5v548z" />
    <glyph glyph-name="phi" unicode="&#x3c6;" horiz-adv-x="1476" 
d="M539 -391v366q-227 57 -355.5 214t-128.5 378q0 77 18 144.5t60 150.5l289 -229q-8 -52 -8 -82q0 -92 30.5 -149.5t104.5 -104.5l6 -4v860q111 25 195 25q192 0 346 -79t240.5 -219t86.5 -315q0 -220 -131 -377t-360 -213v-333zM913 823v-530q69 37 106.5 105.5
t37.5 160.5t-37.5 160.5t-106.5 103.5z" />
    <glyph glyph-name="chi" unicode="&#x3c7;" horiz-adv-x="1220" 
d="M596 102h-14q-19 -77 -47 -127l-162 -294h-400l441 716l-414 733h453l133 -256q24 -50 45 -129h14q18 75 47 127l142 258h393l-414 -677l434 -772h-456l-150 294q-25 52 -45 127z" />
    <glyph glyph-name="psi" unicode="&#x3c8;" horiz-adv-x="1761" 
d="M1659 1130v-489q0 -286 -151.5 -456.5t-434.5 -204.5v-338l-387 -33v371q-282 34 -433 205t-151 456v489h383v-368q0 -203 45 -299t166 -150l6 4q-16 93 -16 154v659h387v-659q0 -61 -16 -154l6 -4q121 54 167 151t46 298v368h383z" />
    <glyph glyph-name="omega" unicode="&#x3c9;" horiz-adv-x="1828" 
d="M725 860h383v-309q0 -144 36 -208t116 -64q143 0 143 198q0 144 -51 283.5t-187 369.5h387q124 -199 175 -347t51 -308q0 -237 -125 -372.5t-344 -135.5q-157 0 -251 58t-134 178h-15q-72 -236 -385 -236q-220 0 -344.5 135t-124.5 373q0 161 51.5 309.5t174.5 345.5h387
q-136 -230 -187 -369.5t-51 -283.5q0 -198 143 -198q82 0 117 63t35 209v309z" />
    <glyph glyph-name="iotadieresis" unicode="&#x3ca;" horiz-adv-x="622" 
d="M516 0h-393v1130l393 33v-1163zM143 1575q59 0 99.5 -39.5t40.5 -97.5q0 -57 -40.5 -98.5t-97.5 -41.5t-98 41.5t-41 98.5t40 97t97 40zM477 1575q59 0 99 -39.5t40 -97.5t-40 -99t-97 -41q-58 0 -98.5 41.5t-40.5 98.5t40 97t97 40z" />
    <glyph glyph-name="upsilondieresis" unicode="&#x3cb;" horiz-adv-x="1331" 
d="M362 1610q72 0 122.5 -50t50.5 -122t-51 -123t-122 -51q-72 0 -123 51t-51 123t50.5 122t123.5 50zM977 1610q72 0 122 -50t50 -122t-50.5 -123t-121.5 -51q-72 0 -123 51t-51 123t50.5 122t123.5 50zM102 1130l390 33v-600q0 -160 38 -222t136 -62t136 61.5t38 222.5
v567l389 33v-581q0 -292 -148 -453.5t-415 -161.5t-415.5 161.5t-148.5 453.5v548z" />
    <glyph glyph-name="omicrontonos" unicode="&#x3cc;" horiz-adv-x="1339" 
d="M500 1681h319l-26 -419h-267zM670 1163q173 0 314 -78t221.5 -215t80.5 -305q0 -167 -81 -304t-223 -215.5t-314 -78.5q-171 0 -312 78t-221 214.5t-80 303.5q0 126 47 237.5t128.5 191t196 125.5t243.5 46zM670 838q-97 0 -158 -77t-61 -198q0 -129 60.5 -206.5
t160.5 -77.5q96 0 156.5 78t60.5 202q0 123 -61 201t-158 78z" />
    <glyph glyph-name="upsilontonos" unicode="&#x3cd;" horiz-adv-x="1331" 
d="M506 1681h319l-26 -419h-267zM102 1130l390 33v-600q0 -160 38 -222t136 -62t136 61.5t38 222.5v567l389 33v-581q0 -292 -148 -453.5t-415 -161.5t-415.5 161.5t-148.5 453.5v548z" />
    <glyph glyph-name="omegatonos" unicode="&#x3ce;" horiz-adv-x="1828" 
d="M756 1681h319l-26 -419h-267zM725 860h383v-309q0 -144 36 -208t116 -64q143 0 143 198q0 144 -51 283.5t-187 369.5h387q124 -199 175 -347t51 -308q0 -237 -125 -372.5t-344 -135.5q-157 0 -251 58t-134 178h-15q-72 -236 -385 -236q-220 0 -344.5 135t-124.5 373
q0 161 51.5 309.5t174.5 345.5h387q-136 -230 -187 -369.5t-51 -283.5q0 -198 143 -198q82 0 117 63t35 209v309z" />
    <glyph glyph-name="theta1" unicode="&#x3d1;" horiz-adv-x="1433" 
d="M938 924h82q-9 120 -56.5 172.5t-146.5 52.5q-65 0 -101 -28t-36 -79q0 -68 55 -93t203 -25zM1380 942h41v-313h-41q-23 -326 -189 -494t-466 -168q-261 0 -433.5 124t-209.5 339h-68v313h410v-53q0 -411 309 -411q131 0 200 86.5t79 263.5h-82q-295 0 -448.5 108.5
t-153.5 317.5q0 191 134 309.5t351 118.5q151 0 273.5 -61t195.5 -173q42 -66 63.5 -131.5t34.5 -175.5z" />
    <glyph glyph-name="phi1" unicode="&#x3d5;" horiz-adv-x="1476" 
d="M539 -389v366q-227 55 -355.5 212t-128.5 378q0 218 129 374.5t355 213.5v295l393 33v-328q229 -54 360 -211t131 -377t-131 -378.5t-360 -213.5v-333zM913 823v-528q69 35 106.5 103.5t37.5 160.5t-38 162t-106 102zM555 295v528q-68 -37 -104.5 -105.5t-36.5 -158.5
q0 -185 141 -264z" />
    <glyph glyph-name="afii10023" unicode="&#x401;" horiz-adv-x="1189" 
d="M352 1898q75 0 127.5 -52t52.5 -128q0 -75 -53 -128.5t-127 -53.5q-75 0 -128.5 53t-53.5 127q0 76 53 129t129 53zM889 1898q75 0 127.5 -52.5t52.5 -127.5t-53 -128.5t-127 -53.5q-75 0 -128.5 53.5t-53.5 128.5t53 127.5t129 52.5zM150 0v1450h937v-354h-542v-217h467
v-301h-467v-224h549v-354h-944z" />
    <glyph glyph-name="afii10051" unicode="&#x402;" horiz-adv-x="1634" 
d="M809 834h12q72 100 163 147t212 47q356 0 356 -414v-96q0 -269 -105 -391.5t-341 -126.5l-109 -2l-26 371h57q57 0 96 34.5t39 85.5v50q0 62 -37.5 97.5t-101.5 35.5q-107 0 -158 -71t-51 -222v-379h-424v1081h-405v369h1235v-369h-406v-125q0 -34 -6 -122z" />
    <glyph glyph-name="afii10052" unicode="&#x403;" horiz-adv-x="1122" 
d="M150 0v1450h944v-369h-521v-1081h-423zM881 2013l96 -264l-602 -221l-96 264z" />
    <glyph glyph-name="afii10053" unicode="&#x404;" horiz-adv-x="1357" 
d="M530 580l-6 -9q107 -241 363 -241q103 0 198.5 42t204.5 134l-49 -445q-189 -106 -412 -106q-212 0 -386.5 101.5t-274.5 278.5t-100 392t100.5 391t277 276.5t392.5 100.5q220 0 438 -117l-47 -422q-106 87 -192 124.5t-179 37.5q-119 0 -192.5 -51t-139.5 -180l6 -8
q71 14 130 14h331v-328h-336q-53 0 -127 15z" />
    <glyph glyph-name="afii10054" unicode="&#x405;" horiz-adv-x="1153" 
d="M963 1405v-389q-233 137 -369 137q-54 0 -84.5 -20.5t-30.5 -55.5q0 -48 68 -86l166 -92q122 -65 171 -99.5t91 -82.5q108 -117 108 -293q0 -211 -152.5 -340t-400.5 -129q-164 0 -403 80l-47 436q136 -81 242 -117.5t206 -36.5q60 0 95.5 27t35.5 72q0 40 -26.5 64
t-134.5 77l-133 72q-148 80 -218.5 184.5t-70.5 245.5q0 194 136.5 315t356.5 121q93 0 182 -20.5t212 -69.5z" />
    <glyph glyph-name="afii10055" unicode="&#x406;" horiz-adv-x="722" 
d="M150 0v1450h423v-1450h-423z" />
    <glyph glyph-name="afii10056" unicode="&#x407;" horiz-adv-x="722" 
d="M150 0v1450h423v-1450h-423zM186 1827q61 0 103.5 -42t42.5 -102q0 -61 -43 -104t-103 -43t-102.5 42.5t-42.5 102.5q0 62 42 104t103 42zM539 1827q61 0 103 -42t42 -102q0 -61 -42.5 -104t-102.5 -43t-103 42.5t-43 102.5q0 61 42.5 103.5t103.5 42.5z" />
    <glyph glyph-name="afii10057" unicode="&#x408;" horiz-adv-x="950" 
d="M68 -16l-41 401q64 -31 106.5 -43t91.5 -12q78 0 114 49t36 156v915h424v-967q0 -252 -134 -390t-378 -138q-86 0 -219 29z" />
    <glyph glyph-name="afii10058" unicode="&#x409;" horiz-adv-x="2074" 
d="M1407 1448v-492h39q307 0 454.5 -117t147.5 -360q0 -246 -155 -362.5t-482 -116.5h-428v1081h-340v-542q0 -214 -128 -353t-406 -227l-95 410q40 17 64.5 28.5t49 29.5t36.5 32t24.5 42.5t17 54t8.5 74t4.5 95t0.5 123.5v602zM1393 334h55q91 0 139.5 38.5t48.5 110.5
t-49.5 112t-138.5 40h-55v-301z" />
    <glyph glyph-name="afii10059" unicode="&#x40a;" horiz-adv-x="2088" 
d="M995 602h-422v-602h-423v1450h423v-494h422v494h424v-494h39q307 0 454.5 -117t147.5 -360q0 -246 -155 -362.5t-482 -116.5h-428v602zM1405 334h55q91 0 140 38.5t49 110.5q0 74 -48.5 113t-140.5 39h-55v-301z" />
    <glyph glyph-name="afii10060" unicode="&#x40b;" horiz-adv-x="1654" 
d="M809 834h12q72 100 163 147t212 47q356 0 356 -414v-614h-389v539q0 62 -37.5 97.5t-101.5 35.5q-107 0 -158 -71t-51 -222v-379h-424v1081h-405v369h1235v-369h-406v-125q0 -34 -6 -122z" />
    <glyph glyph-name="afii10061" unicode="&#x40c;" horiz-adv-x="1488" 
d="M150 0v1450h423v-373q0 -37 -6 -172h13q58 117 104 178l279 367h477l-527 -643l576 -807h-512l-295 430q-52 81 -102 199h-13q6 -138 6 -207v-422h-423zM1083 2013l97 -264l-602 -221l-95 264z" />
    <glyph glyph-name="afii10062" unicode="&#x40e;" horiz-adv-x="1425" 
d="M1012 1931l133 -239q-117 -85 -215.5 -122.5t-204.5 -37.5t-204.5 37.5t-215.5 122.5l133 239q157 -112 287 -112q134 0 287 112zM758 803h14q37 126 47 153l191 494h436l-596 -1450l-461 -27l199 396l-608 1081h460l256 -494q36 -77 62 -153z" />
    <glyph glyph-name="afii10145" unicode="&#x40f;" horiz-adv-x="1570" 
d="M1419 1450v-1450h-424v-369h-422v369h-423v1450h423v-1081h422v1081h424z" />
    <glyph glyph-name="afii10017" unicode="&#x410;" horiz-adv-x="1507" 
d="M1534 0h-453l-71 170h-525l-71 -170h-441l789 1583zM909 473l-98 199q-31 64 -40.5 91t-16.5 79h-17q-8 -69 -55 -170l-98 -199h325z" />
    <glyph glyph-name="afii10018" unicode="&#x411;" horiz-adv-x="1255" 
d="M545 1081v-194h67q602 0 602 -447q0 -440 -639 -440h-425v1450h964v-369h-569zM545 334h69q91 0 140 38t49 109q0 73 -50 113.5t-139 40.5h-69v-301z" />
    <glyph glyph-name="afii10019" unicode="&#x412;" horiz-adv-x="1304" 
d="M150 0v1450h477q268 0 407.5 -96t139.5 -281q0 -124 -60.5 -196t-185.5 -95v-14q146 -29 216 -112t70 -228q0 -211 -162.5 -319.5t-476.5 -108.5h-425zM537 848h63q86 0 134 39.5t48 111.5q0 65 -47.5 100.5t-134.5 35.5h-63v-287zM535 319h73q100 0 154.5 42t54.5 120
q0 80 -54.5 124t-154.5 44h-73v-330z" />
    <glyph glyph-name="afii10020" unicode="&#x413;" horiz-adv-x="1122" 
d="M150 0v1450h944v-369h-521v-1081h-423z" />
    <glyph glyph-name="afii10021" unicode="&#x414;" horiz-adv-x="1599" 
d="M41 -389v758q40 17 64.5 28.5t49 29.5t36.5 32t24.5 42.5t17 54t8.5 74t4.5 95t0.5 123.5v602h1190v-1081h163v-727l-411 -31v389h-723v-358zM532 383v-14h478v182v354v176h-340v-434q0 -109 -26.5 -159.5t-111.5 -104.5z" />
    <glyph glyph-name="afii10022" unicode="&#x415;" horiz-adv-x="1189" 
d="M150 0v1450h937v-354h-542v-217h467v-301h-467v-224h549v-354h-944z" />
    <glyph glyph-name="afii10024" unicode="&#x416;" horiz-adv-x="2252" 
d="M512 0h-512l573 803l-524 647h477l279 -367q47 -64 104 -178h13q-7 147 -7 172v373h424v-373q0 -46 -6 -172h13q58 117 104 178l279 367h477l-525 -647l574 -803h-512l-295 430q-52 81 -102 199h-13q6 -135 6 -207v-422h-424v422q0 50 7 207h-13q-50 -119 -102 -199z" />
    <glyph glyph-name="afii10025" unicode="&#x417;" horiz-adv-x="1275" 
d="M68 158l211 305q115 -81 181.5 -110t137.5 -29q77 0 121.5 40.5t44.5 112.5q0 88 -63 122t-236 42v217q153 5 210.5 37t57.5 113q0 59 -40.5 95t-106.5 36q-120 0 -258 -129l-213 260q252 225 534 225q214 0 354 -119t140 -301q0 -107 -45.5 -177.5t-145.5 -117.5v-12
q104 -37 163 -128.5t59 -217.5q0 -207 -153.5 -337t-399.5 -130q-153 0 -277 45.5t-276 157.5z" />
    <glyph glyph-name="afii10026" unicode="&#x418;" horiz-adv-x="1570" 
d="M1010 0v422q0 131 14 260l-14 8q-84 -94 -105 -112l-121 -115l-634 -600v1587h409v-420q0 -123 -14 -242l14 -6q89 93 105 107q35 33 120 110l635 584v-1583h-409z" />
    <glyph glyph-name="afii10027" unicode="&#x419;" horiz-adv-x="1570" 
d="M1079 1931l133 -239q-117 -85 -215 -122.5t-204 -37.5t-204.5 37.5t-215.5 122.5l133 239q157 -112 287 -112q133 0 286 112zM1010 0v422q0 131 14 260l-14 8q-84 -94 -105 -112l-121 -115l-634 -600v1587h409v-420q0 -123 -14 -242l14 -6q89 93 105 107q35 33 120 110
l635 584v-1583h-409z" />
    <glyph glyph-name="afii10028" unicode="&#x41a;" horiz-adv-x="1488" 
d="M150 0v1450h423v-373q0 -37 -6 -172h13q58 117 104 178l279 367h477l-527 -643l576 -807h-512l-295 430q-52 81 -102 199h-13q6 -138 6 -207v-422h-423z" />
    <glyph glyph-name="afii10029" unicode="&#x41b;" horiz-adv-x="1558" 
d="M109 -41l-95 410q40 17 64.5 28.5t49 29.5t36.5 32t24.5 42.5t17 54t8.5 74t4.5 95t0.5 123.5v602h1190v-1450h-426v551v354v176h-340v-542q0 -214 -128 -353t-406 -227z" />
    <glyph glyph-name="afii10030" unicode="&#x41c;" horiz-adv-x="1761" 
d="M6 0l397 1583l400 -770q28 -55 69 -174h15q37 114 69 172l400 772l397 -1583h-424l-102 387q-17 70 -29 160h-14q-22 -65 -29 -76q-12 -29 -43 -88l-246 -492l-245 490q-13 27 -27 56.5t-16 33.5q-21 51 -29 76h-14q-5 -60 -8.5 -84.5t-18.5 -81.5l-92 -381h-410z" />
    <glyph glyph-name="afii10031" unicode="&#x41d;" horiz-adv-x="1570" 
d="M150 0v1450h423v-508h422v508h424v-1450h-424v573h-422v-573h-423z" />
    <glyph glyph-name="afii10032" unicode="&#x41e;" horiz-adv-x="1693" 
d="M848 1495q162 0 305 -59t245 -161t161 -245t59 -305t-59 -305t-160.5 -245t-245 -161t-305.5 -59q-220 0 -396.5 100t-276 278.5t-99.5 401.5q0 211 102 385.5t279 274.5t391 100zM848 1118q-141 0 -238.5 -112t-97.5 -275q0 -172 95.5 -285.5t240.5 -113.5
q141 0 237.5 113t96.5 280t-96.5 280t-237.5 113z" />
    <glyph glyph-name="afii10033" unicode="&#x41f;" horiz-adv-x="1570" 
d="M150 0v1450h1269v-1450h-424v1081h-422v-1081h-423z" />
    <glyph glyph-name="afii10034" unicode="&#x420;" horiz-adv-x="1222" 
d="M150 0v1450h393q161 0 264 -23.5t186 -80.5q94 -63 147.5 -166.5t53.5 -221.5q0 -220 -165.5 -353.5t-438.5 -133.5h-31v-471h-409zM537 758l63 4q92 4 143.5 56t51.5 140q0 177 -195 177h-63v-377z" />
    <glyph glyph-name="afii10035" unicode="&#x421;" horiz-adv-x="1331" 
d="M1276 1378l-47 -424q-104 88 -190.5 126t-180.5 38q-158 0 -256 -108t-98 -283q0 -180 105.5 -288.5t277.5 -108.5q103 0 198.5 42t204.5 134l-49 -445q-183 -106 -412 -106q-212 0 -386.5 101t-274.5 277.5t-100 391.5q0 162 59 305t161 245t245 161t305 59
q220 0 438 -117z" />
    <glyph glyph-name="afii10036" unicode="&#x422;" horiz-adv-x="1206" 
d="M391 0v1081h-405v369h1235v-369h-406v-1081h-424z" />
    <glyph glyph-name="afii10037" unicode="&#x423;" horiz-adv-x="1425" 
d="M758 803h14q37 126 47 153l191 494h436l-596 -1450l-461 -27l199 396l-608 1081h460l256 -494q36 -77 62 -153z" />
    <glyph glyph-name="afii10038" unicode="&#x424;" horiz-adv-x="1787" 
d="M684 1335v115h424v-115q278 -34 453.5 -204t175.5 -406t-175.5 -406t-453.5 -204v-115h-424v115q-276 32 -452.5 203.5t-176.5 406.5q0 236 176 407t453 203zM696 446v558q-101 -37 -158 -110.5t-57 -168.5q0 -93 57.5 -167.5t157.5 -111.5zM1092 1004v-558
q92 25 155.5 105t63.5 174q0 96 -62 175t-157 104z" />
    <glyph glyph-name="afii10039" unicode="&#x425;" horiz-adv-x="1488" 
d="M451 0h-465l442 627q51 69 117 125q-81 78 -113 127l-391 571h471l174 -260q24 -36 59 -154h13q20 70 31 98t30 56l178 260h451l-393 -563q-35 -49 -54.5 -70t-56.5 -49q38 -30 60.5 -52.5t48.5 -60.5l448 -655h-483l-195 289q-41 62 -80 176h-14q-49 -123 -84 -172z" />
    <glyph glyph-name="afii10040" unicode="&#x426;" horiz-adv-x="1583" 
d="M1419 1450v-1081h164v-727l-424 -31v389h-1009v1450h423v-1081h422v1081h424z" />
    <glyph glyph-name="afii10041" unicode="&#x427;" horiz-adv-x="1501" 
d="M928 0v354q0 81 14 158l-12 4q-81 -41 -228 -41q-167 0 -294 44.5t-199 129.5q-68 80 -97.5 194.5t-29.5 297.5v309h424v-301q0 -83 5.5 -134t17.5 -88.5t37.5 -55.5t60 -25.5t90.5 -7.5q84 0 211 22v590h424v-1450h-424z" />
    <glyph glyph-name="afii10042" unicode="&#x428;" horiz-adv-x="2416" 
d="M150 0v1450h423v-1081h422v1081h424v-1081h422v1081h424v-1450h-2115z" />
    <glyph glyph-name="afii10043" unicode="&#x429;" horiz-adv-x="2428" 
d="M150 0v1450h423v-1081h422v1081h424v-1081h422v1081h424v-1081h164v-727l-424 -31v389h-1855z" />
    <glyph glyph-name="afii10044" unicode="&#x42a;" horiz-adv-x="1337" 
d="M670 1448v-492h39q307 0 454.5 -117t147.5 -360q0 -246 -155 -362.5t-482 -116.5h-428v1081h-287v369zM655 334h56q91 0 139.5 38t48.5 109q0 73 -49.5 113.5t-138.5 40.5h-56v-301z" />
    <glyph glyph-name="afii10045" unicode="&#x42b;" horiz-adv-x="1906" 
d="M573 1448v-492h39q307 0 454.5 -117t147.5 -360q0 -246 -154.5 -362.5t-481.5 -116.5h-428v1448h423zM559 334h55q91 0 140 38t49 109q0 73 -50 113.5t-139 40.5h-55v-301zM1333 0v1450h424v-1450h-424z" />
    <glyph glyph-name="afii10046" unicode="&#x42c;" horiz-adv-x="1243" 
d="M573 1448v-492h39q307 0 454.5 -117t147.5 -360q0 -246 -154.5 -362.5t-481.5 -116.5h-428v1448h423zM559 334h55q91 0 140 38t49 109q0 73 -50 113.5t-139 40.5h-55v-301z" />
    <glyph glyph-name="afii10047" unicode="&#x42d;" 
d="M82 72l47 424q108 -92 192.5 -129t182.5 -37q122 0 202 57.5t132 183.5l-7 9q-74 -15 -126 -15h-336v328h333q56 0 127 -14l7 8q-59 119 -146.5 175t-214.5 56q-95 0 -180.5 -32.5t-194.5 -110.5l17 414q180 106 411 106q159 0 300 -59.5t242.5 -162t160.5 -245.5
t59 -303q0 -216 -100 -392.5t-275 -277t-389 -100.5q-222 0 -444 117z" />
    <glyph glyph-name="afii10048" unicode="&#x42e;" horiz-adv-x="2205" 
d="M1358 1118q-141 0 -237.5 -112t-96.5 -275q0 -172 94.5 -285.5t239.5 -113.5q142 0 238 113t96 280t-96.5 280t-237.5 113zM614 588h-41v-588h-423v1450h423v-522h41q75 268 271.5 417.5t474.5 149.5q162 0 305 -59t245 -161t161 -245t59 -305t-59 -305.5t-161 -245
t-245 -160.5t-305 -59q-200 0 -370 87t-267 239q-44 68 -67 134t-42 173z" />
    <glyph glyph-name="afii10049" unicode="&#x42f;" horiz-adv-x="1337" 
d="M803 770v365h-68q-94 0 -142 -43.5t-48 -126.5q0 -86 49.5 -136.5t140.5 -54.5zM-27 0l340 528q42 61 80 103q-127 70 -185 159t-58 211q0 220 157 334.5t459 114.5h422v-1450h-410v422q0 2 4 96l2 70h-12q-46 -118 -72 -166l-237 -422h-490z" />
    <glyph glyph-name="afii10065" unicode="&#x430;" horiz-adv-x="1357" 
d="M1235 1163v-790q0 -241 20 -373l-364 -33l-12 115h-13q-71 -65 -132.5 -90t-151.5 -25q-146 0 -265.5 76t-187.5 209.5t-68 298.5q0 270 171 441t438 171q106 0 233 -33zM848 340v477q-64 35 -129 35q-117 0 -189.5 -83.5t-72.5 -217.5q0 -126 61.5 -199t165.5 -73
q79 0 164 61z" />
    <glyph glyph-name="afii10066" unicode="&#x431;" horiz-adv-x="1339" 
d="M668 840q-95 0 -156 -77t-61 -198q0 -129 59.5 -206.5t159.5 -77.5q95 0 156 77.5t61 200.5q0 124 -61 202.5t-158 78.5zM838 1450l389 33q-11 -175 -171 -277.5t-425 -103.5v-15q61 3 88 3q252 0 409.5 -144t157.5 -373q0 -172 -80 -310.5t-221.5 -217t-316.5 -78.5
q-278 0 -445.5 177t-167.5 472q0 192 71.5 345t205.5 247q139 96 385 154q69 19 91 35t30 53z" />
    <glyph glyph-name="afii10067" unicode="&#x432;" horiz-adv-x="1163" 
d="M496 676h51q67 0 105 27.5t38 74.5q0 90 -143 90h-51v-192zM494 266h59q80 0 123 28.5t43 82.5t-43.5 83t-122.5 29h-59v-223zM881 612v-14q100 -12 160.5 -85.5t60.5 -180.5q0 -163 -149.5 -247.5t-436.5 -84.5h-393v1130h440q247 0 373.5 -75.5t126.5 -223.5
q0 -184 -182 -219z" />
    <glyph glyph-name="afii10068" unicode="&#x433;" horiz-adv-x="1075" 
d="M123 0v1130h938v-325h-545v-805h-393z" />
    <glyph glyph-name="afii10069" unicode="&#x434;" horiz-adv-x="1456" 
d="M41 -389v715q50 21 76.5 34t51 38t34 47t17 72.5t8.5 101t1 145.5v366h1067v-804h160v-684l-379 -31v389h-643v-358zM498 340v-14h405v479h-280v-223q0 -99 -24 -145.5t-101 -96.5z" />
    <glyph glyph-name="afii10070" unicode="&#x435;" horiz-adv-x="1286" 
d="M1171 428l-43 -356q-130 -57 -230.5 -81t-207.5 -24q-278 0 -453.5 165.5t-175.5 428.5q0 125 48.5 237t131.5 192t198.5 126.5t244.5 46.5q242 0 392.5 -149.5t150.5 -390.5q0 -2 -4 -68l-795 -137q35 -75 107.5 -117.5t166.5 -42.5q100 0 210 40t259 130zM399 643
l525 80q-41 164 -234 164q-121 0 -198.5 -65t-92.5 -179z" />
    <glyph glyph-name="afii10072" unicode="&#x436;" horiz-adv-x="2043" 
d="M457 0h-471l528 625l-483 505h440l221 -239q38 -41 62.5 -78.5t66.5 -116.5h13l-3 103q-1 19 -2 42.5t-1.5 36t-0.5 17.5v235h390v-235q0 -35 -5 -96l-2 -103h13q42 79 66.5 116.5t62.5 78.5l221 239h440l-483 -505l528 -625h-471l-264 324q-22 28 -40 60.5t-60 115.5
h-13l2 -92q5 -54 5 -86v-322h-390v322q0 5 0.5 16t1.5 31.5t2 38.5l3 92h-13q-58 -120 -100 -176z" />
    <glyph glyph-name="afii10073" unicode="&#x437;" horiz-adv-x="1056" 
d="M0 125l195 254q101 -66 151.5 -86.5t110.5 -20.5q69 0 112 30t43 77q0 61 -60 89.5t-200 33.5v170q129 3 181.5 28t52.5 84q0 40 -34.5 64t-94.5 24q-59 0 -105 -18.5t-112 -67.5l-195 207q123 91 231.5 130.5t237.5 39.5q196 0 322.5 -90.5t126.5 -230.5
q0 -158 -162 -228v-14q91 -32 139.5 -101.5t48.5 -166.5q0 -160 -141 -262.5t-361 -102.5q-135 0 -250.5 37.5t-236.5 120.5z" />
    <glyph glyph-name="afii10074" unicode="&#x438;" horiz-adv-x="1413" 
d="M924 514l-15 6q-46 -44 -102 -92q-62 -50 -127 -100l-557 -439v1241h377v-290q0 -95 -11 -213l15 -6q102 88 229 186l557 432v-1239h-377v301q0 92 11 213z" />
    <glyph glyph-name="afii10075" unicode="&#x439;" horiz-adv-x="1413" 
d="M971 1661l133 -238q-114 -85 -213.5 -123t-206.5 -38t-206.5 38t-213.5 123l133 238q161 -113 287 -113t287 113zM924 514l-15 6q-46 -44 -102 -92q-62 -50 -127 -100l-557 -439v1241h377v-290q0 -95 -11 -213l15 -6q102 88 229 186l557 432v-1239h-377v301q0 92 11 213z
" />
    <glyph glyph-name="afii10076" unicode="&#x43a;" horiz-adv-x="1339" 
d="M123 1130h389v-235q0 -5 -0.5 -17.5t-1.5 -36t-2 -42.5l-2 -103h12q42 79 66.5 116.5t62.5 78.5l223 239h439l-484 -505l529 -625h-471l-265 324q-42 56 -100 176h-12l2 -92q1 -18 2 -38.5t1.5 -31.5t0.5 -16v-322h-389v1130z" />
    <glyph glyph-name="afii10077" unicode="&#x43b;" horiz-adv-x="1404" 
d="M86 -33l-86 320q49 18 75.5 29t51 32t34 40t17.5 61.5t9 86t1 123.5v471h1094v-1130h-391v805h-313v-385q0 -166 -117.5 -274.5t-374.5 -178.5z" />
    <glyph glyph-name="afii10078" unicode="&#x43c;" horiz-adv-x="1579" 
d="M1085 440h-14q-17 -48 -24 -63q-1 -2 -48 -90l-223 -398l-219 398l-47 90q-7 7 -25 63h-14q-7 -81 -25 -153l-84 -287h-376l364 1241l363 -594q27 -44 38.5 -71t30.5 -89h15q18 60 28.5 84t40.5 74l361 596l366 -1241h-391l-92 287q-15 52 -25 153z" />
    <glyph glyph-name="afii10079" unicode="&#x43d;" horiz-adv-x="1413" 
d="M123 0v1130h389v-380h389v380h389v-1130h-389v424h-389v-424h-389z" />
    <glyph glyph-name="afii10080" unicode="&#x43e;" horiz-adv-x="1339" 
d="M670 1163q173 0 314 -78t221.5 -215t80.5 -305q0 -167 -81 -304t-223 -215.5t-314 -78.5q-171 0 -312 78t-221 214.5t-80 303.5q0 126 47 237.5t128.5 191t196 125.5t243.5 46zM670 838q-97 0 -158 -77t-61 -198q0 -129 60.5 -206.5t160.5 -77.5q96 0 156.5 78t60.5 202
q0 123 -61 201t-158 78z" />
    <glyph glyph-name="afii10081" unicode="&#x43f;" horiz-adv-x="1413" 
d="M123 0v1130h1167v-1130h-389v805h-389v-805h-389z" />
    <glyph glyph-name="afii10082" unicode="&#x440;" horiz-adv-x="1357" 
d="M123 -389v1147q0 229 -21 372l365 33l27 -86q77 46 143 66t145 20q143 0 261 -76.5t185.5 -210t67.5 -296.5q0 -129 -44.5 -242.5t-122 -195t-185.5 -128.5t-231 -47q-101 0 -203 39v-364zM510 791v-478q62 -34 129 -34q116 0 189 84t73 217q0 126 -61.5 199t-165.5 73
q-44 0 -80.5 -13.5t-83.5 -47.5z" />
    <glyph glyph-name="afii10083" unicode="&#x441;" horiz-adv-x="1144" 
d="M1063 453l-35 -373q-103 -62 -186.5 -87.5t-182.5 -25.5q-125 0 -236.5 44.5t-190.5 121t-125 184t-46 228.5q0 172 85 314t233 223t328 81q199 0 356 -98l-43 -352q-78 67 -145.5 96t-145.5 29q-125 0 -204 -82t-79 -211q0 -121 74 -193.5t197 -72.5q82 0 157 38
t189 136z" />
    <glyph glyph-name="afii10084" unicode="&#x442;" horiz-adv-x="1107" 
d="M358 0v805h-372v325h1134v-325h-372v-805h-390z" />
    <glyph glyph-name="afii10085" unicode="&#x443;" horiz-adv-x="1171" 
d="M414 0l-428 1130h420l145 -487q21 -79 28 -113t17 -110h14q12 75 20 109t32 112l151 489h371l-551 -1488l-391 -33z" />
    <glyph glyph-name="afii10086" unicode="&#x444;" horiz-adv-x="1476" 
d="M539 -389v366q-227 55 -355.5 212t-128.5 378q0 218 129 374.5t355 213.5v295l393 33v-328q229 -54 360 -211t131 -377t-131 -378.5t-360 -213.5v-333zM913 823v-528q69 35 106.5 103.5t37.5 160.5t-38 162t-106 102zM555 295v528q-68 -37 -104.5 -105.5t-36.5 -158.5
q0 -185 141 -264z" />
    <glyph glyph-name="afii10087" unicode="&#x445;" horiz-adv-x="1247" 
d="M-14 0l342 440q31 40 100 117q-66 77 -100 127l-316 446h453l123 -169q33 -47 57 -140h14q17 55 26.5 74t41.5 66l119 169h393l-313 -411q-41 -55 -105 -119q61 -63 105 -125l334 -475h-457l-123 178q-42 58 -76 160h-14q-39 -101 -82 -160l-123 -178h-399z" />
    <glyph glyph-name="afii10088" unicode="&#x446;" horiz-adv-x="1447" 
d="M1290 1130v-804h158v-684l-389 -31v389h-936v1130h389v-804h389v804h389z" />
    <glyph glyph-name="afii10089" unicode="&#x447;" horiz-adv-x="1357" 
d="M846 0v362q-120 -20 -215 -20q-290 0 -426.5 126.5t-136.5 393.5v268h389v-235q0 -152 42.5 -198t182.5 -46q76 0 164 25v454h389v-1130h-389z" />
    <glyph glyph-name="afii10090" unicode="&#x448;" horiz-adv-x="2191" 
d="M123 0v1130h389v-804h389v804h389v-804h389v804h389v-1130h-1945z" />
    <glyph glyph-name="afii10091" unicode="&#x449;" horiz-adv-x="2226" 
d="M123 0v1130h389v-804h389v804h389v-804h389v804h389v-804h158v-684l-389 -31v389h-1714z" />
    <glyph glyph-name="afii10092" unicode="&#x44a;" horiz-adv-x="1239" 
d="M635 1128v-383h37q279 0 416 -89.5t137 -272.5q0 -198 -141 -290.5t-445 -92.5h-393v807h-273v323zM621 266h59q80 0 123 28.5t43 82.5t-44 83t-122 29h-59v-223z" />
    <glyph glyph-name="afii10093" unicode="&#x44b;" horiz-adv-x="1716" 
d="M512 1130v-385h37q553 0 553 -362q0 -199 -140.5 -291t-445.5 -92h-393v1130h389zM1593 0h-389v1130h389v-1130zM498 266h59q78 0 121 28.5t43 82.5t-43 83t-121 29h-59v-223z" />
    <glyph glyph-name="afii10094" unicode="&#x44c;" horiz-adv-x="1116" 
d="M512 1130v-385h37q553 0 553 -362q0 -198 -141 -290.5t-445 -92.5h-393v1130h389zM498 266h59q80 0 123 28.5t43 82.5t-43.5 83t-122.5 29h-59v-223z" />
    <glyph glyph-name="afii10095" unicode="&#x44d;" horiz-adv-x="1155" 
d="M82 117l41 315q105 -87 176.5 -120t155.5 -33q171 0 245 155l-6 8q-74 -14 -133 -14h-229v272h229q58 0 127 -14l6 8q-105 144 -260 144q-83 0 -150.5 -30.5t-160.5 -109.5l14 396q156 69 324 69q177 0 324.5 -81.5t232 -223.5t84.5 -313q0 -121 -46 -228.5t-125 -184
t-190.5 -121t-236.5 -44.5q-112 0 -204 32.5t-218 117.5z" />
    <glyph glyph-name="afii10096" unicode="&#x44e;" horiz-adv-x="1835" 
d="M571 410h-59v-410h-389v1130h389v-395h63q60 199 217 313.5t371 114.5q173 0 314.5 -78t222 -215t80.5 -305q0 -125 -47.5 -236.5t-129.5 -190.5t-196.5 -125t-243.5 -46q-218 0 -380 121.5t-212 321.5zM1163 840q-96 0 -156.5 -77t-60.5 -200q0 -129 59.5 -206.5
t159.5 -77.5q95 0 156 78.5t61 201.5t-61 202t-158 79z" />
    <glyph glyph-name="afii10097" unicode="&#x44f;" horiz-adv-x="1179" 
d="M696 621v245h-53q-151 0 -151 -114q0 -58 40 -92t111 -37zM6 0l240 385q30 47 80 102q-130 73 -178 135.5t-48 157.5q0 172 145 261t423 89h387v-1130h-377v307q1 38 3 75.5t3 61.5h-12q-50 -105 -72 -137l-199 -307h-395z" />
    <glyph glyph-name="afii10071" unicode="&#x451;" horiz-adv-x="1286" 
d="M365 1610q72 0 122 -50t50 -122t-50.5 -123t-121.5 -51q-72 0 -123.5 51t-51.5 123t51 122t124 50zM979 1610q72 0 122 -50t50 -122t-51 -123t-123 -51q-71 0 -121.5 51t-50.5 123t50.5 122t123.5 50zM1171 428l-43 -356q-130 -57 -230.5 -81t-207.5 -24
q-278 0 -453.5 165.5t-175.5 428.5q0 125 48.5 237t131.5 192t198.5 126.5t244.5 46.5q242 0 392.5 -149.5t150.5 -390.5q0 -2 -4 -68l-795 -137q35 -75 107.5 -117.5t166.5 -42.5q100 0 210 40t259 130zM399 643l525 80q-41 164 -234 164q-121 0 -198.5 -65t-92.5 -179z
" />
    <glyph glyph-name="afii10099" unicode="&#x452;" horiz-adv-x="1398" 
d="M766 -397l-27 370h68q31 0 56 13t32 34q7 19 9 43.5t7 155.5v412q0 178 -145 178q-100 0 -154.5 -69.5t-54.5 -196.5v-543h-395v834h-162v296h162v320l395 33v-398q0 -37 -6 -122h12q82 108 168.5 154t208.5 46q173 0 264.5 -102t91.5 -295v-647q0 -192 -40 -301.5
t-130 -159.5t-249 -53z" />
    <glyph glyph-name="afii10100" unicode="&#x453;" horiz-adv-x="1075" 
d="M123 0v1130h938v-325h-545v-805h-393zM834 1718l96 -262l-602 -221l-97 264z" />
    <glyph glyph-name="afii10101" unicode="&#x454;" horiz-adv-x="1144" 
d="M469 442l-8 -8q74 -155 248 -155q86 0 161.5 37t192.5 137l-35 -373q-103 -62 -186.5 -87.5t-182.5 -25.5q-167 0 -304 75.5t-215.5 208t-78.5 294.5q0 171 85 313t233 223.5t328 81.5q199 0 356 -98l-43 -352q-78 67 -145.5 96t-145.5 29q-154 0 -260 -144l6 -8
q69 14 127 14h229v-272h-229q-62 0 -133 14z" />
    <glyph glyph-name="afii10102" unicode="&#x455;" horiz-adv-x="1030" 
d="M139 57l-18 355q146 -92 227 -126t156 -34q52 0 84.5 21t32.5 55q0 29 -24.5 51.5t-78.5 44.5l-94 37q-157 62 -225 140t-68 196q0 163 118.5 267.5t303.5 104.5q147 0 309 -65v-311q-109 55 -175 76.5t-122 21.5q-47 0 -73.5 -20t-26.5 -54q0 -28 18.5 -43.5t79.5 -38.5
l117 -41q160 -60 226.5 -137.5t66.5 -206.5q0 -182 -120.5 -285.5t-332.5 -103.5q-193 0 -381 96z" />
    <glyph glyph-name="afii10103" unicode="&#x456;" horiz-adv-x="636" 
d="M516 0h-393v1130l393 33v-1163zM319 1677q90 0 151.5 -61.5t61.5 -151.5q0 -89 -62.5 -152t-150.5 -63t-151.5 63.5t-63.5 151.5q0 91 62 152t153 61z" />
    <glyph glyph-name="afii10104" unicode="&#x457;" horiz-adv-x="622" 
d="M516 0h-393v1130l393 33v-1163zM143 1575q59 0 99.5 -39.5t40.5 -97.5q0 -57 -40.5 -98.5t-97.5 -41.5t-98 41.5t-41 98.5t40 97t97 40zM477 1575q59 0 99 -39.5t40 -97.5t-40 -99t-97 -41q-58 0 -98.5 41.5t-40.5 98.5t40 97t97 40z" />
    <glyph glyph-name="afii10105" unicode="&#x458;" horiz-adv-x="636" 
d="M516 1163v-1515l-393 -39v1521zM319 1677q89 0 151 -61t62 -150q0 -90 -62.5 -153.5t-150.5 -63.5t-151.5 63.5t-63.5 151.5q0 91 62 152t153 61z" />
    <glyph glyph-name="afii10106" unicode="&#x459;" horiz-adv-x="1865" 
d="M874 807h-280v-268q0 -214 -128.5 -353t-406.5 -227l-59 369q41 17 64.5 28.5t48.5 29.5t37 31.5t24.5 42t17 54t8.5 74t4.5 95t0.5 124.5v323l1059 -2v-383h36q279 0 416 -89.5t137 -272.5q0 -198 -140.5 -290.5t-444.5 -92.5h-394v807zM1249 266h60q80 0 123 28.5
t43 82.5t-43.5 83t-122.5 29h-60v-223z" />
    <glyph glyph-name="afii10107" unicode="&#x45a;" horiz-adv-x="1824" 
d="M1223 1130v-385h37q552 0 552 -362q0 -198 -140.5 -290.5t-444.5 -92.5h-393v471h-322v-471h-389v1130h389v-385h322v385h389zM1208 266h60q80 0 123 28.5t43 82.5t-44 83t-122 29h-60v-223z" />
    <glyph glyph-name="afii10108" unicode="&#x45b;" horiz-adv-x="1398" 
d="M911 0v631q0 178 -145 178q-100 0 -154.5 -69.5t-54.5 -196.5v-543h-395v834h-162v296h162v320l395 33v-398q0 -37 -6 -122h12q82 108 168.5 154t208.5 46q173 0 264.5 -102t91.5 -295v-766h-385z" />
    <glyph glyph-name="afii10109" unicode="&#x45c;" horiz-adv-x="1339" 
d="M930 1718l94 -262l-600 -221l-96 264zM123 1130h389v-235q0 -5 -0.5 -17.5t-1.5 -36t-2 -42.5l-2 -103h12q42 79 66.5 116.5t62.5 78.5l223 239h439l-484 -505l529 -625h-471l-265 324q-42 56 -100 176h-12l2 -92q1 -18 2 -38.5t1.5 -31.5t0.5 -16v-322h-389v1130z" />
    <glyph glyph-name="afii10110" unicode="&#x45e;" horiz-adv-x="1171" 
d="M856 1661l135 -238q-116 -86 -215.5 -123.5t-206.5 -37.5t-205.5 37.5t-213.5 123.5l133 238q161 -113 286 -113q126 0 287 113zM414 0l-428 1130h420l145 -487q21 -79 28 -113t17 -110h14q12 75 20 109t32 112l151 489h371l-551 -1488l-391 -33z" />
    <glyph glyph-name="afii10193" unicode="&#x45f;" horiz-adv-x="1413" 
d="M1290 1130v-1130h-389v-358l-389 -31v389h-389v1130h389v-804h389v804h389z" />
    <glyph glyph-name="afii10050" unicode="&#x490;" horiz-adv-x="1122" 
d="M150 0v1450h520v137l424 27v-533h-521v-1081h-423z" />
    <glyph glyph-name="afii10098" unicode="&#x491;" horiz-adv-x="1079" 
d="M123 0v1130h545v138l393 26v-489h-545v-805h-393z" />
    <glyph glyph-name="uni0492" unicode="&#x492;" horiz-adv-x="1163" 
d="M150 0v1450h944v-360h-521v-248h480v-328h-480v-514h-423z" />
    <glyph glyph-name="uni0493" unicode="&#x493;" horiz-adv-x="1032" 
d="M123 0v1130h868v-311h-479v-205h442v-276h-442v-338h-389z" />
    <glyph glyph-name="uni0496" unicode="&#x496;" horiz-adv-x="2267" 
d="M1987 369h266v-727l-424 -31v389h-88l-293 430q-31 45 -50.5 83.5t-51.5 115.5h-13q6 -135 6 -207v-422h-424v422q0 50 7 207h-13q-50 -119 -102 -199l-295 -430h-512l573 803l-524 647h477l279 -367q47 -64 104 -178h13q-7 147 -7 172v373h424v-373q0 -46 -6 -172h13
q58 117 104 178l276 367h480l-527 -647z" />
    <glyph glyph-name="uni0497" unicode="&#x497;" horiz-adv-x="2058" 
d="M1223 502h-13l2 -94q5 -54 5 -86v-322h-390v322q0 5 0.5 16.5t1.5 32.5t2 37l3 94h-13q-61 -127 -100 -176l-264 -326h-471l528 627l-483 503h440l221 -239q38 -41 62.5 -78.5t66.5 -116.5h13l-3 103q-1 19 -2 42.5t-1.5 36t-0.5 17.5v235h390v-235q0 -35 -5 -96l-2 -103
h13q42 79 66.5 116.5t60.5 78.5l223 239h440l-483 -503l254 -301h272v-684l-389 -31v389h-80l-264 326q-39 49 -100 176z" />
    <glyph glyph-name="uni049A" unicode="&#x49a;" horiz-adv-x="1488" 
d="M911 807l310 -438h266v-727l-424 -31v389h-88l-293 430q-42 68 -57.5 98.5t-44.5 100.5h-13q6 -138 6 -207v-422h-423v1450h423v-373q0 -37 -6 -172h13q37 75 56 108t48 70l277 367h479z" />
    <glyph glyph-name="uni049B" unicode="&#x49b;" 
d="M518 502h-12l2 -94q1 -16 2 -37t1.5 -32.5t0.5 -16.5v-322h-389v1130h389v-235q0 -5 -0.5 -17.5t-1.5 -36t-2 -42.5l-2 -103h12q42 79 66.5 116.5t62.5 78.5l223 239h441l-486 -503l256 -301h273v-684l-389 -31v389h-82l-262 326q-43 50 -103 176z" />
    <glyph glyph-name="uni049C" unicode="&#x49c;" horiz-adv-x="1488" 
d="M977 0l-49 70q-29 41 -50 79.5t-53 116.5h-14q8 -120 8 -207v-18h-137v391q-42 67 -57.5 97t-44.5 100h-13q6 -138 6 -207v-422h-423v1450h423v-373q0 -37 -6 -172h13q48 99 102 180v322h137q-2 -108 -8 -180h14q50 104 105 180l33 43h477l-527 -647l574 -803h-510z" />
    <glyph glyph-name="uni049D" unicode="&#x49d;" horiz-adv-x="1339" 
d="M512 0h-389v1130h389v-235q0 -5 -0.5 -17.5t-1.5 -36t-2 -42.5l-2 -103h26l68 84v312h137v-148l133 186h439l-484 -503l529 -627h-471l-146 221v-180h-137v350l-68 84h-26l2 -102l4 -97v-276z" />
    <glyph glyph-name="uni04A2" unicode="&#x4a2;" horiz-adv-x="1583" 
d="M995 0v573h-422v-573h-423v1450h423v-508h422v508h424v-1081h164v-727l-424 -31v389h-164z" />
    <glyph glyph-name="uni04A3" unicode="&#x4a3;" horiz-adv-x="1439" 
d="M1051 0h-150v424h-389v-424h-389v1130h389v-380h389v380h389v-804h150v-684l-389 -31v389z" />
    <glyph glyph-name="uni04AE" unicode="&#x4ae;" horiz-adv-x="1402" 
d="M475 0v682l-495 768h466l181 -262q22 -32 37 -64.5t43 -105.5h14q45 118 80 172l178 260h444l-524 -756v-694h-424z" />
    <glyph glyph-name="uni04AF" unicode="&#x4af;" horiz-adv-x="1148" 
d="M592 623h14q11 60 17 82t32 88l129 337h377l-379 -782v-706l-389 -33v731l-407 790h428l131 -337q29 -79 47 -170z" />
    <glyph glyph-name="uni04B0" unicode="&#x4b0;" horiz-adv-x="1402" 
d="M1423 1450l-524 -756v-61h223v-354h-223v-279h-424v279h-219v354h219v49l-495 768h466l181 -262q22 -32 37 -64.5t43 -105.5h14q45 118 80 172l176 260h446z" />
    <glyph glyph-name="uni04B1" unicode="&#x4b1;" horiz-adv-x="1193" 
d="M1208 1130l-381 -782h283v-328h-283v-378l-389 -31v409h-270v328h266l-448 782h473l131 -337q29 -79 47 -170h14q10 60 16.5 81.5t32.5 88.5l129 337h379z" />
    <glyph glyph-name="uni04B2" unicode="&#x4b2;" horiz-adv-x="1509" 
d="M1247 369h254v-727l-424 -31v389h-61l-195 289q-23 34 -38 68t-42 108h-12q-46 -114 -84 -172l-196 -293h-465l442 627q51 69 117 125q-80 80 -111 127l-393 571h471l174 -260q28 -43 59 -154h15q28 106 59 154l178 260h451l-393 -563q-35 -49 -54.5 -70t-56.5 -49
q60 -45 109 -113z" />
    <glyph glyph-name="uni04B3" unicode="&#x4b3;" horiz-adv-x="1273" 
d="M1237 1130l-311 -411q-50 -64 -105 -117q66 -71 105 -125l104 -151h230v-684l-390 -31v389h-67l-125 178q-42 62 -74 160h-14q-36 -93 -82 -160l-125 -178h-397l340 440q30 39 102 119q-49 53 -102 125l-314 446h453l121 -169q19 -26 29.5 -52t29.5 -88h14q14 52 24 72
t42 68l119 169h393z" />
    <glyph glyph-name="uni04B8" unicode="&#x4b8;" horiz-adv-x="1501" 
d="M928 0v354q0 81 14 158l-12 2q-53 -27 -144 -37v-272h-137v270q-218 6 -366 107q-107 74 -154 203.5t-47 353.5v311h424v-303q0 -97 4 -148t21 -86t42.5 -48.5t75.5 -24.5v290h137v-292q70 6 142 20v592h424v-1450h-424z" />
    <glyph glyph-name="uni04B9" unicode="&#x4b9;" horiz-adv-x="1357" 
d="M723 874v-221q40 2 123 25v452h389v-1130h-389v362q-36 -5 -123 -16v-209h-137v207q-268 10 -393 136t-125 384v266h389v-233q0 -131 23.5 -174.5t105.5 -60.5v212h137z" />
    <glyph glyph-name="uni04BA" unicode="&#x4ba;" horiz-adv-x="1501" 
d="M559 936l12 -4q87 43 250 43q153 0 277 -45.5t196 -128.5q66 -76 95.5 -192.5t29.5 -299.5v-309h-424v301q0 128 -6.5 176t-27.5 74q-48 63 -177 63q-72 0 -211 -24v-590h-423v1450h423v-358q0 -79 -14 -156z" />
    <glyph glyph-name="uni04BB" unicode="&#x4bb;" horiz-adv-x="1363" 
d="M522 0h-387v1450l387 33v-398q0 -33 -6 -122h12q79 107 166 153.5t209 46.5q175 0 267 -101t92 -296v-766h-385v631q0 176 -146 176q-100 0 -154.5 -69t-54.5 -195v-543z" />
    <glyph glyph-name="uni04C0" unicode="&#x4c0;" horiz-adv-x="722" 
d="M150 0v1450h423v-1450h-423z" />
    <glyph glyph-name="uni04CF" unicode="&#x4cf;" horiz-adv-x="722" 
d="M150 0v1450h423v-1450h-423z" />
    <glyph glyph-name="uni04D8" unicode="&#x4d8;" horiz-adv-x="1693" 
d="M1167 555l-6 8q-69 -14 -127 -14h-372q-61 0 -130 14l-6 -8q41 -109 127 -171t195 -62q107 0 193 63t126 170zM358 965l43 426q129 57 229.5 80.5t213.5 23.5q163 0 307 -59t246.5 -160.5t161.5 -245t59 -305.5q0 -163 -59 -306t-160.5 -244.5t-245 -160.5t-305.5 -59
q-161 0 -304 58.5t-245.5 159.5t-162.5 241.5t-60 298.5q0 72 18 180h940q58 0 127 -14l6 8q-84 231 -350 231q-108 0 -205 -32t-254 -121z" />
    <glyph glyph-name="afii10846" unicode="&#x4d9;" horiz-adv-x="1339" 
d="M854 682l6 8q-59 170 -244 170q-78 0 -155 -22t-246 -93l43 314q237 104 422 104q167 0 306.5 -79t219.5 -216.5t80 -302.5q0 -167 -81 -304t-223 -215.5t-314 -78.5q-173 0 -313 78t-220 216t-80 308q0 45 15 127h657q58 0 127 -14zM860 414l-6 8q-69 -14 -127 -14h-115
q-60 0 -129 14l-6 -8q55 -150 193 -150t190 150z" />
    <glyph glyph-name="uni04E8" unicode="&#x4e8;" horiz-adv-x="1693" 
d="M848 1495q162 0 305 -59t245 -161t161 -245t59 -305t-59 -305t-161 -245t-245 -161t-305 -59q-220 0 -396.5 100.5t-276 278.5t-99.5 401q0 211 102 385.5t279 274.5t391 100zM526 887l6 -8q71 14 130 14h372q58 0 127 -14l6 8q-40 106 -126 168.5t-193 62.5
q-109 0 -195 -62t-127 -169zM1167 555l-6 8q-69 -14 -127 -14h-372q-61 0 -130 14l-6 -8q41 -109 127 -171t195 -62q107 0 193 63t126 170z" />
    <glyph glyph-name="uni04E9" unicode="&#x4e9;" horiz-adv-x="1339" 
d="M670 1163q173 0 314 -78t221.5 -215t80.5 -305q0 -167 -81 -304t-223 -215.5t-314 -78.5q-171 0 -312 78t-221 214.5t-80 303.5q0 126 47 237.5t128.5 191t196 125.5t243.5 46zM477 702l6 -8q74 15 129 15h115q53 0 127 -15l6 8q-52 150 -190 150q-139 0 -193 -150z
M860 414l-6 8q-66 -14 -127 -14h-115q-62 0 -129 14l-6 -8q54 -150 193 -150q138 0 190 150z" />
    <glyph glyph-name="uni2011" unicode="&#x2011;" horiz-adv-x="423" 
d="M0 901h424v-328h-424v328z" />
    <glyph glyph-name="figuredash" unicode="&#x2012;" horiz-adv-x="1202" 
d="M129 901h942v-328h-942v328z" />
    <glyph glyph-name="endash" unicode="&#x2013;" horiz-adv-x="1202" 
d="M129 901h942v-328h-942v328z" />
    <glyph glyph-name="emdash" unicode="&#x2014;" horiz-adv-x="1720" 
d="M41 901h1638v-328h-1638v328z" />
    <glyph glyph-name="afii00208" unicode="&#x2015;" horiz-adv-x="1720" 
d="M41 901h1638v-328h-1638v328z" />
    <glyph glyph-name="quoteleft" unicode="&#x2018;" horiz-adv-x="649" 
d="M567 1450l-188 -576h-354l243 576h299z" />
    <glyph glyph-name="quoteright" unicode="&#x2019;" horiz-adv-x="677" 
d="M82 874l188 576h355l-242 -576h-301z" />
    <glyph glyph-name="quotesinglbase" unicode="&#x201a;" horiz-adv-x="669" 
d="M41 -242l188 611h383l-243 -611h-328z" />
    <glyph glyph-name="quotedblleft" unicode="&#x201c;" horiz-adv-x="1081" 
d="M999 1450l-190 -576h-354l243 576h301zM567 1450l-188 -576h-354l243 576h299z" />
    <glyph glyph-name="quotedblright" unicode="&#x201d;" horiz-adv-x="1081" 
d="M82 874l188 576h355l-242 -576h-301zM512 874l190 576h355l-244 -576h-301z" />
    <glyph glyph-name="quotedblbase" unicode="&#x201e;" horiz-adv-x="1081" 
d="M82 -207l188 576h355l-242 -576h-301zM512 -207l190 576h355l-244 -576h-301z" />
    <glyph glyph-name="dagger" unicode="&#x2020;" horiz-adv-x="942" 
d="M307 815h-225v328h225v307h328v-307h225v-328h-225v-815h-328v815z" />
    <glyph glyph-name="daggerdbl" unicode="&#x2021;" horiz-adv-x="942" 
d="M322 870h-240v273h225v307h328v-307h225v-273h-237v-241h237v-287h-225v-342h-328v342h-225v287h240v241z" />
    <glyph glyph-name="bullet" unicode="&#x2022;" horiz-adv-x="1089" 
d="M545 1196q198 0 329.5 -132.5t131.5 -330.5q0 -197 -132 -329t-329 -132q-199 0 -331 133t-132 334q0 194 133.5 325.5t329.5 131.5z" />
    <glyph glyph-name="ellipsis" unicode="&#x2026;" horiz-adv-x="1761" 
d="M293 397q89 0 151 -62t62 -153q0 -85 -62.5 -147t-148.5 -62q-89 0 -151 62t-62 151q0 88 61.5 149.5t149.5 61.5zM881 397q89 0 151 -62t62 -153q0 -85 -62.5 -147t-148.5 -62q-89 0 -151 62t-62 151q0 88 61.5 149.5t149.5 61.5zM1466 397q89 0 151 -62t62 -153
q0 -85 -62.5 -147t-148.5 -62q-89 0 -151 62t-62 151q0 88 61.5 149.5t149.5 61.5z" />
    <glyph glyph-name="perthousand" unicode="&#x2030;" horiz-adv-x="2766" 
d="M465 1495q167 0 284 -113t117 -274q0 -163 -117 -276t-284 -113q-171 0 -287.5 113t-116.5 280q0 158 118.5 270.5t285.5 112.5zM465 1231q-46 0 -78.5 -36t-32.5 -87q0 -53 32 -89t79 -36q44 0 76 36t32 87q0 52 -31.5 88.5t-76.5 36.5zM1243 1450h264l-895 -1450h-264z
M1399 731q169 0 286 -113t117 -276q0 -161 -117 -274t-284 -113q-172 0 -288 113t-116 280q0 158 118 270.5t284 112.5zM1401 467q-46 0 -78.5 -36t-32.5 -87q0 -53 32 -89t79 -36q44 0 76 36t32 87q0 52 -31.5 88.5t-76.5 36.5zM2302 731q169 0 286 -113t117 -276
q0 -161 -117 -274t-284 -113q-172 0 -289 113t-117 280q0 158 118.5 270.5t285.5 112.5zM2302 467q-46 0 -78.5 -36t-32.5 -87q0 -53 32 -89t79 -36q46 0 78.5 36t32.5 87q0 52 -32.5 88.5t-78.5 36.5z" />
    <glyph glyph-name="guilsinglleft" unicode="&#x2039;" horiz-adv-x="579" 
d="M41 682l242 422l256 -148l-160 -274l160 -274l-256 -148z" />
    <glyph glyph-name="guilsinglright" unicode="&#x203a;" horiz-adv-x="579" 
d="M539 682l-242 -422l-256 148l160 274l-160 274l256 148z" />
    <glyph glyph-name="uni203E" unicode="&#x203e;" horiz-adv-x="1161" 
d="M-20 1860h1202v-273h-1202v273z" />
    <glyph glyph-name="fraction" unicode="&#x2044;" horiz-adv-x="530" 
d="M514 1450h262l-758 -1450h-264z" />
    <glyph glyph-name="foursuperior" unicode="&#x2074;" horiz-adv-x="800" 
d="M739 395h70l-16 -215h-52v-180h-264v180h-487l497 787h252v-572zM342 371h150v250z" />
    <glyph glyph-name="franc" unicode="&#x20a3;" horiz-adv-x="1910" 
d="M150 0v1450h944v-369h-521v-213h367v-354h-367v-514h-423zM1479 0h-392v995l371 33v-256h15q23 66 43.5 101.5t50.5 62.5q51 43 123.5 67.5t148.5 24.5h31l-41 -422l-43 4h-25q-149 0 -215.5 -77t-66.5 -252v-281z" />
    <glyph glyph-name="Euro" unicode="&#x20ac;" horiz-adv-x="1306" 
d="M1155 399l-51 -401q-120 -43 -250 -43q-296 0 -509.5 181t-250.5 462h-135l35 240h102q37 293 248 475t514 182q146 0 309 -57l-104 -361q-106 41 -191 41q-140 0 -226.5 -72.5t-108.5 -207.5h460l-69 -240h-391q25 -125 123 -196.5t245 -71.5q61 0 112.5 14.5
t137.5 54.5z" />
    <glyph glyph-name="afii61352" unicode="&#x2116;" horiz-adv-x="2783" 
d="M2101 1495q171 0 312.5 -70.5t222 -194.5t80.5 -274t-81 -273.5t-223 -194t-315 -70.5q-172 0 -312 70t-220 193t-80 273q0 152 80 276t221 194.5t315 70.5zM2099 1202q-97 0 -158 -69.5t-61 -178.5q0 -117 60 -186.5t161 -69.5q95 0 156 71t61 181q0 111 -61 181.5
t-158 70.5zM1583 328h1065v-328h-1065v328zM150 0v1583l634 -565q87 -77 121 -111q30 -26 105 -108l14 6q-14 119 -14 242v403h409v-1587l-635 579q-24 23 -69.5 64.5t-50.5 46.5q-37 37 -105 117l-14 -8q14 -129 14 -261v-401h-409z" />
    <glyph glyph-name="trademark" unicode="&#x2122;" horiz-adv-x="1660" 
d="M244 580v634h-236v236h727v-236h-223v-634h-268zM604 580l238 901l286 -492l285 492l240 -901h-262l-76 305l-195 -344l-194 344l-70 -305h-252z" />
    <glyph glyph-name="uni2126" unicode="&#x2126;" horiz-adv-x="1693" 
d="M989 0v367q91 50 142 144t51 214q0 167 -96.5 280t-237.5 113q-143 0 -239.5 -113t-96.5 -280q0 -119 53 -217t140 -141v-367h-629v342l162 -14q-1 2 -6.5 9.5t-18 25t-25.5 36.5q-63 91 -87.5 167t-24.5 182q0 153 60.5 291.5t163.5 238.5t246.5 158.5t301.5 58.5
q211 0 388 -99.5t279.5 -271t102.5 -376.5q0 -120 -31.5 -201t-132.5 -219l164 14v-342h-629z" />
    <glyph glyph-name="partialdiff" unicode="&#x2202;" horiz-adv-x="1202" 
d="M123 1450h473q305 -305 433 -521t128 -427q0 -233 -158 -390t-391 -157q-155 0 -283 68.5t-201 189t-73 266.5q0 209 136 343.5t368 154.5q-82 117 -179.5 223t-252.5 250zM604 655q-60 0 -101.5 -50t-41.5 -122q0 -73 41.5 -123.5t101.5 -50.5q61 0 102.5 50.5
t41.5 125.5q0 71 -42 120.5t-102 49.5z" />
    <glyph glyph-name="Delta" unicode="&#x2206;" horiz-adv-x="1507" 
d="M1534 0h-1561l789 1501zM948 322l-200 464l-203 -464h403z" />
    <glyph glyph-name="product" unicode="&#x220f;" horiz-adv-x="1529" 
d="M68 1632h1392v-403h-137v-1587l-424 -31v1618h-270v-1587l-424 -31v1618h-137v403z" />
    <glyph glyph-name="summation" unicode="&#x2211;" horiz-adv-x="1456" 
d="M1315 1632v-403h-549l266 -604l-264 -605h567v-403h-1259l465 1008l-465 1007h1239z" />
    <glyph glyph-name="minus" unicode="&#x2212;" horiz-adv-x="1202" 
d="M129 901h942v-328h-942v328z" />
    <glyph glyph-name="radical" unicode="&#x221a;" horiz-adv-x="1449" 
d="M1450 1798v-268h-309l-453 -1530h-393l-158 520h-137v268h367l118 -428l410 1438h555z" />
    <glyph glyph-name="infinity" unicode="&#x221e;" horiz-adv-x="1630" 
d="M815 1026q72 114 146.5 162.5t177.5 48.5q180 0 294.5 -143.5t114.5 -368.5q0 -223 -115.5 -367.5t-293.5 -144.5q-103 0 -178.5 49t-145.5 162q-72 -114 -146 -162.5t-177 -48.5q-179 0 -294.5 144t-115.5 368t115 368t295 144q103 0 176.5 -48t146.5 -163zM657 723
q-28 67 -60 96t-79 29q-52 0 -83.5 -33.5t-31.5 -89.5q0 -54 31.5 -88.5t81.5 -34.5q47 0 79.5 27.5t61.5 93.5zM973 723q31 -66 62.5 -93.5t78.5 -27.5q50 0 81.5 34.5t31.5 88.5q0 56 -31.5 89.5t-83.5 33.5q-47 0 -78.5 -28.5t-60.5 -96.5z" />
    <glyph glyph-name="integral" unicode="&#x222b;" horiz-adv-x="1087" 
d="M127 -520l39 301q51 -21 88 -21q42 0 72.5 19.5t42.5 54.5q7 22 8.5 49t1.5 158v1079q2 195 4.5 233t19.5 83q32 92 131.5 144t239.5 52q75 0 187 -24l-39 -301q-48 22 -88 22q-75 0 -100 -43.5t-25 -175.5v-1139q0 -207 -12.5 -273.5t-59.5 -117.5q-110 -119 -373 -119
q-73 0 -137 19z" />
    <glyph glyph-name="approxequal" unicode="&#x2248;" horiz-adv-x="1202" 
d="M952 694l135 -258q-92 -83 -161 -114t-160 -31q-71 0 -129 22l-90 37q-65 27 -111 27q-41 0 -82.5 -19.5t-107.5 -70.5l-133 258q91 82 160.5 113.5t160.5 31.5q71 0 129 -22l90 -37q65 -27 111 -27q41 0 82.5 19.5t105.5 70.5zM952 1239l135 -258q-92 -83 -161 -114
t-160 -31q-70 0 -129 24l-90 35q-65 27 -111 27q-40 0 -82 -20t-108 -71l-133 259q91 82 160.5 113.5t160.5 31.5q68 0 129 -23l90 -36q73 -27 111 -27q41 0 82.5 19.5t105.5 70.5z" />
    <glyph glyph-name="notequal" unicode="&#x2260;" horiz-adv-x="1173" 
d="M795 1425l282 -163l-63 -115h45v-328h-236l-108 -190h344v-328h-535l-149 -258l-285 164l53 94h-26v328h221l106 190h-327v328h516z" />
    <glyph glyph-name="lessequal" unicode="&#x2264;" horiz-adv-x="989" 
d="M948 0h-907v279h907v-279zM530 874l328 -319l-233 -233l-551 552l551 551l233 -231z" />
    <glyph glyph-name="greaterequal" unicode="&#x2265;" horiz-adv-x="989" 
d="M948 0h-907v279h907v-279zM487 874l-329 320l233 231l551 -551l-551 -552l-233 233z" />
    <glyph glyph-name="dotmath" unicode="&#x22c5;" horiz-adv-x="681" 
d="M340 942q79 0 134.5 -56t55.5 -136q0 -77 -56 -133t-134 -56t-134 56.5t-56 134.5t56 134t134 56z" />
    <glyph glyph-name="lozenge" unicode="&#x25ca;" horiz-adv-x="1449" 
d="M725 1501l563 -776l-563 -780l-565 780zM725 997l-197 -272l197 -274l197 274z" />
    <glyph glyph-name="commaaccent" unicode="&#xf6c3;" horiz-adv-x="602" 
d="M37 -532l170 428h344l-219 -428h-295z" />
    <glyph glyph-name="Acute" unicode="&#xf6c9;" 
d="M1016 2036l100 -277l-631 -231l-100 276z" />
    <glyph glyph-name="Caron" unicode="&#xf6ca;" 
d="M682 1542l-422 242l148 256l274 -160l274 160l148 -256z" />
    <glyph glyph-name="Dieresis" unicode="&#xf6cb;" 
d="M348 1898q75 0 127.5 -52.5t52.5 -127.5t-53 -128.5t-127 -53.5q-75 0 -128.5 53.5t-53.5 128.5t53 127.5t129 52.5zM1022 1898q75 0 127.5 -52t52.5 -128q0 -75 -53 -128.5t-127 -53.5q-75 0 -128.5 53.5t-53.5 128.5t53 127.5t129 52.5z" />
    <glyph glyph-name="Grave" unicode="&#xf6ce;" 
d="M348 2036l631 -232l-100 -276l-631 231z" />
    <glyph glyph-name="Hungarumlaut" unicode="&#xf6cf;" 
d="M489 2154l226 -188l-371 -444l-225 188zM1044 2154l226 -188l-369 -444l-225 188z" />
    <glyph glyph-name="Macron" unicode="&#xf6d0;" 
d="M369 1554v279h626v-279h-626z" />
    <glyph glyph-name="Dotaccent" 
d="M684 1898q75 0 127.5 -52.5t52.5 -127.5t-53 -128.5t-127 -53.5q-75 0 -128.5 53.5t-53.5 128.5t53 127.5t129 52.5z" />
    <glyph glyph-name="Ring" 
d="M684 1915q107 0 180.5 -72.5t73.5 -179.5t-73.5 -179.5t-180.5 -72.5q-110 0 -183 73t-73 183q0 104 74.5 176t181.5 72zM680 1755q-38 0 -65 -27t-27 -65q0 -41 26.5 -67.5t67.5 -26.5q38 0 65 27t27 65q0 41 -26.5 67.5t-67.5 26.5z" />
    <glyph glyph-name="Circumflex" 
d="M682 2025l422 -241l-148 -256l-274 160l-274 -160l-148 256z" />
    <glyph glyph-name="Breve" 
d="M969 1931l135 -239q-119 -85 -217.5 -122.5t-204.5 -37.5q-105 0 -203 37.5t-217 122.5l133 239q159 -112 287 -112q130 0 287 112z" />
    <glyph glyph-name="Tilde" 
d="M987 1942l109 -285q-70 -58 -129.5 -81.5t-137.5 -23.5q-52 0 -108 17l-92 33q-65 20 -103 20q-37 0 -70.5 -15t-84.5 -53l-103 287q64 52 121 73t131 21q60 0 109 -18l92 -31q56 -20 102 -20q38 0 74.5 17t89.5 59z" />
    <glyph glyph-name="Cedilla" 
d="M616 -45l72 -2q109 -29 169.5 -95.5t60.5 -158.5q0 -106 -78 -176t-195 -70q-93 0 -196 60l22 206q57 -41 90.5 -55t73.5 -14t66 18t26 47q0 69 -135 78z" />
    <glyph glyph-name="Ogonek" 
d="M1202 -254l-10 -209q-93 -59 -195 -59q-121 0 -200.5 71.5t-79.5 180.5q0 92 58 154.5t192 115.5h196q-125 -76 -178 -130.5t-53 -107.5q0 -37 31 -61.5t75 -24.5q40 0 73.5 14.5t90.5 55.5z" />
    <glyph glyph-name="Commaaccent" horiz-adv-x="602" 
d="M37 -524l170 428h344l-219 -428h-295z" />
    <glyph glyph-name="Comma.high" horiz-adv-x="602" 
d="M37 1044l170 429h344l-219 -429h-295z" />
    <glyph glyph-name="Dieresis.alt" 
d="M508 1827q61 0 103 -42t42 -102q0 -61 -42.5 -104t-102.5 -43t-103 42.5t-43 102.5q0 61 42 103.5t104 42.5zM860 1827q61 0 103.5 -42t42.5 -102q0 -61 -43 -104t-103 -43t-102.5 42.5t-42.5 102.5q0 62 42 104t103 42z" />
    <glyph glyph-name="comma.high" horiz-adv-x="602" 
d="M37 1059l170 428h344l-219 -428h-295z" />
    <glyph glyph-name="dieresis.alt" 
d="M514 1575q59 0 99 -39.5t40 -97.5q0 -57 -40 -98.5t-97 -41.5t-98 41.5t-41 98.5t40 97t97 40zM848 1575q59 0 99 -39.5t40 -97.5t-40 -99t-97 -41q-58 0 -98.5 41.5t-40.5 98.5t40 97t97 40z" />
    <glyph glyph-name="commareversed" horiz-adv-x="534" 
d="M489 1610l-151 -428h-305l194 428h262z" />
    </font>
</defs>
</svg>
