<?xml version="1.0" standalone="no"?>
<!DOCTYPE svg PUBLIC "-//W3C//DTD SVG 1.1//EN" "http://www.w3.org/Graphics/SVG/1.1/DTD/svg11.dtd" >
<svg xmlns="http://www.w3.org/2000/svg" xmlns:xlink="http://www.w3.org/1999/xlink" version="1.1">
<metadata>
Created by FontForge 20170731 at Sat Sep  5 15:52:31 2020
 By Aleksey,,,
Copyright Achaz Reuss 2000. Digital data and hinting by URW++ Design &#38; Development 
</metadata>
<defs>
<font id="NiveaLightItalic" horiz-adv-x="1366" >
  <font-face 
    font-family="NiveaLightItalic"
    font-weight="300"
    font-style="italic"
    font-stretch="normal"
    units-per-em="2048"
    panose-1="0 0 4 0 0 0 0 0 0 0"
    ascent="1477"
    descent="-571"
    x-height="1139"
    cap-height="1450"
    bbox="-129 -539 6840 2025"
    underline-thickness="157"
    underline-position="-474"
    unicode-range="U+0020-FB02"
  />
<missing-glyph horiz-adv-x="587" 
 />
    <glyph glyph-name="fi" unicode="fi" horiz-adv-x="1269" 
d="M369 0h-158l176 989h-199l27 150h197l14 75q26 151 127.5 233.5t261.5 82.5q92 0 203 -41l-66 -156q-50 27 -86 37t-82 10q-89 0 -137 -40t-63 -126l-15 -75h369l-27 -150h-368zM1305 1159l-205 -1159h-156l199 1135zM1282 1477q40 0 66 -26.5t26 -64.5
q0 -51 -38.5 -88.5t-90.5 -37.5q-40 0 -66 25t-26 63q0 52 38.5 90.5t90.5 38.5z" />
    <glyph glyph-name="fl" unicode="fl" horiz-adv-x="1277" 
d="M369 0h-158l176 989h-199l27 150h197l14 75q26 151 127.5 233.5t261.5 82.5q92 0 203 -41l-66 -156q-50 27 -86 37t-82 10q-89 0 -137 -40t-63 -126l-15 -75h369l-27 -150h-368zM1100 0h-156l256 1450l162 27z" />
    <glyph glyph-name=".notdef" horiz-adv-x="587" 
 />
    <glyph glyph-name=".null" horiz-adv-x="0" 
 />
    <glyph glyph-name="nonmarkingreturn" horiz-adv-x="682" 
 />
    <glyph glyph-name="space" unicode=" " horiz-adv-x="587" 
 />
    <glyph glyph-name="exclam" unicode="!" horiz-adv-x="671" 
d="M334 383l164 1067l200 35l-217 -1067zM348 182q43 0 74 -30.5t31 -73.5q0 -44 -30.5 -74.5t-74.5 -30.5q-41 0 -72.5 32t-31.5 73q0 43 30.5 73.5t73.5 30.5z" />
    <glyph glyph-name="quotedbl" unicode="&#x22;" horiz-adv-x="643" 
d="M242 1436h149v-557h-149v557zM565 1436h150v-557h-150v557z" />
    <glyph glyph-name="numbersign" unicode="#" horiz-adv-x="1327" 
d="M504 416l-123 -348h-158l123 348h-256l29 157h282l107 304h-256l29 157h284l121 344h158l-121 -344h356l121 344h158l-121 -344h256l-27 -157h-284l-107 -304h256l-28 -157h-283l-121 -344h-160l121 344h-356zM668 877l-107 -304h357l106 304h-356z" />
    <glyph glyph-name="dollar" unicode="$" horiz-adv-x="1202" 
d="M473 -219l35 194q-139 10 -305 82l-21 201q145 -80 235 -108.5t195 -28.5q169 0 275 82t106 211q0 77 -43 130t-155 113l-170 93q-138 75 -194 145.5t-56 171.5q0 152 117 267.5t292 135.5l27 148h156l-25 -143q88 -10 149 -28t146 -58l-39 -168q-116 62 -187.5 84
t-158.5 22q-135 0 -226 -72.5t-91 -179.5q0 -60 38 -100t156 -103l148 -77q146 -78 210 -164.5t64 -206.5q0 -189 -131.5 -310.5t-355.5 -140.5l-35 -192h-156z" />
    <glyph glyph-name="percent" unicode="%" horiz-adv-x="1540" 
d="M604 1477q144 0 249 -103.5t105 -243.5q0 -149 -101.5 -249.5t-252.5 -100.5q-144 0 -248 103.5t-104 246.5q0 145 102 246t250 101zM606 1329q-81 0 -140.5 -59.5t-59.5 -139.5q0 -86 57 -144t143 -58q82 0 140.5 59t58.5 141q0 85 -58 143t-141 58zM1335 1450h166
l-971 -1450h-165zM1257 670q143 0 249 -103.5t106 -242.5q0 -148 -101.5 -249.5t-250.5 -101.5q-145 0 -250 104t-105 247q0 145 102 245.5t250 100.5zM1260 522q-82 0 -141.5 -59t-59.5 -139q0 -86 58 -144.5t143 -58.5q81 0 139.5 59.5t58.5 141.5q0 83 -57.5 141.5
t-140.5 58.5z" />
    <glyph glyph-name="ampersand" unicode="&#x26;" horiz-adv-x="1435" 
d="M1186 0l-121 190q-104 -112 -218.5 -164.5t-254.5 -52.5q-201 0 -319.5 99.5t-118.5 267.5q0 152 82.5 264.5t287.5 239.5l84 53l-37 55q-67 103 -67 201q0 132 98 228t234 96q117 0 196.5 -77.5t79.5 -191.5q0 -86 -56.5 -156t-197.5 -159l-49 -31l287 -434
q137 171 209 315l131 -49q-101 -197 -265 -385l203 -309h-188zM989 309l-305 471l-74 -45q-168 -102 -232.5 -185t-64.5 -198q0 -106 77 -167.5t208 -61.5q115 0 198.5 40t192.5 146zM739 971l45 30q96 66 133 111t37 94q0 53 -37 87t-94 34q-70 0 -115.5 -48.5
t-45.5 -123.5q0 -67 43 -129z" />
    <glyph glyph-name="quotesingle" unicode="'" horiz-adv-x="319" 
d="M242 1436h149v-557h-149v557z" />
    <glyph glyph-name="parenleft" unicode="(" horiz-adv-x="495" 
d="M563 1522h162q-227 -314 -320.5 -534.5t-93.5 -446.5q0 -132 31.5 -260t108.5 -316h-162q-75 184 -105 309t-30 261q0 245 96.5 478t312.5 509z" />
    <glyph glyph-name="parenright" unicode=")" horiz-adv-x="495" 
d="M197 -35h-162q229 318 321.5 537.5t92.5 445.5q0 132 -31.5 261.5t-108.5 312.5h162q75 -182 105 -307t30 -261q0 -245 -95.5 -475.5t-313.5 -513.5z" />
    <glyph glyph-name="asterisk" unicode="*" horiz-adv-x="1042" 
d="M684 971l-229 -244l-117 119l256 219l-311 119l77 155l295 -163l35 329l174 -28l-82 -324l334 53l21 -174l-334 -4l166 -295l-150 -71z" />
    <glyph glyph-name="plus" unicode="+" horiz-adv-x="1105" 
d="M762 735h393l-29 -157h-391l-69 -394h-158l67 394h-391l29 157h391l70 391h157z" />
    <glyph glyph-name="comma" unicode="," horiz-adv-x="548" 
d="M-23 -340l265 528h178l-289 -528h-154z" />
    <glyph glyph-name="hyphen" unicode="-" horiz-adv-x="522" 
d="M102 578l29 157h522l-28 -157h-523z" />
    <glyph glyph-name="period" unicode="." horiz-adv-x="536" 
d="M281 182q43 0 73.5 -31t30.5 -75q0 -42 -30.5 -72.5t-73.5 -30.5q-41 0 -73 32t-32 73q0 43 31 73.5t74 30.5z" />
    <glyph glyph-name="slash" unicode="/" horiz-adv-x="737" 
d="M979 1450l-795 -1450h-170l795 1450h170z" />
    <glyph glyph-name="zero" unicode="0" horiz-adv-x="1202" 
d="M840 1477q197 0 310.5 -143.5t113.5 -393.5q0 -195 -51 -374t-137 -309t-204 -207t-247 -77q-197 0 -311.5 141.5t-114.5 387.5q0 194 51.5 374.5t138 312t205 210t246.5 78.5zM840 1327q-94 0 -183.5 -66t-155 -175.5t-105.5 -258.5t-40 -307q0 -190 71 -293.5
t200 -103.5q124 0 235.5 114.5t177.5 304.5t66 402q0 175 -72.5 279t-193.5 104z" />
    <glyph glyph-name="one" unicode="1" horiz-adv-x="602" 
d="M287 0l229 1300h-170l62 150h292l-256 -1450h-157z" />
    <glyph glyph-name="two" unicode="2" horiz-adv-x="1202" 
d="M12 0l750 651q179 155 247 250t68 191q0 106 -78 170.5t-206 64.5q-120 0 -209 -58t-183 -198l-122 78q113 172 237 250t287 78q189 0 310.5 -107t121.5 -274q0 -74 -29.5 -151.5t-83.5 -141.5q-54 -63 -100.5 -107.5t-265.5 -238.5l-344 -307h729l-66 -150h-1063z" />
    <glyph glyph-name="three" unicode="3" horiz-adv-x="1202" 
d="M109 207l120 104q96 -108 179.5 -148t214.5 -40q155 0 255.5 87.5t100.5 221.5q0 67 -30 125t-77 84q-78 41 -270 41h-76l27 149h76q204 0 316 76.5t112 214.5q0 92 -68.5 148.5t-177.5 56.5q-106 0 -189 -44t-188 -157l-110 101q127 135 241 192.5t254 57.5
q175 0 285 -97.5t110 -251.5q0 -122 -63.5 -209.5t-198.5 -150.5q97 -60 140 -137t43 -189q0 -202 -150 -335.5t-377 -133.5q-165 0 -266.5 48t-232.5 186z" />
    <glyph glyph-name="four" unicode="4" horiz-adv-x="1202" 
d="M805 0l51 293h-817l1188 1208l-187 -1059h172l-53 -149h-145l-51 -293h-158zM883 442l108 617l-604 -617h496z" />
    <glyph glyph-name="five" unicode="5" horiz-adv-x="1202" 
d="M113 182l127 111q93 -96 171 -133t191 -37q179 0 298.5 113t119.5 282q0 147 -93.5 232.5t-254.5 85.5q-158 0 -336 -80l160 694h708l-33 -150h-550l-76 -335q90 20 155 20q217 0 347.5 -126t130.5 -337q0 -239 -163.5 -394t-416.5 -155q-151 0 -263 48.5t-222 160.5z
" />
    <glyph glyph-name="six" unicode="6" horiz-adv-x="1202" 
d="M924 1450h213q-300 -264 -519 -489q102 22 168 22q195 0 313 -119t118 -315q0 -161 -75.5 -293t-207 -207.5t-291.5 -75.5q-211 0 -338 119.5t-127 317.5q0 166 77 307.5t286 359.5q211 223 383 373zM748 834q-180 0 -296 -119t-116 -303q0 -134 84 -211.5t229 -77.5
q172 0 291 122.5t119 299.5q0 133 -84 211t-227 78z" />
    <glyph glyph-name="seven" unicode="7" horiz-adv-x="1202" 
d="M244 0l884 1300h-788l33 150h1032l-977 -1450h-184z" />
    <glyph glyph-name="eight" unicode="8" horiz-adv-x="1202" 
d="M561 805q-117 68 -162 129.5t-45 155.5q0 163 137 275t336 112q179 0 293.5 -93t114.5 -239q0 -124 -72 -203.5t-243 -144.5q141 -72 201.5 -159.5t60.5 -219.5q0 -199 -148 -322t-387 -123q-221 0 -346 102t-125 283q0 154 91 259.5t294 187.5zM748 877q159 54 217 86
q54 29 83 75.5t29 102.5q0 88 -67.5 137t-188.5 49q-135 0 -222 -65t-87 -166q0 -74 53 -123t183 -96zM739 723q-221 -66 -313 -148t-92 -213q0 -112 82.5 -175.5t228.5 -63.5q172 0 275.5 83t103.5 220q0 107 -65.5 175t-219.5 122z" />
    <glyph glyph-name="nine" unicode="9" horiz-adv-x="1202" 
d="M547 0h-211q269 237 518 489q-102 -22 -168 -22q-197 0 -313.5 118.5t-116.5 317.5q0 160 75 291.5t206.5 207t291.5 75.5q211 0 338 -119.5t127 -317.5q0 -165 -77.5 -307.5t-284.5 -359.5q-187 -199 -385 -373zM825 1327q-173 0 -292 -122t-119 -300q0 -133 84 -211
t227 -78q180 0 296 119t116 303q0 132 -84.5 210.5t-227.5 78.5z" />
    <glyph glyph-name="colon" unicode=":" horiz-adv-x="536" 
d="M281 182q43 0 73.5 -30.5t30.5 -73.5q0 -44 -29.5 -74.5t-72.5 -30.5t-75 32t-32 73q0 43 31 73.5t74 30.5zM410 889q43 0 73.5 -31.5t30.5 -75.5q0 -43 -30 -72.5t-74 -29.5q-42 0 -73.5 30.5t-31.5 71.5q0 44 31 75.5t74 31.5z" />
    <glyph glyph-name="semicolon" unicode=";" horiz-adv-x="573" 
d="M-23 -340l265 528h178l-287 -528h-156zM449 889q43 0 73.5 -31.5t30.5 -75.5q0 -43 -30.5 -72.5t-73.5 -29.5q-42 0 -73.5 30.5t-31.5 71.5q0 44 30.5 75.5t74.5 31.5z" />
    <glyph glyph-name="less" unicode="&#x3c;" horiz-adv-x="831" 
d="M199 655l608 519l104 -123l-479 -416l322 -393l-129 -103z" />
    <glyph glyph-name="equal" unicode="=" horiz-adv-x="1105" 
d="M147 371l29 157h942l-28 -157h-943zM219 782l29 158h942l-29 -158h-942z" />
    <glyph glyph-name="greater" unicode="&#x3e;" horiz-adv-x="831" 
d="M879 655l-609 -516l-104 123l479 414l-321 395l129 103z" />
    <glyph glyph-name="question" unicode="?" horiz-adv-x="1005" 
d="M330 383l55 311l53 19q240 88 349.5 184.5t109.5 222.5q0 104 -72.5 159.5t-210.5 55.5q-83 0 -198 -24l41 155q117 19 188 19q186 0 298 -97t112 -258q0 -162 -97 -269t-335 -206l-95 -41l-36 -196zM360 182q43 0 74 -30.5t31 -73.5q0 -44 -30.5 -74.5t-74.5 -30.5
q-41 0 -72.5 32t-31.5 73q0 43 30.5 73.5t73.5 30.5z" />
    <glyph glyph-name="at" unicode="@" horiz-adv-x="1495" 
d="M1163 184l15 -143q-111 -40 -180.5 -54t-159.5 -14q-286 0 -454.5 165.5t-168.5 445.5q0 240 116 445.5t314.5 326.5t429.5 121q140 0 262.5 -41t280.5 -140l-121 -686q-29 -179 -29 -235l-151 -21v54q-134 -60 -258 -60q-146 0 -228.5 78t-82.5 215q0 196 136.5 331.5
t334.5 135.5q57 0 99.5 -9t102.5 -34l27 152q-181 110 -381 110q-187 0 -347 -99t-253.5 -267.5t-93.5 -364.5q0 -220 125.5 -346.5t345.5 -126.5q78 0 148 13t171 48zM1329 549l68 373q-86 45 -180 45q-133 0 -222.5 -85.5t-89.5 -211.5q0 -92 48 -135t149 -43
q108 0 227 57z" />
    <glyph glyph-name="A" unicode="A" horiz-adv-x="1380" 
d="M170 0h-190l989 1501l432 -1501h-172l-84 301h-780zM459 451h649l-195 702z" />
    <glyph glyph-name="B" unicode="B" horiz-adv-x="1259" 
d="M195 0l256 1450h383q238 0 346 -80q58 -46 91.5 -117t33.5 -151q0 -134 -72 -220t-211 -120q105 -43 155 -120.5t50 -197.5q0 -132 -61 -234.5t-167 -152.5q-73 -35 -150.5 -46t-246.5 -11h-407zM582 1300l-84 -466h256q205 0 297 61.5t92 198.5q0 115 -74.5 160.5
t-259.5 45.5h-227zM471 684l-92 -534h293q209 0 302 72.5t93 234.5q0 117 -79.5 172t-246.5 55h-270z" />
    <glyph glyph-name="C" unicode="C" horiz-adv-x="1357" 
d="M1315 305l16 -164q-133 -95 -235 -131.5t-234 -36.5q-286 0 -463.5 175t-177.5 458q0 177 67.5 338.5t181.5 278t272 185.5t331 69q122 0 222.5 -32t211.5 -106l-55 -159q-112 83 -199 115t-198 32q-138 0 -263.5 -56.5t-215.5 -153t-143.5 -229.5t-53.5 -280
q0 -223 131 -354t354 -131q128 0 220.5 37.5t230.5 144.5z" />
    <glyph glyph-name="D" unicode="D" horiz-adv-x="1505" 
d="M451 1450h276q421 0 624 -153.5t203 -471.5q0 -177 -69 -337.5t-193 -272.5q-125 -113 -296.5 -164t-424.5 -51h-376zM582 1300l-203 -1150h207q210 0 358.5 47.5t249.5 146.5q95 92 148 222t53 270q0 236 -159 350t-488 114h-166z" />
    <glyph glyph-name="E" unicode="E" horiz-adv-x="1173" 
d="M195 0l256 1450h843l-26 -150h-686l-84 -475h602l-27 -149h-602l-92 -526h696l-26 -150h-854z" />
    <glyph glyph-name="F" unicode="F" horiz-adv-x="1136" 
d="M195 0l256 1450h854l-27 -150h-696l-84 -466h630l-26 -150h-631l-119 -684h-157z" />
    <glyph glyph-name="G" unicode="G" horiz-adv-x="1533" 
d="M1534 1339l-55 -159q-113 84 -201 115.5t-209 31.5q-144 0 -272 -55.5t-219.5 -151t-145 -229t-53.5 -283.5q0 -226 131 -355.5t358 -129.5q132 0 228.5 36.5t199.5 125.5l62 348h-445l27 149h600l-98 -557q-148 -137 -281 -194.5t-301 -57.5q-286 0 -462.5 175
t-176.5 458q0 180 67.5 341t182 277.5t274.5 184.5t338 68q131 0 236.5 -32.5t214.5 -105.5z" />
    <glyph glyph-name="H" unicode="H" horiz-adv-x="1581" 
d="M195 0l256 1450h157l-110 -616h880l109 616h158l-256 -1450h-158l121 684h-881l-119 -684h-157z" />
    <glyph glyph-name="I" unicode="I" horiz-adv-x="544" 
d="M195 0l256 1450h157l-256 -1450h-157z" />
    <glyph glyph-name="J" unicode="J" horiz-adv-x="813" 
d="M14 4l4 164q89 -37 183 -37q155 0 241 78.5t115 247.5l176 993h156l-174 -997q-83 -471 -518 -471q-87 0 -183 22z" />
    <glyph glyph-name="K" unicode="K" horiz-adv-x="1392" 
d="M195 0l256 1450h157l-121 -678l895 678h232l-942 -717l755 -733h-206l-744 709l-125 -709h-157z" />
    <glyph glyph-name="L" unicode="L" horiz-adv-x="1093" 
d="M195 0l256 1450h157l-229 -1300h719l-27 -150h-876z" />
    <glyph glyph-name="M" unicode="M" horiz-adv-x="1710" 
d="M27 0l585 1501l301 -1186l684 1186l89 -1501h-158l-51 993l-617 -1048l-282 1048l-383 -993h-168z" />
    <glyph glyph-name="N" unicode="N" horiz-adv-x="1595" 
d="M195 0l264 1501l846 -1165l196 1114h158l-266 -1505l-844 1171l-197 -1116h-157z" />
    <glyph glyph-name="O" unicode="O" horiz-adv-x="1628" 
d="M1001 1477q146 0 271 -50t213 -138.5t138 -214.5t50 -273q0 -230 -102 -420t-280 -299t-394 -109q-296 0 -486 190t-190 486q0 230 102.5 420t281.5 299t396 109zM995 1327q-127 0 -241.5 -52t-197 -139.5t-131 -210t-48.5 -257.5q0 -249 140 -397t374 -148q132 0 248 51
t199 140t130.5 214t47.5 267q0 238 -144 385t-377 147z" />
    <glyph glyph-name="P" unicode="P" horiz-adv-x="1216" 
d="M195 0l256 1450h309q149 0 238 -17t159 -57q85 -51 131.5 -140.5t46.5 -199.5q0 -109 -47.5 -205.5t-130.5 -156.5q-88 -62 -205.5 -87.5t-310.5 -25.5h-190l-99 -561h-157zM582 1300l-105 -589h144q155 0 229 8t135 31q86 31 139.5 110.5t53.5 177.5q0 78 -34 138
t-93 86q-56 24 -116.5 31t-209.5 7h-143z" />
    <glyph glyph-name="Q" unicode="Q" horiz-adv-x="1628" 
d="M324 -4l49 115q61 -5 153 -41q-305 197 -305 589q0 225 103.5 413t282 296.5t392.5 108.5q147 0 272.5 -50t213.5 -138.5t138 -214.5t50 -273q0 -170 -60 -323.5t-162 -264t-243.5 -175.5t-298.5 -65q-35 0 -112 9v-9q197 -96 285.5 -126t256.5 -56l-51 -153
q-142 22 -247.5 61t-260.5 129q-147 83 -249 120t-207 48zM995 1327q-127 0 -241.5 -52t-197 -139.5t-131 -210t-48.5 -257.5q0 -249 140 -397t374 -148q132 0 248 51t199 140t130.5 214t47.5 267q0 238 -144 385t-377 147z" />
    <glyph glyph-name="R" unicode="R" horiz-adv-x="1325" 
d="M889 612l389 -612h-197l-354 594h-270l-105 -594h-157l256 1450h309q150 0 238 -16.5t157 -57.5q85 -51 133.5 -140.5t48.5 -195.5q0 -181 -115.5 -291.5t-332.5 -136.5zM582 1300l-99 -557h144q154 0 227.5 8t138.5 31q83 28 135 101t52 161q0 72 -35.5 132t-95.5 86
q-53 24 -114 31t-210 7h-143z" />
    <glyph glyph-name="S" unicode="S" horiz-adv-x="1110" 
d="M152 59l-21 201q145 -79 235.5 -108t194.5 -29q169 0 275 82t106 211q0 76 -43 128.5t-156 112.5l-170 93q-138 75 -193.5 146t-55.5 171q0 175 143.5 292.5t357.5 117.5q90 0 173 -20.5t188 -67.5l-39 -168q-116 62 -187.5 84t-158.5 22q-135 0 -226.5 -72.5
t-91.5 -181.5q0 -58 38.5 -98t156.5 -103l147 -77q147 -78 211 -164t64 -205q0 -204 -152.5 -328.5t-404.5 -124.5q-111 0 -192 17.5t-199 68.5z" />
    <glyph glyph-name="T" unicode="T" horiz-adv-x="1255" 
d="M936 1300l-229 -1300h-158l229 1300h-534l26 150h1227l-27 -150h-534z" />
    <glyph glyph-name="U" unicode="U" horiz-adv-x="1570" 
d="M1669 1450l-139 -782q-120 -695 -694 -695q-248 0 -396.5 127.5t-148.5 341.5q0 97 22 226l140 782h157l-139 -788q-22 -123 -22 -211q0 -151 106.5 -239.5t288.5 -88.5q222 0 351.5 132t176.5 407l139 788h158z" />
    <glyph glyph-name="V" unicode="V" horiz-adv-x="1310" 
d="M643 -55l-401 1505h170l290 -1143l693 1143h184z" />
    <glyph glyph-name="W" unicode="W" horiz-adv-x="1798" 
d="M524 -55l-282 1505h170l186 -1034l561 1085l178 -1085l545 1034h184l-811 -1505l-176 1079z" />
    <glyph glyph-name="X" unicode="X" horiz-adv-x="1384" 
d="M186 0h-204l727 768l-451 682h184l375 -576l535 576h204l-655 -682l504 -768h-184l-426 653z" />
    <glyph glyph-name="Y" unicode="Y" horiz-adv-x="1312" 
d="M580 0l116 664l-467 786h181l378 -641l607 641h202l-743 -782l-119 -668h-155z" />
    <glyph glyph-name="Z" unicode="Z" horiz-adv-x="1378" 
d="M76 0l1141 1300h-838l61 150h1114l-1134 -1300h889l-66 -150h-1167z" />
    <glyph glyph-name="bracketleft" unicode="[" horiz-adv-x="643" 
d="M596 -35h-418l275 1557h409l-26 -150h-252l-222 -1257h261z" />
    <glyph glyph-name="backslash" unicode="\" horiz-adv-x="729" 
d="M270 1450h164l283 -1450h-164z" />
    <glyph glyph-name="bracketright" unicode="]" horiz-adv-x="643" 
d="M303 1522h416l-275 -1557h-409l26 150h252l222 1257h-259z" />
    <glyph glyph-name="asciicircum" unicode="^" horiz-adv-x="1118" 
d="M698 1311l519 -518l-111 -109l-408 399l-407 -399l-111 109z" />
    <glyph glyph-name="underscore" unicode="_" horiz-adv-x="1024" 
d="M-70 -238h1024v-157h-1024v157z" />
    <glyph glyph-name="grave" unicode="`" 
d="M696 1661l541 -199l-55 -149l-541 196z" />
    <glyph glyph-name="a" unicode="a" horiz-adv-x="1396" 
d="M1253 0l-168 -27q-2 35 -2 60q0 19 2 35q-132 -56 -213 -75.5t-178 -19.5q-239 0 -376.5 131.5t-137.5 358.5q0 195 102 357t279 254.5t391 92.5q126 0 318 -41l160 33l-160 -909q-21 -115 -21 -189q0 -30 4 -61zM1106 217l133 760q-106 26 -157.5 33.5t-118.5 7.5
q-273 0 -449 -153.5t-176 -391.5q0 -169 98.5 -258.5t284.5 -89.5q94 0 167 17.5t218 74.5z" />
    <glyph glyph-name="b" unicode="b" horiz-adv-x="1396" 
d="M596 1477l-72 -404q116 53 200.5 73.5t186.5 20.5q238 0 375 -131t137 -358q0 -195 -102 -357t-279 -255t-391 -93q-117 0 -315 41l-162 -32l260 1468zM498 918l-133 -754q108 -26 159 -33.5t119 -7.5q271 0 447 155t176 394q0 163 -97.5 254.5t-269.5 91.5
q-94 0 -181 -21.5t-220 -78.5z" />
    <glyph glyph-name="c" unicode="c" horiz-adv-x="1198" 
d="M1147 264v-160q-133 -73 -231 -102t-214 -29q-236 0 -378 139.5t-142 372.5q0 186 97 343t264.5 248t365.5 91q107 0 197.5 -22.5t210.5 -79.5l-53 -154q-115 60 -196.5 83.5t-172.5 23.5q-149 0 -277 -73t-203 -197t-75 -267q0 -163 102.5 -260.5t272.5 -97.5
q108 0 210.5 33t221.5 108z" />
    <glyph glyph-name="d" unicode="d" horiz-adv-x="1396" 
d="M1485 1477l-215 -1227q-21 -115 -21 -189q0 -30 4 -61l-168 -27q-2 35 -2 60q0 19 2 35q-132 -56 -213 -75.5t-178 -19.5q-239 0 -376.5 131.5t-137.5 358.5q0 195 102 357t279 254.5t391 92.5q126 0 318 -41l53 324zM1106 217l133 760q-106 26 -157.5 33.5t-118.5 7.5
q-274 0 -449.5 -154t-175.5 -393q0 -167 98.5 -256.5t284.5 -89.5q94 0 167 17.5t218 74.5z" />
    <glyph glyph-name="e" unicode="e" horiz-adv-x="1286" 
d="M1194 305l-16 -174q-144 -92 -243 -125t-228 -33q-239 0 -381 135.5t-142 364.5q0 139 55 267t147.5 221.5t220 149.5t265.5 56q207 0 335 -118.5t128 -311.5q0 -87 -22 -190l-961 -62q-2 -6 -2 -16q0 -158 98.5 -251t264.5 -93q123 0 229.5 40t251.5 140zM375 629
l794 51q5 31 5 53q0 133 -81.5 210t-222.5 77q-172 0 -306.5 -106.5t-188.5 -284.5z" />
    <glyph glyph-name="f" unicode="f" horiz-adv-x="755" 
d="M369 0h-158l176 989h-199l27 150h197l14 75q56 316 375 316q93 0 217 -41l-57 -137q-95 28 -173 28q-92 0 -140.5 -39t-63.5 -127l-15 -75h369l-27 -150h-368z" />
    <glyph glyph-name="g" unicode="g" horiz-adv-x="1382" 
d="M133 -373l27 197q110 -98 206.5 -137t227.5 -39q118 0 217 40t152 109q35 45 59 102t57 169q-132 -56 -213 -75.5t-178 -19.5q-239 0 -376.5 131.5t-137.5 358.5q0 146 60 276.5t163 224t246 148.5t303 55q127 0 316 -41l161 33l-159 -909q-43 -240 -80 -349.5
t-103 -191.5q-175 -211 -514 -211q-139 0 -236.5 29t-197.5 100zM1100 217l133 760q-106 26 -158 33.5t-121 7.5q-179 0 -321 -69.5t-221.5 -194t-79.5 -281.5q0 -169 98.5 -258.5t284.5 -89.5q94 0 167 17.5t218 74.5z" />
    <glyph glyph-name="h" unicode="h" horiz-adv-x="1400" 
d="M178 0l256 1450l162 27l-96 -549q208 239 504 239q172 0 282.5 -87.5t110.5 -223.5q0 -40 -15 -143l-127 -713h-155l112 645q25 154 25 184q0 87 -67.5 138t-184.5 51q-126 0 -245 -61t-199 -166q-47 -63 -73.5 -129.5t-45.5 -169.5l-86 -492h-158z" />
    <glyph glyph-name="i" unicode="i" horiz-adv-x="512" 
d="M541 1159l-205 -1159h-158l201 1135zM494 1477q46 0 78 -32.5t32 -78.5t-31 -76t-77 -30t-77.5 31t-31.5 77t30.5 77.5t76.5 31.5z" />
    <glyph glyph-name="j" unicode="j" horiz-adv-x="512" 
d="M539 1159l-269 -1521l-161 -27l268 1524zM494 1477q46 0 78 -32.5t32 -78.5q0 -44 -31 -75t-77 -31t-77.5 31t-31.5 77t30.5 77.5t76.5 31.5z" />
    <glyph glyph-name="k" unicode="k" horiz-adv-x="1259" 
d="M438 588l-102 -588h-158l256 1450l162 27l-147 -836l630 500h238l-688 -531l645 -610h-209z" />
    <glyph glyph-name="l" unicode="l" horiz-adv-x="512" 
d="M336 0h-158l256 1450l162 27z" />
    <glyph glyph-name="m" unicode="m" horiz-adv-x="2125" 
d="M991 0l113 645q24 137 24 182q0 86 -58 138.5t-155 52.5q-107 0 -221.5 -63.5t-189.5 -163.5q-44 -61 -70 -129t-45 -170l-86 -492h-158l201 1135l162 24l-41 -231q107 123 221 181t246 58q143 0 233 -68.5t115 -197.5q104 130 232.5 198t269.5 68q149 0 249.5 -88.5
t100.5 -220.5q0 -71 -14 -145l-125 -713h-158l113 645q24 123 24 182q0 86 -58 138.5t-155 52.5q-107 0 -221.5 -63.5t-189.5 -163.5q-44 -63 -70 -130.5t-45 -168.5l-86 -492h-158z" />
    <glyph glyph-name="n" unicode="n" horiz-adv-x="1386" 
d="M164 0l201 1135l161 24l-41 -231q207 241 504 241q172 0 282.5 -88t110.5 -225q0 -47 -14 -143l-127 -713h-156l113 645q25 150 25 184q0 88 -67.5 139.5t-184.5 51.5q-126 0 -245.5 -61.5t-199.5 -167.5q-47 -63 -73 -129t-45 -170l-86 -492h-158z" />
    <glyph glyph-name="o" unicode="o" horiz-adv-x="1376" 
d="M825 1167q243 0 399 -152t156 -390q0 -135 -50 -255.5t-135.5 -207.5t-204.5 -138t-251 -51q-243 0 -399 150.5t-156 382.5q0 184 84.5 335.5t232 238.5t324.5 87zM831 1018q-212 0 -350.5 -141.5t-138.5 -358.5q0 -183 108 -289t293 -106q207 0 343.5 142t136.5 358
q0 172 -111 283.5t-281 111.5z" />
    <glyph glyph-name="p" unicode="p" horiz-adv-x="1382" 
d="M324 14l-68 -376l-162 -27l225 1280q21 128 21 190q0 6 -4 60l168 26q2 -25 2 -55q0 -20 -2 -43q125 58 207.5 79t183.5 21q239 0 376.5 -131t137.5 -360q0 -146 -60 -276.5t-162.5 -224.5t-246 -149t-303.5 -55q-129 0 -313 41zM481 918l-131 -754q108 -26 159 -33.5
t118 -7.5q180 0 322.5 70t222 196t79.5 285q0 163 -97 254.5t-269 91.5q-94 0 -183 -22.5t-221 -79.5z" />
    <glyph glyph-name="q" unicode="q" horiz-adv-x="1382" 
d="M999 -389l80 457q-116 -54 -201 -74.5t-186 -20.5q-238 0 -375 131.5t-137 358.5q0 195 102 357t279 254.5t391 92.5q126 0 318 -41l160 33l-269 -1521zM1106 217l133 760q-106 26 -157.5 33.5t-118.5 7.5q-273 0 -449 -153.5t-176 -391.5q0 -169 98.5 -258.5
t284.5 -89.5q94 0 167 17.5t218 74.5z" />
    <glyph glyph-name="r" unicode="r" horiz-adv-x="821" 
d="M1032 1167l-53 -149q-226 3 -385.5 -153t-194.5 -414l-77 -451h-158l201 1135l161 24l-41 -231q198 245 547 239z" />
    <glyph glyph-name="s" unicode="s" horiz-adv-x="1015" 
d="M145 59v185q101 -64 189.5 -92.5t187.5 -28.5q134 0 214.5 52t80.5 140q0 57 -35.5 91.5t-144.5 85.5l-150 69q-136 63 -186.5 119t-50.5 143q0 149 134 247.5t335 98.5q155 0 315 -65l-35 -170q-90 46 -157 65t-142 19q-124 0 -206 -52t-82 -130q0 -44 33.5 -72
t144.5 -78l151 -65q124 -55 181 -124t57 -163q0 -160 -130 -260.5t-337 -100.5q-194 0 -367 86z" />
    <glyph glyph-name="t" unicode="t" horiz-adv-x="770" 
d="M741 170l-34 -154q-86 -30 -164 -30q-126 0 -199.5 65.5t-73.5 175.5q0 45 9 92l116 670h-207l27 150h207l55 311l162 27l-59 -338h358l-27 -150h-358l-117 -661q-6 -44 -6 -84q0 -62 32 -88.5t105 -26.5q84 0 174 41z" />
    <glyph glyph-name="u" unicode="u" horiz-adv-x="1386" 
d="M1427 1159l-202 -1159l-162 -27l41 240q-209 -240 -504 -240q-171 0 -282 88.5t-111 223.5q0 66 14 143l125 713l162 18l-117 -661q-24 -129 -24 -185q0 -88 67 -139t184 -51q126 0 245.5 61.5t199.5 165.5q48 65 74 131.5t45 169.5l86 490z" />
    <glyph glyph-name="v" unicode="v" horiz-adv-x="1136" 
d="M557 -55l-356 1194h170l237 -867l545 867h184z" />
    <glyph glyph-name="w" unicode="w" horiz-adv-x="1740" 
d="M522 -55l-321 1194h170l204 -817l498 872l201 -872l483 817h185l-730 -1194l-202 848z" />
    <glyph glyph-name="x" unicode="x" horiz-adv-x="1210" 
d="M0 0l625 606l-363 533h199l266 -428l422 428h211l-553 -543l403 -596h-198l-307 492l-494 -492h-211z" />
    <glyph glyph-name="y" unicode="y" horiz-adv-x="1116" 
d="M201 1139h170l225 -946l537 946h184l-877 -1501l-188 -27l233 389z" />
    <glyph glyph-name="z" unicode="z" horiz-adv-x="1075" 
d="M0 0l926 989h-682l65 150h953l-912 -989h735l-59 -150h-1026z" />
    <glyph glyph-name="braceleft" unicode="{" horiz-adv-x="671" 
d="M573 1167l-34 -249q-12 -66 -34.5 -98.5t-88.5 -76.5q37 -34 51 -60t14 -58q0 -36 -4 -54l-53 -249q-12 -56 -12 -95q0 -54 39 -82t112 -28h74l-27 -152h-43q-146 0 -229.5 61.5t-83.5 170.5q0 52 16 127l35 165q17 80 17 84q-3 67 -95 170q97 66 125 109t43 149l21 164
q25 192 123.5 274.5t302.5 82.5h43l-27 -150h-72q-97 0 -147.5 -48.5t-65.5 -156.5z" />
    <glyph glyph-name="bar" unicode="|" horiz-adv-x="6955" 
d="M4979 1081h-455v-202h455v-275h-455v-225h455v-379h-928v1450h928v-369zM2236 0h-475v1450h475v-1450zM860 889v561h473v-1559l-768 670v-561h-475v1561zM3144 801l325 649h504l-829 -1559l-830 1559h506zM6840 0h-499l-78 158h-592l-80 -158h-496l873 1569zM6146 397
l-178 371l-180 -371h358z" />
    <glyph glyph-name="braceright" unicode="}" horiz-adv-x="671" 
d="M360 322l37 249q10 66 32.5 97.5t88.5 74.5q-36 35 -50.5 61.5t-14.5 57.5q0 29 6 56l51 249q12 56 12 95q0 52 -39.5 81t-111.5 29h-74l27 150h43q148 0 230.5 -60.5t82.5 -167.5q0 -50 -14 -129l-37 -164q-4 -20 -8.5 -43t-6.5 -32.5t-2 -10.5q3 -66 95 -172
q-69 -46 -98.5 -75.5t-44 -67t-25.5 -111.5l-21 -165q-25 -192 -123.5 -275.5t-302.5 -83.5h-43l27 152h74q95 0 145 49t65 156z" />
    <glyph glyph-name="asciitilde" unicode="~" horiz-adv-x="1105" 
d="M1006 844l71 -127q-69 -60 -125.5 -84.5t-128.5 -24.5q-57 0 -106 19l-80 32q-76 27 -111 27q-38 0 -72.5 -15.5t-88.5 -54.5l-72 127q69 62 125.5 86.5t128.5 24.5q62 0 106 -20l80 -33q59 -23 111 -23q69 0 162 66z" />
    <glyph glyph-name="uni00A0" unicode="&#xa0;" horiz-adv-x="587" 
 />
    <glyph glyph-name="exclamdown" unicode="&#xa1;" horiz-adv-x="671" 
d="M596 1075l-164 -1069l-201 -33l220 1067zM584 1485q41 0 72.5 -31t31.5 -72q0 -44 -30.5 -75t-73.5 -31t-74 31t-31 75q0 43 31 73t74 30z" />
    <glyph glyph-name="cent" unicode="&#xa2;" horiz-adv-x="1181" 
d="M569 -219l33 186q-217 26 -340 167.5t-123 365.5q0 181 91 340t248 259.5t343 114.5l39 224h164l-39 -224q93 -9 173 -33.5t171 -72.5l-55 -160q-123 62 -207 86.5t-180 24.5q-156 0 -290 -76.5t-213 -207t-79 -281.5q0 -170 106.5 -272.5t284.5 -102.5q114 0 221.5 34.5
t233.5 112.5v-166q-205 -119 -385 -133l-33 -186h-164z" />
    <glyph glyph-name="sterling" unicode="&#xa3;" horiz-adv-x="1202" 
d="M106 -27l27 150q163 37 255.5 166.5t92.5 320.5q0 23 -2 39h-254l27 150h213q-22 135 -26.5 168.5t-4.5 72.5q0 190 127 313.5t324 123.5q137 0 233 -58t166 -184l-135 -76q-53 91 -115 129.5t-157 38.5q-127 0 -206 -76.5t-79 -199.5q0 -42 4 -71.5t22 -113.5l13 -67
h352l-27 -150h-313q0 -110 -31.5 -219.5t-85.5 -191.5q141 -113 275 -113q73 0 131 44t127 153l119 -76q-100 -155 -182.5 -214t-200.5 -59q-187 0 -381 131q-120 -103 -308 -131z" />
    <glyph glyph-name="currency" unicode="&#xa4;" horiz-adv-x="1241" 
d="M1047 1124l4 -6q6 -6 10 -14q63 -85 63 -219q0 -129 -63 -217l-10 -15l-4 -6l204 -207l-102 -104l-205 205l-6 -4l-14 -11q-92 -65 -224 -65q-138 0 -221 65q-8 5 -12.5 9t-7.5 6l-205 -205l-104 104l204 207l-4 6q0 2 -10 15q-64 83 -64 217q0 133 64 219l10 14l4 6
l-204 207l104 103l205 -205l4 4q2 1 4 2.5t5.5 4.5t6.5 5q86 64 221 64q72 0 126.5 -17.5t111.5 -58.5l6 -4l205 205l102 -103zM702 1165q-115 0 -197.5 -83t-82.5 -197q0 -117 80.5 -197t197.5 -80q114 0 196.5 82.5t82.5 196.5t-81.5 196t-195.5 82z" />
    <glyph glyph-name="yen" unicode="&#xa5;" horiz-adv-x="1202" 
d="M1022 649h-229l-115 -649h-158l115 649h-234l27 150h195l-359 651h185l301 -584l501 584h199l-586 -651h185z" />
    <glyph glyph-name="brokenbar" unicode="&#xa6;" horiz-adv-x="1024" 
d="M518 -410h-158v816h158v-816zM360 1450h158v-772h-158v772z" />
    <glyph glyph-name="section" unicode="&#xa7;" horiz-adv-x="1042" 
d="M668 954l149 -65q238 -107 238 -285q0 -86 -44.5 -145.5t-181.5 -161.5q56 -51 80.5 -104t24.5 -123q0 -163 -128 -262t-337 -99q-197 0 -367 86v185q103 -65 191 -93t186 -28q137 0 217 54t80 148q0 65 -39.5 107t-142.5 86l-152 68q-126 54 -179.5 115.5t-53.5 150.5
q0 92 50 155t190 148q-62 53 -89.5 108t-27.5 125q0 155 129.5 254t333.5 99q160 0 315 -64l-35 -170q-88 46 -155 65t-142 19q-131 0 -210 -54t-79 -143q0 -62 33 -94.5t146 -81.5zM516 463l191 -80q122 83 157 123.5t35 95.5q0 37 -39.5 73.5t-111.5 67.5l-173 74
q-122 -69 -166 -114.5t-44 -102.5q0 -40 35 -71.5t116 -65.5z" />
    <glyph glyph-name="dieresis" unicode="&#xa8;" 
d="M676 1542q44 0 76 -33t32 -79q0 -47 -31.5 -79t-78.5 -32t-80 32.5t-33 78.5q0 45 34.5 78.5t80.5 33.5zM1196 1542q44 0 77.5 -33t33.5 -79q0 -47 -33 -79t-80 -32q-46 0 -78.5 32.5t-32.5 78.5t33.5 79t79.5 33z" />
    <glyph glyph-name="copyright" unicode="&#xa9;" horiz-adv-x="1099" 
d="M932 952l-6 -143q-82 -55 -174 -55q-122 0 -207.5 88t-85.5 215q0 131 84 217t211 86q87 0 172 -55l-13 -125q-75 67 -149 67q-76 0 -131 -57t-55 -135q0 -79 52.5 -134t129.5 -55q42 0 76.5 17t95.5 69zM735 1569q142 0 259 -67t184 -184t67 -259q0 -218 -144 -362
t-362 -144q-220 0 -366 147.5t-146 370.5q0 212 145.5 355t362.5 143zM733 1448q-161 0 -274 -111.5t-113 -271.5q0 -170 109 -280.5t278 -110.5q163 0 274 112.5t111 276.5q0 166 -109.5 275.5t-275.5 109.5z" />
    <glyph glyph-name="ordfeminine" unicode="&#xaa;" horiz-adv-x="845" 
d="M752 791l-4 49q-124 -47 -218 -47q-124 0 -202 75t-78 195q0 167 121.5 290.5t285.5 123.5q81 0 189 -41l137 16l-78 -440q-14 -83 -14 -148q0 -25 2 -43zM754 973l59 336q-46 26 -75.5 35.5t-67.5 9.5q-112 0 -192.5 -81.5t-80.5 -195.5q0 -75 44 -117t122 -42
q45 0 84.5 11t106.5 44z" />
    <glyph glyph-name="guillemotleft" unicode="&#xab;" horiz-adv-x="894" 
d="M197 655l307 312l90 -103l-221 -219l145 -221l-125 -80zM584 655l274 279l98 -92l-194 -197l125 -199l-127 -69z" />
    <glyph glyph-name="logicalnot" unicode="&#xac;" horiz-adv-x="1705" 
d="M377 862h1198v-502h-166v336h-1032v166z" />
    <glyph glyph-name="uni00AD" unicode="&#xad;" horiz-adv-x="522" 
d="M102 578l29 157h522l-28 -157h-523z" />
    <glyph glyph-name="registered" unicode="&#xae;" horiz-adv-x="1099" 
d="M553 778v580h133q121 0 185.5 -43t64.5 -123q0 -58 -30.5 -96t-96.5 -64l186 -254h-131l-176 240h-22v-240h-113zM666 1108h26q71 0 100 17.5t29 60.5q0 41 -30 58.5t-99 17.5h-26v-154zM735 1569q142 0 259 -67t184 -184t67 -259q0 -218 -144 -362t-362 -144
q-220 0 -366 147.5t-146 370.5q0 212 145.5 355t362.5 143zM733 1448q-161 0 -274 -111.5t-113 -271.5q0 -170 109 -280.5t278 -110.5q163 0 274 112.5t111 276.5q0 166 -109.5 275.5t-275.5 109.5z" />
    <glyph glyph-name="macron" unicode="&#xaf;" 
d="M662 1337l28 158h514l-28 -158h-514z" />
    <glyph glyph-name="degree" unicode="&#xb0;" horiz-adv-x="673" 
d="M547 1462q120 0 206.5 -89t86.5 -212q0 -122 -86 -207.5t-209 -85.5q-124 0 -211.5 88.5t-87.5 214.5q0 122 87.5 206.5t213.5 84.5zM543 1323q-66 0 -113 -46t-47 -110q0 -66 45 -110.5t111 -44.5q64 0 109.5 46t45.5 111q0 63 -44.5 108.5t-106.5 45.5z" />
    <glyph glyph-name="plusminus" unicode="&#xb1;" horiz-adv-x="1105" 
d="M795 926h393l-29 -158h-391l-63 -352h-158l61 352h-391l29 158h391l63 364h160zM111 164l28 158h942l-28 -158h-942z" />
    <glyph glyph-name="twosuperior" unicode="&#xb2;" horiz-adv-x="698" 
d="M121 483l434 445q86 89 123 150.5t37 115.5q0 57 -31.5 90t-85.5 33q-110 0 -184 -146l-119 72q68 120 147 175t185 55t173.5 -69.5t67.5 -176.5q0 -78 -20.5 -132t-78.5 -125t-191 -204l-123 -125h358l-51 -158h-641z" />
    <glyph glyph-name="threesuperior" unicode="&#xb3;" horiz-adv-x="700" 
d="M143 616l123 121q26 -64 65 -92.5t99 -28.5q73 0 123.5 50.5t50.5 124.5q0 57 -43 83.5t-135 26.5h-35l29 154h41q89 0 145 43.5t56 113.5q0 47 -29 76t-76 29t-87 -24t-105 -91l-80 105q79 88 152.5 127t156.5 39q97 0 159 -63t62 -161q0 -168 -162 -254
q107 -62 107 -182q0 -145 -106.5 -248.5t-254.5 -103.5q-88 0 -145.5 35t-110.5 120z" />
    <glyph glyph-name="acute" unicode="&#xb4;" 
d="M1194 1661l55 -152l-540 -196l-56 149z" />
    <glyph glyph-name="mu" unicode="&#xb5;" horiz-adv-x="1384" 
d="M313 68l-75 -430l-162 -27l270 1530l160 18l-117 -661q-24 -147 -24 -185q0 -89 67 -139.5t184 -50.5q126 0 246 61t199 166q48 65 74 131.5t45 169.5l86 490l161 18l-204 -1159l-162 -27l41 240q-206 -240 -504 -240q-185 0 -285 95z" />
    <glyph glyph-name="paragraph" unicode="&#xb6;" horiz-adv-x="1024" 
d="M1225 1450l-49 -164h-78l-293 -1661l-160 -14l295 1675h-141l-297 -1681l-160 -15l207 1166q-152 17 -225.5 87t-73.5 197q0 178 129.5 294t327.5 116h518z" />
    <glyph glyph-name="periodcentered" unicode="&#xb7;" horiz-adv-x="587" 
d="M420 823q43 0 73.5 -31t30.5 -75q0 -43 -30.5 -73t-73.5 -30q-41 0 -73 32t-32 73q0 43 31 73.5t74 30.5z" />
    <glyph glyph-name="cedilla" unicode="&#xb8;" 
d="M438 -362l15 120q42 -32 69 -43.5t58 -11.5q43 0 70.5 25t27.5 63q0 82 -127 96l16 93q111 -6 171.5 -57t60.5 -140q0 -85 -58.5 -138t-150.5 -53q-75 0 -152 46z" />
    <glyph glyph-name="onesuperior" unicode="&#xb9;" horiz-adv-x="698" 
d="M418 483l147 832h-102l43 135h231l-170 -967h-149z" />
    <glyph glyph-name="ordmasculine" unicode="&#xba;" horiz-adv-x="835" 
d="M655 1481q137 0 225.5 -81.5t88.5 -207.5q0 -171 -116 -285t-290 -114q-138 0 -220.5 77t-82.5 205q0 170 115 288t280 118zM643 1346q-100 0 -171 -73t-71 -177q0 -80 45 -123t129 -43q106 0 179 73t73 179q0 74 -50.5 119t-133.5 45z" />
    <glyph glyph-name="guillemotright" unicode="&#xbb;" horiz-adv-x="894" 
d="M922 655l-306 -311l-92 102l221 220l-143 221l123 80zM535 655l-275 -278l-98 92l194 197l-125 198l127 70z" />
    <glyph glyph-name="onequarter" unicode="&#xbc;" horiz-adv-x="1847" 
d="M418 483l143 817h-100l45 150h231l-170 -967h-149zM1376 1450h156l-805 -1450h-158zM1571 0l35 195h-441l723 806l-119 -669h97l-41 -137h-80l-33 -195h-141zM1630 332l47 246l-213 -246h166z" />
    <glyph glyph-name="onehalf" unicode="&#xbd;" horiz-adv-x="1847" 
d="M418 483l143 817h-100l45 150h231l-170 -967h-149zM1376 1450h156l-805 -1450h-158zM1133 0l446 449q88 88 124 146.5t36 115.5q0 58 -32.5 91.5t-88.5 33.5q-55 0 -95.5 -31.5t-72.5 -99.5l-137 57q63 118 139 172.5t178 54.5q113 0 188.5 -76t75.5 -190
q0 -88 -39 -161.5t-143 -178.5l-227 -233h332l-31 -150h-653z" />
    <glyph glyph-name="threequarters" unicode="&#xbe;" horiz-adv-x="1847" 
d="M143 633l117 96q48 -66 83.5 -89.5t90.5 -23.5q71 0 120.5 48.5t49.5 117.5q0 62 -43 90.5t-137 28.5h-33l27 154h41q89 0 143.5 43t54.5 114q0 48 -27.5 76.5t-74.5 28.5q-48 0 -88.5 -24t-104.5 -91l-94 101q80 89 152.5 129.5t154.5 40.5q103 0 170.5 -68.5
t67.5 -173.5q0 -78 -39.5 -136t-124.5 -104q109 -69 109 -198q0 -135 -97.5 -233.5t-232.5 -98.5q-88 0 -151 38.5t-134 133.5zM1569 0l35 195h-439l721 806l-119 -669h97l-41 -137h-78l-35 -195h-141zM1628 332l47 246l-211 -246h164zM1374 1450h156l-805 -1450h-158z" />
    <glyph glyph-name="questiondown" unicode="&#xbf;" horiz-adv-x="1005" 
d="M942 1087l-55 -309l-53 -20q-240 -86 -349.5 -183.5t-109.5 -224.5q0 -104 72 -159.5t208 -55.5q82 0 201 25l-41 -156q-113 -18 -190 -18q-184 0 -296 97t-112 257q0 163 96.5 269t335.5 206l96 41l35 199zM911 1499q42 0 73.5 -30.5t31.5 -71.5q0 -44 -30.5 -75.5
t-74.5 -31.5q-43 0 -73.5 31.5t-30.5 75.5q0 43 30 72.5t74 29.5z" />
    <glyph glyph-name="Agrave" unicode="&#xc0;" horiz-adv-x="1380" 
d="M170 0h-190l989 1501l432 -1501h-172l-84 301h-780zM459 451h649l-195 702zM768 1921l541 -199l-56 -151l-540 198z" />
    <glyph glyph-name="Aacute" unicode="&#xc1;" horiz-adv-x="1380" 
d="M170 0h-190l989 1501l432 -1501h-172l-84 301h-780zM459 451h649l-195 702zM1249 1921l54 -152l-541 -198l-55 151z" />
    <glyph glyph-name="Acircumflex" unicode="&#xc2;" horiz-adv-x="1380" 
d="M170 0h-190l989 1501l432 -1501h-172l-84 301h-780zM459 451h649l-195 702zM993 1923l355 -207l-93 -131l-262 152l-262 -152l-94 131z" />
    <glyph glyph-name="Atilde" unicode="&#xc3;" horiz-adv-x="1380" 
d="M170 0h-190l989 1501l432 -1501h-172l-84 301h-780zM459 451h649l-195 702zM1268 1806l69 -118q-69 -56 -119.5 -76.5t-117.5 -20.5q-42 0 -86 13l-78 24q-41 12 -76 12q-36 0 -67 -13t-78 -48l-74 119q73 58 122 79t109 21q39 0 93 -14l79 -25q56 -18 89 -18q34 0 63 14
t72 51z" />
    <glyph glyph-name="Adieresis" unicode="&#xc4;" horiz-adv-x="1380" 
d="M170 0h-190l989 1501l432 -1501h-172l-84 301h-780zM459 451h649l-195 702zM702 1806q47 0 81 -34.5t34 -83.5q0 -50 -32.5 -82.5t-82.5 -32.5q-49 0 -83.5 34t-34.5 81q0 50 34 84t84 34zM1303 1806q47 0 81.5 -35.5t34.5 -82.5q0 -50 -32.5 -82.5t-83.5 -32.5
q-49 0 -83 33.5t-34 81.5q0 50 34 84t83 34z" />
    <glyph glyph-name="Aring" unicode="&#xc5;" horiz-adv-x="1380" 
d="M977 1470l424 -1470h-172l-84 301h-780l-195 -301h-190l968 1473q-84 17 -134 77t-50 142q0 94 65.5 158.5t159.5 64.5t159.5 -64.5t65.5 -158.5q0 -92 -66 -158t-159 -66q-6 0 -12 2zM459 451h649l-195 702zM989 1804q-46 0 -79 -33.5t-33 -80.5q0 -48 32.5 -81.5
t79.5 -33.5t81 34t34 81t-34 80.5t-81 33.5z" />
    <glyph glyph-name="AE" unicode="&#xc6;" horiz-adv-x="1847" 
d="M1720 0h-491l-84 301h-780l-195 -301h-190l989 1501l16 -51h954l-26 -150h-885l135 -475h609l-25 -149h-541l152 -526h389zM459 451h649l-195 702z" />
    <glyph glyph-name="Ccedilla" unicode="&#xc7;" horiz-adv-x="1357" 
d="M758 -20h6q-246 29 -394.5 200t-148.5 426q0 177 67.5 338.5t181.5 278t272 185.5t331 69q122 0 222.5 -32t211.5 -106l-55 -159q-112 83 -199 115t-198 32q-138 0 -263.5 -56.5t-215.5 -153t-143.5 -229.5t-53.5 -280q0 -223 131 -354t354 -131q128 0 220.5 37.5
t230.5 144.5l16 -164q-134 -96 -235.5 -132t-237.5 -36h-43q97 -19 148 -73.5t51 -139.5q0 -94 -64.5 -152.5t-167.5 -58.5q-95 0 -174 56l27 125q71 -58 137 -58q46 0 76.5 28t30.5 69q0 47 -33 72t-107 36z" />
    <glyph glyph-name="Egrave" unicode="&#xc8;" horiz-adv-x="1173" 
d="M195 0l256 1450h843l-26 -150h-686l-84 -475h602l-27 -149h-602l-92 -526h696l-26 -150h-854zM702 1921l543 -199l-55 -151l-541 198z" />
    <glyph glyph-name="Eacute" unicode="&#xc9;" horiz-adv-x="1173" 
d="M195 0l256 1450h843l-26 -150h-686l-84 -475h602l-27 -149h-602l-92 -526h696l-26 -150h-854zM1178 1921l53 -152l-541 -198l-53 151z" />
    <glyph glyph-name="Ecircumflex" unicode="&#xca;" horiz-adv-x="1173" 
d="M195 0l256 1450h843l-26 -150h-686l-84 -475h602l-27 -149h-602l-92 -526h696l-26 -150h-854zM938 1923l354 -207l-92 -131l-262 152l-262 -152l-94 131z" />
    <glyph glyph-name="Edieresis" unicode="&#xcb;" horiz-adv-x="1173" 
d="M195 0l256 1450h843l-26 -150h-686l-84 -475h602l-27 -149h-602l-92 -526h696l-26 -150h-854zM616 1806q47 0 81 -34.5t34 -83.5q0 -50 -32.5 -82.5t-82.5 -32.5q-49 0 -83.5 34t-34.5 81q0 50 34 84t84 34zM1217 1806q47 0 81.5 -35.5t34.5 -82.5q0 -50 -32.5 -82.5
t-83.5 -32.5q-47 0 -82 34t-35 81q0 49 34.5 83.5t82.5 34.5z" />
    <glyph glyph-name="Igrave" unicode="&#xcc;" horiz-adv-x="544" 
d="M195 0l256 1450h157l-256 -1450h-157zM365 1866l405 -142l-55 -149l-404 141z" />
    <glyph glyph-name="Iacute" unicode="&#xcd;" horiz-adv-x="544" 
d="M195 0l256 1450h157l-256 -1450h-157zM815 1878l55 -149l-442 -160l-55 149z" />
    <glyph glyph-name="Icircumflex" unicode="&#xce;" horiz-adv-x="544" 
d="M195 0l256 1450h157l-256 -1450h-157zM586 1923l301 -178l-94 -131l-207 123l-209 -138l-92 132z" />
    <glyph glyph-name="Idieresis" unicode="&#xcf;" horiz-adv-x="544" 
d="M195 0l256 1450h157l-256 -1450h-157zM408 1806q47 0 80.5 -34.5t33.5 -83.5q0 -50 -32.5 -82.5t-81.5 -32.5t-84 34t-35 81q0 49 34.5 83.5t84.5 34.5zM729 1806q47 0 82 -35.5t35 -82.5q0 -50 -33 -82.5t-84 -32.5q-47 0 -82 34t-35 81q0 49 34.5 83.5t82.5 34.5z" />
    <glyph glyph-name="Eth" unicode="&#xd0;" horiz-adv-x="1499" 
d="M334 825l110 625h277q421 0 624 -153.5t203 -471.5q0 -178 -68.5 -337.5t-191.5 -272.5q-126 -113 -298 -164t-425 -51h-377l119 676h-184l27 149h184zM492 825h442l-27 -149h-442l-92 -526h207q210 0 358.5 47.5t249.5 146.5q94 92 147.5 223t53.5 269q0 236 -159.5 350
t-488.5 114h-166z" />
    <glyph glyph-name="Ntilde" unicode="&#xd1;" horiz-adv-x="1595" 
d="M195 0l264 1501l846 -1165l196 1114h158l-266 -1505l-844 1171l-197 -1116h-157zM1370 1806l72 -118q-71 -56 -121 -76.5t-117 -20.5q-42 0 -86 13l-80 24q-40 12 -73 12q-67 0 -146 -61l-74 119q71 58 121 79t111 21q38 0 92 -14l80 -25q52 -18 88 -18q33 0 62.5 14.5
t70.5 50.5z" />
    <glyph glyph-name="Ograve" unicode="&#xd2;" horiz-adv-x="1628" 
d="M1001 1477q146 0 271 -50t213 -138.5t138 -214.5t50 -273q0 -230 -102 -420t-280 -299t-394 -109q-296 0 -486 190t-190 486q0 230 102.5 420t281.5 299t396 109zM995 1327q-127 0 -241.5 -52t-197 -139.5t-131 -210t-48.5 -257.5q0 -249 140 -397t374 -148q132 0 248 51
t199 140t130.5 214t47.5 267q0 238 -144 385t-377 147zM887 1921l540 -199l-53 -151l-540 198z" />
    <glyph glyph-name="Oacute" unicode="&#xd3;" horiz-adv-x="1628" 
d="M1001 1477q146 0 271 -50t213 -138.5t138 -214.5t50 -273q0 -230 -102 -420t-280 -299t-394 -109q-296 0 -486 190t-190 486q0 230 102.5 420t281.5 299t396 109zM995 1327q-127 0 -241.5 -52t-197 -139.5t-131 -210t-48.5 -257.5q0 -249 140 -397t374 -148q132 0 248 51
t199 140t130.5 214t47.5 267q0 238 -144 385t-377 147zM1386 1921l56 -152l-541 -198l-55 151z" />
    <glyph glyph-name="Ocircumflex" unicode="&#xd4;" horiz-adv-x="1628" 
d="M1001 1477q146 0 271 -50t213 -138.5t138 -214.5t50 -273q0 -230 -102 -420t-280 -299t-394 -109q-296 0 -486 190t-190 486q0 230 102.5 420t281.5 299t396 109zM995 1327q-127 0 -241.5 -52t-197 -139.5t-131 -210t-48.5 -257.5q0 -249 140 -397t374 -148q132 0 248 51
t199 140t130.5 214t47.5 267q0 238 -144 385t-377 147zM1120 1923l357 -207l-95 -131l-262 152l-262 -152l-92 131z" />
    <glyph glyph-name="Otilde" unicode="&#xd5;" horiz-adv-x="1628" 
d="M1001 1477q146 0 271 -50t213 -138.5t138 -214.5t50 -273q0 -230 -102 -420t-280 -299t-394 -109q-296 0 -486 190t-190 486q0 230 102.5 420t281.5 299t396 109zM995 1327q-127 0 -241.5 -52t-197 -139.5t-131 -210t-48.5 -257.5q0 -249 140 -397t374 -148q132 0 248 51
t199 140t130.5 214t47.5 267q0 238 -144 385t-377 147zM1376 1806l70 -118q-69 -56 -120 -76.5t-118 -20.5q-43 0 -84 13l-80 24q-40 12 -75 12q-36 0 -67.5 -13t-78.5 -48l-71 119q71 58 119.5 79t109.5 21q36 0 94 -14l78 -25q55 -18 90 -18q32 0 61 14t72 51z" />
    <glyph glyph-name="Odieresis" unicode="&#xd6;" horiz-adv-x="1628" 
d="M1001 1477q146 0 271 -50t213 -138.5t138 -214.5t50 -273q0 -230 -102 -420t-280 -299t-394 -109q-296 0 -486 190t-190 486q0 230 102.5 420t281.5 299t396 109zM995 1327q-127 0 -241.5 -52t-197 -139.5t-131 -210t-48.5 -257.5q0 -249 140 -397t374 -148q132 0 248 51
t199 140t130.5 214t47.5 267q0 238 -144 385t-377 147zM825 1808q47 0 82 -35.5t35 -82.5q0 -51 -32.5 -84t-82.5 -33q-51 0 -85.5 33.5t-34.5 83.5q0 47 35.5 82.5t82.5 35.5zM1425 1806q47 0 82 -35.5t35 -82.5q0 -50 -33 -82.5t-84 -32.5q-49 0 -82.5 33.5t-33.5 83.5
q0 47 34.5 81.5t81.5 34.5z" />
    <glyph glyph-name="multiply" unicode="&#xd7;" horiz-adv-x="1105" 
d="M612 768l324 326l113 -113l-326 -326l326 -323l-113 -113l-324 326l-325 -326l-113 113l326 323l-326 326l113 113z" />
    <glyph glyph-name="Oslash" unicode="&#xd8;" horiz-adv-x="1628" 
d="M88 -27l260 258q-68 103 -98.5 203.5t-30.5 222.5q0 169 60.5 321t164.5 261.5t248 173.5t305 64q129 0 245 -40.5t204 -115.5l158 156h192l-256 -252q62 -78 96.5 -190t34.5 -236q0 -171 -60.5 -324.5t-163.5 -263.5t-247 -174t-305 -64q-265 0 -455 158l-161 -158h-191
zM461 342l874 868q-65 56 -155.5 86.5t-190.5 30.5q-168 0 -309 -88t-222 -240.5t-81 -336.5q0 -86 23 -174t61 -146zM1427 1112l-878 -872q135 -117 348 -117q172 0 313.5 88t222 241.5t80.5 340.5q0 191 -86 319z" />
    <glyph glyph-name="Ugrave" unicode="&#xd9;" horiz-adv-x="1570" 
d="M1669 1450l-139 -782q-120 -695 -694 -695q-248 0 -396.5 127.5t-148.5 341.5q0 97 22 226l140 782h157l-139 -788q-22 -123 -22 -211q0 -151 106.5 -239.5t288.5 -88.5q222 0 351.5 132t176.5 407l139 788h158zM821 1921l541 -199l-55 -151l-541 198z" />
    <glyph glyph-name="Uacute" unicode="&#xda;" horiz-adv-x="1570" 
d="M1669 1450l-139 -782q-120 -695 -694 -695q-248 0 -396.5 127.5t-148.5 341.5q0 97 22 226l140 782h157l-139 -788q-22 -123 -22 -211q0 -151 106.5 -239.5t288.5 -88.5q222 0 351.5 132t176.5 407l139 788h158zM1378 1921l56 -152l-543 -198l-53 151z" />
    <glyph glyph-name="Ucircumflex" unicode="&#xdb;" horiz-adv-x="1570" 
d="M1669 1450l-139 -782q-120 -695 -694 -695q-248 0 -396.5 127.5t-148.5 341.5q0 97 22 226l140 782h157l-139 -788q-22 -123 -22 -211q0 -151 106.5 -239.5t288.5 -88.5q222 0 351.5 132t176.5 407l139 788h158zM1108 1923l356 -207l-94 -131l-262 152l-262 -152l-92 131
z" />
    <glyph glyph-name="Udieresis" unicode="&#xdc;" horiz-adv-x="1570" 
d="M1669 1450l-139 -782q-120 -695 -694 -695q-248 0 -396.5 127.5t-148.5 341.5q0 97 22 226l140 782h157l-139 -788q-22 -123 -22 -211q0 -151 106.5 -239.5t288.5 -88.5q222 0 351.5 132t176.5 407l139 788h158zM780 1808q46 0 80.5 -35.5t34.5 -82.5q0 -51 -32.5 -84
t-82.5 -33q-51 0 -86 34t-35 83q0 47 36 82.5t85 35.5zM1378 1806q47 0 82 -35.5t35 -82.5q0 -50 -33 -82.5t-84 -32.5q-48 0 -82 34t-34 83q0 47 34.5 81.5t81.5 34.5z" />
    <glyph glyph-name="Yacute" unicode="&#xdd;" horiz-adv-x="1312" 
d="M580 0l116 664l-467 786h181l378 -641l607 641h202l-743 -782l-119 -668h-155zM1288 1921l55 -152l-540 -198l-55 151z" />
    <glyph glyph-name="Thorn" unicode="&#xde;" horiz-adv-x="1216" 
d="M248 0l252 1450h151l-49 -272h158q152 0 240 -16.5t157 -57.5q85 -51 131.5 -140.5t46.5 -199.5q0 -111 -48 -208t-132 -157q-86 -61 -203 -86.5t-311 -25.5h-190l-45 -287h-158zM582 1028l-105 -592h144q155 0 229 8t135 31q86 31 139.5 112t53.5 179q0 76 -34 136.5
t-93 86.5q-55 25 -116.5 32t-209.5 7h-143z" />
    <glyph glyph-name="germandbls" unicode="&#xdf;" horiz-adv-x="1388" 
d="M109 -389l225 1276q35 200 84 306t143 185q73 63 172 97t207 34q186 0 303 -100.5t117 -259.5q0 -108 -54 -185.5t-173 -138.5q128 -62 183.5 -144.5t55.5 -209.5q0 -137 -71 -251.5t-195 -180.5t-272 -66q-112 0 -261 35l-8 170q81 -32 134.5 -43.5t117.5 -11.5
q174 0 285.5 94.5t111.5 241.5q0 137 -104.5 215t-290.5 78h-33l27 149h16q141 0 220 25q70 23 111.5 81t41.5 132q0 104 -73 162.5t-203 58.5q-107 0 -196.5 -43.5t-139.5 -118.5q-39 -59 -60 -128.5t-51 -244.5l-209 -1187z" />
    <glyph glyph-name="agrave" unicode="&#xe0;" horiz-adv-x="1396" 
d="M1253 0l-168 -27q-2 35 -2 60q0 19 2 35q-132 -56 -213 -75.5t-178 -19.5q-239 0 -376.5 131.5t-137.5 358.5q0 195 102 357t279 254.5t391 92.5q126 0 318 -41l160 33l-160 -909q-21 -115 -21 -189q0 -30 4 -61zM1106 217l133 760q-106 26 -157.5 33.5t-118.5 7.5
q-273 0 -449 -153.5t-176 -391.5q0 -169 98.5 -258.5t284.5 -89.5q94 0 167 17.5t218 74.5zM752 1661l542 -199l-55 -149l-541 196z" />
    <glyph glyph-name="aacute" unicode="&#xe1;" horiz-adv-x="1396" 
d="M1253 0l-168 -27q-2 35 -2 60q0 19 2 35q-132 -56 -213 -75.5t-178 -19.5q-239 0 -376.5 131.5t-137.5 358.5q0 195 102 357t279 254.5t391 92.5q126 0 318 -41l160 33l-160 -909q-21 -115 -21 -189q0 -30 4 -61zM1106 217l133 760q-106 26 -157.5 33.5t-118.5 7.5
q-273 0 -449 -153.5t-176 -391.5q0 -169 98.5 -258.5t284.5 -89.5q94 0 167 17.5t218 74.5zM1329 1661l55 -152l-542 -196l-54 149z" />
    <glyph glyph-name="acircumflex" unicode="&#xe2;" horiz-adv-x="1396" 
d="M1253 0l-168 -27q-2 35 -2 60q0 19 2 35q-132 -56 -213 -75.5t-178 -19.5q-239 0 -376.5 131.5t-137.5 358.5q0 195 102 357t279 254.5t391 92.5q126 0 318 -41l160 33l-160 -909q-21 -115 -21 -189q0 -30 4 -61zM1106 217l133 760q-106 26 -157.5 33.5t-118.5 7.5
q-273 0 -449 -153.5t-176 -391.5q0 -169 98.5 -258.5t284.5 -89.5q94 0 167 17.5t218 74.5zM1010 1663l354 -207l-92 -131l-262 154l-262 -154l-95 131z" />
    <glyph glyph-name="atilde" unicode="&#xe3;" horiz-adv-x="1396" 
d="M1253 0l-168 -27q-2 35 -2 60q0 19 2 35q-132 -56 -213 -75.5t-178 -19.5q-239 0 -376.5 131.5t-137.5 358.5q0 195 102 357t279 254.5t391 92.5q126 0 318 -41l160 33l-160 -909q-21 -115 -21 -189q0 -30 4 -61zM1106 217l133 760q-106 26 -157.5 33.5t-118.5 7.5
q-273 0 -449 -153.5t-176 -391.5q0 -169 98.5 -258.5t284.5 -89.5q94 0 167 17.5t218 74.5zM1300 1556l50 -118q-78 -56 -132.5 -76.5t-121.5 -20.5q-43 0 -84 13l-76 24q-34 11 -72 11q-35 0 -69 -13t-88 -47l-52 119q83 57 136.5 77.5t115.5 20.5q45 0 88 -14l74 -25
q56 -16 84 -16q33 0 64 14t83 51z" />
    <glyph glyph-name="adieresis" unicode="&#xe4;" horiz-adv-x="1396" 
d="M1253 0l-168 -27q-2 35 -2 60q0 19 2 35q-132 -56 -213 -75.5t-178 -19.5q-239 0 -376.5 131.5t-137.5 358.5q0 195 102 357t279 254.5t391 92.5q126 0 318 -41l160 33l-160 -909q-21 -115 -21 -189q0 -30 4 -61zM1106 217l133 760q-106 26 -157.5 33.5t-118.5 7.5
q-273 0 -449 -153.5t-176 -391.5q0 -169 98.5 -258.5t284.5 -89.5q94 0 167 17.5t218 74.5zM743 1542q44 0 76.5 -33t32.5 -79q0 -47 -32 -79t-79 -32t-79.5 32t-32.5 79q0 46 34 79t80 33zM1264 1542q44 0 77 -33t33 -79q0 -47 -32.5 -79t-79.5 -32q-46 0 -78.5 32.5
t-32.5 78.5t33.5 79t79.5 33z" />
    <glyph glyph-name="aring" unicode="&#xe5;" horiz-adv-x="1396" 
d="M1253 0l-168 -27q-2 35 -2 60q0 19 2 35q-132 -56 -213 -75.5t-178 -19.5q-239 0 -376.5 131.5t-137.5 358.5q0 195 102 357t279 254.5t391 92.5q126 0 318 -41l160 33l-160 -909q-21 -115 -21 -189q0 -30 4 -61zM1106 217l133 760q-106 26 -157.5 33.5t-118.5 7.5
q-273 0 -449 -153.5t-176 -391.5q0 -169 98.5 -258.5t284.5 -89.5q94 0 167 17.5t218 74.5zM983 1722q94 0 159.5 -64t65.5 -155q0 -95 -65 -160t-160 -65q-94 0 -159.5 64.5t-65.5 158.5q0 92 65.5 156.5t159.5 64.5zM981 1612q-46 0 -78.5 -33t-32.5 -80q0 -49 32.5 -82
t80.5 -33q47 0 81 33.5t34 79.5q0 48 -34 81.5t-83 33.5z" />
    <glyph glyph-name="ae" unicode="&#xe6;" horiz-adv-x="2250" 
d="M1249 141l-2 -6l-2 -35q-2 -8 -2 -34q0 -33 4 -66l-168 -27q-2 35 -2 60q0 19 2 35q-132 -56 -213 -75.5t-178 -19.5q-239 0 -376.5 131.5t-137.5 358.5q0 195 102 357t279 254.5t391 92.5q126 0 318 -41l159 33l-24 -145q85 72 199 112.5t233 40.5q204 0 331.5 -119
t127.5 -311q0 -66 -23 -190l-962 -62v-16q0 -158 98 -251t264 -93q123 0 229.5 40t249.5 140l-14 -174q-146 -91 -244.5 -124.5t-226.5 -33.5q-279 0 -412 168zM1100 217l133 760q-106 26 -158 33.5t-119 7.5q-273 0 -448.5 -153.5t-175.5 -391.5q0 -169 98.5 -258.5
t284.5 -89.5q94 0 167 17.5t218 74.5zM1329 629l795 51q4 25 4 53q0 134 -81 210.5t-222 76.5q-172 0 -307 -106.5t-189 -284.5z" />
    <glyph glyph-name="ccedilla" unicode="&#xe7;" horiz-adv-x="1198" 
d="M600 -113l16 90q-88 14 -155 43q-127 51 -203 177.5t-76 287.5q0 186 97 343t264.5 248t365.5 91q107 0 197.5 -22.5t210.5 -79.5l-53 -154q-115 60 -196.5 83.5t-172.5 23.5q-149 0 -277 -73t-203 -197t-75 -267q0 -163 102.5 -260.5t272.5 -97.5q108 0 210.5 33
t221.5 108v-160q-129 -73 -237 -103.5t-230 -27.5q168 -44 168 -188q0 -86 -58 -139.5t-151 -53.5q-78 0 -152 46l15 120q40 -32 68 -43.5t59 -11.5q43 0 70.5 25t27.5 65q0 41 -30.5 64t-96.5 30z" />
    <glyph glyph-name="egrave" unicode="&#xe8;" horiz-adv-x="1286" 
d="M1194 305l-16 -174q-144 -92 -243 -125t-228 -33q-239 0 -381 135.5t-142 364.5q0 139 55 267t147.5 221.5t220 149.5t265.5 56q207 0 335 -118.5t128 -311.5q0 -87 -22 -190l-961 -62q-2 -6 -2 -16q0 -158 98.5 -251t264.5 -93q123 0 229.5 40t251.5 140zM375 629
l794 51q5 31 5 53q0 133 -81.5 210t-222.5 77q-172 0 -306.5 -106.5t-188.5 -284.5zM696 1661l541 -199l-55 -149l-541 196z" />
    <glyph glyph-name="eacute" unicode="&#xe9;" horiz-adv-x="1286" 
d="M1194 305l-16 -174q-144 -92 -243 -125t-228 -33q-239 0 -381 135.5t-142 364.5q0 139 55 267t147.5 221.5t220 149.5t265.5 56q207 0 335 -118.5t128 -311.5q0 -87 -22 -190l-961 -62q-2 -6 -2 -16q0 -158 98.5 -251t264.5 -93q123 0 229.5 40t251.5 140zM375 629
l794 51q5 31 5 53q0 133 -81.5 210t-222.5 77q-172 0 -306.5 -106.5t-188.5 -284.5zM1227 1661l55 -152l-543 -196l-53 149z" />
    <glyph glyph-name="ecircumflex" unicode="&#xea;" horiz-adv-x="1286" 
d="M1194 305l-16 -174q-144 -92 -243 -125t-228 -33q-239 0 -381 135.5t-142 364.5q0 139 55 267t147.5 221.5t220 149.5t265.5 56q207 0 335 -118.5t128 -311.5q0 -87 -22 -190l-961 -62q-2 -6 -2 -16q0 -158 98.5 -251t264.5 -93q123 0 229.5 40t251.5 140zM375 629
l794 51q5 31 5 53q0 133 -81.5 210t-222.5 77q-172 0 -306.5 -106.5t-188.5 -284.5zM930 1663l354 -207l-92 -131l-262 154l-262 -154l-95 131z" />
    <glyph glyph-name="edieresis" unicode="&#xeb;" horiz-adv-x="1286" 
d="M1194 305l-16 -174q-144 -92 -243 -125t-228 -33q-239 0 -381 135.5t-142 364.5q0 139 55 267t147.5 221.5t220 149.5t265.5 56q207 0 335 -118.5t128 -311.5q0 -87 -22 -190l-961 -62q-2 -6 -2 -16q0 -158 98.5 -251t264.5 -93q123 0 229.5 40t251.5 140zM375 629
l794 51q5 31 5 53q0 133 -81.5 210t-222.5 77q-172 0 -306.5 -106.5t-188.5 -284.5zM653 1542q44 0 76.5 -33t32.5 -79q0 -47 -32 -79t-79 -32t-79.5 32t-32.5 79q0 46 34 79t80 33zM1174 1542q44 0 77 -33t33 -79q0 -47 -33 -79t-80 -32q-46 0 -78 32.5t-32 78.5t33.5 79
t79.5 33z" />
    <glyph glyph-name="igrave" unicode="&#xec;" horiz-adv-x="512" 
d="M541 1159l-205 -1159h-158l201 1135zM324 1626l442 -160l-53 -149l-443 160z" />
    <glyph glyph-name="iacute" unicode="&#xed;" horiz-adv-x="512" 
d="M541 1159l-205 -1159h-158l201 1135zM713 1616l55 -152l-442 -159l-56 151z" />
    <glyph glyph-name="icircumflex" unicode="&#xee;" horiz-adv-x="512" 
d="M541 1159l-205 -1159h-158l201 1135zM537 1665l303 -178l-95 -131l-208 123l-209 -138l-95 132z" />
    <glyph glyph-name="idieresis" unicode="&#xef;" horiz-adv-x="512" 
d="M541 1159l-205 -1159h-158l201 1135zM373 1542q44 0 76 -33t32 -79q0 -47 -31.5 -79t-78.5 -32t-80 32t-33 79q0 45 34.5 78.5t80.5 33.5zM659 1542q45 0 78 -33t33 -79t-33 -78.5t-80 -32.5q-46 0 -78 32.5t-32 78.5t33 79t79 33z" />
    <glyph glyph-name="eth" unicode="&#xf0;" horiz-adv-x="1349" 
d="M1278 1362l-152 -107q6 -11 37 -59q203 -316 203 -571q0 -135 -50 -255.5t-135.5 -207.5t-204.5 -138t-251 -51q-245 0 -400 150.5t-155 388.5q0 135 50 256.5t135.5 209t204.5 138.5t251 51q56 0 97 -6.5t106 -27.5q-71 137 -258 317l198 27q11 -14 82 -101l156 111z
M817 1018q-212 0 -350.5 -141.5t-138.5 -358.5q0 -183 108 -289t293 -106q207 0 343 141.5t136 358.5q0 172 -110.5 283.5t-280.5 111.5z" />
    <glyph glyph-name="ntilde" unicode="&#xf1;" horiz-adv-x="1386" 
d="M164 0l201 1135l161 24l-41 -231q207 241 504 241q172 0 282.5 -88t110.5 -225q0 -47 -14 -143l-127 -713h-156l113 645q25 150 25 184q0 88 -67.5 139.5t-184.5 51.5q-126 0 -245.5 -61.5t-199.5 -167.5q-47 -63 -73 -129t-45 -170l-86 -492h-158zM1280 1556l49 -118
q-80 -56 -134.5 -76.5t-121.5 -20.5q-41 0 -82 13l-76 24q-34 11 -71 11q-65 0 -158 -60l-51 119q83 57 136.5 77.5t115.5 20.5q45 0 86 -14l76 -25q53 -16 84 -16q33 0 64 14t83 51z" />
    <glyph glyph-name="ograve" unicode="&#xf2;" horiz-adv-x="1376" 
d="M825 1167q243 0 399 -152t156 -390q0 -135 -50 -255.5t-135.5 -207.5t-204.5 -138t-251 -51q-243 0 -399 150.5t-156 382.5q0 184 84.5 335.5t232 238.5t324.5 87zM831 1018q-212 0 -350.5 -141.5t-138.5 -358.5q0 -183 108 -289t293 -106q207 0 343.5 142t136.5 358
q0 172 -111 283.5t-281 111.5zM682 1661l541 -199l-56 -149l-540 196z" />
    <glyph glyph-name="oacute" unicode="&#xf3;" horiz-adv-x="1376" 
d="M825 1167q243 0 399 -152t156 -390q0 -135 -50 -255.5t-135.5 -207.5t-204.5 -138t-251 -51q-243 0 -399 150.5t-156 382.5q0 184 84.5 335.5t232 238.5t324.5 87zM831 1018q-212 0 -350.5 -141.5t-138.5 -358.5q0 -183 108 -289t293 -106q207 0 343.5 142t136.5 358
q0 172 -111 283.5t-281 111.5zM1266 1661l53 -152l-541 -196l-55 149z" />
    <glyph glyph-name="ocircumflex" unicode="&#xf4;" horiz-adv-x="1376" 
d="M825 1167q243 0 399 -152t156 -390q0 -135 -50 -255.5t-135.5 -207.5t-204.5 -138t-251 -51q-243 0 -399 150.5t-156 382.5q0 184 84.5 335.5t232 238.5t324.5 87zM831 1018q-212 0 -350.5 -141.5t-138.5 -358.5q0 -183 108 -289t293 -106q207 0 343.5 142t136.5 358
q0 172 -111 283.5t-281 111.5zM942 1663l354 -207l-94 -131l-260 154l-262 -154l-94 131z" />
    <glyph glyph-name="otilde" unicode="&#xf5;" horiz-adv-x="1376" 
d="M825 1167q243 0 399 -152t156 -390q0 -135 -50 -255.5t-135.5 -207.5t-204.5 -138t-251 -51q-243 0 -399 150.5t-156 382.5q0 184 84.5 335.5t232 238.5t324.5 87zM831 1018q-212 0 -350.5 -141.5t-138.5 -358.5q0 -183 108 -289t293 -106q207 0 343.5 142t136.5 358
q0 172 -111 283.5t-281 111.5zM1229 1556l49 -118q-78 -55 -133 -76t-121 -21q-43 0 -84 13l-76 24q-34 11 -71 11q-35 0 -69.5 -13t-88.5 -47l-51 119q83 57 136.5 77.5t115.5 20.5q45 0 88 -14l73 -25q56 -16 84 -16q33 0 65 14t83 51z" />
    <glyph glyph-name="odieresis" unicode="&#xf6;" horiz-adv-x="1376" 
d="M825 1167q243 0 399 -152t156 -390q0 -135 -50 -255.5t-135.5 -207.5t-204.5 -138t-251 -51q-243 0 -399 150.5t-156 382.5q0 184 84.5 335.5t232 238.5t324.5 87zM831 1018q-212 0 -350.5 -141.5t-138.5 -358.5q0 -183 108 -289t293 -106q207 0 343.5 142t136.5 358
q0 172 -111 283.5t-281 111.5zM674 1542q44 0 76 -33t32 -79q0 -47 -31.5 -79t-78.5 -32t-80 32t-33 79q0 45 34.5 78.5t80.5 33.5zM1192 1542q44 0 77.5 -33t33.5 -79q0 -47 -33 -79t-80 -32q-46 0 -78.5 32.5t-32.5 78.5t33.5 79t79.5 33z" />
    <glyph glyph-name="divide" unicode="&#xf7;" horiz-adv-x="1105" 
d="M184 578l29 157h942l-29 -157h-942zM741 1190q43 0 74 -31.5t31 -75.5q0 -43 -30.5 -72.5t-74.5 -29.5q-41 0 -72.5 30.5t-31.5 71.5q0 44 30.5 75.5t73.5 31.5zM598 338q42 0 73 -31.5t31 -73.5q0 -44 -30 -74t-74 -30q-41 0 -72.5 30.5t-31.5 71.5q0 44 30.5 75.5
t73.5 31.5z" />
    <glyph glyph-name="oslash" unicode="&#xf8;" horiz-adv-x="1376" 
d="M78 -27l217 209q-105 138 -105 330q0 135 50 256.5t135.5 209t204.5 138.5t251 51q217 0 365 -118l125 118h178l-217 -209q107 -145 107 -333q0 -135 -50 -255.5t-135.5 -207.5t-204.5 -138t-251 -51q-224 0 -367 121l-125 -121h-178zM408 291l675 649q-106 78 -252 78
q-135 0 -246 -65t-174 -180t-63 -255q0 -119 60 -227zM1167 848l-675 -649q43 -35 113 -55.5t147 -20.5q207 0 343 142.5t136 357.5q0 124 -64 225z" />
    <glyph glyph-name="ugrave" unicode="&#xf9;" horiz-adv-x="1386" 
d="M1427 1159l-202 -1159l-162 -27l41 240q-209 -240 -504 -240q-171 0 -282 88.5t-111 223.5q0 66 14 143l125 713l162 18l-117 -661q-24 -129 -24 -185q0 -88 67 -139t184 -51q126 0 245.5 61.5t199.5 165.5q48 65 74 131.5t45 169.5l86 490zM700 1661l541 -199l-53 -149
l-543 196z" />
    <glyph glyph-name="uacute" unicode="&#xfa;" horiz-adv-x="1386" 
d="M1427 1159l-202 -1159l-162 -27l41 240q-209 -240 -504 -240q-171 0 -282 88.5t-111 223.5q0 66 14 143l125 713l162 18l-117 -661q-24 -129 -24 -185q0 -88 67 -139t184 -51q126 0 245.5 61.5t199.5 165.5q48 65 74 131.5t45 169.5l86 490zM1200 1661l55 -152l-540 -196
l-56 149z" />
    <glyph glyph-name="ucircumflex" unicode="&#xfb;" horiz-adv-x="1386" 
d="M1427 1159l-202 -1159l-162 -27l41 240q-209 -240 -504 -240q-171 0 -282 88.5t-111 223.5q0 66 14 143l125 713l162 18l-117 -661q-24 -129 -24 -185q0 -88 67 -139t184 -51q126 0 245.5 61.5t199.5 165.5q48 65 74 131.5t45 169.5l86 490zM965 1663l354 -207l-92 -131
l-262 154l-263 -154l-92 131z" />
    <glyph glyph-name="udieresis" unicode="&#xfc;" horiz-adv-x="1386" 
d="M1427 1159l-202 -1159l-162 -27l41 240q-209 -240 -504 -240q-171 0 -282 88.5t-111 223.5q0 66 14 143l125 713l162 18l-117 -661q-24 -129 -24 -185q0 -88 67 -139t184 -51q126 0 245.5 61.5t199.5 165.5q48 65 74 131.5t45 169.5l86 490zM682 1542q44 0 76.5 -33
t32.5 -79q0 -47 -31.5 -79t-77.5 -32q-48 0 -81.5 31.5t-33.5 76.5q0 47 34 81t81 34zM1200 1542q44 0 77.5 -33t33.5 -79t-33 -78.5t-80 -32.5q-46 0 -78.5 32.5t-32.5 78.5t33.5 79t79.5 33z" />
    <glyph glyph-name="yacute" unicode="&#xfd;" horiz-adv-x="1116" 
d="M201 1139h170l225 -946l537 946h184l-877 -1501l-188 -27l233 389zM1090 1661l55 -152l-543 -196l-53 149z" />
    <glyph glyph-name="thorn" unicode="&#xfe;" horiz-adv-x="1396" 
d="M109 -389l323 1839l164 27l-72 -406q116 55 199.5 75.5t185.5 20.5q239 0 376.5 -131t137.5 -358q0 -195 -102 -357t-279 -255t-391 -93q-129 0 -313 41l-68 -376zM496 918l-131 -754q108 -26 158.5 -33.5t117.5 -7.5q180 0 323 70.5t222.5 195.5t79.5 283
q0 163 -97.5 254.5t-269.5 91.5q-95 0 -181.5 -21.5t-221.5 -78.5z" />
    <glyph glyph-name="ydieresis" unicode="&#xff;" horiz-adv-x="1116" 
d="M201 1139h170l225 -946l537 946h184l-877 -1501l-188 -27l233 389zM561 1542q44 0 76.5 -33t32.5 -79q0 -47 -31.5 -79t-77.5 -32q-48 0 -81.5 31.5t-33.5 76.5q0 47 34 81t81 34zM1081 1542q45 0 78 -33t33 -79q0 -47 -33 -79t-80 -32q-46 0 -78 32.5t-32 78.5t33 79
t79 33z" />
    <glyph glyph-name="Amacron" unicode="&#x100;" horiz-adv-x="1380" 
d="M170 0h-190l989 1501l432 -1501h-172l-84 301h-780zM459 451h649l-195 702zM717 1610l26 157h517l-29 -157h-514z" />
    <glyph glyph-name="amacron" unicode="&#x101;" horiz-adv-x="1396" 
d="M1253 0l-168 -27q-2 35 -2 60q0 19 2 35q-132 -56 -213 -75.5t-178 -19.5q-239 0 -376.5 131.5t-137.5 358.5q0 195 102 357t279 254.5t391 92.5q126 0 318 -41l160 33l-160 -909q-21 -115 -21 -189q0 -30 4 -61zM1106 217l133 760q-106 26 -157.5 33.5t-118.5 7.5
q-273 0 -449 -153.5t-176 -391.5q0 -169 98.5 -258.5t284.5 -89.5q94 0 167 17.5t218 74.5zM745 1337l29 158h514l-28 -158h-515z" />
    <glyph glyph-name="Abreve" unicode="&#x102;" horiz-adv-x="1380" 
d="M170 0h-190l989 1501l432 -1501h-172l-84 301h-780zM459 451h649l-195 702zM1284 1864l94 -111q-99 -87 -181.5 -120.5t-199.5 -33.5q-115 0 -197.5 33.5t-181.5 120.5l93 111q85 -62 148 -86.5t138 -24.5t139.5 25t147.5 86z" />
    <glyph glyph-name="abreve" unicode="&#x103;" horiz-adv-x="1396" 
d="M1253 0l-168 -27q-2 35 -2 60q0 19 2 35q-132 -56 -213 -75.5t-178 -19.5q-239 0 -376.5 131.5t-137.5 358.5q0 195 102 357t279 254.5t391 92.5q126 0 318 -41l160 33l-160 -909q-21 -115 -21 -189q0 -30 4 -61zM1106 217l133 760q-106 26 -157.5 33.5t-118.5 7.5
q-273 0 -449 -153.5t-176 -391.5q0 -169 98.5 -258.5t284.5 -89.5q94 0 167 17.5t218 74.5zM1290 1577l92 -113q-98 -86 -180.5 -119.5t-197.5 -33.5q-117 0 -200 33.5t-181 119.5l94 113q82 -62 147 -87.5t140 -25.5q74 0 138 25.5t148 87.5z" />
    <glyph glyph-name="Aogonek" unicode="&#x104;" horiz-adv-x="1380" 
d="M1239 0h-10l-84 301h-780l-195 -301h-190l989 1501l432 -1501q-139 -66 -190.5 -114.5t-51.5 -114.5q0 -46 30.5 -72.5t84.5 -26.5q39 0 73 14.5t89 53.5l20 -143q-57 -32 -99 -45t-93 -13q-107 0 -177.5 61.5t-70.5 155.5q0 161 223 244zM459 451h649l-195 702z" />
    <glyph glyph-name="aogonek" unicode="&#x105;" horiz-adv-x="1396" 
d="M1288 -260l19 -143q-105 -58 -193 -58q-108 0 -178 61t-70 156q0 82 52.5 140t166.5 102q-2 23 -2 39q0 17 2 31q-132 -56 -213 -75.5t-178 -19.5q-239 0 -376.5 131.5t-137.5 358.5q0 195 102 357t279 254.5t391 92.5q126 0 318 -41l160 33l-160 -909q-21 -115 -21 -189
q0 -30 4 -61q-141 -68 -192 -115.5t-51 -113.5q0 -46 30 -72.5t84 -26.5q39 0 74 14.5t90 53.5zM1106 217l133 760q-106 26 -157.5 33.5t-118.5 7.5q-273 0 -449 -153.5t-176 -391.5q0 -169 98.5 -258.5t284.5 -89.5q94 0 167 17.5t218 74.5z" />
    <glyph glyph-name="Cacute" unicode="&#x106;" horiz-adv-x="1357" 
d="M1315 305l16 -164q-133 -95 -235 -131.5t-234 -36.5q-286 0 -463.5 175t-177.5 458q0 177 67.5 338.5t181.5 278t272 185.5t331 69q122 0 222.5 -32t211.5 -106l-55 -159q-112 83 -199 115t-198 32q-138 0 -263.5 -56.5t-215.5 -153t-143.5 -229.5t-53.5 -280
q0 -223 131 -354t354 -131q128 0 220.5 37.5t230.5 144.5zM1346 1921l55 -152l-541 -198l-55 151z" />
    <glyph glyph-name="cacute" unicode="&#x107;" horiz-adv-x="1198" 
d="M1147 264v-160q-133 -73 -231 -102t-214 -29q-236 0 -378 139.5t-142 372.5q0 186 97 343t264.5 248t365.5 91q107 0 197.5 -22.5t210.5 -79.5l-53 -154q-115 60 -196.5 83.5t-172.5 23.5q-149 0 -277 -73t-203 -197t-75 -267q0 -163 102.5 -260.5t272.5 -97.5
q108 0 210.5 33t221.5 108zM1212 1661l54 -152l-541 -196l-53 149z" />
    <glyph glyph-name="Ccaron" unicode="&#x10c;" horiz-adv-x="1357" 
d="M1315 305l16 -164q-133 -95 -235 -131.5t-234 -36.5q-286 0 -463.5 175t-177.5 458q0 177 67.5 338.5t181.5 278t272 185.5t331 69q122 0 222.5 -32t211.5 -106l-55 -159q-112 83 -199 115t-198 32q-138 0 -263.5 -56.5t-215.5 -153t-143.5 -229.5t-53.5 -280
q0 -223 131 -354t354 -131q128 0 220.5 37.5t230.5 144.5zM1114 1571l-356 207l94 131l262 -152l260 152l94 -131z" />
    <glyph glyph-name="ccaron" unicode="&#x10d;" horiz-adv-x="1198" 
d="M1147 264v-160q-133 -73 -231 -102t-214 -29q-236 0 -378 139.5t-142 372.5q0 186 97 343t264.5 248t365.5 91q107 0 197.5 -22.5t210.5 -79.5l-53 -154q-115 60 -196.5 83.5t-172.5 23.5q-149 0 -277 -73t-203 -197t-75 -267q0 -163 102.5 -260.5t272.5 -97.5
q108 0 210.5 33t221.5 108zM969 1298l-355 207l93 131l262 -153l262 153l94 -131z" />
    <glyph glyph-name="Dcaron" unicode="&#x10e;" horiz-adv-x="1505" 
d="M451 1450h276q421 0 624 -153.5t203 -471.5q0 -177 -69 -337.5t-193 -272.5q-125 -113 -296.5 -164t-424.5 -51h-376zM582 1300l-203 -1150h207q210 0 358.5 47.5t249.5 146.5q95 92 148 222t53 270q0 236 -159 350t-488 114h-166zM956 1571l-354 207l92 131l262 -152
l263 152l94 -131z" />
    <glyph glyph-name="dcaron" unicode="&#x10f;" horiz-adv-x="1396" 
d="M1485 1477l-215 -1227q-21 -115 -21 -189q0 -30 4 -61l-168 -27q-2 35 -2 60q0 19 2 35q-132 -56 -213 -75.5t-178 -19.5q-239 0 -376.5 131.5t-137.5 358.5q0 195 102 357t279 254.5t391 92.5q126 0 318 -41l53 324zM1106 217l133 760q-106 26 -157.5 33.5t-118.5 7.5
q-274 0 -449.5 -154t-175.5 -393q0 -167 98.5 -256.5t284.5 -89.5q94 0 167 17.5t218 74.5zM1528 1128l137 345h178l-174 -345h-141z" />
    <glyph glyph-name="Dcroat" unicode="&#x110;" horiz-adv-x="1499" 
d="M334 825l110 625h277q421 0 624 -153.5t203 -471.5q0 -178 -68.5 -337.5t-191.5 -272.5q-126 -113 -298 -164t-425 -51h-377l119 676h-184l27 149h184zM492 825h442l-27 -149h-442l-92 -526h207q210 0 358.5 47.5t249.5 146.5q94 92 147.5 223t53.5 269q0 236 -159.5 350
t-488.5 114h-166z" />
    <glyph glyph-name="dcroat" unicode="&#x111;" horiz-adv-x="1396" 
d="M1436 1190l-166 -940q-21 -115 -21 -189q0 -30 4 -61l-168 -27q-2 35 -2 60q0 19 2 35q-132 -56 -213 -75.5t-178 -19.5q-239 0 -376.5 131.5t-137.5 360.5q0 195 101.5 356t278.5 253.5t392 92.5q137 0 318 -41l53 324l162 27l-23 -136h144l-27 -151h-143zM1106 217
l133 760q-106 26 -157.5 33.5t-118.5 7.5q-274 0 -449.5 -154t-175.5 -393q0 -167 98.5 -256.5t284.5 -89.5q94 0 167 17.5t218 74.5z" />
    <glyph glyph-name="Emacron" unicode="&#x112;" horiz-adv-x="1173" 
d="M195 0l256 1450h843l-26 -150h-686l-84 -475h602l-27 -149h-602l-92 -526h696l-26 -150h-854zM639 1610l27 157h516l-29 -157h-514z" />
    <glyph glyph-name="emacron" unicode="&#x113;" horiz-adv-x="1286" 
d="M1194 305l-16 -174q-144 -92 -243 -125t-228 -33q-239 0 -381 135.5t-142 364.5q0 139 55 267t147.5 221.5t220 149.5t265.5 56q207 0 335 -118.5t128 -311.5q0 -87 -22 -190l-961 -62q-2 -6 -2 -16q0 -158 98.5 -251t264.5 -93q123 0 229.5 40t251.5 140zM375 629
l794 51q5 31 5 53q0 133 -81.5 210t-222.5 77q-172 0 -306.5 -106.5t-188.5 -284.5zM643 1337l29 158h514l-27 -158h-516z" />
    <glyph glyph-name="Edotaccent" unicode="&#x116;" horiz-adv-x="1173" 
d="M195 0l256 1450h843l-26 -150h-686l-84 -475h602l-27 -149h-602l-92 -526h696l-26 -150h-854zM918 1808q46 0 81 -35.5t35 -82.5q0 -51 -32.5 -84t-83.5 -33q-50 0 -84.5 34t-34.5 83t34.5 83.5t84.5 34.5z" />
    <glyph glyph-name="edotaccent" unicode="&#x117;" horiz-adv-x="1286" 
d="M1194 305l-16 -174q-144 -92 -243 -125t-228 -33q-239 0 -381 135.5t-142 364.5q0 139 55 267t147.5 221.5t220 149.5t265.5 56q207 0 335 -118.5t128 -311.5q0 -87 -22 -190l-961 -62q-2 -6 -2 -16q0 -158 98.5 -251t264.5 -93q123 0 229.5 40t251.5 140zM375 629
l794 51q5 31 5 53q0 133 -81.5 210t-222.5 77q-172 0 -306.5 -106.5t-188.5 -284.5zM909 1542q44 0 76.5 -33t32.5 -79q0 -47 -32 -79t-79 -32t-79.5 32.5t-32.5 78.5t34 79t80 33z" />
    <glyph glyph-name="Eogonek" unicode="&#x118;" horiz-adv-x="1173" 
d="M887 0h-692l256 1450h843l-26 -150h-686l-84 -475h602l-27 -149h-602l-92 -526h696l-26 -150q-139 -66 -190.5 -114.5t-51.5 -114.5q0 -46 30.5 -72.5t84.5 -26.5q39 0 72.5 14.5t88.5 53.5l19 -143q-56 -32 -98 -45t-93 -13q-107 0 -177 61.5t-70 155.5q0 162 223 244z
" />
    <glyph glyph-name="eogonek" unicode="&#x119;" horiz-adv-x="1286" 
d="M756 -27h-58q-232 0 -373 137t-141 361q0 139 55 268t147.5 222.5t220 149.5t265.5 56q207 0 335 -118.5t128 -311.5q0 -87 -22 -190l-961 -62q-2 -6 -2 -16q0 -158 98.5 -252t264.5 -94q123 0 229.5 40.5t251.5 141.5l-16 -174q-82 -50 -234 -139q-129 -76 -169 -118
t-40 -101q0 -48 30 -74.5t85 -26.5q40 0 74.5 14t89.5 54l18 -143q-57 -32 -99 -45t-93 -13q-108 0 -178 61t-70 156q0 72 38.5 123t125.5 94zM375 629l794 51q5 31 5 53q0 133 -81.5 210t-222.5 77q-172 0 -306.5 -106.5t-188.5 -284.5z" />
    <glyph glyph-name="Ecaron" unicode="&#x11a;" horiz-adv-x="1173" 
d="M195 0l256 1450h843l-26 -150h-686l-84 -475h602l-27 -149h-602l-92 -526h696l-26 -150h-854zM938 1571l-356 207l94 131l262 -152l260 152l94 -131z" />
    <glyph glyph-name="ecaron" unicode="&#x11b;" horiz-adv-x="1286" 
d="M1194 305l-16 -174q-144 -92 -243 -125t-228 -33q-239 0 -381 135.5t-142 364.5q0 139 55 267t147.5 221.5t220 149.5t265.5 56q207 0 335 -118.5t128 -311.5q0 -87 -22 -190l-961 -62q-2 -6 -2 -16q0 -158 98.5 -251t264.5 -93q123 0 229.5 40t251.5 140zM375 629
l794 51q5 31 5 53q0 133 -81.5 210t-222.5 77q-172 0 -306.5 -106.5t-188.5 -284.5zM924 1298l-357 207l95 131l262 -153l262 153l92 -131z" />
    <glyph glyph-name="Gbreve" unicode="&#x11e;" horiz-adv-x="1533" 
d="M1534 1339l-55 -159q-113 84 -201 115.5t-209 31.5q-144 0 -272 -55.5t-219.5 -151t-145 -229t-53.5 -283.5q0 -226 131 -355.5t358 -129.5q132 0 228.5 36.5t199.5 125.5l62 348h-445l27 149h600l-98 -557q-148 -137 -281 -194.5t-301 -57.5q-286 0 -462.5 175
t-176.5 458q0 180 67.5 341t182 277.5t274.5 184.5t338 68q131 0 236.5 -32.5t214.5 -105.5zM1425 1864l95 -111q-99 -87 -181.5 -120.5t-199.5 -33.5q-115 0 -197.5 33.5t-181.5 120.5l92 111q85 -62 148.5 -86.5t138.5 -24.5t139 25t147 86z" />
    <glyph glyph-name="gbreve" unicode="&#x11f;" horiz-adv-x="1382" 
d="M133 -373l27 197q110 -98 206.5 -137t227.5 -39q118 0 217 40t152 109q35 45 59 102t57 169q-132 -56 -213 -75.5t-178 -19.5q-239 0 -376.5 131.5t-137.5 358.5q0 146 60 276.5t163 224t246 148.5t303 55q127 0 316 -41l161 33l-159 -909q-43 -240 -80 -349.5
t-103 -191.5q-175 -211 -514 -211q-139 0 -236.5 29t-197.5 100zM1100 217l133 760q-106 26 -158 33.5t-121 7.5q-179 0 -321 -69.5t-221.5 -194t-79.5 -281.5q0 -169 98.5 -258.5t284.5 -89.5q94 0 167 17.5t218 74.5zM1292 1577l94 -113q-98 -86 -180.5 -119.5
t-199.5 -33.5q-115 0 -198 33.5t-181 119.5l92 113q84 -62 148.5 -87.5t138.5 -25.5q75 0 139.5 25.5t146.5 87.5z" />
    <glyph glyph-name="Gcommaaccent" unicode="&#x122;" horiz-adv-x="1533" 
d="M1534 1339l-55 -159q-113 84 -201 115.5t-209 31.5q-144 0 -272 -55.5t-219.5 -151t-145 -229t-53.5 -283.5q0 -226 131 -355.5t358 -129.5q132 0 228.5 36.5t199.5 125.5l62 348h-445l27 149h600l-98 -557q-148 -137 -281 -194.5t-301 -57.5q-286 0 -462.5 175
t-176.5 458q0 180 67.5 341t182 277.5t274.5 184.5t338 68q131 0 236.5 -32.5t214.5 -105.5zM569 -479l156 373h178l-194 -373h-140z" />
    <glyph glyph-name="gcommaaccent" unicode="&#x123;" horiz-adv-x="1382" 
d="M133 -373l27 197q110 -98 206.5 -137t227.5 -39q118 0 217 40t152 109q35 45 59 102t57 169q-132 -56 -213 -75.5t-178 -19.5q-239 0 -376.5 131.5t-137.5 358.5q0 146 60 276.5t163 224t246 148.5t303 55q127 0 316 -41l161 33l-159 -909q-43 -240 -80 -349.5
t-103 -191.5q-175 -211 -514 -211q-139 0 -236.5 29t-197.5 100zM1100 217l133 760q-106 26 -158 33.5t-121 7.5q-179 0 -321 -69.5t-221.5 -194t-79.5 -281.5q0 -169 98.5 -258.5t284.5 -89.5q94 0 167 17.5t218 74.5zM1165 1647l-137 -347h-176l174 347h139z" />
    <glyph glyph-name="Imacron" unicode="&#x12a;" horiz-adv-x="544" 
d="M195 0l256 1450h157l-256 -1450h-157zM303 1610l27 157h516l-29 -157h-514z" />
    <glyph glyph-name="imacron" unicode="&#x12b;" horiz-adv-x="512" 
d="M541 1159l-205 -1159h-158l201 1135zM242 1337l28 158h514l-26 -158h-516z" />
    <glyph glyph-name="Iogonek" unicode="&#x12e;" horiz-adv-x="544" 
d="M387 -260l19 -143q-100 -58 -193 -58q-107 0 -177.5 61.5t-70.5 155.5q0 77 63 143.5t167 100.5l256 1450h155l-256 -1450q-140 -68 -190.5 -116t-50.5 -115q0 -45 30.5 -71t85.5 -26q38 0 73 14.5t89 53.5z" />
    <glyph glyph-name="iogonek" unicode="&#x12f;" horiz-adv-x="512" 
d="M178 0l201 1135l160 24l-203 -1159q-244 -103 -244 -227q0 -47 30 -74t83 -27q41 0 75 14t91 54l18 -143q-55 -32 -98 -45t-94 -13q-107 0 -177.5 61.5t-70.5 155.5q0 84 54 142t175 102zM494 1477q46 0 78 -32.5t32 -78.5t-31 -76t-77 -30q-45 0 -77 31t-32 75
q0 47 30.5 79t76.5 32z" />
    <glyph glyph-name="Idotaccent" unicode="&#x130;" horiz-adv-x="544" 
d="M195 0l256 1450h157l-256 -1450h-157zM573 1808q46 0 81.5 -35.5t35.5 -82.5q0 -51 -33 -84t-84 -33q-50 0 -84 34t-34 83q0 50 34.5 84t83.5 34z" />
    <glyph glyph-name="dotlessi" unicode="&#x131;" horiz-adv-x="512" 
d="M541 1159l-205 -1159h-158l201 1135z" />
    <glyph glyph-name="Kcommaaccent" unicode="&#x136;" horiz-adv-x="1392" 
d="M195 0l256 1450h157l-121 -678l895 678h232l-942 -717l755 -733h-206l-744 709l-125 -709h-157zM485 -449l158 373h176l-192 -373h-142z" />
    <glyph glyph-name="kcommaaccent" unicode="&#x137;" horiz-adv-x="1259" 
d="M438 588l-102 -588h-158l256 1450l162 27l-147 -836l630 500h238l-688 -531l645 -610h-209zM410 -449l137 345h176l-174 -345h-139z" />
    <glyph glyph-name="Lacute" unicode="&#x139;" horiz-adv-x="1093" 
d="M195 0l256 1450h157l-229 -1300h719l-27 -150h-876zM1018 1921l55 -152l-541 -198l-55 151z" />
    <glyph glyph-name="lacute" unicode="&#x13a;" horiz-adv-x="512" 
d="M336 0h-158l256 1450l162 27zM903 1911l55 -150l-542 -198l-54 151z" />
    <glyph glyph-name="Lcommaaccent" unicode="&#x13b;" horiz-adv-x="1093" 
d="M195 0l256 1450h157l-229 -1300h719l-27 -150h-876zM334 -449l158 373h176l-193 -373h-141z" />
    <glyph glyph-name="lcommaaccent" unicode="&#x13c;" horiz-adv-x="512" 
d="M334 0h-158l256 1450l162 27zM27 -449l137 345h176l-174 -345h-139z" />
    <glyph glyph-name="Lcaron" unicode="&#x13d;" horiz-adv-x="1093" 
d="M195 0l256 1450h157l-229 -1300h719l-27 -150h-876zM711 1077l155 373h176l-192 -373h-139z" />
    <glyph glyph-name="lcaron" unicode="&#x13e;" horiz-adv-x="512" 
d="M336 0h-158l256 1450l162 27zM641 1106l137 344h178l-174 -344h-141z" />
    <glyph glyph-name="Lslash" unicode="&#x141;" horiz-adv-x="1093" 
d="M449 1450h157l-117 -662l439 273l-31 -166l-436 -272l-84 -473h721l-27 -150h-876l90 518l-217 -135l30 168l217 135z" />
    <glyph glyph-name="lslash" unicode="&#x142;" horiz-adv-x="512" 
d="M285 612l-154 -94l29 164l153 98l119 670l162 27l-105 -592l154 94l-29 -164l-153 -98l-127 -717h-158z" />
    <glyph glyph-name="Nacute" unicode="&#x143;" horiz-adv-x="1595" 
d="M195 0l264 1501l846 -1165l196 1114h158l-266 -1505l-844 1171l-197 -1116h-157zM1405 1921l55 -152l-542 -198l-54 151z" />
    <glyph glyph-name="nacute" unicode="&#x144;" horiz-adv-x="1386" 
d="M164 0l201 1135l161 24l-41 -231q207 241 504 241q172 0 282.5 -88t110.5 -225q0 -47 -14 -143l-127 -713h-156l113 645q25 150 25 184q0 88 -67.5 139.5t-184.5 51.5q-126 0 -245.5 -61.5t-199.5 -167.5q-47 -63 -73 -129t-45 -170l-86 -492h-158zM1251 1661l54 -152
l-541 -196l-53 149z" />
    <glyph glyph-name="Ncommaaccent" unicode="&#x145;" horiz-adv-x="1595" 
d="M195 0l264 1501l846 -1165l196 1114h158l-266 -1505l-844 1171l-197 -1116h-157zM547 -449l155 373h179l-195 -373h-139z" />
    <glyph glyph-name="ncommaaccent" unicode="&#x146;" horiz-adv-x="1386" 
d="M164 0l201 1135l161 24l-41 -231q207 241 504 241q172 0 282.5 -88t110.5 -225q0 -47 -14 -143l-127 -713h-156l113 645q25 150 25 184q0 88 -67.5 139.5t-184.5 51.5q-126 0 -245.5 -61.5t-199.5 -167.5q-47 -63 -73 -129t-45 -170l-86 -492h-158zM465 -449l137 345h176
l-174 -345h-139z" />
    <glyph glyph-name="Ncaron" unicode="&#x147;" horiz-adv-x="1595" 
d="M195 0l264 1501l846 -1165l196 1114h158l-266 -1505l-844 1171l-197 -1116h-157zM1108 1571l-356 207l94 131l262 -152l262 152l92 -131z" />
    <glyph glyph-name="ncaron" unicode="&#x148;" horiz-adv-x="1386" 
d="M164 0l201 1135l161 24l-41 -231q207 241 504 241q172 0 282.5 -88t110.5 -225q0 -47 -14 -143l-127 -713h-156l113 645q25 150 25 184q0 88 -67.5 139.5t-184.5 51.5q-126 0 -245.5 -61.5t-199.5 -167.5q-47 -63 -73 -129t-45 -170l-86 -492h-158zM1001 1298l-356 207
l94 131l262 -153l263 153l92 -131z" />
    <glyph glyph-name="Omacron" unicode="&#x14c;" horiz-adv-x="1628" 
d="M1001 1477q146 0 271 -50t213 -138.5t138 -214.5t50 -273q0 -230 -102 -420t-280 -299t-394 -109q-296 0 -486 190t-190 486q0 230 102.5 420t281.5 299t396 109zM995 1327q-127 0 -241.5 -52t-197 -139.5t-131 -210t-48.5 -257.5q0 -249 140 -397t374 -148q132 0 248 51
t199 140t130.5 214t47.5 267q0 238 -144 385t-377 147zM811 1610l27 157h516l-29 -157h-514z" />
    <glyph glyph-name="omacron" unicode="&#x14d;" horiz-adv-x="1376" 
d="M825 1167q243 0 399 -152t156 -390q0 -135 -50 -255.5t-135.5 -207.5t-204.5 -138t-251 -51q-243 0 -399 150.5t-156 382.5q0 184 84.5 335.5t232 238.5t324.5 87zM831 1018q-212 0 -350.5 -141.5t-138.5 -358.5q0 -183 108 -289t293 -106q207 0 343.5 142t136.5 358
q0 172 -111 283.5t-281 111.5zM647 1337l27 158h516l-29 -158h-514z" />
    <glyph glyph-name="Ohungarumlaut" unicode="&#x150;" horiz-adv-x="1628" 
d="M1001 1477q146 0 271 -50t213 -138.5t138 -214.5t50 -273q0 -230 -102 -420t-280 -299t-394 -109q-296 0 -486 190t-190 486q0 230 102.5 420t281.5 299t396 109zM995 1327q-127 0 -241.5 -52t-197 -139.5t-131 -210t-48.5 -257.5q0 -249 140 -397t374 -148q132 0 248 51
t199 140t130.5 214t47.5 267q0 238 -144 385t-377 147zM1061 2025l125 -104l-281 -336l-125 105zM1501 2025l125 -104l-278 -336l-125 105z" />
    <glyph glyph-name="ohungarumlaut" unicode="&#x151;" horiz-adv-x="1376" 
d="M825 1167q243 0 399 -152t156 -390q0 -135 -50 -255.5t-135.5 -207.5t-204.5 -138t-251 -51q-243 0 -399 150.5t-156 382.5q0 184 84.5 335.5t232 238.5t324.5 87zM831 1018q-212 0 -350.5 -141.5t-138.5 -358.5q0 -183 108 -289t293 -106q207 0 343.5 142t136.5 358
q0 172 -111 283.5t-281 111.5zM854 1747l125 -105l-279 -335l-125 104zM1296 1747l125 -105l-280 -335l-125 104z" />
    <glyph glyph-name="OE" unicode="&#x152;" horiz-adv-x="2111" 
d="M1202 1450h1028l-26 -150h-729q98 -98 145 -211.5t53 -263.5h363l-27 -149h-344q-46 -316 -279 -526h625l-26 -150h-879q-117 -27 -213 -27q-296 0 -484 192t-188 494q0 169 61 321t165.5 260.5t249.5 172.5t307 64q104 0 198 -27zM995 1327q-127 0 -241.5 -52
t-197 -139.5t-131 -210t-48.5 -257.5q0 -249 139.5 -397t374.5 -148q138 0 242 43t192 137q92 98 141.5 225.5t49.5 266.5q0 238 -144 385t-377 147z" />
    <glyph glyph-name="oe" unicode="&#x153;" horiz-adv-x="2314" 
d="M2210 305l-17 -174q-141 -91 -241 -124.5t-230 -33.5q-177 0 -289 65t-180 206q-180 -271 -516 -271q-243 0 -398 151.5t-155 387.5q0 135 50 256.5t135.5 209t204.5 138.5t251 51q170 0 312 -85t194 -218q65 87 105 127q82 80 206.5 128t251.5 48q206 0 332.5 -119.5
t126.5 -312.5q0 -73 -22 -188l-963 -62q0 -170 95.5 -265t267.5 -95q122 0 228 40t251 140zM831 1018q-212 0 -350.5 -141.5t-138.5 -358.5q0 -182 108.5 -288.5t294.5 -106.5q207 0 343.5 142t136.5 358q0 173 -111 284t-283 111zM1391 629l796 51q4 50 4 53
q0 134 -81 210.5t-222 76.5q-172 0 -306.5 -106t-190.5 -285z" />
    <glyph glyph-name="Racute" unicode="&#x154;" horiz-adv-x="1325" 
d="M889 612l389 -612h-197l-354 594h-270l-105 -594h-157l256 1450h309q150 0 238 -16.5t157 -57.5q85 -51 133.5 -140.5t48.5 -195.5q0 -181 -115.5 -291.5t-332.5 -136.5zM582 1300l-99 -557h144q154 0 227.5 8t138.5 31q83 28 135 101t52 161q0 72 -35.5 132t-95.5 86
q-53 24 -114 31t-210 7h-143zM1219 1921l53 -152l-541 -198l-55 151z" />
    <glyph glyph-name="racute" unicode="&#x155;" horiz-adv-x="821" 
d="M1032 1167l-53 -149q-226 3 -385.5 -153t-194.5 -414l-77 -451h-158l201 1135l161 24l-41 -231q198 245 547 239zM1008 1661l55 -152l-541 -196l-55 149z" />
    <glyph glyph-name="Rcommaaccent" unicode="&#x156;" horiz-adv-x="1325" 
d="M889 612l389 -612h-197l-354 594h-270l-105 -594h-157l256 1450h309q150 0 238 -16.5t157 -57.5q85 -51 133.5 -140.5t48.5 -195.5q0 -181 -115.5 -291.5t-332.5 -136.5zM582 1300l-99 -557h144q154 0 227.5 8t138.5 31q83 28 135 101t52 161q0 72 -35.5 132t-95.5 86
q-53 24 -114 31t-210 7h-143zM432 -449l156 373h176l-193 -373h-139z" />
    <glyph glyph-name="rcommaaccent" unicode="&#x157;" horiz-adv-x="821" 
d="M1032 1167l-53 -149q-226 2 -385 -154t-193 -413l-79 -451h-158l201 1135l161 24l-41 -231q201 245 547 239zM0 -449l137 345h176l-174 -345h-139z" />
    <glyph glyph-name="Rcaron" unicode="&#x158;" horiz-adv-x="1325" 
d="M889 612l389 -612h-197l-354 594h-270l-105 -594h-157l256 1450h309q150 0 238 -16.5t157 -57.5q85 -51 133.5 -140.5t48.5 -195.5q0 -181 -115.5 -291.5t-332.5 -136.5zM582 1300l-99 -557h144q154 0 227.5 8t138.5 31q83 28 135 101t52 161q0 72 -35.5 132t-95.5 86
q-53 24 -114 31t-210 7h-143zM922 1571l-357 207l94 131l263 -152l260 152l94 -131z" />
    <glyph glyph-name="rcaron" unicode="&#x159;" horiz-adv-x="821" 
d="M1032 1167l-53 -149q-226 3 -385.5 -153t-194.5 -414l-77 -451h-158l201 1135l161 24l-41 -231q198 245 547 239zM719 1298l-354 207l94 131l260 -153l262 153l94 -131z" />
    <glyph glyph-name="Sacute" unicode="&#x15a;" horiz-adv-x="1110" 
d="M152 59l-21 201q145 -79 235.5 -108t194.5 -29q169 0 275 82t106 211q0 76 -43 128.5t-156 112.5l-170 93q-138 75 -193.5 146t-55.5 171q0 175 143.5 292.5t357.5 117.5q90 0 173 -20.5t188 -67.5l-39 -168q-116 62 -187.5 84t-158.5 22q-135 0 -226.5 -72.5
t-91.5 -181.5q0 -58 38.5 -98t156.5 -103l147 -77q147 -78 211 -164t64 -205q0 -204 -152.5 -328.5t-404.5 -124.5q-111 0 -192 17.5t-199 68.5zM1163 1921l56 -152l-541 -198l-55 151z" />
    <glyph glyph-name="sacute" unicode="&#x15b;" horiz-adv-x="1015" 
d="M145 59v185q101 -64 189.5 -92.5t187.5 -28.5q134 0 214.5 52t80.5 140q0 57 -35.5 91.5t-144.5 85.5l-150 69q-136 63 -186.5 119t-50.5 143q0 149 134 247.5t335 98.5q155 0 315 -65l-35 -170q-90 46 -157 65t-142 19q-124 0 -206 -52t-82 -130q0 -44 33.5 -72
t144.5 -78l151 -65q124 -55 181 -124t57 -163q0 -160 -130 -260.5t-337 -100.5q-194 0 -367 86zM1049 1661l55 -152l-541 -196l-55 149z" />
    <glyph glyph-name="Scedilla" unicode="&#x15e;" horiz-adv-x="1110" 
d="M459 -123l16 98q-95 7 -160 24t-163 60l-21 201q145 -79 235.5 -108t194.5 -29q169 0 275 82t106 211q0 76 -43 128.5t-156 112.5l-170 93q-138 75 -193.5 146t-55.5 171q0 175 143.5 292.5t357.5 117.5q90 0 173 -20.5t188 -67.5l-39 -168q-116 62 -187.5 84t-158.5 22
q-135 0 -226.5 -72.5t-91.5 -181.5q0 -58 38.5 -98t156.5 -103l147 -77q146 -78 210.5 -164.5t64.5 -204.5q0 -204 -152.5 -328.5t-404.5 -124.5q91 -19 140.5 -74.5t49.5 -140.5q0 -92 -64 -150.5t-167 -58.5q-92 0 -174 56l26 125q71 -58 138 -58q46 0 76 27t30 70
q0 47 -33 73t-106 35z" />
    <glyph glyph-name="scedilla" unicode="&#x15f;" horiz-adv-x="1015" 
d="M424 -113l16 90q-164 13 -295 84v183q103 -65 191 -93t186 -28q132 0 213.5 53t81.5 139q0 57 -35.5 91.5t-144.5 85.5l-150 69q-136 63 -186.5 119t-50.5 145q0 148 134 246t335 98q164 0 315 -65l-35 -170q-92 48 -157.5 67t-141.5 19q-126 0 -207 -52t-81 -132
q0 -43 34.5 -71.5t143.5 -78.5l151 -65q125 -56 181.5 -124t56.5 -163q0 -162 -131 -261.5t-344 -99.5q79 -15 123.5 -65.5t44.5 -124.5q0 -85 -58.5 -138t-150.5 -53q-77 0 -152 48l15 118q42 -32 69 -43.5t58 -11.5q43 0 70.5 25t27.5 65q0 41 -30.5 64t-96.5 30z" />
    <glyph glyph-name="Scaron" unicode="&#x160;" horiz-adv-x="1110" 
d="M152 59l-21 201q145 -79 235.5 -108t194.5 -29q169 0 275 82t106 211q0 76 -43 128.5t-156 112.5l-170 93q-138 75 -193.5 146t-55.5 171q0 175 143.5 292.5t357.5 117.5q90 0 173 -20.5t188 -67.5l-39 -168q-116 62 -187.5 84t-158.5 22q-135 0 -226.5 -72.5
t-91.5 -181.5q0 -58 38.5 -98t156.5 -103l147 -77q147 -78 211 -164t64 -205q0 -204 -152.5 -328.5t-404.5 -124.5q-111 0 -192 17.5t-199 68.5zM897 1571l-356 207l94 131l262 -152l262 152l92 -131z" />
    <glyph glyph-name="scaron" unicode="&#x161;" horiz-adv-x="1015" 
d="M145 59v185q101 -64 189.5 -92.5t187.5 -28.5q134 0 214.5 52t80.5 140q0 57 -35.5 91.5t-144.5 85.5l-150 69q-136 63 -186.5 119t-50.5 143q0 149 134 247.5t335 98.5q155 0 315 -65l-35 -170q-90 46 -157 65t-142 19q-124 0 -206 -52t-82 -130q0 -44 33.5 -72
t144.5 -78l151 -65q124 -55 181 -124t57 -163q0 -160 -130 -260.5t-337 -100.5q-194 0 -367 86zM799 1298l-357 207l95 131l262 -153l262 153l92 -131z" />
    <glyph glyph-name="Tcommaaccent" unicode="&#x162;" horiz-adv-x="1255" 
d="M936 1300l-229 -1300h-158l229 1300h-534l26 150h1227l-27 -150h-534zM377 -449l155 373h179l-195 -373h-139z" />
    <glyph glyph-name="tcommaaccent" unicode="&#x163;" horiz-adv-x="770" 
d="M741 170l-36 -154q-86 -30 -164 -30q-125 0 -199 65.5t-74 175.5q0 26 8 92l119 670h-207l27 150h207l55 311l162 27l-61 -338h360l-27 -150h-358l-117 -661q-8 -39 -8 -82q0 -63 31.5 -90t105.5 -27q86 0 176 41zM182 -449l137 345h177l-174 -345h-140z" />
    <glyph glyph-name="Tcaron" unicode="&#x164;" horiz-adv-x="1255" 
d="M936 1300l-229 -1300h-158l229 1300h-534l26 150h1227l-27 -150h-534zM926 1571l-355 207l93 131l262 -152l262 152l94 -131z" />
    <glyph glyph-name="tcaron" unicode="&#x165;" horiz-adv-x="770" 
d="M741 170l-34 -154q-86 -30 -164 -30q-126 0 -199.5 65.5t-73.5 175.5q0 45 9 92l116 670h-207l27 150h207l55 311l162 27l-59 -338h358l-27 -150h-358l-117 -661q-6 -44 -6 -84q0 -62 32 -88.5t105 -26.5q84 0 174 41zM754 1298l137 347h176l-174 -347h-139z" />
    <glyph glyph-name="Umacron" unicode="&#x16a;" horiz-adv-x="1570" 
d="M1669 1450l-139 -782q-120 -695 -694 -695q-248 0 -396.5 127.5t-148.5 341.5q0 97 22 226l140 782h157l-139 -788q-22 -123 -22 -211q0 -151 106.5 -239.5t288.5 -88.5q222 0 351.5 132t176.5 407l139 788h158zM821 1610l27 157h516l-29 -157h-514z" />
    <glyph glyph-name="umacron" unicode="&#x16b;" horiz-adv-x="1386" 
d="M1427 1159l-202 -1159l-162 -27l41 240q-209 -240 -504 -240q-171 0 -282 88.5t-111 223.5q0 66 14 143l125 713l162 18l-117 -661q-24 -129 -24 -185q0 -88 67 -139t184 -51q126 0 245.5 61.5t199.5 165.5q48 65 74 131.5t45 169.5l86 490zM668 1337l26 158h516
l-28 -158h-514z" />
    <glyph glyph-name="Uring" unicode="&#x16e;" horiz-adv-x="1570" 
d="M1669 1450l-139 -782q-120 -695 -694 -695q-248 0 -396.5 127.5t-148.5 341.5q0 97 22 226l140 782h157l-139 -788q-22 -123 -22 -211q0 -151 106.5 -239.5t288.5 -88.5q222 0 351.5 132t176.5 407l139 788h158zM1087 1915q93 0 159.5 -64.5t66.5 -156.5
q0 -95 -65.5 -160.5t-160.5 -65.5q-94 0 -159.5 65t-65.5 159q0 92 65.5 157.5t159.5 65.5zM1087 1804q-46 0 -79 -33t-33 -79q0 -49 32.5 -83t79.5 -34q46 0 80.5 34t34.5 81q0 46 -34.5 80t-80.5 34z" />
    <glyph glyph-name="uring" unicode="&#x16f;" horiz-adv-x="1386" 
d="M1427 1159l-202 -1159l-162 -27l41 240q-209 -240 -504 -240q-171 0 -282 88.5t-111 223.5q0 66 14 143l125 713l162 18l-117 -661q-24 -129 -24 -185q0 -88 67 -139t184 -51q126 0 245.5 61.5t199.5 165.5q48 65 74 131.5t45 169.5l86 490zM946 1722q94 0 159.5 -64
t65.5 -155q0 -95 -65 -160t-160 -65q-94 0 -159.5 64.5t-65.5 158.5q0 92 65.5 156.5t159.5 64.5zM946 1612q-46 0 -79 -33.5t-33 -79.5q0 -48 32.5 -81.5t79.5 -33.5q46 0 80.5 33.5t34.5 79.5q0 47 -34 81t-81 34z" />
    <glyph glyph-name="Uhungarumlaut" unicode="&#x170;" horiz-adv-x="1570" 
d="M1669 1450l-139 -782q-120 -695 -694 -695q-248 0 -396.5 127.5t-148.5 341.5q0 97 22 226l140 782h157l-139 -788q-22 -123 -22 -211q0 -151 106.5 -239.5t288.5 -88.5q222 0 351.5 132t176.5 407l139 788h158zM1044 2025l125 -104l-280 -336l-125 105zM1485 2025
l125 -104l-281 -336l-125 105z" />
    <glyph glyph-name="uhungarumlaut" unicode="&#x171;" horiz-adv-x="1386" 
d="M1427 1159l-202 -1159l-162 -27l41 240q-209 -240 -504 -240q-171 0 -282 88.5t-111 223.5q0 66 14 143l125 713l162 18l-117 -661q-24 -129 -24 -185q0 -88 67 -139t184 -51q126 0 245.5 61.5t199.5 165.5q48 65 74 131.5t45 169.5l86 490zM901 1747l125 -105l-281 -335
l-124 104zM1341 1747l125 -105l-278 -335l-127 104z" />
    <glyph glyph-name="Uogonek" unicode="&#x172;" horiz-adv-x="1570" 
d="M1122 -260l19 -143q-56 -32 -98 -45t-93 -13q-108 0 -178 61t-70 156q0 67 42.5 124.5t117.5 92.5q-269 0 -420 124t-151 345q0 97 22 226l140 782h157l-139 -788q-22 -123 -22 -211q0 -151 106.5 -239.5t288.5 -88.5q222 0 351.5 132t176.5 407l139 788h158l-139 -782
q-59 -281 -147.5 -417t-274.5 -228q-153 -85 -207.5 -136.5t-54.5 -113.5q0 -47 30 -74t82 -27q40 0 74.5 14.5t89.5 53.5z" />
    <glyph glyph-name="uogonek" unicode="&#x173;" horiz-adv-x="1386" 
d="M1067 0l37 213q-209 -240 -504 -240q-171 0 -282 88.5t-111 223.5q0 66 14 143l125 713l162 18l-117 -661q-24 -129 -24 -185q0 -88 67 -139t184 -51q126 0 245.5 61.5t199.5 165.5q48 65 74 131.5t45 169.5l86 490l159 18l-202 -1159h-4q-148 -73 -195 -118t-47 -111
q0 -46 30.5 -72.5t84.5 -26.5q39 0 73.5 14.5t89.5 53.5l19 -143q-100 -58 -193 -58q-107 0 -177 61.5t-70 155.5q0 85 54.5 142.5t176.5 101.5z" />
    <glyph glyph-name="Ydieresis" unicode="&#x178;" horiz-adv-x="1312" 
d="M580 0l116 664l-467 786h181l378 -641l607 641h202l-743 -782l-119 -668h-155zM659 1806q47 0 81 -34.5t34 -83.5q0 -50 -33 -82.5t-82 -32.5t-83.5 34t-34.5 81q0 50 34.5 84t83.5 34zM1260 1806q47 0 81.5 -35.5t34.5 -82.5q0 -50 -32.5 -82.5t-83.5 -32.5
q-47 0 -82 34t-35 81q0 49 34.5 83.5t82.5 34.5z" />
    <glyph glyph-name="Zacute" unicode="&#x179;" horiz-adv-x="1378" 
d="M76 0l1141 1300h-838l61 150h1114l-1134 -1300h889l-66 -150h-1167zM1317 1921l53 -152l-541 -198l-55 151z" />
    <glyph glyph-name="zacute" unicode="&#x17a;" horiz-adv-x="1075" 
d="M0 0l926 989h-682l65 150h953l-912 -989h735l-59 -150h-1026zM1098 1661l55 -152l-543 -196l-53 149z" />
    <glyph glyph-name="Zdotaccent" unicode="&#x17b;" horiz-adv-x="1378" 
d="M76 0l1141 1300h-838l61 150h1114l-1134 -1300h889l-66 -150h-1167zM1008 1806q47 0 81.5 -35.5t34.5 -82.5q0 -50 -32.5 -82.5t-83.5 -32.5q-50 0 -83.5 33.5t-33.5 83.5q0 47 35 81.5t82 34.5z" />
    <glyph glyph-name="zdotaccent" unicode="&#x17c;" horiz-adv-x="1075" 
d="M0 0l926 989h-682l65 150h953l-912 -989h735l-59 -150h-1026zM817 1542q44 0 76.5 -33t32.5 -79q0 -47 -32 -79t-79 -32t-80 32t-33 79q0 45 34.5 78.5t80.5 33.5z" />
    <glyph glyph-name="Zcaron" unicode="&#x17d;" horiz-adv-x="1378" 
d="M76 0l1141 1300h-838l61 150h1114l-1134 -1300h889l-66 -150h-1167zM1034 1571l-356 207l94 131l262 -152l262 152l93 -131z" />
    <glyph glyph-name="zcaron" unicode="&#x17e;" horiz-adv-x="1075" 
d="M0 0l926 989h-682l65 150h953l-912 -989h735l-59 -150h-1026zM858 1298l-354 207l92 131l262 -153l262 153l94 -131z" />
    <glyph glyph-name="uni018F" unicode="&#x18f;" horiz-adv-x="1628" 
d="M1507 682h-1128q0 -261 137.5 -410t380.5 -149q238 0 403.5 151.5t206.5 407.5zM487 1145l17 174q147 93 245.5 125.5t233.5 32.5q311 0 500.5 -186t189.5 -490q0 -230 -102 -420t-280 -299t-394 -109q-301 0 -488.5 192t-187.5 499q0 56 15 170h1280q-9 225 -155.5 359
t-383.5 134q-129 0 -235.5 -39.5t-254.5 -142.5z" />
    <glyph glyph-name="florin" unicode="&#x192;" horiz-adv-x="1202" 
d="M399 -375l-163 -41l186 1065h-227l26 150h228l86 485q28 158 119 241t239 83q59 0 160 -23l-45 -145q-60 16 -103 16q-96 0 -147 -45t-70 -145l-82 -467h326l-27 -150h-325z" />
    <glyph glyph-name="uni01DD" unicode="&#x1dd;" horiz-adv-x="1376" 
d="M1217 532h-875v-6v-16q0 -175 110 -281t291 -106q186 0 314.5 111t159.5 298zM342 836l16 174q140 90 238.5 123.5t222.5 33.5q248 0 404.5 -151.5t156.5 -390.5q0 -135 -50 -255.5t-135.5 -207.5t-204.5 -138t-251 -51q-247 0 -401 150.5t-154 392.5q0 71 21 168h1016
q-22 155 -129.5 244.5t-270.5 89.5q-122 0 -228 -40.5t-251 -141.5z" />
    <glyph glyph-name="uni021A" unicode="&#x21a;" horiz-adv-x="1255" 
d="M936 1300l-229 -1300h-158l229 1300h-534l26 150h1227l-27 -150h-534zM377 -449l155 373h179l-195 -373h-139z" />
    <glyph glyph-name="uni021B" unicode="&#x21b;" horiz-adv-x="770" 
d="M741 170l-36 -154q-86 -30 -164 -30q-125 0 -199 65.5t-74 175.5q0 26 8 92l119 670h-207l27 150h207l55 311l162 27l-61 -338h360l-27 -150h-358l-117 -661q-8 -39 -8 -82q0 -63 31.5 -90t105.5 -27q86 0 176 41zM182 -449l137 345h177l-174 -345h-140z" />
    <glyph glyph-name="uni0259" unicode="&#x259;" horiz-adv-x="1376" 
d="M1217 532h-875v-6v-16q0 -175 110 -281t291 -106q186 0 314.5 111t159.5 298zM342 836l16 174q140 90 238.5 123.5t222.5 33.5q248 0 404.5 -151.5t156.5 -390.5q0 -135 -50 -255.5t-135.5 -207.5t-204.5 -138t-251 -51q-247 0 -401 150.5t-154 392.5q0 71 21 168h1016
q-22 155 -129.5 244.5t-270.5 89.5q-122 0 -228 -40.5t-251 -141.5z" />
    <glyph glyph-name="afii57929" unicode="&#x2bc;" horiz-adv-x="532" 
d="M254 922l264 528h178l-286 -528h-156z" />
    <glyph glyph-name="circumflex" unicode="&#x2c6;" 
d="M940 1663l354 -207l-94 -131l-260 154l-262 -154l-94 131z" />
    <glyph glyph-name="caron" unicode="&#x2c7;" 
d="M948 1298l-356 207l94 131l262 -153l260 153l95 -131z" />
    <glyph glyph-name="uni02C9" unicode="&#x2c9;" 
d="M662 1337l28 158h514l-28 -158h-514z" />
    <glyph glyph-name="breve" unicode="&#x2d8;" 
d="M1227 1577l94 -113q-98 -86 -181 -119.5t-200 -33.5q-115 0 -198 33.5t-181 119.5l92 113q84 -62 148.5 -87.5t138.5 -25.5q76 0 140.5 25.5t146.5 87.5z" />
    <glyph glyph-name="dotaccent" unicode="&#x2d9;" 
d="M934 1542q44 0 76 -33t32 -79q0 -47 -31.5 -79t-78.5 -32t-80 32.5t-33 78.5q0 45 34.5 78.5t80.5 33.5z" />
    <glyph glyph-name="ring" unicode="&#x2da;" 
d="M948 1722q94 0 160 -64t66 -155q0 -95 -65.5 -160t-160.5 -65q-94 0 -159.5 64.5t-65.5 158.5q0 92 65.5 156.5t159.5 64.5zM946 1612q-46 0 -78 -33t-32 -80q0 -49 32.5 -82t79.5 -33t81 33.5t34 79.5q0 48 -34 81.5t-83 33.5z" />
    <glyph glyph-name="ogonek" unicode="&#x2db;" 
d="M993 -260l19 -143q-100 -58 -193 -58q-107 0 -177.5 61.5t-70.5 155.5q0 82 53 139.5t171 104.5h161q-138 -64 -189.5 -113.5t-51.5 -115.5q0 -46 30 -72.5t84 -26.5q39 0 74 14.5t90 53.5z" />
    <glyph glyph-name="tilde" unicode="&#x2dc;" 
d="M1235 1556l49 -118q-80 -56 -134.5 -76.5t-121.5 -20.5q-41 0 -82 13l-76 24q-34 11 -71 11q-65 0 -158 -60l-51 119q81 56 135.5 77t116.5 21q45 0 86 -14l76 -25q53 -16 83 -16q32 0 64.5 14t83.5 51z" />
    <glyph glyph-name="hungarumlaut" unicode="&#x2dd;" 
d="M815 1747l125 -105l-281 -335l-124 104zM1255 1747l125 -105l-280 -335l-125 104z" />
    <glyph glyph-name="uni037E" unicode="&#x37e;" horiz-adv-x="573" 
d="M-23 -340l265 528h178l-287 -528h-156zM449 889q43 0 73.5 -31.5t30.5 -75.5q0 -43 -30.5 -72.5t-73.5 -29.5q-42 0 -73.5 30.5t-31.5 71.5q0 44 30.5 75.5t74.5 31.5z" />
    <glyph glyph-name="tonos" unicode="&#x384;" 
d="M819 1681h205l-27 -419h-151z" />
    <glyph glyph-name="dieresistonos" unicode="&#x385;" 
d="M852 1681h205l-27 -419h-149zM698 1542q44 0 76.5 -33t32.5 -79q0 -47 -32 -79t-79 -32t-79.5 32.5t-32.5 78.5t34 79t80 33zM1219 1542q44 0 77 -33t33 -79q0 -47 -32.5 -79t-79.5 -32q-46 0 -78.5 32.5t-32.5 78.5t33.5 79t79.5 33z" />
    <glyph glyph-name="Alphatonos" unicode="&#x386;" horiz-adv-x="1386" 
d="M395 1450h205l-27 -420h-151zM176 0h-190l989 1501l432 -1501h-172l-84 301h-780zM465 451h649l-194 702z" />
    <glyph glyph-name="uni0387" unicode="&#x387;" horiz-adv-x="587" 
d="M420 823q43 0 73.5 -31t30.5 -75q0 -43 -30.5 -73t-73.5 -30q-41 0 -73 32t-32 73q0 43 31 73.5t74 30.5z" />
    <glyph glyph-name="Epsilontonos" unicode="&#x388;" horiz-adv-x="1171" 
d="M123 1450h205l-27 -420h-151zM190 0l256 1450h844l-26 -150h-686l-84 -475h602l-25 -149h-604l-92 -526h696l-27 -150h-854z" />
    <glyph glyph-name="Etatonos" unicode="&#x389;" horiz-adv-x="1701" 
d="M123 1450h205l-27 -420h-151zM190 0l256 1450h158l-108 -616h878l111 616h155l-256 -1450h-155l121 684h-881l-121 -684h-158z" />
    <glyph glyph-name="Iotatonos" unicode="&#x38a;" horiz-adv-x="542" 
d="M123 1450h205l-27 -420h-151zM190 0l256 1450h158l-256 -1450h-158z" />
    <glyph glyph-name="Omicrontonos" unicode="&#x38c;" horiz-adv-x="1667" 
d="M123 1450h205l-27 -420h-151zM1040 1477q146 0 271 -50t213 -138.5t138 -214.5t50 -273q0 -230 -102 -420t-280 -299t-394 -109q-296 0 -486 190t-190 486q0 173 60.5 327t164 263.5t248.5 173.5t307 64zM1034 1327q-127 0 -241.5 -52t-197 -139.5t-131 -210
t-48.5 -257.5q0 -249 140.5 -397t375.5 -148q132 0 247.5 51t197.5 140t129.5 214t47.5 267q0 238 -143.5 385t-376.5 147z" />
    <glyph glyph-name="Upsilontonos" unicode="&#x38e;" horiz-adv-x="1413" 
d="M123 1450h205l-27 -420h-151zM678 0l117 664l-467 786h180l379 -641l606 641h203l-744 -782l-118 -668h-156z" />
    <glyph glyph-name="Omegatonos" unicode="&#x38f;" horiz-adv-x="1671" 
d="M123 1450h205l-27 -420h-151zM199 145h295q-124 102 -179 221t-55 287q0 171 60.5 323.5t164 262.5t247.5 174t306 64q196 0 350 -86t239 -241t85 -353q0 -420 -321 -652h278l-24 -145h-533l29 158q179 56 296 235.5t117 399.5q0 241 -143 387.5t-377 146.5
q-171 0 -312.5 -88t-222.5 -241.5t-81 -338.5q0 -186 86.5 -321.5t234.5 -179.5l-28 -158h-537z" />
    <glyph glyph-name="iotadieresistonos" unicode="&#x390;" horiz-adv-x="512" 
d="M381 1681h205l-27 -419h-149zM227 1542q44 0 76.5 -33t32.5 -79q0 -47 -32 -79t-79 -32t-79.5 32.5t-32.5 78.5t34 79t80 33zM748 1542q44 0 77 -33t33 -79q0 -47 -33 -79t-80 -32q-46 0 -78 32.5t-32 78.5t33.5 79t79.5 33zM539 1159l-205 -1159h-158l201 1135z" />
    <glyph glyph-name="Alpha" unicode="&#x391;" horiz-adv-x="1380" 
d="M170 0h-190l989 1501l432 -1501h-172l-84 301h-780zM459 451h649l-195 702z" />
    <glyph glyph-name="Beta" unicode="&#x392;" horiz-adv-x="1259" 
d="M195 0l256 1450h383q238 0 346 -80q58 -46 91.5 -117t33.5 -151q0 -134 -72 -220t-211 -120q105 -43 155 -120.5t50 -197.5q0 -132 -61 -234.5t-167 -152.5q-73 -35 -150.5 -46t-246.5 -11h-407zM582 1300l-84 -466h256q205 0 297 61.5t92 198.5q0 115 -74.5 160.5
t-259.5 45.5h-227zM471 684l-92 -534h293q209 0 302 72.5t93 234.5q0 117 -79.5 172t-246.5 55h-270z" />
    <glyph glyph-name="Gamma" unicode="&#x393;" horiz-adv-x="1089" 
d="M195 0l256 1450h843l-26 -150h-686l-230 -1300h-157z" />
    <glyph glyph-name="uni0394" unicode="&#x394;" horiz-adv-x="1380" 
d="M170 0h-190l989 1501l432 -1501h-172h-1059zM264 150h922l-273 1003z" />
    <glyph glyph-name="Epsilon" unicode="&#x395;" horiz-adv-x="1173" 
d="M195 0l256 1450h843l-26 -150h-686l-84 -475h602l-27 -149h-602l-92 -526h696l-26 -150h-854z" />
    <glyph glyph-name="Zeta" unicode="&#x396;" horiz-adv-x="1378" 
d="M76 0l1141 1300h-838l61 150h1114l-1134 -1300h889l-66 -150h-1167z" />
    <glyph glyph-name="Eta" unicode="&#x397;" horiz-adv-x="1581" 
d="M195 0l256 1450h157l-110 -616h880l109 616h158l-256 -1450h-158l121 684h-881l-119 -684h-157z" />
    <glyph glyph-name="Theta" unicode="&#x398;" horiz-adv-x="1628" 
d="M1001 1477q146 0 271 -50t213 -138.5t138 -214.5t50 -273q0 -230 -102 -420t-280 -299t-394 -109q-296 0 -486 190t-190 486q0 230 102.5 420t281.5 299t396 109zM995 1327q-127 0 -241.5 -52t-197 -139.5t-131 -210t-48.5 -257.5q0 -249 140 -397t374 -148q132 0 248 51
t199 140t130.5 214t47.5 267q0 238 -144 385t-377 147zM623 684l26 150h613l-27 -150h-612z" />
    <glyph glyph-name="Iota" unicode="&#x399;" horiz-adv-x="544" 
d="M195 0l256 1450h157l-256 -1450h-157z" />
    <glyph glyph-name="Kappa" unicode="&#x39a;" horiz-adv-x="1392" 
d="M195 0l256 1450h157l-121 -678l895 678h232l-942 -717l755 -733h-206l-744 709l-125 -709h-157z" />
    <glyph glyph-name="Lambda" unicode="&#x39b;" horiz-adv-x="1380" 
d="M1229 0l-316 1153l-743 -1153h-190l989 1501l432 -1501h-172z" />
    <glyph glyph-name="Mu" unicode="&#x39c;" horiz-adv-x="1710" 
d="M27 0l585 1501l301 -1186l684 1186l89 -1501h-158l-51 993l-617 -1048l-282 1048l-383 -993h-168z" />
    <glyph glyph-name="Nu" unicode="&#x39d;" horiz-adv-x="1595" 
d="M195 0l264 1501l846 -1165l196 1114h158l-266 -1505l-844 1171l-197 -1116h-157z" />
    <glyph glyph-name="Xi" unicode="&#x39e;" horiz-adv-x="1196" 
d="M109 0l26 150h991l-26 -150h-991zM391 676l27 149h667l-26 -149h-668zM338 1300l27 150h981l-27 -150h-981z" />
    <glyph glyph-name="Omicron" unicode="&#x39f;" horiz-adv-x="1628" 
d="M1001 1477q146 0 271 -50t213 -138.5t138 -214.5t50 -273q0 -230 -102 -420t-280 -299t-394 -109q-296 0 -486 190t-190 486q0 230 102.5 420t281.5 299t396 109zM995 1327q-127 0 -241.5 -52t-197 -139.5t-131 -210t-48.5 -257.5q0 -249 140 -397t374 -148q132 0 248 51
t199 140t130.5 214t47.5 267q0 238 -144 385t-377 147z" />
    <glyph glyph-name="Pi" unicode="&#x3a0;" horiz-adv-x="1581" 
d="M195 0l256 1450h1194l-256 -1450h-164l229 1300h-866l-230 -1300h-163z" />
    <glyph glyph-name="Rho" unicode="&#x3a1;" horiz-adv-x="1216" 
d="M195 0l256 1450h309q149 0 238 -17t159 -57q85 -51 131.5 -140.5t46.5 -199.5q0 -109 -47.5 -205.5t-130.5 -156.5q-88 -62 -205.5 -87.5t-310.5 -25.5h-190l-99 -561h-157zM582 1300l-105 -589h144q155 0 229 8t135 31q86 31 139.5 110.5t53.5 177.5q0 78 -34 138
t-93 86q-56 24 -116.5 31t-209.5 7h-143z" />
    <glyph glyph-name="Sigma" unicode="&#x3a3;" horiz-adv-x="1032" 
d="M-27 0l760 764l-504 686h981l-26 -150h-652l402 -548l-592 -602h649l-26 -150h-992z" />
    <glyph glyph-name="Tau" unicode="&#x3a4;" horiz-adv-x="1255" 
d="M936 1300l-229 -1300h-158l229 1300h-534l26 150h1227l-27 -150h-534z" />
    <glyph glyph-name="Upsilon" unicode="&#x3a5;" horiz-adv-x="1312" 
d="M580 0l116 664l-467 786h181l378 -641l607 641h202l-743 -782l-119 -668h-155z" />
    <glyph glyph-name="Phi" unicode="&#x3a6;" horiz-adv-x="1574" 
d="M897 147l-27 -147h-163l26 156q-256 38 -399.5 175.5t-143.5 344.5q0 168 97.5 309t268.5 226t380 94l27 145h163l-26 -156q252 -34 397 -171t145 -341q0 -171 -100.5 -317.5t-272 -232t-372.5 -85.5zM1075 1165l-155 -884q254 20 409.5 156.5t155.5 338.5
q0 158 -105 257.5t-305 131.5zM758 285l155 886q-252 -20 -408.5 -157.5t-156.5 -337.5q0 -159 106.5 -260.5t303.5 -130.5z" />
    <glyph glyph-name="Chi" unicode="&#x3a7;" horiz-adv-x="1384" 
d="M186 0h-204l727 768l-451 682h184l375 -576l535 576h204l-655 -682l504 -768h-184l-426 653z" />
    <glyph glyph-name="Psi" unicode="&#x3a8;" horiz-adv-x="1802" 
d="M1235 1450l-195 -1102q532 38 602 541l99 561h164l-97 -545q-51 -344 -246 -518.5t-548 -193.5l-35 -193h-164l35 203q-262 41 -405.5 195t-143.5 393q0 104 16 188l84 471h164l-86 -481q-14 -74 -14 -164q0 -152 64 -250t202 -158q66 -31 148 -41l192 1094h164z" />
    <glyph glyph-name="uni03A9" unicode="&#x3a9;" horiz-adv-x="1626" 
d="M156 145h295q-126 101 -181 220t-55 288q0 171 60.5 323.5t164 262.5t247.5 174t306 64q196 0 350 -86t239 -241t85 -353q0 -424 -321 -652h280l-27 -145h-530l27 158q178 54 295.5 235.5t117.5 401.5q0 239 -143.5 385.5t-376.5 146.5q-171 0 -312.5 -88t-222.5 -241.5
t-81 -340.5q0 -185 87.5 -320.5t233.5 -178.5l-26 -158h-539z" />
    <glyph glyph-name="Iotadieresis" unicode="&#x3aa;" horiz-adv-x="544" 
d="M195 0l256 1450h157l-256 -1450h-157zM408 1806q47 0 80.5 -34.5t33.5 -83.5q0 -50 -32.5 -82.5t-81.5 -32.5t-84 34t-35 81q0 49 34.5 83.5t84.5 34.5zM729 1806q47 0 82 -35.5t35 -82.5q0 -50 -33 -82.5t-84 -32.5q-47 0 -82 34t-35 81q0 49 34.5 83.5t82.5 34.5z" />
    <glyph glyph-name="Upsilondieresis" unicode="&#x3ab;" horiz-adv-x="1312" 
d="M580 0l116 664l-467 786h181l378 -641l607 641h202l-743 -782l-119 -668h-155zM621 1808q47 0 81.5 -35.5t34.5 -82.5q0 -51 -32 -84t-82 -33q-51 0 -86 34t-35 83q0 47 36 82.5t83 35.5zM1221 1806q47 0 81.5 -35.5t34.5 -82.5q0 -50 -32.5 -82.5t-83.5 -32.5
q-49 0 -83 33.5t-34 83.5q0 47 35 81.5t82 34.5z" />
    <glyph glyph-name="alphatonos" unicode="&#x3ac;" horiz-adv-x="1400" 
d="M737 1681h205l-27 -419h-149zM1169 0l-30 287q-85 -164 -200 -239t-284 -75q-222 0 -349.5 137t-127.5 375q0 184 84 341.5t227.5 249t311.5 91.5q92 0 173.5 -30.5t133.5 -85.5q38 -38 62.5 -87.5t52.5 -144.5l149 320h166l-278 -566l71 -573h-162zM1118 573
q-22 134 -46.5 216.5t-62.5 135.5t-88 73t-126 20q-124 0 -229.5 -69.5t-167.5 -189.5t-62 -261q0 -177 84.5 -275t238.5 -98q163 0 259 93.5t200 354.5z" />
    <glyph glyph-name="epsilontonos" unicode="&#x3ad;" horiz-adv-x="1056" 
d="M662 1681h204l-26 -419h-150zM979 276l98 -120q-132 -101 -244 -142t-260 -41q-194 0 -312 89t-118 235q0 112 68 186t209 117q-80 38 -114 87.5t-34 125.5q0 152 129.5 254t321.5 102q134 0 238.5 -47t197.5 -151l-110 -111q-71 83 -152.5 120.5t-185.5 37.5
q-122 0 -201.5 -56.5t-79.5 -142.5q0 -80 79.5 -114.5t266.5 -34.5h58l-25 -144h-45q-463 0 -463 -219q0 -84 78 -134t209 -50q113 0 197 33t194 120z" />
    <glyph glyph-name="etatonos" unicode="&#x3ae;" horiz-adv-x="1386" 
d="M887 1681h205l-27 -419h-150zM164 0l201 1135l161 24l-41 -231q207 241 504 241q172 0 282.5 -88t110.5 -225q0 -47 -14 -143l-190 -1075l-162 -27l182 1034q25 150 25 184q0 88 -67.5 139.5t-184.5 51.5q-126 0 -245.5 -61.5t-199.5 -167.5q-47 -63 -73 -129t-45 -170
l-86 -492h-158z" />
    <glyph glyph-name="iotatonos" unicode="&#x3af;" horiz-adv-x="512" 
d="M369 1681h204l-26 -419h-150zM541 1159l-205 -1159h-158l201 1135z" />
    <glyph glyph-name="upsilondieresistonos" unicode="&#x3b0;" horiz-adv-x="1357" 
d="M821 1681h205l-27 -419h-151zM668 1542q44 0 76 -33t32 -79q0 -47 -31 -79t-77 -32q-48 0 -81.5 31.5t-33.5 76.5q0 47 34 81t81 34zM1186 1542q44 0 77 -33t33 -79q0 -47 -32.5 -79t-79.5 -32q-46 0 -78.5 32.5t-32.5 78.5t33.5 79t79.5 33zM508 1159l-107 -612
q-16 -81 -16 -166q0 -124 89 -190t257 -66q117 0 208 36t138 101q28 40 46 95.5t38 166.5l107 611l162 24l-119 -676q-22 -119 -50.5 -194.5t-72.5 -130.5q-69 -86 -194 -135.5t-277 -49.5q-232 0 -361 107t-129 299q0 73 15 153l104 603z" />
    <glyph glyph-name="alpha" unicode="&#x3b1;" horiz-adv-x="1400" 
d="M1169 0l-30 287q-85 -164 -200 -239t-284 -75q-222 0 -349.5 137t-127.5 375q0 184 84 341.5t227.5 249t311.5 91.5q92 0 173.5 -30.5t133.5 -85.5q38 -38 62.5 -87.5t52.5 -144.5l149 320h166l-278 -566l71 -573h-162zM1118 573q-22 134 -46.5 216.5t-62.5 135.5t-88 73
t-126 20q-124 0 -229.5 -69.5t-167.5 -189.5t-62 -261q0 -177 84.5 -275t238.5 -98q163 0 259 93.5t200 354.5z" />
    <glyph glyph-name="beta" unicode="&#x3b2;" horiz-adv-x="1355" 
d="M340 98l-82 -460l-162 -27l221 1249q34 196 83.5 304t142.5 186q73 63 172 97t207 34q184 0 301.5 -99.5t117.5 -255.5q0 -105 -52.5 -179.5t-170.5 -135.5q126 -60 182 -142.5t56 -207.5q0 -207 -157.5 -347.5t-391.5 -140.5q-109 0 -212.5 27.5t-254.5 97.5zM463 799
l-94 -533q172 -89 253 -116t179 -27q174 0 285.5 92t111.5 236q0 133 -105 209.5t-288 76.5h-33l27 150h16q140 0 219 24q68 23 109 79t41 126q0 100 -74 157.5t-203 57.5q-106 0 -195 -43.5t-139 -118.5q-38 -57 -58.5 -126t-51.5 -244z" />
    <glyph glyph-name="gamma" unicode="&#x3b3;" horiz-adv-x="1191" 
d="M516 0l-315 1139h168l252 -975l583 975h189l-719 -1139l-66 -362l-159 -27z" />
    <glyph glyph-name="delta" unicode="&#x3b4;" horiz-adv-x="1376" 
d="M856 1313l242 -193q162 -130 222 -235.5t60 -261.5q0 -178 -85 -327.5t-232.5 -236t-323.5 -86.5q-245 0 -400 150.5t-155 388.5q0 198 110.5 367.5t285.5 238.5q108 43 245 49l-327 283h925l-24 -137h-543zM831 1016q-212 0 -350.5 -141.5t-138.5 -358.5
q0 -181 108 -287t293 -106q207 0 343.5 141.5t136.5 356.5q0 173 -110.5 284t-281.5 111z" />
    <glyph glyph-name="epsilon" unicode="&#x3b5;" horiz-adv-x="1056" 
d="M979 276l98 -120q-132 -101 -244 -142t-260 -41q-194 0 -312 89t-118 235q0 112 68 186t209 117q-80 38 -114 87.5t-34 125.5q0 152 129.5 254t321.5 102q134 0 238.5 -47t197.5 -151l-110 -111q-71 83 -152.5 120.5t-185.5 37.5q-122 0 -201.5 -56.5t-79.5 -142.5
q0 -80 79.5 -114.5t266.5 -34.5h58l-25 -144h-45q-463 0 -463 -219q0 -84 78 -134t209 -50q113 0 197 33t194 120z" />
    <glyph glyph-name="zeta" unicode="&#x3b6;" horiz-adv-x="1064" 
d="M961 1313h-584l63 137h899l-794 -680q-223 -189 -223 -369q0 -94 55 -148.5t176 -82.5l133 -31q144 -34 177 -44.5t69 -33.5q24 -13 39.5 -39t15.5 -53q0 -51 -57 -170l-78 -164l-168 -24l94 201q35 69 35 104q0 31 -23.5 42t-154.5 42l-139 31q-158 35 -245 130t-87 232
q0 231 297 488z" />
    <glyph glyph-name="eta" unicode="&#x3b7;" horiz-adv-x="1386" 
d="M164 0l201 1135l161 24l-41 -231q207 241 504 241q172 0 282.5 -88t110.5 -225q0 -47 -14 -143l-190 -1075l-162 -27l182 1034q25 150 25 184q0 88 -67.5 139.5t-184.5 51.5q-126 0 -245.5 -61.5t-199.5 -167.5q-47 -63 -73 -129t-45 -170l-86 -492h-158z" />
    <glyph glyph-name="theta" unicode="&#x3b8;" horiz-adv-x="1368" 
d="M881 1481q241 0 398 -152t157 -385q0 -176 -55.5 -389t-129.5 -322q-88 -126 -221.5 -193t-298.5 -67q-152 0 -277.5 69t-197.5 189t-72 265q0 177 57 399.5t128 325.5q86 123 220.5 191.5t291.5 68.5zM1243 653h-889q-12 -77 -12 -137q0 -180 108 -285.5t293 -105.5
q211 0 327 122.5t173 405.5zM381 803h887q10 59 10 129q0 178 -110 288.5t-287 110.5q-206 0 -324.5 -122t-169.5 -386q-3 -7 -6 -20z" />
    <glyph glyph-name="iota" unicode="&#x3b9;" horiz-adv-x="512" 
d="M541 1159l-205 -1159h-158l201 1135z" />
    <glyph glyph-name="kappa" unicode="&#x3ba;" horiz-adv-x="1220" 
d="M322 0h-158l201 1139h157l-88 -496l627 496h242l-682 -533l653 -606h-232l-618 588z" />
    <glyph glyph-name="lambda" unicode="&#x3bb;" horiz-adv-x="1095" 
d="M0 0l686 1139l-76 311l166 27l340 -1477h-170l-207 946l-555 -946h-184z" />
    <glyph glyph-name="uni03BC" unicode="&#x3bc;" horiz-adv-x="1384" 
d="M313 68l-75 -430l-162 -27l270 1530l160 18l-117 -661q-24 -147 -24 -185q0 -89 67 -139.5t184 -50.5q126 0 246 61t199 166q48 65 74 131.5t45 169.5l86 490l161 18l-204 -1159l-162 -27l41 240q-206 -240 -504 -240q-185 0 -285 95z" />
    <glyph glyph-name="nu" unicode="&#x3bd;" horiz-adv-x="1136" 
d="M557 -55l-356 1194h170l237 -867l545 867h184z" />
    <glyph glyph-name="xi" unicode="&#x3be;" horiz-adv-x="1091" 
d="M682 0l-119 27q-194 44 -296.5 137t-102.5 225t76.5 224t238.5 155q-149 85 -149 242q0 94 47 165.5t153 137.5h-129l66 137h747l-24 -137h-125q-190 0 -291 -19t-170 -69q-115 -83 -115 -201q0 -104 90 -154.5t277 -50.5h248l-25 -143h-276q-238 0 -361 -68t-123 -200
q0 -90 70.5 -147.5t224.5 -94.5l119 -27q148 -34 178.5 -43.5t67.5 -32.5q25 -15 40 -41t15 -53q0 -51 -57 -168l-78 -163l-168 -27l94 203q35 69 35 102q0 32 -22 42.5t-156 41.5z" />
    <glyph glyph-name="omicron" unicode="&#x3bf;" horiz-adv-x="1376" 
d="M825 1167q243 0 399 -152t156 -390q0 -135 -50 -255.5t-135.5 -207.5t-204.5 -138t-251 -51q-243 0 -399 150.5t-156 382.5q0 184 84.5 335.5t232 238.5t324.5 87zM831 1018q-212 0 -350.5 -141.5t-138.5 -358.5q0 -183 108 -289t293 -106q207 0 343.5 142t136.5 358
q0 172 -111 283.5t-281 111.5z" />
    <glyph glyph-name="pi" unicode="&#x3c0;" horiz-adv-x="1501" 
d="M539 989l-174 -989h-150l174 989h-205l68 150h1434l-27 -150h-193l-174 -989h-149l174 989h-778z" />
    <glyph glyph-name="rho" unicode="&#x3c1;" horiz-adv-x="1427" 
d="M68 -389l180 1018q41 239 215.5 388.5t410.5 149.5q245 0 401.5 -152t156.5 -390q0 -135 -50.5 -255.5t-136.5 -207.5t-205 -138t-252 -51q-147 0 -269.5 60.5t-188.5 165.5l-101 -561zM883 1018q-212 0 -351 -141.5t-139 -358.5q0 -183 108.5 -289t293.5 -106
q207 0 343 141.5t136 358.5q0 172 -110.5 283.5t-280.5 111.5z" />
    <glyph glyph-name="uni03C2" unicode="&#x3c2;" horiz-adv-x="1200" 
d="M750 -389l94 203q35 71 35 102q0 25 -17 38.5t-59 22.5q-81 18 -101 23l-141 37q-179 44 -278 171.5t-99 311.5t91.5 332.5t253 232.5t360.5 84q115 0 212 -23.5t222 -80.5l-55 -158q-112 64 -192 88.5t-179 24.5q-239 0 -400 -142t-161 -354q0 -138 71.5 -227
t210.5 -123l134 -35q147 -34 177.5 -43.5t67.5 -32.5q25 -15 40.5 -40.5t15.5 -51.5q0 -49 -58 -170l-77 -163z" />
    <glyph glyph-name="sigma" unicode="&#x3c3;" horiz-adv-x="1370" 
d="M831 1018q-212 0 -350.5 -141.5t-138.5 -358.5q0 -182 108.5 -288.5t294.5 -106.5q207 0 343.5 142t136.5 358q0 173 -111 284t-283 111zM1411 989h-160q129 -153 129 -366q0 -178 -85.5 -327.5t-233 -236t-322.5 -86.5q-245 0 -400 150.5t-155 388.5q0 133 50 254.5
t135 209t202 139.5t246 52q103 0 201 -28h461z" />
    <glyph glyph-name="tau" unicode="&#x3c4;" horiz-adv-x="1024" 
d="M762 989l-174 -989h-150l174 989h-424l27 150h997l-26 -150h-424z" />
    <glyph glyph-name="upsilon" unicode="&#x3c5;" horiz-adv-x="1359" 
d="M508 1159l-107 -612q-16 -81 -16 -166q0 -124 89 -190t257 -66q117 0 208 36t138 101q28 40 46 95.5t38 166.5l107 611l162 24l-119 -676q-22 -119 -50.5 -194.5t-72.5 -130.5q-69 -86 -194 -135.5t-277 -49.5q-232 0 -361 107t-129 299q0 73 15 153l104 603z" />
    <glyph glyph-name="phi" unicode="&#x3c6;" horiz-adv-x="1376" 
d="M629 137l180 1032q269 -19 420 -162.5t151 -379.5q0 -178 -80.5 -325t-223 -234.5t-318.5 -94.5l-60 -335l-163 -27l67 377q-201 49 -309.5 186t-108.5 340q0 124 38.5 228t123.5 208l117 -94q-121 -140 -121 -336q0 -152 74 -250.5t213 -132.5zM938 1006l-154 -881
q193 15 316 154.5t123 343.5q0 141 -78.5 246.5t-206.5 136.5z" />
    <glyph glyph-name="chi" unicode="&#x3c7;" horiz-adv-x="1118" 
d="M643 563l481 576h185l-598 -693l374 -757h-170l-301 639l-526 -639h-184l643 757l-354 693h172z" />
    <glyph glyph-name="psi" unicode="&#x3c8;" horiz-adv-x="1642" 
d="M1100 1139l-180 -1016q468 18 548 504l91 512h155l-86 -496q-49 -321 -230 -485t-505 -183l-59 -337l-162 -27l65 366q-245 29 -377.5 162t-132.5 348q0 81 15 160l86 492h157l-88 -500q-12 -67 -12 -133q0 -165 95.5 -261.5t281.5 -121.5l180 1016h158z" />
    <glyph glyph-name="omega" unicode="&#x3c9;" horiz-adv-x="1728" 
d="M952 897h158l-61 -348q-21 -126 -21 -189q0 -103 63 -166t166 -63q154 0 252.5 130t98.5 333q0 120 -28.5 240t-100.5 305h161q66 -179 91.5 -293t25.5 -234q0 -289 -141 -464t-373 -175q-127 0 -202 51t-126 173q-74 -118 -162 -171t-212 -53q-169 0 -276 107.5
t-107 277.5q0 325 344 781h170q-194 -263 -279.5 -441t-85.5 -317q0 -113 68.5 -181.5t181.5 -68.5q135 0 215.5 100t118.5 318z" />
    <glyph glyph-name="iotadieresis" unicode="&#x3ca;" horiz-adv-x="512" 
d="M541 1159l-205 -1159h-158l201 1135zM373 1542q44 0 76 -33t32 -79q0 -47 -31.5 -79t-78.5 -32t-80 32t-33 79q0 45 34.5 78.5t80.5 33.5zM659 1542q45 0 78 -33t33 -79t-33 -78.5t-80 -32.5q-46 0 -78 32.5t-32 78.5t33 79t79 33z" />
    <glyph glyph-name="upsilondieresis" unicode="&#x3cb;" horiz-adv-x="1357" 
d="M664 1542q44 0 76 -33t32 -79q0 -47 -31.5 -79t-78.5 -32t-80 32t-33 79q0 45 34.5 78.5t80.5 33.5zM1182 1542q44 0 77 -33t33 -79q0 -47 -32.5 -79t-79.5 -32q-46 0 -78.5 32.5t-32.5 78.5t33.5 79t79.5 33zM508 1159l-107 -612q-16 -81 -16 -166q0 -124 89 -190
t257 -66q117 0 208 36t138 101q28 40 46 95.5t38 166.5l107 611l162 24l-119 -676q-22 -119 -50.5 -194.5t-72.5 -130.5q-69 -86 -194 -135.5t-277 -49.5q-232 0 -361 107t-129 299q0 73 15 153l104 603z" />
    <glyph glyph-name="omicrontonos" unicode="&#x3cc;" horiz-adv-x="1376" 
d="M743 1681h205l-26 -419h-150zM825 1167q243 0 399 -152t156 -390q0 -135 -50 -255.5t-135.5 -207.5t-204.5 -138t-251 -51q-243 0 -399 150.5t-156 382.5q0 184 84.5 335.5t232 238.5t324.5 87zM831 1018q-212 0 -350.5 -141.5t-138.5 -358.5q0 -183 108 -289t293 -106
q207 0 343.5 142t136.5 358q0 172 -111 283.5t-281 111.5z" />
    <glyph glyph-name="upsilontonos" unicode="&#x3cd;" horiz-adv-x="1357" 
d="M821 1681h205l-27 -419h-151zM508 1159l-107 -612q-16 -81 -16 -166q0 -124 89 -190t257 -66q117 0 208 36t138 101q28 40 46 95.5t38 166.5l107 611l162 24l-119 -676q-22 -119 -50.5 -194.5t-72.5 -130.5q-69 -86 -194 -135.5t-277 -49.5q-232 0 -361 107t-129 299
q0 73 15 153l104 603z" />
    <glyph glyph-name="omegatonos" unicode="&#x3ce;" horiz-adv-x="1728" 
d="M977 1681h205l-27 -419h-151zM952 897h158l-61 -348q-21 -126 -21 -189q0 -103 63 -166t166 -63q154 0 252.5 130t98.5 333q0 120 -28.5 240t-100.5 305h161q66 -179 91.5 -293t25.5 -234q0 -289 -141 -464t-373 -175q-127 0 -202 51t-126 173q-74 -118 -162 -171
t-212 -53q-169 0 -276 107.5t-107 277.5q0 325 344 781h170q-194 -263 -279.5 -441t-85.5 -317q0 -113 68.5 -181.5t181.5 -68.5q135 0 215.5 100t118.5 318z" />
    <glyph glyph-name="theta1" unicode="&#x3d1;" horiz-adv-x="1392" 
d="M1075 813h168q19 125 19 191q0 153 -81.5 240t-224.5 87q-138 0 -224.5 -77t-86.5 -203q0 -95 43.5 -150t134.5 -74q74 -14 252 -14zM1401 813h86l-27 -149h-86l-4 -23q-59 -326 -224 -497t-423 -171q-238 0 -377 144.5t-139 390.5q0 54 12 156h-69l26 149h234
q-45 -187 -45 -309q0 -178 98.5 -279.5t271.5 -101.5q187 0 308.5 131.5t168.5 384.5l5 25h-185q-285 0 -415 89t-130 285q0 190 137.5 316.5t344.5 126.5q202 0 326 -132.5t124 -347.5q0 -72 -18 -188z" />
    <glyph glyph-name="phi1" unicode="&#x3d5;" horiz-adv-x="1376" 
d="M535 -389l67 375q-200 51 -309 188t-109 338q0 177 81.5 325t224.5 235.5t319 94.5l51 283l162 27l-57 -324q196 -49 305.5 -189t109.5 -341q0 -132 -47.5 -249.5t-129.5 -204t-198 -139t-247 -57.5l-60 -335zM938 1004l-154 -879q194 15 316.5 154t122.5 344
q0 141 -77.5 245t-207.5 136zM629 135l153 881q-191 -15 -315.5 -156t-124.5 -342q0 -149 75 -249t212 -134z" />
    <glyph glyph-name="afii10023" unicode="&#x401;" horiz-adv-x="1173" 
d="M195 0l256 1450h843l-26 -150h-686l-84 -475h602l-27 -149h-602l-92 -526h696l-26 -150h-854zM616 1806q47 0 81 -34.5t34 -83.5q0 -50 -32.5 -82.5t-82.5 -32.5q-49 0 -83.5 34t-34.5 81q0 50 34 84t84 34zM1217 1806q47 0 81.5 -35.5t34.5 -82.5q0 -50 -32.5 -82.5
t-83.5 -32.5q-47 0 -82 34t-35 81q0 49 34.5 83.5t82.5 34.5z" />
    <glyph glyph-name="afii10051" unicode="&#x402;" horiz-adv-x="1546" 
d="M528 0h-163l229 1300h-430l26 150h1024l-26 -150h-430l-66 -372q210 241 506 241q170 0 280.5 -88.5t110.5 -224.5q0 -69 -14 -143l-51 -289q-41 -241 -159.5 -346t-346.5 -105q-103 0 -244 27l2 164q119 -41 238 -41q156 0 236 67.5t108 221.5l41 233q24 126 24 184
q0 88 -66.5 139.5t-180.5 51.5q-125 0 -244.5 -61.5t-198.5 -167.5q-48 -63 -74 -129t-45 -170z" />
    <glyph glyph-name="afii10052" unicode="&#x403;" horiz-adv-x="1089" 
d="M195 0l256 1450h843l-26 -150h-686l-230 -1300h-157zM1149 1921l55 -152l-540 -198l-56 151z" />
    <glyph glyph-name="afii10053" unicode="&#x404;" horiz-adv-x="1370" 
d="M1219 684h-838q-2 -31 -2 -80q0 -220 132 -350.5t353 -130.5q128 0 220.5 37.5t230.5 144.5l16 -164q-133 -95 -235 -131.5t-234 -36.5q-286 0 -463.5 176t-177.5 459q0 176 67.5 337t181.5 277.5t272 185.5t331 69q123 0 224 -32t210 -106l-55 -159
q-109 82 -197.5 114.5t-199.5 32.5q-223 0 -392 -130t-251 -363h833z" />
    <glyph glyph-name="afii10054" unicode="&#x405;" horiz-adv-x="1110" 
d="M152 59l-21 201q145 -79 235.5 -108t194.5 -29q169 0 275 82t106 211q0 76 -43 128.5t-156 112.5l-170 93q-138 75 -193.5 146t-55.5 171q0 175 143.5 292.5t357.5 117.5q90 0 173 -20.5t188 -67.5l-39 -168q-116 62 -187.5 84t-158.5 22q-135 0 -226.5 -72.5
t-91.5 -181.5q0 -58 38.5 -98t156.5 -103l147 -77q147 -78 211 -164t64 -205q0 -204 -152.5 -328.5t-404.5 -124.5q-111 0 -192 17.5t-199 68.5z" />
    <glyph glyph-name="afii10055" unicode="&#x406;" horiz-adv-x="544" 
d="M195 0l256 1450h157l-256 -1450h-157z" />
    <glyph glyph-name="afii10056" unicode="&#x407;" horiz-adv-x="544" 
d="M195 0l256 1450h157l-256 -1450h-157zM408 1806q47 0 80.5 -34.5t33.5 -83.5q0 -50 -32.5 -82.5t-81.5 -32.5t-84 34t-35 81q0 49 34.5 83.5t84.5 34.5zM729 1806q47 0 82 -35.5t35 -82.5q0 -50 -33 -82.5t-84 -32.5q-47 0 -82 34t-35 81q0 49 34.5 83.5t82.5 34.5z" />
    <glyph glyph-name="afii10057" unicode="&#x408;" horiz-adv-x="813" 
d="M14 4l4 164q89 -37 183 -37q155 0 241 78.5t115 247.5l176 993h156l-174 -997q-83 -471 -518 -471q-87 0 -183 22z" />
    <glyph glyph-name="afii10058" unicode="&#x409;" horiz-adv-x="2076" 
d="M1350 682l-95 -532h295q206 0 300 72.5t94 232.5q0 117 -79 172t-245 55h-270zM1485 1450l-109 -616h254q230 0 351.5 -98t121.5 -283q0 -136 -60 -240.5t-167 -155.5q-73 -35 -150.5 -46t-246.5 -11h-408l223 1300h-641l-141 -794q-41 -230 -130.5 -342t-297.5 -191
l-64 144q66 26 108.5 48t79.5 53t59 62.5t42 83.5t32.5 110.5t27.5 148.5l147 827h969z" />
    <glyph glyph-name="afii10059" unicode="&#x40a;" horiz-adv-x="2234" 
d="M1509 682l-94 -532h295q206 0 299.5 72.5t93.5 232.5q0 117 -78.5 172t-246.5 55h-269zM1645 1450l-109 -616h254q230 0 351.5 -97.5t121.5 -283.5q0 -136 -60 -240.5t-167 -155.5q-73 -35 -151 -46t-247 -11h-407l121 684h-881l-119 -684h-157l256 1450h157l-110 -616
h880l109 616h158z" />
    <glyph glyph-name="afii10060" unicode="&#x40b;" horiz-adv-x="1546" 
d="M528 0h-163l229 1300h-430l26 150h1024l-26 -150h-430l-66 -372q210 241 506 241q170 0 280.5 -88.5t110.5 -224.5q0 -69 -14 -143l-125 -713h-164l113 645q24 126 24 184q0 88 -66.5 139.5t-180.5 51.5q-125 0 -244.5 -61.5t-198.5 -167.5q-48 -63 -74 -129t-45 -170z
" />
    <glyph glyph-name="afii10061" unicode="&#x40c;" horiz-adv-x="1392" 
d="M195 0l256 1450h157l-121 -678l895 678h232l-942 -717l755 -733h-206l-744 709l-125 -709h-157zM1282 1921l55 -152l-542 -198l-54 151z" />
    <glyph glyph-name="afii10062" unicode="&#x40e;" horiz-adv-x="1316" 
d="M229 1450h179l364 -1032l631 1032h199l-928 -1450l-197 -27l197 287zM1202 1864l94 -111q-99 -87 -181.5 -120.5t-199.5 -33.5q-115 0 -197 33.5t-181 120.5l92 111q85 -62 148 -86.5t138 -24.5q76 0 140 24.5t147 86.5z" />
    <glyph glyph-name="afii10145" unicode="&#x40f;" horiz-adv-x="1581" 
d="M195 0l256 1450h163l-229 -1300h866l230 1300h164l-256 -1450h-515l-65 -362l-168 -27l70 389h-516z" />
    <glyph glyph-name="afii10017" unicode="&#x410;" horiz-adv-x="1380" 
d="M170 0h-190l989 1501l432 -1501h-172l-84 301h-780zM459 451h649l-195 702z" />
    <glyph glyph-name="afii10018" unicode="&#x411;" horiz-adv-x="1232" 
d="M471 682l-92 -532h293q207 0 300 72.5t93 232.5q0 117 -78.5 172t-245.5 55h-270zM451 1450h843l-26 -150h-686l-84 -466h256q230 0 351.5 -98t121.5 -283q0 -136 -60.5 -240.5t-167.5 -155.5q-75 -35 -152 -46t-245 -11h-407z" />
    <glyph glyph-name="afii10019" unicode="&#x412;" horiz-adv-x="1259" 
d="M195 0l256 1450h383q238 0 346 -80q58 -46 91.5 -117t33.5 -151q0 -134 -72 -220t-211 -120q105 -43 155 -120.5t50 -197.5q0 -132 -61 -234.5t-167 -152.5q-73 -35 -150.5 -46t-246.5 -11h-407zM582 1300l-84 -466h256q205 0 297 61.5t92 198.5q0 115 -74.5 160.5
t-259.5 45.5h-227zM471 684l-92 -534h293q209 0 302 72.5t93 234.5q0 117 -79.5 172t-246.5 55h-270z" />
    <glyph glyph-name="afii10020" unicode="&#x413;" horiz-adv-x="1089" 
d="M195 0l256 1450h843l-26 -150h-686l-230 -1300h-157z" />
    <glyph glyph-name="afii10021" unicode="&#x414;" horiz-adv-x="1429" 
d="M-20 -389l94 539q51 14 83 24.5t64 27t50.5 31t38 42.5t30.5 55.5t23.5 75.5t21.5 97t21 126l143 821h930l-230 -1300h82l-90 -512l-170 -27l70 389h-928l-66 -362zM360 150h725l203 1150h-602l-149 -849q-22 -128 -59 -191t-118 -110z" />
    <glyph glyph-name="afii10022" unicode="&#x415;" horiz-adv-x="1173" 
d="M195 0l256 1450h843l-26 -150h-686l-84 -475h602l-27 -149h-602l-92 -526h696l-26 -150h-854z" />
    <glyph glyph-name="afii10024" unicode="&#x416;" horiz-adv-x="2234" 
d="M1034 0l125 709l-960 -709h-234l1024 760l-698 690h215l663 -678l121 678h158l-121 -678l895 678h232l-943 -717l756 -733h-207l-743 709l-125 -709h-158z" />
    <glyph glyph-name="afii10025" unicode="&#x417;" horiz-adv-x="1157" 
d="M96 207l121 104q96 -108 179 -148t214 -40q155 0 256 87.5t101 221.5q0 67 -30 125t-77 84q-78 41 -270 41h-76l27 149h75q204 0 316 76.5t112 214.5q0 92 -68 148.5t-177 56.5q-106 0 -189 -44t-188 -157l-111 101q127 135 241.5 192.5t254.5 57.5q175 0 285 -97.5
t110 -251.5q0 -122 -63.5 -209.5t-198.5 -150.5q97 -60 139.5 -136.5t42.5 -189.5q0 -203 -149.5 -336t-376.5 -133q-165 0 -267 48t-233 186z" />
    <glyph glyph-name="afii10026" unicode="&#x418;" horiz-adv-x="1595" 
d="M1403 0h-158l195 1104l-1256 -1159l267 1505h155l-194 -1100l1255 1151z" />
    <glyph glyph-name="afii10027" unicode="&#x419;" horiz-adv-x="1595" 
d="M1403 0h-158l195 1104l-1256 -1159l267 1505h155l-194 -1100l1255 1151zM1374 1864l92 -111q-97 -86 -180 -120t-199 -34t-198.5 33.5t-181.5 120.5l94 111q85 -62 148 -86.5t138 -24.5t138.5 24.5t148.5 86.5z" />
    <glyph glyph-name="afii10028" unicode="&#x41a;" horiz-adv-x="1392" 
d="M195 0l256 1450h157l-121 -678l895 678h232l-942 -717l755 -733h-206l-744 709l-125 -709h-157z" />
    <glyph glyph-name="afii10029" unicode="&#x41b;" horiz-adv-x="1423" 
d="M84 -27l-64 144q65 26 107.5 47.5t79.5 52t59 62.5t42 84t33 111t28 149l147 827h969l-256 -1450h-164l229 1300h-641l-141 -796q-41 -228 -131 -340t-297 -191z" />
    <glyph glyph-name="afii10030" unicode="&#x41c;" horiz-adv-x="1710" 
d="M27 0l585 1501l301 -1186l684 1186l89 -1501h-158l-51 993l-617 -1048l-282 1048l-383 -993h-168z" />
    <glyph glyph-name="afii10031" unicode="&#x41d;" horiz-adv-x="1581" 
d="M195 0l256 1450h157l-110 -616h880l109 616h158l-256 -1450h-158l121 684h-881l-119 -684h-157z" />
    <glyph glyph-name="afii10032" unicode="&#x41e;" horiz-adv-x="1628" 
d="M1001 1477q146 0 271 -50t213 -138.5t138 -214.5t50 -273q0 -230 -102 -420t-280 -299t-394 -109q-296 0 -486 190t-190 486q0 230 102.5 420t281.5 299t396 109zM995 1327q-127 0 -241.5 -52t-197 -139.5t-131 -210t-48.5 -257.5q0 -249 140 -397t374 -148q132 0 248 51
t199 140t130.5 214t47.5 267q0 238 -144 385t-377 147z" />
    <glyph glyph-name="afii10033" unicode="&#x41f;" horiz-adv-x="1581" 
d="M195 0l256 1450h1194l-256 -1450h-164l229 1300h-866l-230 -1300h-163z" />
    <glyph glyph-name="afii10034" unicode="&#x420;" horiz-adv-x="1216" 
d="M195 0l256 1450h309q149 0 238 -17t159 -57q85 -51 131.5 -140.5t46.5 -199.5q0 -109 -47.5 -205.5t-130.5 -156.5q-88 -62 -205.5 -87.5t-310.5 -25.5h-190l-99 -561h-157zM582 1300l-105 -589h144q155 0 229 8t135 31q86 31 139.5 110.5t53.5 177.5q0 78 -34 138
t-93 86q-56 24 -116.5 31t-209.5 7h-143z" />
    <glyph glyph-name="afii10035" unicode="&#x421;" horiz-adv-x="1357" 
d="M1315 305l16 -164q-133 -95 -235 -131.5t-234 -36.5q-286 0 -463.5 175t-177.5 458q0 177 67.5 338.5t181.5 278t272 185.5t331 69q122 0 222.5 -32t211.5 -106l-55 -159q-112 83 -199 115t-198 32q-138 0 -263.5 -56.5t-215.5 -153t-143.5 -229.5t-53.5 -280
q0 -223 131 -354t354 -131q128 0 220.5 37.5t230.5 144.5z" />
    <glyph glyph-name="afii10036" unicode="&#x422;" horiz-adv-x="1255" 
d="M936 1300l-229 -1300h-158l229 1300h-534l26 150h1227l-27 -150h-534z" />
    <glyph glyph-name="afii10037" unicode="&#x423;" horiz-adv-x="1312" 
d="M229 1450h179l364 -1032l631 1032h199l-928 -1450l-197 -27l197 287z" />
    <glyph glyph-name="afii10038" unicode="&#x424;" horiz-adv-x="1574" 
d="M897 147l-27 -147h-163l26 156q-256 38 -399.5 175.5t-143.5 344.5q0 168 97.5 309t268.5 226t380 94l27 145h163l-26 -156q252 -34 397 -171t145 -341q0 -171 -100.5 -317.5t-272 -232t-372.5 -85.5zM1075 1165l-155 -884q254 20 409.5 156.5t155.5 338.5
q0 158 -105 257.5t-305 131.5zM758 285l155 886q-252 -20 -408.5 -157.5t-156.5 -337.5q0 -159 106.5 -260.5t303.5 -130.5z" />
    <glyph glyph-name="afii10039" unicode="&#x425;" horiz-adv-x="1384" 
d="M186 0h-204l727 768l-451 682h184l375 -576l535 576h204l-655 -682l504 -768h-184l-426 653z" />
    <glyph glyph-name="afii10040" unicode="&#x426;" horiz-adv-x="1595" 
d="M195 0l256 1450h163l-229 -1300h866l230 1300h164l-230 -1300h82l-90 -512l-170 -27l70 389h-1112z" />
    <glyph glyph-name="afii10041" unicode="&#x427;" horiz-adv-x="1441" 
d="M1083 0l119 670q-214 -29 -381 -29q-285 0 -430 89.5t-145 266.5q0 97 24 232l39 221h162l-39 -219q-24 -147 -24 -211q0 -113 103 -167t318 -54q214 0 402 30l108 621h164l-256 -1450h-164z" />
    <glyph glyph-name="afii10042" unicode="&#x428;" horiz-adv-x="2529" 
d="M195 0l256 1450h163l-229 -1300h825l230 1300h164l-230 -1300h826l229 1300h164l-256 -1450h-2142z" />
    <glyph glyph-name="afii10043" unicode="&#x429;" horiz-adv-x="2543" 
d="M195 0l256 1450h163l-229 -1300h825l230 1300h164l-230 -1300h826l229 1300h164l-230 -1300h82l-90 -512l-168 -27l68 389h-2060z" />
    <glyph glyph-name="afii10044" unicode="&#x42a;" horiz-adv-x="1396" 
d="M670 682l-95 -532h295q206 0 300 72.5t94 232.5q0 117 -78.5 172t-245.5 55h-270zM614 1300h-477l27 150h641l-109 -616h256q229 0 350 -97.5t121 -283.5q0 -136 -60 -240.5t-167 -155.5q-73 -35 -150 -46t-247 -11h-406z" />
    <glyph glyph-name="afii10045" unicode="&#x42b;" horiz-adv-x="1665" 
d="M471 682l-92 -532h293q207 0 300 72.5t93 232.5q0 117 -78.5 172t-245.5 55h-270zM451 1450h157l-110 -616h256q230 0 351.5 -98t121.5 -283q0 -136 -60.5 -240.5t-167.5 -155.5q-75 -35 -152 -46t-245 -11h-407zM1309 0l256 1450h164l-256 -1450h-164z" />
    <glyph glyph-name="afii10046" unicode="&#x42c;" horiz-adv-x="1198" 
d="M471 682l-92 -532h293q207 0 300 72.5t93 232.5q0 117 -78.5 172t-245.5 55h-270zM451 1450h157l-110 -616h256q230 0 351.5 -98t121.5 -283q0 -136 -60.5 -240.5t-167.5 -155.5q-75 -35 -152 -46t-245 -11h-407z" />
    <glyph glyph-name="afii10047" unicode="&#x42d;" horiz-adv-x="1349" 
d="M1237 834v6v10q0 217 -132 347t-353 130q-119 0 -210.5 -34t-215.5 -124l-68 125q124 97 242 140t256 43q284 0 461.5 -176t177.5 -457q0 -177 -67.5 -338.5t-181.5 -278t-272 -185.5t-331 -69q-124 0 -224.5 32t-209.5 106l55 159q113 -82 199 -113.5t198 -31.5
q237 0 423 157.5t237 401.5h-818l27 150h807z" />
    <glyph glyph-name="afii10048" unicode="&#x42e;" horiz-adv-x="2004" 
d="M598 684h-127l-119 -684h-157l256 1450h157l-110 -616h116q60 287 271 465t491 178q147 0 272.5 -50t213.5 -138t138 -213.5t50 -272.5q0 -230 -102.5 -420.5t-280.5 -300t-393 -109.5q-307 0 -491.5 194t-184.5 517zM1372 1327q-127 0 -241.5 -51.5t-197 -139
t-131 -209.5t-48.5 -257q0 -250 140.5 -398.5t375.5 -148.5q137 0 240.5 43t191.5 137q92 98 141 225t49 267q0 239 -143.5 385.5t-376.5 146.5z" />
    <glyph glyph-name="afii10049" unicode="&#x42f;" horiz-adv-x="1284" 
d="M1092 0h-164l104 594h-284l-551 -594h-215l598 618q-142 56 -208.5 146t-66.5 229q0 137 76.5 247t206.5 161q72 28 165 38.5t259 10.5h336zM1157 1300h-207q-123 0 -191 -8.5t-118 -31.5q-85 -37 -130.5 -106.5t-45.5 -160.5q0 -137 90 -193.5t309 -56.5h195z" />
    <glyph glyph-name="afii10065" unicode="&#x430;" horiz-adv-x="1396" 
d="M1253 0l-168 -27q-2 35 -2 60q0 19 2 35q-132 -56 -213 -75.5t-178 -19.5q-239 0 -376.5 131.5t-137.5 358.5q0 195 102 357t279 254.5t391 92.5q126 0 318 -41l160 33l-160 -909q-21 -115 -21 -189q0 -30 4 -61zM1106 217l133 760q-106 26 -157.5 33.5t-118.5 7.5
q-273 0 -449 -153.5t-176 -391.5q0 -169 98.5 -258.5t284.5 -89.5q94 0 167 17.5t218 74.5z" />
    <glyph glyph-name="afii10066" unicode="&#x431;" horiz-adv-x="1374" 
d="M1221 1450l172 27q-38 -143 -106.5 -196.5t-213.5 -53.5q-37 0 -119 4q-82 6 -133 6q-121 0 -210.5 -52t-161.5 -163q114 74 196 101.5t186 27.5q248 0 401.5 -145.5t153.5 -380.5q0 -135 -50 -255.5t-135.5 -207.5t-204.5 -138t-251 -51q-252 0 -403.5 152.5
t-151.5 406.5q0 240 79.5 431t221 298t320.5 107q7 0 30 -1t66.5 -3t81.5 -4q20 -2 60 -2q77 0 113 19t59 73zM836 1004q-211 0 -349.5 -138.5t-138.5 -349.5q0 -181 108.5 -287t293.5 -106q209 0 344 142t135 360q0 167 -110 273t-283 106z" />
    <glyph glyph-name="afii10067" unicode="&#x432;" horiz-adv-x="1196" 
d="M164 0l201 1139h393q150 0 230 -18t140 -64q46 -35 71.5 -86t25.5 -107q0 -98 -61.5 -169.5t-176.5 -106.5q97 -38 135.5 -91t38.5 -147q0 -101 -59.5 -185t-157.5 -122q-66 -25 -143 -34t-219 -9h-418zM496 989l-58 -327h252q147 0 210 11.5t104 45.5q57 48 57 117
q0 71 -57 116q-29 22 -85.5 29.5t-183.5 7.5h-239zM348 150h289q102 0 160 8t102 30q50 23 79.5 67t29.5 95q0 91 -73 129.5t-245 38.5h-278z" />
    <glyph glyph-name="afii10068" unicode="&#x433;" horiz-adv-x="1003" 
d="M164 0l201 1139h843l-26 -150h-686l-174 -989h-158z" />
    <glyph glyph-name="afii10069" unicode="&#x434;" horiz-adv-x="1296" 
d="M-55 -389l96 539q64 15 101 26t71.5 31t51 41.5t33.5 64t26.5 89t21.5 126.5l107 611h880l-174 -989h82l-90 -512l-162 -27l70 389h-889l-64 -362zM317 150h687l147 839h-567l-107 -602q-17 -99 -51 -149t-109 -88z" />
    <glyph glyph-name="afii10070" unicode="&#x435;" horiz-adv-x="1286" 
d="M1194 305l-16 -174q-144 -92 -243 -125t-228 -33q-239 0 -381 135.5t-142 364.5q0 139 55 267t147.5 221.5t220 149.5t265.5 56q207 0 335 -118.5t128 -311.5q0 -87 -22 -190l-961 -62q-2 -6 -2 -16q0 -158 98.5 -251t264.5 -93q123 0 229.5 40t251.5 140zM375 629
l794 51q5 31 5 53q0 133 -81.5 210t-222.5 77q-172 0 -306.5 -106.5t-188.5 -284.5z" />
    <glyph glyph-name="afii10072" unicode="&#x436;" horiz-adv-x="1947" 
d="M1049 0h-158l104 588l-811 -588h-245l874 635l-502 504h215l478 -496l88 496h157l-88 -496l627 496h242l-682 -533l653 -606h-232l-618 588z" />
    <glyph glyph-name="afii10073" unicode="&#x437;" horiz-adv-x="1048" 
d="M82 158l115 118q86 -83 169 -118t197 -35q145 0 235.5 60t90.5 155q0 100 -88.5 144t-286.5 44h-59l24 144h74q206 0 298.5 44t92.5 142q0 75 -63.5 118.5t-173.5 43.5q-100 0 -180.5 -34t-194.5 -124l-101 111q134 110 241 153t243 43q177 0 283 -83.5t106 -221.5
q0 -192 -238 -262q94 -43 138.5 -107t44.5 -157q0 -164 -134.5 -263.5t-355.5 -99.5q-148 0 -260.5 43.5t-216.5 141.5z" />
    <glyph glyph-name="afii10074" unicode="&#x438;" horiz-adv-x="1417" 
d="M1257 0h-157l145 827l-1087 -868l209 1180h155l-145 -826l1087 867z" />
    <glyph glyph-name="afii10075" unicode="&#x439;" horiz-adv-x="1417" 
d="M1257 0h-157l145 827l-1087 -868l209 1180h155l-145 -826l1087 867zM1225 1577l92 -113q-96 -86 -179.5 -119.5t-199.5 -33.5q-117 0 -200 33.5t-181 119.5l94 113q84 -62 148.5 -87.5t138.5 -25.5t138.5 25.5t148.5 87.5z" />
    <glyph glyph-name="afii10076" unicode="&#x43a;" horiz-adv-x="1220" 
d="M322 0h-158l201 1139h157l-88 -496l627 496h242l-682 -533l653 -606h-232l-618 588z" />
    <glyph glyph-name="afii10077" unicode="&#x43b;" horiz-adv-x="1361" 
d="M57 -27l-57 136q68 28 110.5 49.5t80.5 52t59 61.5t40.5 83.5t31.5 110.5t26 150l92 523h963l-201 -1139h-155l174 989h-650l-86 -483q-40 -229 -129.5 -341.5t-298.5 -191.5z" />
    <glyph glyph-name="afii10078" unicode="&#x43c;" horiz-adv-x="1574" 
d="M23 0l489 1184l315 -918l627 918l105 -1184h-170l-48 772l-559 -815l-282 815l-307 -772h-170z" />
    <glyph glyph-name="afii10079" unicode="&#x43d;" horiz-adv-x="1415" 
d="M164 0l201 1139h157l-82 -457h779l81 457h156l-201 -1139h-155l94 532h-778l-94 -532h-158z" />
    <glyph glyph-name="afii10080" unicode="&#x43e;" horiz-adv-x="1376" 
d="M825 1167q243 0 399 -152t156 -390q0 -135 -50 -255.5t-135.5 -207.5t-204.5 -138t-251 -51q-243 0 -399 150.5t-156 382.5q0 184 84.5 335.5t232 238.5t324.5 87zM831 1018q-212 0 -350.5 -141.5t-138.5 -358.5q0 -183 108 -289t293 -106q207 0 343.5 142t136.5 358
q0 172 -111 283.5t-281 111.5z" />
    <glyph glyph-name="afii10081" unicode="&#x43f;" horiz-adv-x="1415" 
d="M164 0l201 1139h1091l-201 -1139h-155l174 989h-778l-174 -989h-158z" />
    <glyph glyph-name="afii10082" unicode="&#x440;" horiz-adv-x="1382" 
d="M324 14l-68 -376l-162 -27l225 1280q21 128 21 190q0 6 -4 60l168 26q2 -25 2 -55q0 -20 -2 -43q125 58 207.5 79t183.5 21q239 0 376.5 -131t137.5 -360q0 -146 -60 -276.5t-162.5 -224.5t-246 -149t-303.5 -55q-129 0 -313 41zM481 918l-131 -754q108 -26 159 -33.5
t118 -7.5q180 0 322.5 70t222 196t79.5 285q0 163 -97 254.5t-269 91.5q-94 0 -183 -22.5t-221 -79.5z" />
    <glyph glyph-name="afii10083" unicode="&#x441;" horiz-adv-x="1198" 
d="M1147 264v-160q-133 -73 -231 -102t-214 -29q-236 0 -378 139.5t-142 372.5q0 186 97 343t264.5 248t365.5 91q107 0 197.5 -22.5t210.5 -79.5l-53 -154q-115 60 -196.5 83.5t-172.5 23.5q-149 0 -277 -73t-203 -197t-75 -267q0 -163 102.5 -260.5t272.5 -97.5
q108 0 210.5 33t221.5 108z" />
    <glyph glyph-name="afii10084" unicode="&#x442;" horiz-adv-x="1024" 
d="M762 989l-174 -989h-150l174 989h-424l27 150h997l-26 -150h-424z" />
    <glyph glyph-name="afii10085" unicode="&#x443;" horiz-adv-x="1116" 
d="M201 1139h170l225 -946l537 946h184l-877 -1501l-188 -27l233 389z" />
    <glyph glyph-name="afii10086" unicode="&#x444;" horiz-adv-x="1376" 
d="M539 -389l65 375q-189 37 -304.5 181.5t-115.5 344.5q0 134 47.5 253t130.5 205.5t200 139t251 57.5l49 283l162 27l-57 -324q195 -50 304 -189.5t109 -340.5q0 -175 -81 -322.5t-223.5 -234.5t-315.5 -93l-60 -335zM942 1004l-156 -879q192 15 314.5 154.5t122.5 343.5
q0 142 -73.5 241.5t-207.5 139.5zM631 135l155 881q-194 -15 -319 -155.5t-125 -342.5q0 -150 77.5 -252.5t211.5 -130.5z" />
    <glyph glyph-name="afii10087" unicode="&#x445;" horiz-adv-x="1210" 
d="M0 0l625 606l-363 533h199l266 -428l422 428h211l-553 -543l403 -596h-198l-307 492l-494 -492h-211z" />
    <glyph glyph-name="afii10088" unicode="&#x446;" horiz-adv-x="1419" 
d="M164 0l201 1139h157l-174 -989h778l174 989h156l-174 -989h82l-90 -512l-162 -27l70 389h-1018z" />
    <glyph glyph-name="afii10089" unicode="&#x447;" horiz-adv-x="1296" 
d="M981 0l86 494q-227 -23 -356 -23q-506 0 -506 346q0 87 18 195l23 127h157l-18 -105q-23 -128 -23 -198q0 -109 83 -158t270 -49q209 0 381 26l86 484h155l-200 -1139h-156z" />
    <glyph glyph-name="afii10090" unicode="&#x448;" horiz-adv-x="2351" 
d="M164 0l201 1139h157l-174 -989h778l174 989h156l-174 -989h778l174 989h158l-201 -1139h-2027z" />
    <glyph glyph-name="afii10091" unicode="&#x449;" horiz-adv-x="2353" 
d="M164 0l201 1139h157l-174 -989h778l174 989h156l-174 -989h778l174 989h158l-174 -989h82l-90 -512l-162 -27l68 389h-1952z" />
    <glyph glyph-name="afii10092" unicode="&#x44a;" horiz-adv-x="1431" 
d="M637 150h291q193 0 280.5 49.5t87.5 158.5q0 96 -70.5 135t-244.5 39h-276zM811 1139l-80 -457h254q236 0 350.5 -79.5t114.5 -242.5q0 -109 -58 -194t-159 -123q-66 -25 -142.5 -34t-218.5 -9h-417l174 989h-520l26 150h676z" />
    <glyph glyph-name="afii10093" unicode="&#x44b;" horiz-adv-x="1554" 
d="M365 1139h157l-82 -457h254q236 0 351.5 -79.5t115.5 -242.5q0 -108 -58.5 -193.5t-158.5 -123.5q-66 -25 -143 -34t-219 -9h-418zM348 150h289q195 0 283 49.5t88 158.5q0 95 -71.5 134.5t-244.5 39.5h-276zM1595 1139l-200 -1139h-158l201 1139h157z" />
    <glyph glyph-name="afii10094" unicode="&#x44c;" horiz-adv-x="1140" 
d="M365 1139h157l-82 -457h254q236 0 351.5 -79.5t115.5 -242.5q0 -108 -58.5 -193.5t-158.5 -123.5q-66 -25 -143 -34t-219 -9h-418zM348 150h289q195 0 283 49.5t88 158.5q0 95 -71.5 134.5t-244.5 39.5h-276z" />
    <glyph glyph-name="afii10095" unicode="&#x44d;" horiz-adv-x="1234" 
d="M369 682h721q-12 160 -109.5 248t-263.5 88q-107 0 -209 -33.5t-223 -107.5l-19 149q145 81 243.5 111t217.5 30q239 0 380.5 -139.5t141.5 -374.5q0 -139 -57.5 -265t-155 -217t-232 -144.5t-282.5 -53.5q-167 0 -358 78l4 178q113 -60 194.5 -83t174.5 -23
q188 0 340.5 116t195.5 293h-731z" />
    <glyph glyph-name="afii10096" unicode="&#x44e;" horiz-adv-x="1712" 
d="M518 532h-102l-94 -532h-158l201 1139h157l-82 -457h101q54 215 226 350t392 135q244 0 400.5 -153t156.5 -391q0 -178 -85 -327.5t-233 -236t-325 -86.5q-241 0 -398 149t-157 378v26v6zM1165 1016q-212 0 -350.5 -141.5t-138.5 -358.5q0 -181 108.5 -287t294.5 -106
q207 0 343.5 141.5t136.5 356.5q0 172 -111 283.5t-283 111.5z" />
    <glyph glyph-name="afii10097" unicode="&#x44f;" horiz-adv-x="1212" 
d="M1051 0h-156l82 469h-254l-514 -469h-223l559 489q-140 22 -218.5 98t-78.5 191q0 120 72 209.5t198 126.5q62 17 124.5 21t285.5 4h323zM1004 618l63 371h-303q-180 0 -250 -33q-49 -25 -77.5 -72t-28.5 -104q0 -91 67.5 -126.5t237.5 -35.5h291z" />
    <glyph glyph-name="afii10071" unicode="&#x451;" horiz-adv-x="1286" 
d="M1194 305l-16 -174q-144 -92 -243 -125t-228 -33q-239 0 -381 135.5t-142 364.5q0 139 55 267t147.5 221.5t220 149.5t265.5 56q207 0 335 -118.5t128 -311.5q0 -87 -22 -190l-961 -62q-2 -6 -2 -16q0 -158 98.5 -251t264.5 -93q123 0 229.5 40t251.5 140zM375 629
l794 51q5 31 5 53q0 133 -81.5 210t-222.5 77q-172 0 -306.5 -106.5t-188.5 -284.5zM653 1542q44 0 76.5 -33t32.5 -79q0 -47 -32 -79t-79 -32t-79.5 32t-32.5 79q0 46 34 79t80 33zM1174 1542q44 0 77 -33t33 -79q0 -47 -33 -79t-80 -32q-46 0 -78 32.5t-32 78.5t33.5 79
t79.5 33z" />
    <glyph glyph-name="afii10099" unicode="&#x452;" horiz-adv-x="1527" 
d="M467 0h-156l174 989h-362l27 150h362l55 311l160 27l-96 -549q208 239 506 239q173 0 283 -87.5t110 -225.5q0 -44 -17 -141l-98 -566q-43 -240 -151.5 -344t-317.5 -104q-100 0 -233 29l2 163q117 -43 237 -43q143 0 209.5 65t95.5 234l89 498q24 151 24 184
q0 88 -67.5 139.5t-184.5 51.5q-127 0 -246.5 -61.5t-199.5 -167.5q-48 -64 -74 -130t-43 -169z" />
    <glyph glyph-name="afii10100" unicode="&#x453;" horiz-adv-x="1003" 
d="M164 0l201 1139h843l-26 -150h-686l-174 -989h-158zM1073 1661l55 -152l-540 -196l-56 149z" />
    <glyph glyph-name="afii10101" unicode="&#x454;" horiz-adv-x="1198" 
d="M1079 532h-735q-4 -18 -4 -47q0 -166 101.5 -264t273.5 -98q107 0 209 33.5t223 107.5v-160q-133 -73 -231 -102t-214 -29q-236 0 -378 139.5t-142 372.5q0 139 57.5 265t154.5 217.5t232 145.5t283 54q107 0 196.5 -22.5t211.5 -79.5l-53 -154q-116 59 -196.5 82
t-172.5 23q-343 0 -512 -334h723z" />
    <glyph glyph-name="afii10102" unicode="&#x455;" horiz-adv-x="1015" 
d="M145 59v185q101 -64 189.5 -92.5t187.5 -28.5q134 0 214.5 52t80.5 140q0 57 -35.5 91.5t-144.5 85.5l-150 69q-136 63 -186.5 119t-50.5 143q0 149 134 247.5t335 98.5q155 0 315 -65l-35 -170q-90 46 -157 65t-142 19q-124 0 -206 -52t-82 -130q0 -44 33.5 -72
t144.5 -78l151 -65q124 -55 181 -124t57 -163q0 -160 -130 -260.5t-337 -100.5q-194 0 -367 86z" />
    <glyph glyph-name="afii10103" unicode="&#x456;" horiz-adv-x="512" 
d="M541 1159l-205 -1159h-158l201 1135zM494 1477q46 0 78 -32.5t32 -78.5t-31 -76t-77 -30t-77.5 31t-31.5 77t30.5 77.5t76.5 31.5z" />
    <glyph glyph-name="afii10104" unicode="&#x457;" horiz-adv-x="512" 
d="M541 1159l-205 -1159h-158l201 1135zM373 1542q44 0 76 -33t32 -79q0 -47 -31.5 -79t-78.5 -32t-80 32t-33 79q0 45 34.5 78.5t80.5 33.5zM659 1542q45 0 78 -33t33 -79t-33 -78.5t-80 -32.5q-46 0 -78 32.5t-32 78.5t33 79t79 33z" />
    <glyph glyph-name="afii10105" unicode="&#x458;" horiz-adv-x="512" 
d="M539 1159l-269 -1521l-161 -27l268 1524zM494 1477q46 0 78 -32.5t32 -78.5q0 -44 -31 -75t-77 -31t-77.5 31t-31.5 77t30.5 77.5t76.5 31.5z" />
    <glyph glyph-name="afii10106" unicode="&#x459;" horiz-adv-x="1884" 
d="M1268 1139l-82 -457h254q236 0 350.5 -79.5t114.5 -242.5q0 -109 -58 -194t-159 -123q-66 -25 -143 -34t-218 -9h-418l174 989h-512l-86 -485q-40 -229 -129.5 -340.5t-298.5 -190.5l-57 136q67 27 110 48.5t80.5 52t58.5 61.5t40.5 83.5t32 111t26.5 150.5l92 523h828z
M1092 150h290q193 0 281 49.5t88 158.5q0 95 -70.5 134.5t-242.5 39.5h-279z" />
    <glyph glyph-name="afii10107" unicode="&#x45a;" horiz-adv-x="1939" 
d="M1057 532h-641l-94 -532h-158l201 1139h157l-82 -457h643l80 457h158l-82 -457h254q236 0 351.5 -79.5t115.5 -242.5q0 -108 -58.5 -193.5t-158.5 -123.5q-66 -25 -143 -34t-220 -9h-417zM1147 150h289q195 0 282.5 49.5t87.5 158.5q0 95 -71 134.5t-244 39.5h-277z" />
    <glyph glyph-name="afii10108" unicode="&#x45b;" horiz-adv-x="1527" 
d="M467 0h-156l174 989h-362l27 150h362l55 311l160 27l-96 -549q208 239 506 239q173 0 283 -87.5t110 -225.5q0 -44 -17 -141l-124 -713h-158l115 645q24 151 24 184q0 88 -67.5 139.5t-184.5 51.5q-127 0 -246.5 -61.5t-199.5 -167.5q-48 -64 -74 -130t-43 -169z" />
    <glyph glyph-name="afii10109" unicode="&#x45c;" horiz-adv-x="1220" 
d="M322 0h-158l201 1139h157l-88 -496l627 496h242l-682 -533l653 -606h-232l-618 588zM1073 1661l55 -152l-540 -196l-56 149z" />
    <glyph glyph-name="afii10110" unicode="&#x45e;" horiz-adv-x="1116" 
d="M201 1139h170l225 -946l537 946h184l-877 -1501l-188 -27l233 389zM1063 1577l92 -113q-96 -86 -179.5 -119.5t-199.5 -33.5q-117 0 -200 33.5t-181 119.5l94 113q84 -62 148.5 -87.5t138.5 -25.5t138.5 25.5t148.5 87.5z" />
    <glyph glyph-name="afii10193" unicode="&#x45f;" horiz-adv-x="1415" 
d="M164 0l201 1139h157l-174 -989h778l174 989h156l-201 -1139h-460l-64 -362l-162 -27l70 389h-475z" />
    <glyph glyph-name="afii10050" unicode="&#x490;" horiz-adv-x="1089" 
d="M358 0h-163l256 1450h679l25 137l168 27l-55 -314h-680z" />
    <glyph glyph-name="afii10098" unicode="&#x491;" horiz-adv-x="1017" 
d="M164 0l201 1139h686l24 137l162 27l-55 -314h-686l-174 -989h-158z" />
    <glyph glyph-name="uni0492" unicode="&#x492;" horiz-adv-x="1136" 
d="M195 0l256 1450h854l-27 -150h-696l-84 -466h630l-26 -150h-631l-119 -684h-157z" />
    <glyph glyph-name="uni0493" unicode="&#x493;" horiz-adv-x="1075" 
d="M164 0l201 1139h819l-27 -150h-661l-58 -319h598l-26 -150h-598l-90 -520h-158z" />
    <glyph glyph-name="uni0496" unicode="&#x496;" horiz-adv-x="2269" 
d="M2105 0h-45l-743 709l-125 -709h-158l125 709l-960 -709h-234l1024 760l-698 690h215l663 -678l121 678h158l-121 -678l895 678h232l-943 -717l605 -583h178l-90 -512l-168 -27z" />
    <glyph glyph-name="uni0497" unicode="&#x497;" horiz-adv-x="1961" 
d="M1837 150h193l-91 -512l-161 -27l67 389h-76l-618 588l-102 -588h-158l104 588l-811 -588h-245l874 633l-502 506h215l478 -498l88 498h157l-88 -498l627 498h242l-682 -533z" />
    <glyph glyph-name="uni049A" unicode="&#x49a;" horiz-adv-x="1409" 
d="M1274 150h180l-90 -512l-170 -27l70 389h-43l-744 709l-125 -709h-157l256 1450h157l-121 -678l895 678h232l-942 -717z" />
    <glyph glyph-name="uni049B" unicode="&#x49b;" horiz-adv-x="1234" 
d="M1110 150h193l-91 -512l-161 -27l69 389h-78l-618 588l-102 -588h-158l201 1139h157l-88 -498l627 498h242l-682 -533z" />
    <glyph glyph-name="uni049C" unicode="&#x49c;" horiz-adv-x="1392" 
d="M627 567l-150 142l-125 -709h-157l256 1450h157l-121 -678l203 152l60 346h55l-53 -297l630 477h232l-942 -717l755 -733h-206l-547 522l-49 -276h-56z" />
    <glyph glyph-name="uni049D" unicode="&#x49d;" horiz-adv-x="1220" 
d="M645 809l37 209h53l-26 -158l352 279h242l-682 -533l653 -606h-232l-415 395l-45 -252h-54l52 297l-156 148l-102 -588h-158l201 1139h157l-88 -496z" />
    <glyph glyph-name="uni04A2" unicode="&#x4a2;" horiz-adv-x="1595" 
d="M1231 0l121 684h-881l-119 -684h-157l256 1450h157l-110 -616h880l109 616h158l-230 -1300h82l-90 -512l-168 -27l68 389h-76z" />
    <glyph glyph-name="uni04A3" unicode="&#x4a3;" horiz-adv-x="1419" 
d="M1282 150h82l-90 -512l-162 -27l70 389h-82l94 532h-778l-94 -532h-158l201 1139h157l-82 -457h779l81 457h156z" />
    <glyph glyph-name="uni04AE" unicode="&#x4ae;" horiz-adv-x="1312" 
d="M580 0l116 664l-467 786h181l378 -641l607 641h202l-743 -782l-119 -668h-155z" />
    <glyph glyph-name="uni04AF" unicode="&#x4af;" horiz-adv-x="1136" 
d="M508 109l-307 1030h170l237 -873l545 873h184l-671 -1033l-84 -468l-162 -27z" />
    <glyph glyph-name="uni04B0" unicode="&#x4b0;" horiz-adv-x="1312" 
d="M807 403l-72 -403h-155l69 403h-411l26 150h412l20 111l-467 786h181l378 -641l607 641h202l-743 -782l-20 -115h413l-26 -150h-414z" />
    <glyph glyph-name="uni04B1" unicode="&#x4b1;" horiz-adv-x="1136" 
d="M489 0h-288l26 150h269l-295 989h170l237 -873l545 873h184l-643 -989h264l-26 -150h-287l-63 -362l-162 -27z" />
    <glyph glyph-name="uni04B2" unicode="&#x4b2;" horiz-adv-x="1392" 
d="M1311 150h123l-91 -512l-167 -27l67 389h-22l-426 653l-609 -653h-204l727 766l-451 684h184l375 -576l535 576h204l-655 -684z" />
    <glyph glyph-name="uni04B3" unicode="&#x4b3;" horiz-adv-x="1210" 
d="M1108 150h133l-92 -512l-160 -27l68 389h-45l-307 492l-494 -492h-211l625 606l-363 533h199l266 -428l422 428h211l-553 -543z" />
    <glyph glyph-name="uni04B8" unicode="&#x4b8;" horiz-adv-x="1441" 
d="M831 799h7h12q168 0 381 28l108 623h164l-256 -1450h-164l119 670q-224 -29 -379 -29h-12h-8l-58 -328h-55l60 330q-250 9 -361 86q-143 98 -143 268q0 100 24 232l39 221h162l-39 -219q-22 -143 -22 -205q0 -117 82.5 -167t283.5 -58l60 332h55z" />
    <glyph glyph-name="uni04B9" unicode="&#x4b9;" horiz-adv-x="1296" 
d="M803 889l-47 -260q159 6 211.5 10t128.5 16l86 484h155l-200 -1139h-156l86 494q-218 -23 -338 -23l-47 -266h-55l47 266q-242 11 -355.5 94.5t-113.5 251.5q0 87 18 195l23 127h157l-18 -105q-23 -128 -23 -198q0 -109 74.5 -154t265.5 -53l46 260h55z" />
    <glyph glyph-name="uni04BA" unicode="&#x4ba;" horiz-adv-x="1452" 
d="M614 1450l-118 -670q222 29 399 29q276 0 416.5 -89.5t140.5 -266.5q0 -95 -25 -232l-38 -221h-162l39 219q22 143 22 207q0 123 -98 174t-330 51q-191 0 -391 -28l-111 -623h-163l256 1450h163z" />
    <glyph glyph-name="uni04BB" unicode="&#x4bb;" horiz-adv-x="1400" 
d="M178 0l256 1450l162 27l-96 -549q208 239 504 239q172 0 282.5 -87.5t110.5 -223.5q0 -40 -15 -143l-127 -713h-155l112 645q25 154 25 184q0 87 -67.5 138t-184.5 51q-126 0 -245 -61t-199 -166q-47 -63 -73.5 -129.5t-45.5 -169.5l-86 -492h-158z" />
    <glyph glyph-name="uni04C0" unicode="&#x4c0;" horiz-adv-x="544" 
d="M195 0l256 1450h157l-256 -1450h-157z" />
    <glyph glyph-name="uni04CF" unicode="&#x4cf;" horiz-adv-x="544" 
d="M195 0l256 1450h157l-256 -1450h-157z" />
    <glyph glyph-name="uni04D8" unicode="&#x4d8;" horiz-adv-x="1628" 
d="M1507 682h-1128q0 -261 137.5 -410t380.5 -149q238 0 403.5 151.5t206.5 407.5zM487 1145l17 174q147 93 245.5 125.5t233.5 32.5q311 0 500.5 -186t189.5 -490q0 -230 -102 -420t-280 -299t-394 -109q-301 0 -488.5 192t-187.5 499q0 56 15 170h1280q-9 225 -155.5 359
t-383.5 134q-129 0 -235.5 -39.5t-254.5 -142.5z" />
    <glyph glyph-name="afii10846" unicode="&#x4d9;" horiz-adv-x="1376" 
d="M1217 532h-875v-6v-16q0 -175 110 -281t291 -106q186 0 314.5 111t159.5 298zM342 836l16 174q140 90 238.5 123.5t222.5 33.5q248 0 404.5 -151.5t156.5 -390.5q0 -135 -50 -255.5t-135.5 -207.5t-204.5 -138t-251 -51q-247 0 -401 150.5t-154 392.5q0 71 21 168h1016
q-22 155 -129.5 244.5t-270.5 89.5q-122 0 -228 -40.5t-251 -141.5z" />
    <glyph glyph-name="uni04E8" unicode="&#x4e8;" horiz-adv-x="1628" 
d="M1001 1477q296 0 484 -189t188 -485q0 -230 -102.5 -420.5t-280.5 -300t-393 -109.5q-146 0 -272 50.5t-214.5 139.5t-139 215t-50.5 273q0 172 60.5 325.5t164 263t248.5 173.5t307 64zM1507 684h-1128q0 -263 137.5 -412t380.5 -149q237 0 403 152.5t207 408.5z
M399 834h1117q-9 220 -153.5 356.5t-367.5 136.5q-217 0 -379 -133.5t-217 -359.5z" />
    <glyph glyph-name="uni04E9" unicode="&#x4e9;" horiz-adv-x="1376" 
d="M825 1167q243 0 399 -153t156 -391q0 -178 -85 -327.5t-232.5 -236t-323.5 -86.5q-242 0 -398.5 150t-156.5 381q0 185 84.5 337t232 239t324.5 87zM369 682h852q-23 154 -129.5 244t-266.5 90q-164 0 -282.5 -86.5t-173.5 -247.5zM1217 532h-875v-6v-16q0 -175 110 -281
t291 -106q186 0 314.5 111t159.5 298z" />
    <glyph glyph-name="uni2011" unicode="&#x2011;" horiz-adv-x="522" 
d="M102 578l29 157h522l-28 -157h-523z" />
    <glyph glyph-name="figuredash" unicode="&#x2012;" horiz-adv-x="1105" 
d="M184 578l29 157h942l-29 -157h-942z" />
    <glyph glyph-name="endash" unicode="&#x2013;" horiz-adv-x="1105" 
d="M184 578l29 157h942l-29 -157h-942z" />
    <glyph glyph-name="emdash" unicode="&#x2014;" horiz-adv-x="1992" 
d="M143 578l29 157h1911l-29 -157h-1911z" />
    <glyph glyph-name="afii00208" unicode="&#x2015;" horiz-adv-x="1992" 
d="M143 578l29 157h1911l-29 -157h-1911z" />
    <glyph glyph-name="quoteleft" unicode="&#x2018;" horiz-adv-x="532" 
d="M696 1450l-266 -528h-176l287 528h155z" />
    <glyph glyph-name="quoteright" unicode="&#x2019;" horiz-adv-x="587" 
d="M752 1450l-267 -528h-231l301 528h197z" />
    <glyph glyph-name="quotesinglbase" unicode="&#x201a;" horiz-adv-x="587" 
d="M479 188l-266 -528h-231l301 528h196z" />
    <glyph glyph-name="quotedblleft" unicode="&#x201c;" horiz-adv-x="1009" 
d="M1126 1450l-264 -528h-178l287 528h155zM696 1450l-266 -528h-176l287 528h155z" />
    <glyph glyph-name="quotedblright" unicode="&#x201d;" horiz-adv-x="964" 
d="M254 922l264 528h178l-286 -528h-156zM684 922l266 528h176l-286 -528h-156z" />
    <glyph glyph-name="quotedblbase" unicode="&#x201e;" horiz-adv-x="940" 
d="M-23 -340l265 528h178l-287 -528h-156zM408 -340l266 528h176l-287 -528h-155z" />
    <glyph glyph-name="dagger" unicode="&#x2020;" horiz-adv-x="968" 
d="M580 993h-310l27 150h309l56 307h157l-53 -307h309l-26 -150h-310l-176 -993h-157z" />
    <glyph glyph-name="daggerdbl" unicode="&#x2021;" horiz-adv-x="968" 
d="M582 993h-312l27 150h311l54 307h157l-53 -307h309l-26 -150h-310l-30 -178h309l-27 -149h-309l-119 -666h-157l116 666h-309l27 149h309z" />
    <glyph glyph-name="bullet" unicode="&#x2022;" horiz-adv-x="1208" 
d="M733 1057q122 0 208.5 -87t86.5 -210t-86.5 -209t-210.5 -86q-120 0 -207.5 87.5t-87.5 207.5q0 126 85.5 211.5t211.5 85.5z" />
    <glyph glyph-name="ellipsis" unicode="&#x2026;" horiz-adv-x="1607" 
d="M281 182q43 0 73.5 -31t30.5 -75q0 -42 -30.5 -72.5t-73.5 -30.5q-41 0 -73 32t-32 73q0 43 31 73.5t74 30.5zM817 182q43 0 74 -30.5t31 -73.5q0 -44 -31 -74.5t-74 -30.5q-41 0 -72.5 32t-31.5 73q0 43 30.5 73.5t73.5 30.5zM1352 182q43 0 73.5 -31.5t30.5 -74.5
q0 -42 -31 -72.5t-73 -30.5q-41 0 -73 32t-32 73q0 43 31 73.5t74 30.5z" />
    <glyph glyph-name="perthousand" unicode="&#x2030;" horiz-adv-x="2308" 
d="M606 1477q144 0 249.5 -103.5t105.5 -243.5q0 -149 -101.5 -249.5t-251.5 -100.5q-146 0 -250 103.5t-104 246.5q0 145 102 246t250 101zM608 1329q-81 0 -140.5 -59.5t-59.5 -139.5q0 -86 57 -144t143 -58q82 0 140.5 59t58.5 141q0 85 -58 143t-141 58zM1337 1450h166
l-971 -1450h-165zM1260 670q143 0 248.5 -103.5t105.5 -242.5q0 -148 -101.5 -249.5t-250.5 -101.5q-145 0 -250 104t-105 247q0 145 102.5 245.5t250.5 100.5zM1262 522q-82 0 -141.5 -59t-59.5 -139q0 -86 58 -144.5t143 -58.5q81 0 139.5 59.5t58.5 141.5
q0 83 -57.5 141.5t-140.5 58.5zM2028 670q143 0 248.5 -103.5t105.5 -242.5q0 -148 -101.5 -249.5t-250.5 -101.5q-145 0 -250 104t-105 247q0 145 102.5 245.5t250.5 100.5zM2030 522q-82 0 -141.5 -59t-59.5 -139q0 -86 58 -144.5t143 -58.5q81 0 139.5 59.5t58.5 141.5
q0 85 -57.5 142.5t-140.5 57.5z" />
    <glyph glyph-name="guilsinglleft" unicode="&#x2039;" horiz-adv-x="542" 
d="M197 655l307 312l90 -103l-221 -219l145 -221l-125 -80z" />
    <glyph glyph-name="guilsinglright" unicode="&#x203a;" horiz-adv-x="542" 
d="M569 655l-305 -311l-92 102l221 220l-143 221l123 80z" />
    <glyph glyph-name="uni203E" unicode="&#x203e;" horiz-adv-x="1024" 
d="M281 1745h1024v-158h-1024v158z" />
    <glyph glyph-name="fraction" unicode="&#x2044;" horiz-adv-x="448" 
d="M678 1450h162l-807 -1450h-162z" />
    <glyph glyph-name="foursuperior" unicode="&#x2074;" horiz-adv-x="698" 
d="M424 0l35 195h-441l721 806l-116 -669h94l-41 -137h-78l-35 -195h-139zM489 332l52 286l-250 -286h198z" />
    <glyph glyph-name="franc" unicode="&#x20a3;" horiz-adv-x="1632" 
d="M195 0l256 1450h854l-27 -150h-696l-84 -475h499l-26 -149h-500l-119 -676h-157zM1843 1100l-53 -150h-25q-99 0 -194 -41.5t-170 -117.5q-78 -77 -121.5 -169.5t-69.5 -238.5l-67 -383h-156l187 1065l161 27l-41 -232q203 243 549 240z" />
    <glyph glyph-name="Euro" unicode="&#x20ac;" horiz-adv-x="1202" 
d="M160 649l33 150h104q40 193 160 350t291.5 246.5t359.5 89.5q84 0 209 -29l-37 -156q-100 27 -184 27q-227 0 -403.5 -146t-233.5 -382h710l-32 -150h-707q-4 -33 -4 -67q0 -209 128.5 -334t342.5 -125q112 0 225 41l27 -141q-113 -50 -268 -50q-176 0 -317 75
t-220.5 207.5t-79.5 297.5q0 11 0.5 23t1.5 32.5t2 40.5h-108z" />
    <glyph glyph-name="afii61352" unicode="&#x2116;" horiz-adv-x="2912" 
d="M195 0l264 1501l846 -1165l196 1114h158l-266 -1505l-844 1171l-197 -1116h-157zM1688 0l28 158h1051l-27 -158h-1052zM2402 1477q243 0 399 -153t156 -390q0 -135 -50 -255.5t-136 -207t-205 -137.5t-252 -51q-242 0 -397.5 149.5t-155.5 382.5q0 138 50 260.5
t135 210.5t204 139.5t252 51.5zM2408 1327q-212 0 -350.5 -141.5t-138.5 -358.5q0 -182 108.5 -288.5t292.5 -106.5q207 0 343.5 142t136.5 358q0 173 -110.5 284t-281.5 111z" />
    <glyph glyph-name="trademark" unicode="&#x2122;" horiz-adv-x="1671" 
d="M416 580l127 731h-297l24 139h727l-24 -139h-285l-129 -731h-143zM713 580l397 901l182 -594l389 594l80 -901h-159l-31 485l-334 -524l-152 524l-208 -485h-164z" />
    <glyph glyph-name="uni2126" unicode="&#x2126;" horiz-adv-x="1626" 
d="M156 145h295q-126 101 -181 220t-55 288q0 171 60.5 323.5t164 262.5t247.5 174t306 64q196 0 350 -86t239 -241t85 -353q0 -424 -321 -652h280l-27 -145h-530l27 158q178 54 295.5 235.5t117.5 401.5q0 239 -143.5 385.5t-376.5 146.5q-171 0 -312.5 -88t-222.5 -241.5
t-81 -340.5q0 -185 87.5 -320.5t233.5 -178.5l-26 -158h-539z" />
    <glyph glyph-name="partialdiff" unicode="&#x2202;" horiz-adv-x="1202" 
d="M408 1450h219q235 -272 269 -317q9 -11 24 -31q158 -200 219 -336t61 -283q0 -220 -146.5 -365t-367.5 -145q-224 0 -369 144t-145 368q0 217 141 357.5t359 140.5q78 0 174 -22q-117 145 -168.5 202.5t-206.5 218.5q-33 38 -63 68zM686 825q-154 0 -252 -97t-98 -249
q0 -154 97.5 -251t252.5 -97q157 0 253.5 97t96.5 255q0 149 -99 245.5t-251 96.5z" />
    <glyph glyph-name="Delta" unicode="&#x2206;" horiz-adv-x="1380" 
d="M1401 0h-1421l729 1501zM262 162h866l-432 964z" />
    <glyph glyph-name="product" unicode="&#x220f;" horiz-adv-x="1378" 
d="M328 1632h1298l-27 -149h-137l-323 -1839l-164 -33l332 1872h-711l-326 -1839l-161 -33l329 1872h-135z" />
    <glyph glyph-name="summation" unicode="&#x2211;" horiz-adv-x="1449" 
d="M1647 1632l-29 -157h-938l457 -865l-731 -843h931l-26 -150h-1260l883 1008l-528 1007h1241z" />
    <glyph glyph-name="minus" unicode="&#x2212;" horiz-adv-x="1105" 
d="M184 578l29 157h942l-29 -157h-942z" />
    <glyph glyph-name="radical" unicode="&#x221a;" horiz-adv-x="1449" 
d="M1546 1798v-172h-405l-465 -1626h-209l-172 616h-178v172h313l143 -577l445 1587h528z" />
    <glyph glyph-name="infinity" unicode="&#x221e;" horiz-adv-x="1540" 
d="M897 887q47 144 121.5 209t191.5 65q160 0 267.5 -125.5t107.5 -312.5q0 -189 -105.5 -311.5t-267.5 -122.5q-106 0 -188 68t-129 196q-38 -125 -120 -194.5t-191 -69.5q-160 0 -267.5 125.5t-107.5 312.5q0 189 105.5 311.5t267.5 122.5q113 0 186.5 -64t128.5 -210z
M819 727q-39 89 -65 138t-54 80.5t-54.5 40.5t-67.5 9q-92 0 -151.5 -76t-59.5 -194q0 -119 57.5 -195.5t148.5 -76.5q77 0 124 52.5t122 221.5zM975 727q73 -170 119 -222t123 -52q91 0 150.5 78t59.5 196q0 120 -58 194t-150 74q-77 0 -124 -51.5t-120 -216.5z" />
    <glyph glyph-name="integral" unicode="&#x222b;" horiz-adv-x="1087" 
d="M815 1595l-39 -165q-46 20 -94 20q-83 0 -108 -41.5t-25 -175.5v-1274q-1 -186 -4 -227t-17 -88q-23 -85 -94.5 -134t-169.5 -49q-50 0 -147 25l39 166q53 -23 94 -23q82 0 107.5 42t25.5 177v1272q2 189 4 229t14 87q25 84 96.5 133t170.5 49q46 0 147 -23z" />
    <glyph glyph-name="approxequal" unicode="&#x2248;" horiz-adv-x="1105" 
d="M969 639l71 -127q-69 -60 -125.5 -84.5t-128.5 -24.5q-57 0 -106 19l-80 33q-73 26 -111 26t-73 -15t-88 -54l-72 127q69 61 125.5 85.5t128.5 24.5q62 0 106 -20l80 -33q59 -23 111 -23q69 0 162 66zM969 1051l71 -129q-69 -60 -125.5 -84.5t-128.5 -24.5q-60 0 -106 18
l-80 33q-64 27 -111 27q-38 0 -72.5 -15.5t-88.5 -54.5l-72 129q69 60 126 84.5t128 24.5q57 0 106 -19l80 -32q67 -25 111 -25q70 0 162 68z" />
    <glyph glyph-name="notequal" unicode="&#x2260;" horiz-adv-x="1105" 
d="M1042 1303l123 -103l-104 -125h153l-28 -157h-260l-209 -252h426l-29 -158h-528l-195 -232l-123 103l109 129h-205l29 158h311l211 252h-479l28 157h584z" />
    <glyph glyph-name="lessequal" unicode="&#x2264;" horiz-adv-x="829" 
d="M63 57l29 158h694l-28 -158h-695zM238 793l608 516l104 -123l-479 -414l322 -395l-129 -103z" />
    <glyph glyph-name="greaterequal" unicode="&#x2265;" horiz-adv-x="829" 
d="M92 57l29 158h694l-29 -158h-694zM893 793l-608 -519l-105 123l482 416l-324 393l129 103z" />
    <glyph glyph-name="dotmath" unicode="&#x22c5;" horiz-adv-x="587" 
d="M420 823q43 0 73.5 -31t30.5 -75q0 -43 -30.5 -73t-73.5 -30q-41 0 -73 32t-32 73q0 43 31 73.5t74 30.5z" />
    <glyph glyph-name="lozenge" unicode="&#x25ca;" horiz-adv-x="1449" 
d="M854 1509l563 -784l-563 -780l-565 780zM854 1264l-375 -539l375 -535l373 535z" />
    <glyph glyph-name="commaaccent" unicode="&#xf6c3;" horiz-adv-x="548" 
d="M39 -449l137 345h176l-174 -345h-139z" />
    <glyph glyph-name="Acute" unicode="&#xf6c9;" 
d="M1241 1921l55 -152l-540 -198l-56 151z" />
    <glyph glyph-name="Caron" unicode="&#xf6ca;" 
d="M997 1571l-356 207l94 131l262 -152l260 152l95 -131z" />
    <glyph glyph-name="Dieresis" unicode="&#xf6cb;" 
d="M682 1808q46 0 80.5 -35.5t34.5 -82.5q0 -51 -32.5 -84t-82.5 -33q-51 0 -86 34t-35 83q0 47 36 82.5t85 35.5zM1280 1806q47 0 82 -35.5t35 -82.5q0 -50 -33 -82.5t-84 -32.5q-48 0 -82.5 34t-34.5 83q0 47 35 81.5t82 34.5z" />
    <glyph glyph-name="Grave" unicode="&#xf6ce;" 
d="M741 1921l541 -199l-55 -151l-541 198z" />
    <glyph glyph-name="Hungarumlaut" unicode="&#xf6cf;" 
d="M864 2025l125 -104l-280 -336l-125 105zM1305 2025l125 -104l-281 -336l-125 105z" />
    <glyph glyph-name="Macron" unicode="&#xf6d0;" 
d="M709 1610l28 157h514l-28 -157h-514z" />
    <glyph glyph-name="Dotaccent" 
d="M981 1808q46 0 81.5 -35.5t35.5 -82.5q0 -51 -33 -84t-84 -33q-50 0 -84.5 34t-34.5 83t34.5 83.5t84.5 34.5z" />
    <glyph glyph-name="Ring" 
d="M981 1915q94 0 159.5 -64.5t65.5 -156.5q0 -95 -65 -160.5t-160 -65.5q-94 0 -159.5 65t-65.5 159q0 92 65.5 157.5t159.5 65.5zM979 1804q-46 0 -78.5 -33.5t-32.5 -80.5t33 -81t80 -34t81 34t34 81t-34.5 80.5t-82.5 33.5z" />
    <glyph glyph-name="Circumflex" 
d="M987 1923l354 -207l-94 -131l-260 152l-262 -152l-94 131z" />
    <glyph glyph-name="Breve" 
d="M1276 1864l94 -111q-99 -87 -181.5 -120.5t-199.5 -33.5q-115 0 -197.5 33.5t-181.5 120.5l92 111q85 -62 148.5 -86.5t138.5 -24.5q76 0 140 24.5t147 86.5z" />
    <glyph glyph-name="Tilde" 
d="M1260 1806l71 -118q-71 -56 -121 -76.5t-118 -20.5q-40 0 -84 13l-80 24q-40 12 -74 12q-36 0 -68.5 -13t-78.5 -48l-72 119q71 58 120.5 79t110.5 21q34 0 92 -14l80 -25q52 -18 88 -18q61 0 134 65z" />
    <glyph glyph-name="Cedilla" 
d="M412 -395l26 125q75 -58 137 -58q46 0 76.5 27.5t30.5 69.5q0 47 -32.5 72t-106.5 36l18 103q122 -6 189 -63.5t67 -154.5q0 -95 -64 -154t-167 -59q-92 0 -174 56z" />
    <glyph glyph-name="Ogonek" 
d="M993 -260l19 -143q-100 -58 -193 -58q-107 0 -177.5 61.5t-70.5 155.5q0 82 54 141t170 103h161q-136 -64 -188.5 -114t-52.5 -115q0 -46 30 -72.5t84 -26.5q39 0 73 14.5t91 53.5z" />
    <glyph glyph-name="Commaaccent" horiz-adv-x="548" 
d="M39 -449l156 373h178l-195 -373h-139z" />
    <glyph glyph-name="Comma.high" horiz-adv-x="548" 
d="M309 1077l156 373h178l-194 -373h-140z" />
    <glyph glyph-name="Dieresis.alt" 
d="M819 1808q46 0 80.5 -35.5t34.5 -82.5q0 -51 -32.5 -84t-82.5 -33q-51 0 -86 34t-35 83q0 47 36 82.5t85 35.5zM1139 1806q47 0 81.5 -35.5t34.5 -82.5q0 -50 -32.5 -82.5t-83.5 -32.5q-48 0 -82.5 34t-34.5 83q0 47 35 81.5t82 34.5z" />
    <glyph glyph-name="comma.high" horiz-adv-x="548" 
d="M313 1106l138 344h176l-174 -344h-140z" />
    <glyph glyph-name="dieresis.alt" 
d="M793 1542q44 0 76 -33t32 -79q0 -47 -31.5 -79t-78.5 -32t-80 32.5t-33 78.5q0 45 34.5 78.5t80.5 33.5zM1079 1542q45 0 78 -33t33 -79q0 -47 -33 -79t-80 -32q-46 0 -78 32.5t-32 78.5t33 79t79 33z" />
    <glyph glyph-name="commareversed" 
d="M1157 1647l-137 -347h-176l174 347h139z" />
    </font>
</defs>
</svg>
