<?xml version="1.0" standalone="no"?>
<!DOCTYPE svg PUBLIC "-//W3C//DTD SVG 1.1//EN" "http://www.w3.org/Graphics/SVG/1.1/DTD/svg11.dtd" >
<svg>
<metadata>
Created by FontForge 20090914 at Thu May 23 10:49:06 2019
 By www-data
Copyright (c) Myanmar NLP, 2005.
</metadata>
<defs>
<font id="Myanmar3" horiz-adv-x="1150" >
  <font-face 
    font-family="Myanmar3"
    font-weight="400"
    font-stretch="normal"
    units-per-em="2048"
    panose-1="2 2 6 3 5 4 5 2 3 4"
    ascent="1638"
    descent="-410"
    x-height="902"
    cap-height="1356"
    bbox="-1394 -765.001 3881.04 1782.1"
    underline-thickness="100"
    underline-position="-173"
    unicode-range="U+0020-U+25CC"
  />
<missing-glyph horiz-adv-x="1593" 
d="M284 0v1280h1024v-1280h-1024zM316 32h960v1216h-960v-1216z" />
    <glyph glyph-name="uni103D_uni103E.liga" unicode="&#x103d;&#x103e;" horiz-adv-x="3" 
d="M-271 -400c0 -98.667 -34.834 -183.166 -104.501 -253.499s-155.167 -106.5 -256.5 -108.5c-92 -0.666992 -171.5 30 -238.5 92s-106.167 137.333 -117.5 226c-31.333 -13.333 -59.333 -19 -84 -17c-62 3.33301 -119 32.666 -171 87.999c-14 14.667 -21 31 -21 49
c0 46 23.333 69 70 69c17.333 0 33.333 -6.66699 48 -20c18 -18 30.667 -28.667 38 -32c14.667 -11.333 29.334 -17 44.001 -17c24 -2 43.667 8 59 30l66 85c68.667 116 171 174 307 174c99.333 0 184.333 -35.833 255 -107.5s106 -157.5 106 -257.5zM-411.001 -399.999
c0 60 -21.668 112.667 -65.001 158s-95.333 68 -156 68c-62 0 -114 -21.833 -156 -65.5s-63 -97.167 -63 -160.5c0 -60.667 21.333 -113 64 -157s94.334 -66 155.001 -66s112.667 22 156 66s65 96.333 65 157z" />
    <glyph glyph-name="uni100D_uni1039_uni100E.liga" unicode="&#x100d;&#x1039;&#x100e;" horiz-adv-x="1126" 
d="M922 463c0 -105.333 -32.5039 -201.165 -97.5039 -287.498s-147.833 -145.833 -248.5 -178.5v-555h15c50 0 75 -25 75 -75c0 -47.333 -25 -71 -75 -71h-89c-48 0 -72 24.667 -72 74v607c-97.333 2 -188.166 37 -272.499 105s-138.5 145.667 -162.5 233
c-8.66699 10 -13.667 22.667 -15 38c-7.33301 51.333 4.33398 101.666 35.001 150.999l5 8c16 24 38.333 46.333 67 67c114.667 37.333 172 79 172 125c0 24 -15.667 42.667 -47 56c-16.667 7.33301 -34.334 9 -53.001 5c-22.667 -3.33301 -34 -12.666 -34 -27.999
c0 -49.333 -23.667 -74 -71 -74c-49.333 0 -74 24.667 -74 74c0 50 23.667 92 71 126c42.667 30.667 91.334 46 146.001 46s102.834 -21 144.501 -63s61.834 -90.333 60.501 -145c-2 -74.667 -40.333 -137.667 -115 -189c-20.667 -13.333 -57.334 -31.333 -110.001 -54
c-5.33301 -3.33301 -13.166 -9.16602 -23.499 -17.499s-20.5 -30.5 -30.5 -66.5v-5v-18c6.66699 -54.667 41.667 -106 105 -154s130.666 -72.667 201.999 -74v51h-49c-47.333 0 -71 24.667 -71 74v44c0 51.333 19.667 77 59 77c12 0 25.667 -3.66699 41 -11
c22 -10 49.333 -10.667 82 -2c32 8.66699 48 19.667 48 33c0 5.33301 -17 11.333 -51 18c-32.667 6.66699 -63.334 5 -92.001 -5c-8.66699 -3.33301 -18 -5 -28 -5c-44.667 0 -67 25.667 -67 77c0 38.667 19.667 62.334 59 71.001c64.667 14 118.334 15.667 161.001 5
c104 -25.333 158 -77.333 162 -156c3.33301 -76.667 -32.667 -131.334 -108 -164.001v-76c60 27.333 108.333 69.166 145 125.499s55 117.5 55 183.5c0 145.333 -56.333 251.333 -169 318c-24 15.333 -36 35.666 -36 60.999c0 20.667 6.83301 38.667 20.5 54
s30.834 23 51.501 23c13.333 0 27 -3.33301 41 -10c73.333 -44.667 132 -109.667 176 -195c41.333 -78.667 62 -162.334 62 -251.001z" />
    <glyph glyph-name="uni100B_uni1039_uni100C.liga" unicode="&#x100b;&#x1039;&#x100c;" horiz-adv-x="1126" 
d="M860 694c0 -2 -1.66406 -2.99805 -4.99707 -2.99805h-3v3v2c8.66699 -13.333 13 -26 13 -38c0 -20.667 -8 -38.667 -24 -54s-34.333 -23 -55 -23c-27.333 0 -48 14.667 -62 44c-1.33301 1.33301 -1.33301 3 0 5l-20 23c-64.667 78.667 -149 118 -253 118
c-92.667 0 -170.167 -31.167 -232.5 -93.5s-93.5 -137.833 -93.5 -226.5c0 -89.333 32.5 -166.333 97.5 -231s141.167 -97 228.5 -97c114 0 196.667 35.667 248 107c5.33301 5.33301 12 15 20 29c12 35.333 35 53 69 53c50 0 75 -23.667 75 -71
c0 -20.667 -14.667 -52.334 -44 -95.001c-78.667 -112.667 -201.334 -169 -368.001 -169c-128 0 -238.5 47 -331.5 141s-139.5 205 -139.5 333c0 129.333 45.167 239.166 135.5 329.499s202.166 135.5 335.499 135.5c73.333 0 145.666 -17.667 216.999 -53
c61.333 -32.667 111 -70.334 149 -113.001l23 -28c4.66699 -6.66699 8.66699 -12.667 12 -18l3 -3c2 -3.33301 3.66699 -5.66602 5 -6.99902zM829.003 -89.998l0.000976562 -337.002c0 -104 -25.5 -182.833 -76.5 -236.5s-131.167 -80.5 -240.5 -80.5h-338
c-60 0 -106.167 17 -138.5 51s-48.5 76.667 -48.5 128c0 40.667 10.333 81.667 31 123c32.667 64.667 90.667 97 174 97c61.333 0 125.333 -18 192 -54c27.333 -13.333 41 -33.666 41 -60.999c0 -51.333 -24 -77 -72 -77c-12 0 -24 3.33301 -36 10
c-56 30.667 -96.667 46 -122 46c-22.667 0 -38.667 -8.83301 -48 -26.5s-14 -34.167 -14 -49.5c0 -27.333 13.667 -41 41 -41h338c66.667 0 112 12.333 136 37s36 69.334 36 134.001v225c-78.667 -38 -164 -58.667 -256 -62c-78.667 -3.33301 -147 7 -205 31
c-46 20.667 -103.333 59 -172 115c-18.667 15.333 -28 34.333 -28 57c0 18.667 7.33301 35.667 22 51s32 23 52 23c14 0 50.667 -23 110 -69c51.333 -42.667 119 -65 203 -67c61.333 -3.33301 105.666 1 132.999 13l115 54l64 30c18.667 10.667 35 16 49 16
c38.667 0 58 -26.667 58 -80z" />
    <glyph glyph-name="uni100F_uni1039_uni100D.liga" unicode="&#x100f;&#x1039;&#x100d;" horiz-adv-x="2135" 
d="M1843 714c53.333 -78.667 79.9971 -166.328 79.9971 -262.995c0 -170.667 -66.667 -302.334 -200 -395.001c-80 -52.667 -167 -79 -261 -79c-48 0 -93.333 6.66699 -136 20c-34 12 -51 35.333 -51 70c0 49.333 23 74 69 74c12 0 30.833 -3.5 56.5 -10.5
s45.167 -10.5 58.5 -10.5c64.667 0 124.334 19.667 179.001 59c92.667 61.333 139 151 139 269c0 68 -19 128.667 -57 182c-62.667 94 -148.667 141 -258 141c-70 0 -133.333 -21.333 -190 -64l-48 -34c-12 -10 -29.333 -33 -52 -69c0 -10 -3.33301 -21 -10 -33
c-24 -42.667 -36 -83.667 -36 -123c0 -52.667 12 -102 36 -148c6.66699 -12 10 -23.333 10 -34v-59c0 -61.333 -21.667 -115 -65 -161s-95 -69 -155 -69c-59.333 0 -110.333 23 -153 69s-64 99.667 -64 161v62c0 13.333 1.66699 23.666 5 30.999
c24 47.333 36 96.666 36 147.999c0 25.333 -6 52.166 -18 80.499s-19 49.166 -21 62.499c-8.66699 15.333 -21.334 36 -38.001 62c-5.33301 8.66699 -27.666 25.667 -66.999 51c-58 40.667 -122 61 -192 61c-109.333 0 -194.666 -45 -255.999 -135
c-37.333 -53.333 -56 -113 -56 -179c0 -111.333 45.333 -197.666 136 -258.999c64.667 -46 130.334 -69 197.001 -69c12 0 29 3 51 9s38.333 9 49 9c46 0 69 -24.667 69 -74c0 -34.667 -17.5 -57.834 -52.5 -69.501s-73.833 -17.5 -116.5 -17.5
c-99.333 0 -193.333 29.667 -282 89c-131.333 90.667 -197 218.667 -197 384c0 95.333 26.333 182.333 79 261c92.667 131.333 220 197 382 197c100.667 0 192.667 -28 276 -84c19.333 -14 33 -24.333 41 -31c42.667 80 106.667 120 192 120c87.333 0 152.333 -40 195 -120
l38 28c84 60 176.333 90 277 90c162 0 289 -66.667 381 -200zM1627 -260.994c0 -52 -26.001 -78.002 -78.001 -78.002h-318c4 -10 6.66699 -36.667 8 -80c7.33301 -105.333 -13.667 -187 -63 -245l-36 -41c-16 -17.333 -35.333 -26 -58 -26h-220c-50 0 -75 25.667 -75 77v21
c0 20 18 47.833 54 83.5s54 77.5 54 125.5c0 51.333 -24.667 95.833 -74 133.5s-104.333 56.5 -165 56.5c-64 0 -118.833 -17.833 -164.5 -53.5s-68.5 -81.167 -68.5 -136.5c0 -60.667 27 -109.667 81 -147l22 -16c0 -2 -0.5 -3.33301 -1.5 -4s-2.5 -0.333984 -4.5 0.999023
c0 2 1 4 3 6c34 -11.333 51 -34.666 51 -69.999c0 -55.333 -24 -83 -72 -83c-14.667 0 -27.834 3.5 -39.501 10.5s-28.167 17.833 -49.5 32.5c-35.333 24.667 -66.666 60.334 -93.999 107.001c-32 53.333 -48 107.666 -48 162.999c0 96 37.5 177 112.5 243
s165.833 99 272.5 99c100 0 190.167 -34.167 270.5 -102.5s120.5 -148.166 120.5 -239.499c0 -57.333 -12.667 -109 -38 -155h38l11 16c24.667 28.667 35.334 74.334 32.001 137.001c-2 48 -14 91.333 -36 130c-8 18 -12 34 -12 48c0 41.333 26.333 62 79 62h353v29
c0 51.333 26.333 77 79 77c49.333 0 74 -25.667 74 -77v-104zM1029 248.004c-32.667 58 -46.999 125.667 -42.999 203c1.33301 62.667 15.666 119.667 42.999 171v72c0 20 -7.66699 38.167 -23 54.5s-33.333 24.5 -54 24.5c-20 0 -37.333 -8.16699 -52 -24.5
s-22 -34.5 -22 -54.5v-74c27.333 -60 41 -117.333 41 -172c0 -73.333 -13.667 -138.333 -41 -195v-46c0 -22 7.33301 -42 22 -60s32 -27 52 -27c20.667 0 38.667 9 54 27s23 38 23 60v41z" />
    <glyph glyph-name="uni100F_uni1039_uni100F.liga" unicode="&#x100f;&#x1039;&#x100f;" horiz-adv-x="2135" 
d="M1843 714c53.333 -78.667 79.9971 -166.328 79.9971 -262.995c0 -170.667 -66.667 -302.334 -200 -395.001c-80 -52.667 -167 -79 -261 -79c-48 0 -93.333 6.66699 -136 20c-34 12 -51 35.333 -51 70c0 49.333 23 74 69 74c12 0 30.833 -3.5 56.5 -10.5
s45.167 -10.5 58.5 -10.5c64.667 0 124.334 19.667 179.001 59c92.667 61.333 139 151 139 269c0 68 -19 128.667 -57 182c-62.667 94 -148.667 141 -258 141c-70 0 -133.333 -21.333 -190 -64l-48 -34c-12 -10 -29.333 -33 -52 -69c0 -10 -3.33301 -21 -10 -33
c-24 -42.667 -36 -83.667 -36 -123c0 -52.667 12 -102 36 -148c6.66699 -12 10 -23.333 10 -34v-59c0 -61.333 -21.667 -115 -65 -161s-95 -69 -155 -69c-59.333 0 -110.333 23 -153 69s-64 99.667 -64 161v62c0 13.333 1.66699 23.666 5 30.999
c24 47.333 36 96.666 36 147.999c0 25.333 -6 52.166 -18 80.499s-19 49.166 -21 62.499c-8.66699 15.333 -21.334 36 -38.001 62c-5.33301 8.66699 -27.666 25.667 -66.999 51c-58 40.667 -122 61 -192 61c-109.333 0 -194.666 -45 -255.999 -135
c-37.333 -53.333 -56 -113 -56 -179c0 -111.333 45.333 -197.666 136 -258.999c64.667 -46 130.334 -69 197.001 -69c12 0 29 3 51 9s38.333 9 49 9c46 0 69 -24.667 69 -74c0 -34.667 -17.5 -57.834 -52.5 -69.501s-73.833 -17.5 -116.5 -17.5
c-99.333 0 -193.333 29.667 -282 89c-131.333 90.667 -197 218.667 -197 384c0 95.333 26.333 182.333 79 261c92.667 131.333 220 197 382 197c100.667 0 192.667 -28 276 -84c19.333 -14 33 -24.333 41 -31c42.667 80 106.667 120 192 120c87.333 0 152.333 -40 195 -120
l38 28c84 60 176.333 90 277 90c162 0 289 -66.667 381 -200zM1029 248.006c-32.667 58 -46.999 125.667 -42.999 203c1.33301 62.667 15.666 119.667 42.999 171v72c0 20 -7.66699 38.167 -23 54.5s-33.333 24.5 -54 24.5c-20 0 -37.333 -8.16699 -52 -24.5
s-22 -34.5 -22 -54.5v-74c27.333 -60 41 -117.333 41 -172c0 -73.333 -13.667 -138.333 -41 -195v-46c0 -22 7.33301 -42 22 -60s32 -27 52 -27c20.667 0 38.667 9 54 27s23 38 23 60v41zM1680 -208.994c42.667 -54 64.002 -118 64.002 -192
c2 -125.333 -50.333 -219 -157 -281c-62 -36 -130.333 -54 -205 -54c-108 0 -162.667 27.333 -164 82c-2 48.667 22 74 72 76c8.66699 0 16.667 -1 24 -3c67.333 -18.667 131 -10.834 191 23.499s90.667 86.5 92 156.5c1.33301 64 -30 115 -94 153
c-34 21.333 -75.333 32 -124 32c-54 0 -100 -13.333 -138 -40c-14 -3.33301 -31.667 -15.666 -53 -36.999c-1.33301 -4 -5 -11.667 -11 -23l-12 -20c-10 -17.333 -16.667 -39 -20 -65c0 -33.333 6.66699 -61 20 -83c5.33301 -10 9.33301 -22 12 -36v-40
c0 -48 -18.667 -89 -56 -123s-80.333 -51.667 -129 -53c-49.333 -2.66699 -92.5 14 -129.5 50s-55.5 78 -55.5 126v42c0 18.667 2.66699 31.667 8 39c15.333 20.667 23 46.667 23 78c0 13.333 -7.66699 35 -23 65l-3 13c-8.66699 8 -14.667 16 -18 24l-2 5
c-14.667 20 -42.834 37.333 -84.501 52s-77.167 22 -106.5 22c-78 0 -139.333 -27.333 -184 -82c-21.333 -26 -32.666 -57.333 -33.999 -94c-2 -64.667 31 -115.667 99 -153c62 -36.667 124 -47.334 186 -32.001c9.33301 0 17.333 1 24 3
c47.333 0 71.666 -25.333 72.999 -76c2 -51.333 -48 -78 -150 -80c-76.667 -1.33301 -149.667 18.334 -219 59.001c-104 62.667 -157.333 155.667 -160 279c0 70.667 21.333 133 64 187c71.333 88.667 173.666 133.667 306.999 135c83.333 2 154.333 -16 213 -54l21 -13
c36 46.667 86.333 70.667 151 72c60 2 109 -23 147 -75l24 16c56 36 127.333 55 214 57c129.333 1.33301 230.333 -44.667 303 -138zM1030 -543.994c-20 37.333 -30 84.998 -30 142.998c0 36.667 10 77.334 30 122.001v39c0 13.333 -12.667 22 -38 26
c-26.667 0 -40 -8.66699 -40 -26v-41c20.667 -42 31 -82 31 -120c0 -47.333 -10.333 -91.666 -31 -132.999v-26c0 -20.667 13.333 -31 40 -31c25.333 0 38 10.333 38 31v16z" />
    <glyph glyph-name="uni100B_uni1039_uni100B.liga" unicode="&#x100b;&#x1039;&#x100b;" horiz-adv-x="1063" 
d="M846 709c0 -2 -1.99805 -3.00098 -5.99805 -3.00098h-3v3v2c8 -13.333 12 -25.666 12 -36.999c0 -20 -7.83301 -37.5 -23.5 -52.5s-33.167 -22.5 -52.5 -22.5c-26 0 -46 14.333 -60 43c-1.33301 1.33301 -1.33301 3 0 5l-20 23c-62.667 74.667 -144.334 112 -245.001 112
c-90 0 -164.833 -29.833 -224.5 -89.5s-89.5 -132.834 -89.5 -219.501c0 -86 31.333 -160.5 94 -223.5s136 -94.5 220 -94.5c104.667 0 186.334 36 245.001 108c15.333 16 33.666 24 54.999 24h27c48 0 72 -23 72 -69s-23.333 -70 -70 -72
c-84 -87.333 -193.667 -131 -329 -131c-124 0 -231 45.333 -321 136s-135 198 -135 322c0 126 43.667 232.667 131 320s195.666 131 324.999 131c70.667 0 140.667 -17 210 -51c60 -31.333 108 -68 144 -110l23 -28c4.66699 -5.33301 8.66699 -10.333 12 -15l3 -4
c1.33301 -3.33301 3.33301 -5.66602 6 -6.99902zM973.002 -655.001h-197.999c-21.333 0 -38.666 6 -51.999 18c-10 -31.333 -32 -47 -66 -47h-99c-47.333 0 -71 24 -71 72v57c-20 -3.33301 -44.333 -5 -73 -5c-76.667 0 -140.5 16.5 -191.5 49.5s-76.5 80.167 -76.5 141.5
c0 54 23 98.833 69 134.5s107 53.5 183 53.5c96 0 160 -14.667 192 -44c14 -17.333 21 -35 21 -53c0 -44.667 -23 -67 -69 -67c-11.333 0 -22.833 3.5 -34.5 10.5s-20 11.333 -25 13s-14.167 2.5 -27.5 2.5c-112 0 -168 -16.667 -168 -50c0 -30 26.333 -46.667 79 -50h48
c42 0 79 7.66699 111 23c10 4.66699 21 7 33 7c46 0 69 -27.667 69 -83c1.33301 -8 2 -15 2 -21v-50h28c19.333 0 35.333 -5.66699 48 -17v435c-69.333 -27.333 -153 -41 -251 -41c-130.667 0 -258.334 38.333 -383.001 115c-21.333 14 -32 32.667 -32 56
c0 17.333 7 34 21 50s30.667 24 50 24c13.333 0 26.666 -4 39.999 -12c96 -60.667 197.333 -91 304 -91c110 0 183.667 14.333 221 43l56 45c20 15.333 39 23 57 23c39.333 0 59 -26.333 59 -79v-521h126c48 0 72 -23.667 72 -71s-24 -71 -72 -71z" />
    <glyph glyph-name="uni100D_uni1039_uni100D.liga" unicode="&#x100d;&#x1039;&#x100d;" horiz-adv-x="1021" 
d="M950 -502c1.33301 -51.333 -25.332 -77 -79.999 -77h-192c-52.667 0 -79 25.667 -79 77v479c-22 -6.66699 -50.5 -13.5 -85.5 -20.5l-121.5 -23.5c-131.333 -3.33301 -224.333 13 -279 49l-57 38c-32 24 -48 47.333 -48 70v199c0 50 25.333 75 76 75h29
c23.333 0 43.666 -8.66699 60.999 -26c54.667 -60 129.667 -90.667 225 -92c78.667 -2 147 24.333 205 79h-2c58 58 87.667 123 89 195c2 73.333 -26 135.666 -84 186.999c-29.333 27.333 -61 46.833 -95 58.5s-71.667 18.5 -113 20.5
c-42.667 1.33301 -83.167 -6.83398 -121.5 -24.501s-72.833 -41.834 -103.5 -72.501c-3.33301 -3.33301 -6.33301 -7.66602 -9 -12.999s-5.66699 -9.66602 -9 -12.999v3c-15.333 -27.333 -38.333 -42 -69 -44c-49.333 0 -77.333 25.667 -84 77c0 8.66699 0.333008 15 1 19
s2 9.66699 4 17v-3c0 8.66699 2.33301 14 7 16c3.33301 8 15.333 22.333 36 43v-3c90.667 101.333 206.667 152 348 152c62 0 119.833 -10.333 173.5 -31s101.834 -50.667 144.501 -90s75.5 -84.5 98.5 -135.5s34.5 -105.5 34.5 -163.5
c3.33301 -114.667 -41 -214.667 -133 -300c-44.667 -39.333 -93.834 -70 -147.501 -92s-110.5 -34 -170.5 -36c-93.333 -3.33301 -171 17.334 -233 62.001v-23c58 -34.667 130.667 -52 218 -52c60 0 151.333 24 274 72h14c6 0 13.333 1 22 3c46 0 69 -25.667 69 -77v-505
c18.667 0 36.5 0.5 53.5 1.5s34.833 1.5 53.5 1.5c51.333 2 78 -23.667 80 -77zM100.002 -206c0 3.33301 0.333008 6.83105 1 10.498s3 10.167 7 19.5c8 13.333 21.833 26.833 41.5 40.5s40.5 26.167 62.5 37.5c14 4.66699 31.167 9.33398 51.5 14.001s40.166 7 59.499 7
c71.333 0 131.333 -21.167 180 -63.5s73 -95.5 73 -159.5c0 -31.333 -6.33301 -60.833 -19 -88.5s-30.667 -51.667 -54 -72s-50.333 -36.5 -81 -48.5s-63.667 -18 -99 -18c-22.667 -2 -42.834 -1.5 -60.501 1.5s-37.834 10.833 -60.501 23.5v-23c36 -16 73.667 -24 113 -24
c13.333 0 33.333 3.16699 60 9.5s55.334 15.166 86.001 26.499c8.66699 0 15.334 0.666992 20.001 2c12 -3.33301 22.667 -8.16602 32 -14.499s14 -16.833 14 -31.5v-109c10.667 0 19.334 0.666992 26.001 2c2 0 3.83301 0.5 5.5 1.5s4.16699 1.5 7.5 1.5h-3
c17.333 2 29.833 -1.16699 37.5 -9.5s13.167 -16.833 16.5 -25.5c0 -39.333 -12 -59 -36 -59h-105c-32 0 -48 15 -48 45v111l12 -13c-1.33301 0 -2.5 -0.5 -3.5 -1.5s-2.16699 -1.5 -3.5 -1.5c-8.66699 -2 -18.5 -4 -29.5 -6s-20.833 -3.66699 -29.5 -5l2 2
c-6.66699 -3.33301 -14.334 -5 -23.001 -5c-3.33301 0 -5.83301 -0.333008 -7.5 -1s-4.16699 -1 -7.5 -1l-8 -4h-13c-35.333 -1.33301 -63.333 -0.166016 -84 3.50098s-37 7.16699 -49 10.5l-38 20c-8.66699 1.33301 -13.667 3.66602 -15 6.99902l-3 4h3
c-19.333 16 -29 37 -29 63v105c0 32 16.333 48 49 48h13c1.33301 0 6.83301 -2.5 16.5 -7.5s16.834 -9.16699 21.501 -12.5c15.333 -11.333 33.333 -21.166 54 -29.499s43 -13.166 67 -14.499c42.667 0 78.5 13.833 107.5 41.5s44.167 59.834 45.5 96.501
c0 36.667 -14.833 68 -44.5 94s-65.834 39.667 -108.501 41c-19.333 0 -37 -3.66699 -53 -11s-33.333 -17.333 -52 -30c-10.667 -6 -18.167 -11.333 -22.5 -16s-9.83301 -11.334 -16.5 -20.001c5.33301 5.33301 6.33301 7.66602 3 6.99902s-7.66602 -3 -12.999 -7
c2 0 1 -2 -3 -6l-7 -8c-14 4 -26.5 9.16699 -37.5 15.5s-18.167 16.833 -21.5 31.5v3z" />
    <glyph glyph-name="uni1039_uni1000.liga" unicode="&#x1039;&#x1000;" horiz-adv-x="1207" 
d="M1098 -644c-81.333 -67.333 -167.332 -101 -257.999 -101c-14 0 -28.167 0.666992 -42.5 2s-32.5 5.33301 -54.5 12c-31.333 11.333 -47 31.666 -47 60.999c0 42.667 20.333 64 61 64c6.66699 0 15.5 -1.66699 26.5 -5s18.833 -5 23.5 -5
c73.333 -9.33301 142.333 14 207 70c43.333 36.667 65 84.667 65 144s-21.667 107.333 -65 144c-50.667 42.667 -111.334 64 -182.001 64s-131 -21.333 -181 -64c-38.667 -31.333 -61.334 -76.666 -68.001 -135.999v-19c0 -142.667 -61.667 -248.667 -185 -318
c-11.333 -4.66699 -22 -7 -32 -7c-42 0 -63 22.667 -63 68c0 23.333 11.667 41.333 35 54c72.667 38 111.667 101 117 189v28c-4 59.333 -29.5 108.333 -76.5 147s-105.833 58 -176.5 58c-70 0 -129.333 -20.833 -178 -62.5s-73 -93.834 -73 -156.501
c0 -85.333 44.333 -154.333 133 -207c19.333 -12.667 29 -29.334 29 -50.001c0 -44 -20.667 -66 -62 -66c-10.667 0 -20.667 2.66699 -30 8c-61.333 34 -109.666 80.833 -144.999 140.5s-53 117.834 -53 174.501c0 97.333 37.167 179 111.5 245s163.5 99 267.5 99
c140 0 245 -48.667 315 -146c70.667 97.333 175 146 313 146c102.667 0 191.167 -30.667 265.5 -92s111.5 -141.666 111.5 -240.999c0 -100 -36.333 -180.667 -109 -242zM133.001 384l-109 -18.999c-7.33301 28.667 -11 62.667 -11 102c0 18 0.833008 35.667 2.5 53
s4.5 34 8.5 50l109 -19c-3.33301 -13.333 -5.5 -27 -6.5 -41s-1.5 -28.333 -1.5 -43s0.5 -28.834 1.5 -42.501s3.16699 -27.167 6.5 -40.5zM282.001 170.001l-63 -91.999c-58.667 38 -106.334 86.667 -143.001 146l90 65c28.667 -48.667 67.334 -88.334 116.001 -119.001z
M868.001 224.002c-36.667 -59.333 -84.334 -108.001 -143.001 -146.001l-63 92c48.667 30.667 87.334 70.334 116.001 119.001zM282.001 764.001c-48.667 -30 -87.333 -69.334 -116 -118.001l-90 64c18 30.667 38.833 57.834 62.5 81.501s50.5 45.167 80.5 64.5z
M868.002 710l-90 -63.999c-29.333 48.667 -68 88 -116 118l63 92c30 -19.333 56.833 -40.833 80.5 -64.5s44.5 -50.834 62.5 -81.501zM931.002 467.001c0 -36 -3.66699 -70.001 -11 -102.001l-109 19c6.66699 26.667 10 54.334 10 83.001s-3.33301 56.667 -10 84l109 19
c7.33301 -32 11 -66.333 11 -103zM572.002 10c-37.333 -8 -70.667 -12 -100 -12c-30 0 -63.667 4 -101 12l18 111c14 -4 27.833 -6.5 41.5 -7.5s27.5 -1.5 41.5 -1.5s27.667 0.5 41 1.5s27 3.5 41 7.5zM572.001 925l-17.999 -111c-14 3.33301 -27.667 5.83301 -41 7.5
s-27 2.5 -41 2.5s-27.833 -0.833008 -41.5 -2.5s-27.5 -4.16699 -41.5 -7.5l-18 111c37.333 8 71 12 101 12c29.333 0 62.666 -4 99.999 -12z" />
    <glyph glyph-name="uni1039_uni1001.liga" unicode="&#x1039;&#x1001;" horiz-adv-x="1050" 
d="M826 -405c0 -96.667 -37.3359 -177.332 -112.003 -241.999s-164.667 -97 -270 -97c-147.333 0 -257.666 54.667 -330.999 164c-12.667 28 -21 57 -25 87c-3.33301 35.333 0.333984 57.666 11.001 66.999c78.667 57.333 160 86 244 86c64 0 124.667 -16.667 182 -50
s99.666 -79.333 126.999 -138c30.667 36.667 46 77.667 46 123c0 58.667 -24.5 108 -73.5 148s-109.167 60 -180.5 60c-74.667 0 -147.667 -32 -219 -96c-12.667 -23.333 -29.667 -35 -51 -35c-17.333 0 -33.166 6.83301 -47.499 20.5s-21.5 29.5 -21.5 47.5
c0 10.667 2.66699 20.667 8 30v2c-1.33301 0 -1.33301 1.33301 0 4c7.33301 6.66699 19 19.334 35 38.001c80.667 78 179.334 117 296.001 117c109.333 0 200.333 -32.333 273 -97s109 -144.334 109 -239.001zM541.997 -598.998c-34.667 87.333 -100.002 131 -196.002 131
c-48 0 -95.333 -14.667 -142 -44c8.66699 2 15.667 2 21 0c2 -3.33301 8.33301 -10.333 19 -21c52.667 -54.667 119.334 -82 200.001 -82c34.667 0 67.334 5.33301 98.001 16zM132.995 384.002l-109 -18.999c-7.33301 28.667 -11 62.667 -11 102
c0 18 0.833008 35.667 2.5 53s4.5 34 8.5 50l109 -19c-3.33301 -13.333 -5.5 -27 -6.5 -41s-1.5 -28.333 -1.5 -43s0.5 -28.834 1.5 -42.501s3.16699 -27.167 6.5 -40.5zM281.995 170.003l-63 -91.999c-58.667 38 -106.334 86.667 -143.001 146l90 65
c28.667 -48.667 67.334 -88.334 116.001 -119.001zM867.995 224.004c-36.667 -59.333 -84.334 -108.001 -143.001 -146.001l-63 92c48.667 30.667 87.334 70.334 116.001 119.001zM281.995 764.003c-48.667 -30 -87.333 -69.334 -116 -118.001l-90 64
c18 30.667 38.833 57.834 62.5 81.501s50.5 45.167 80.5 64.5zM867.996 710.002l-90 -63.999c-29.333 48.667 -68 88 -116 118l63 92c30 -19.333 56.833 -40.833 80.5 -64.5s44.5 -50.834 62.5 -81.501zM930.996 467.003c0 -36 -3.66699 -70.001 -11 -102.001l-109 19
c6.66699 26.667 10 54.334 10 83.001s-3.33301 56.667 -10 84l109 19c7.33301 -32 11 -66.333 11 -103zM571.996 10.002c-37.333 -8 -70.667 -12 -100 -12c-30 0 -63.667 4 -101 12l18 111c14 -4 27.833 -6.5 41.5 -7.5s27.5 -1.5 41.5 -1.5s27.667 0.5 41 1.5
s27 3.5 41 7.5zM571.995 925.002l-17.999 -111c-14 3.33301 -27.667 5.83301 -41 7.5s-27 2.5 -41 2.5s-27.833 -0.833008 -41.5 -2.5s-27.5 -4.16699 -41.5 -7.5l-18 111c37.333 8 71 12 101 12c29.333 0 62.666 -4 99.999 -12z" />
    <glyph glyph-name="uni1039_uni1002.liga" unicode="&#x1039;&#x1002;" horiz-adv-x="1045" 
d="M831 -406c0 -123.333 -46.3311 -229.334 -138.998 -318.001c-12 -10.667 -26.333 -16 -43 -16c-43.333 0 -65 22.667 -65 68c0 16.667 7.33301 32 22 46c65.333 58 98 131.333 98 220c0 61.333 -22 109.333 -66 144c-48.667 42 -111 63 -187 63
c-70.667 0 -130.167 -19.167 -178.5 -57.5s-72.5 -88.166 -72.5 -149.499c0 -84.667 32.667 -158 98 -220c14.667 -14 22 -30.333 22 -49c0 -43.333 -21.667 -65 -65 -65c-14.667 0 -29.334 5.33301 -44.001 16c-92 84 -138 190 -138 318c0 103.333 39.667 188 119 254
c69.333 53.333 153.666 80 252.999 80c107.333 0 198.5 -29.833 273.5 -89.5s112.5 -141.167 112.5 -244.5zM133.002 383.999l-109 -18.999c-7.33301 28.667 -11 62.667 -11 102c0 18 0.833008 35.667 2.5 53s4.5 34 8.5 50l109 -19c-3.33301 -13.333 -5.5 -27 -6.5 -41
s-1.5 -28.333 -1.5 -43s0.5 -28.834 1.5 -42.501s3.16699 -27.167 6.5 -40.5zM282.002 170l-63 -91.999c-58.667 38 -106.334 86.667 -143.001 146l90 65c28.667 -48.667 67.334 -88.334 116.001 -119.001zM868.002 224.001
c-36.667 -59.333 -84.334 -108.001 -143.001 -146.001l-63 92c48.667 30.667 87.334 70.334 116.001 119.001zM282.002 764c-48.667 -30 -87.333 -69.334 -116 -118.001l-90 64c18 30.667 38.833 57.834 62.5 81.501s50.5 45.167 80.5 64.5zM868.003 709.999l-90 -63.999
c-29.333 48.667 -68 88 -116 118l63 92c30 -19.333 56.833 -40.833 80.5 -64.5s44.5 -50.834 62.5 -81.501zM931.003 467c0 -36 -3.66699 -70.001 -11 -102.001l-109 19c6.66699 26.667 10 54.334 10 83.001s-3.33301 56.667 -10 84l109 19c7.33301 -32 11 -66.333 11 -103z
M572.003 9.99902c-37.333 -8 -70.667 -12 -100 -12c-30 0 -63.667 4 -101 12l18 111c14 -4 27.833 -6.5 41.5 -7.5s27.5 -1.5 41.5 -1.5s27.667 0.5 41 1.5s27 3.5 41 7.5zM572.002 924.999l-17.999 -111c-14 3.33301 -27.667 5.83301 -41 7.5s-27 2.5 -41 2.5
s-27.833 -0.833008 -41.5 -2.5s-27.5 -4.16699 -41.5 -7.5l-18 111c37.333 8 71 12 101 12c29.333 0 62.666 -4 99.999 -12z" />
    <glyph glyph-name="uni1039_uni1003.liga" unicode="&#x1039;&#x1003;" horiz-adv-x="1205" 
d="M1082 -160c72.667 -61.333 109.006 -141.665 109.006 -240.998c0 -100.667 -37.333 -181.834 -112 -243.501s-162.667 -92.5 -264 -92.5c-136 0 -240.333 49 -313 147c-73.333 -98 -180 -148 -320 -150c-76 -1.33301 -148.5 22 -217.5 70s-114.5 102.667 -136.5 164
c-18 24 -21.667 57.667 -11 101c9.33301 32.667 23.666 57.167 42.999 73.5s31.666 26.333 36.999 30s20.166 9.16699 44.499 16.5s44.666 15.166 60.999 23.499s26.166 21.833 29.499 40.5c-8.66699 3.33301 -20.334 9.33301 -35.001 18c-45.333 20.667 -68 22.667 -68 6
c0 -42 -21.667 -64 -65 -66c-42 0 -63 22 -63 66c0 34 19 63 57 87s80 36 126 36c43.333 0 84 -15.167 122 -45.5s55.333 -67.166 52 -110.499c-4 -62 -35 -110.333 -93 -145c-26.667 -6.66699 -61 -19.334 -103 -38.001l-5 -2c-11.333 -12.667 -17 -24.667 -17 -36
c0 -18 -0.666992 -30 -2 -36c10.667 -32.667 40.834 -62 90.501 -88s100.834 -39 153.501 -39c71.333 0 131.166 19.5 179.499 58.5s74.166 88.167 77.499 147.5v28c-6 87.333 -45 151 -117 191c-24 12.667 -36 30.667 -36 54c0 45.333 20 68 60 68
c10.667 0 20.667 -2.33301 30 -7c127.333 -68 191 -174.667 191 -320v-19c6.66699 -56 28.667 -99.667 66 -131c52.667 -45.333 115 -68 187 -68c69.333 0 128.666 22 177.999 66c43.333 36 65 84.333 65 145c0 59.333 -21.667 107 -65 143c-64 54.667 -133 77.667 -207 69
c-6 0 -14 -1.33301 -24 -4s-17.333 -4 -22 -4c-42 0 -63 21.667 -63 65c0 27.333 14.667 47.333 44 60c12.667 5.33301 31.334 8 56.001 8c14.667 2 28.667 3 42 3c92 0 178 -33 258 -99zM133.006 384.001l-109 -18.999c-7.33301 28.667 -11 62.667 -11 102
c0 18 0.833008 35.667 2.5 53s4.5 34 8.5 50l109 -19c-3.33301 -13.333 -5.5 -27 -6.5 -41s-1.5 -28.333 -1.5 -43s0.5 -28.834 1.5 -42.501s3.16699 -27.167 6.5 -40.5zM282.006 170.002l-63 -91.999c-58.667 38 -106.334 86.667 -143.001 146l90 65
c28.667 -48.667 67.334 -88.334 116.001 -119.001zM868.006 224.003c-36.667 -59.333 -84.334 -108.001 -143.001 -146.001l-63 92c48.667 30.667 87.334 70.334 116.001 119.001zM282.006 764.002c-48.667 -30 -87.333 -69.334 -116 -118.001l-90 64
c18 30.667 38.833 57.834 62.5 81.501s50.5 45.167 80.5 64.5zM868.007 710.001l-90 -63.999c-29.333 48.667 -68 88 -116 118l63 92c30 -19.333 56.833 -40.833 80.5 -64.5s44.5 -50.834 62.5 -81.501zM931.007 467.002c0 -36 -3.66699 -70.001 -11 -102.001l-109 19
c6.66699 26.667 10 54.334 10 83.001s-3.33301 56.667 -10 84l109 19c7.33301 -32 11 -66.333 11 -103zM572.007 10.001c-37.333 -8 -70.667 -12 -100 -12c-30 0 -63.667 4 -101 12l18 111c14 -4 27.833 -6.5 41.5 -7.5s27.5 -1.5 41.5 -1.5s27.667 0.5 41 1.5
s27 3.5 41 7.5zM572.006 925.001l-17.999 -111c-14 3.33301 -27.667 5.83301 -41 7.5s-27 2.5 -41 2.5s-27.833 -0.833008 -41.5 -2.5s-27.5 -4.16699 -41.5 -7.5l-18 111c37.333 8 71 12 101 12c29.333 0 62.666 -4 99.999 -12z" />
    <glyph glyph-name="uni1039_uni1004.liga" unicode="&#x1039;&#x1004;" horiz-adv-x="1045" 
d="M744 -212l-3 -2.99902h-3v3c4 -7.33301 6.33301 -17 7 -29c0 -38 -17.667 -57 -53 -57c-20 0 -33.667 10.333 -41 31v6l-17 18c-47.333 56 -105.666 84 -174.999 84c-65.333 2.66699 -119 -20.333 -161 -69s-63 -103.667 -63 -165c0 -60 21 -114.5 63 -163.5
s95.667 -73.5 161 -73.5c78 -2 135.667 23.667 173 77c1.33301 3.33301 5.33301 10 12 20c8 26 24.667 39 50 39c33.333 0 50.333 -17 51 -51c0 -16 -10 -39.333 -30 -70c-54 -82.667 -139.333 -124 -256 -124c-89.333 0 -165.833 34 -229.5 102s-95.5 149.333 -95.5 244
c0 92.667 29.667 172.167 89 238.5s138 100.166 236 101.499c104.667 2 189 -38.333 253 -121l16 -21c1.33301 -1.33301 4.66602 -5.33301 9.99902 -12l3 -3c0 -1.33301 1 -2 3 -2zM133 384.001l-109 -18.999c-7.33301 28.667 -11 62.667 -11 102
c0 18 0.833008 35.667 2.5 53s4.5 34 8.5 50l109 -19c-3.33301 -13.333 -5.5 -27 -6.5 -41s-1.5 -28.333 -1.5 -43s0.5 -28.834 1.5 -42.501s3.16699 -27.167 6.5 -40.5zM282 170.002l-63 -91.999c-58.667 38 -106.334 86.667 -143.001 146l90 65
c28.667 -48.667 67.334 -88.334 116.001 -119.001zM868 224.003c-36.667 -59.333 -84.334 -108.001 -143.001 -146.001l-63 92c48.667 30.667 87.334 70.334 116.001 119.001zM282 764.002c-48.667 -30 -87.333 -69.334 -116 -118.001l-90 64
c18 30.667 38.833 57.834 62.5 81.501s50.5 45.167 80.5 64.5zM868.001 710.001l-90 -63.999c-29.333 48.667 -68 88 -116 118l63 92c30 -19.333 56.833 -40.833 80.5 -64.5s44.5 -50.834 62.5 -81.501zM931.001 467.002c0 -36 -3.66699 -70.001 -11 -102.001l-109 19
c6.66699 26.667 10 54.334 10 83.001s-3.33301 56.667 -10 84l109 19c7.33301 -32 11 -66.333 11 -103zM572.001 10.001c-37.333 -8 -70.667 -12 -100 -12c-30 0 -63.667 4 -101 12l18 111c14 -4 27.833 -6.5 41.5 -7.5s27.5 -1.5 41.5 -1.5s27.667 0.5 41 1.5
s27 3.5 41 7.5zM572 925.001l-17.999 -111c-14 3.33301 -27.667 5.83301 -41 7.5s-27 2.5 -41 2.5s-27.833 -0.833008 -41.5 -2.5s-27.5 -4.16699 -41.5 -7.5l-18 111c37.333 8 71 12 101 12c29.333 0 62.666 -4 99.999 -12z" />
    <glyph glyph-name="uni1039_uni1005.liga" unicode="&#x1039;&#x1005;" horiz-adv-x="1050" 
d="M816 -436c0 -88 -35.333 -162 -106 -222c-76 -62 -164 -93 -264 -93c-98.667 0 -185.167 30.833 -259.5 92.5s-111.5 143.167 -111.5 244.5c0 98 35.333 177.667 106 239c81.333 66.667 175.333 100 282 100c108 0 193.833 -37.833 257.5 -113.5
s95.5 -158.167 95.5 -247.5zM628 -561c42 34.667 62.999 77.334 62.999 128.001c0 58 -22.667 113.333 -68 166c-38 46.667 -91.333 70 -160 70c-22 0 -44 -2.66699 -66 -8c66 -56.667 99 -127.334 99 -212.001c0 -81.333 -31.667 -150 -95 -206c16 -1.33301 31 -2 45 -2
c70.667 0 131.334 21.333 182.001 64zM367.999 -417c0 61.333 -35.333 109.333 -106 144c-39.333 -34.667 -59 -80.667 -59 -138c0 -63.333 21.667 -114 65 -152c66.667 38 100 86.667 100 146zM132.999 384l-109 -18.999c-7.33301 28.667 -11 62.667 -11 102
c0 18 0.833008 35.667 2.5 53s4.5 34 8.5 50l109 -19c-3.33301 -13.333 -5.5 -27 -6.5 -41s-1.5 -28.333 -1.5 -43s0.5 -28.834 1.5 -42.501s3.16699 -27.167 6.5 -40.5zM281.999 170.001l-63 -91.999c-58.667 38 -106.334 86.667 -143.001 146l90 65
c28.667 -48.667 67.334 -88.334 116.001 -119.001zM867.999 224.002c-36.667 -59.333 -84.334 -108.001 -143.001 -146.001l-63 92c48.667 30.667 87.334 70.334 116.001 119.001zM281.999 764.001c-48.667 -30 -87.333 -69.334 -116 -118.001l-90 64
c18 30.667 38.833 57.834 62.5 81.501s50.5 45.167 80.5 64.5zM868 710l-90 -63.999c-29.333 48.667 -68 88 -116 118l63 92c30 -19.333 56.833 -40.833 80.5 -64.5s44.5 -50.834 62.5 -81.501zM931 467.001c0 -36 -3.66699 -70.001 -11 -102.001l-109 19
c6.66699 26.667 10 54.334 10 83.001s-3.33301 56.667 -10 84l109 19c7.33301 -32 11 -66.333 11 -103zM572 10c-37.333 -8 -70.667 -12 -100 -12c-30 0 -63.667 4 -101 12l18 111c14 -4 27.833 -6.5 41.5 -7.5s27.5 -1.5 41.5 -1.5s27.667 0.5 41 1.5s27 3.5 41 7.5z
M571.999 925l-17.999 -111c-14 3.33301 -27.667 5.83301 -41 7.5s-27 2.5 -41 2.5s-27.833 -0.833008 -41.5 -2.5s-27.5 -4.16699 -41.5 -7.5l-18 111c37.333 8 71 12 101 12c29.333 0 62.666 -4 99.999 -12z" />
    <glyph glyph-name="uni1039_uni1006.liga" unicode="&#x1039;&#x1006;" horiz-adv-x="1126" 
d="M1121 -400c2 -96.667 -37.333 -177.667 -118 -243c-74 -57.333 -161 -86.666 -261 -87.999c-128.667 -2 -232 43.333 -310 136c-74.667 -90.667 -178.667 -137 -312 -139c-110 -2 -204.667 35.667 -284 113c-10.667 16 -29.667 40 -57 72
c-10 10.667 -16.333 23.334 -19 38.001c0 18 10.333 35 31 51c64.667 54 134.334 82 209.001 84c140 3.33301 239.333 -55.334 298 -176.001c30.667 24 54 58.333 70 103c0 21.333 -1 37.666 -3 48.999c0 19.333 1 35.333 3 48c-34 102 -116.667 153 -248 153
c-74.667 0 -145 -30.333 -211 -91c-10.667 -20 -27 -32 -49 -36c-17.333 0 -33.333 7.33301 -48 22c-12.667 9.33301 -19.667 24.333 -21 45c0 9.33301 2.33301 19.666 7 30.999l-2 2l2 3c6 4.66699 18 17.334 36 38.001c73.333 74.667 168.666 112 285.999 112
c131.333 0 235.333 -45.333 312 -136c74 90.667 177.333 137 310 139c102.667 2 191 -27.5 265 -88.5s112 -141.5 114 -241.5zM994 -400c2 64 -24.668 114.999 -80.001 152.999c-48 33.333 -105.333 50 -172 50c-127.333 0 -208 -51.667 -242 -155c0 -22 1 -38 3 -48
c0 -20 -2 -36.333 -6 -49c34.667 -104 115.334 -156.667 242.001 -158c68.667 -2 128 15.833 178 53.5s75.667 88.834 77 153.501zM181.999 -602.001c-22.667 42.667 -59.333 72 -110 88c-52.667 18 -103.667 14.667 -153 -10c50.667 -54 117.667 -81.667 201 -83
c25.333 0 46 1.66699 62 5zM133 383.999l-109 -18.999c-7.33301 28.667 -11 62.667 -11 102c0 18 0.833008 35.667 2.5 53s4.5 34 8.5 50l109 -19c-3.33301 -13.333 -5.5 -27 -6.5 -41s-1.5 -28.333 -1.5 -43s0.5 -28.834 1.5 -42.501s3.16699 -27.167 6.5 -40.5zM282 170
l-63 -91.999c-58.667 38 -106.334 86.667 -143.001 146l90 65c28.667 -48.667 67.334 -88.334 116.001 -119.001zM868 224.001c-36.667 -59.333 -84.334 -108.001 -143.001 -146.001l-63 92c48.667 30.667 87.334 70.334 116.001 119.001zM282 764
c-48.667 -30 -87.333 -69.334 -116 -118.001l-90 64c18 30.667 38.833 57.834 62.5 81.501s50.5 45.167 80.5 64.5zM868.001 709.999l-90 -63.999c-29.333 48.667 -68 88 -116 118l63 92c30 -19.333 56.833 -40.833 80.5 -64.5s44.5 -50.834 62.5 -81.501zM931.001 467
c0 -36 -3.66699 -70.001 -11 -102.001l-109 19c6.66699 26.667 10 54.334 10 83.001s-3.33301 56.667 -10 84l109 19c7.33301 -32 11 -66.333 11 -103zM572.001 9.99902c-37.333 -8 -70.667 -12 -100 -12c-30 0 -63.667 4 -101 12l18 111c14 -4 27.833 -6.5 41.5 -7.5
s27.5 -1.5 41.5 -1.5s27.667 0.5 41 1.5s27 3.5 41 7.5zM572 924.999l-17.999 -111c-14 3.33301 -27.667 5.83301 -41 7.5s-27 2.5 -41 2.5s-27.833 -0.833008 -41.5 -2.5s-27.5 -4.16699 -41.5 -7.5l-18 111c37.333 8 71 12 101 12c29.333 0 62.666 -4 99.999 -12z" />
    <glyph glyph-name="uni1039_uni1007.liga" unicode="&#x1039;&#x1007;" horiz-adv-x="1050" 
d="M839 -529c0 -16.667 -8.00098 -31.833 -24.001 -45.5s-31 -20.5 -45 -20.5c-18.667 0 -35 10.333 -49 31l-35 48c-39.333 -19.333 -97 -29 -173 -29c-44.667 0 -87.167 16.5 -127.5 49.5s-60.5 71.167 -60.5 114.5c0 42.667 20 76.667 60 102
c34 21.333 73.333 32.666 118 33.999c56 2 110 -19.333 162 -64c-7.33301 20 -18.333 35 -33 45c-55.333 43.333 -117.333 65 -186 65c-64.667 0 -120 -17.667 -166 -53c-54 -40 -81 -90.333 -81 -151c0 -62.667 27.667 -114 83 -154
c50.667 -35.333 108.334 -53.666 173.001 -54.999c51.333 -2.66699 92.333 7.66602 123 30.999c9.33301 3.33301 22 7.33301 38 12c42.667 0 64 -20.667 64 -62c0 -36.667 -31 -64.667 -93 -84c-43.333 -14 -89.333 -21 -138 -21c-98.667 -2.66699 -186 28 -262 92
s-115 145.333 -117 244c-2 94.667 37.667 174.334 119 239.001c71.333 57.333 156.333 86.666 255 87.999c91.333 2.66699 179.333 -26.666 264 -87.999c19.333 -14.667 38.5 -43.5 57.5 -86.5s29.167 -77.833 30.5 -104.5c2 -22 -5 -47.333 -21 -76
c42.667 -49.333 64 -83 64 -101zM598.999 -413.999c-16 14 -34.332 26.667 -54.999 38c-50.667 16 -82.334 11.333 -95.001 -14c-8.66699 -19.333 15 -30 71 -32c28.667 0 55 2.66699 79 8zM133 384.001l-109 -18.999c-7.33301 28.667 -11 62.667 -11 102
c0 18 0.833008 35.667 2.5 53s4.5 34 8.5 50l109 -19c-3.33301 -13.333 -5.5 -27 -6.5 -41s-1.5 -28.333 -1.5 -43s0.5 -28.834 1.5 -42.501s3.16699 -27.167 6.5 -40.5zM282 170.002l-63 -91.999c-58.667 38 -106.334 86.667 -143.001 146l90 65
c28.667 -48.667 67.334 -88.334 116.001 -119.001zM868 224.003c-36.667 -59.333 -84.334 -108.001 -143.001 -146.001l-63 92c48.667 30.667 87.334 70.334 116.001 119.001zM282 764.002c-48.667 -30 -87.333 -69.334 -116 -118.001l-90 64
c18 30.667 38.833 57.834 62.5 81.501s50.5 45.167 80.5 64.5zM868.001 710.001l-90 -63.999c-29.333 48.667 -68 88 -116 118l63 92c30 -19.333 56.833 -40.833 80.5 -64.5s44.5 -50.834 62.5 -81.501zM931.001 467.002c0 -36 -3.66699 -70.001 -11 -102.001l-109 19
c6.66699 26.667 10 54.334 10 83.001s-3.33301 56.667 -10 84l109 19c7.33301 -32 11 -66.333 11 -103zM572.001 10.001c-37.333 -8 -70.667 -12 -100 -12c-30 0 -63.667 4 -101 12l18 111c14 -4 27.833 -6.5 41.5 -7.5s27.5 -1.5 41.5 -1.5s27.667 0.5 41 1.5
s27 3.5 41 7.5zM572 925.001l-17.999 -111c-14 3.33301 -27.667 5.83301 -41 7.5s-27 2.5 -41 2.5s-27.833 -0.833008 -41.5 -2.5s-27.5 -4.16699 -41.5 -7.5l-18 111c37.333 8 71 12 101 12c29.333 0 62.666 -4 99.999 -12z" />
    <glyph glyph-name="uni1039_uni1008.liga" unicode="&#x1039;&#x1008;" horiz-adv-x="1126" 
d="M1134 -677c0 -51.333 -20.333 -76.998 -61 -76.998c-14 0 -24.333 2 -31 6l-348 94c-68.667 -56 -150.667 -84 -246 -84s-177.333 28 -246 84c-73.333 60 -110 137 -110 231c0 97.333 37.667 176.666 113 237.999c70 56 155.333 85 256 87
c94 1.33301 172.5 -31.167 235.5 -97.5s95.5 -147.5 97.5 -243.5c0 -28.667 -5.33301 -59.334 -16 -92.001l210 -51v1407c0 47.333 24.667 72 74 74c48 2 72 -22.667 72 -74v-1502zM617 -558.998c37.333 30.667 57.001 71.6689 59.001 123.002
c1.33301 49.333 -20 101.333 -64 156c-32.667 40.667 -82.334 62 -149.001 64c-16.667 0 -38 -2.66699 -64 -8c62 -50.667 93 -116.334 93 -197.001c0 -76.667 -30 -142.334 -90 -197.001c17.333 0 31 -0.666992 41 -2c64.667 0 122.667 20.333 174 61zM371.001 -420.996
c0 54.667 -33.334 100.001 -100.001 136.001c-32 -30.667 -49 -79.334 -51 -146.001c-1.33301 -60 18.334 -106 59.001 -138c20.667 10 41.167 31.667 61.5 65s30.5 61 30.5 83zM133 384.005l-109 -18.999c-7.33301 28.667 -11 62.667 -11 102c0 18 0.833008 35.667 2.5 53
s4.5 34 8.5 50l109 -19c-3.33301 -13.333 -5.5 -27 -6.5 -41s-1.5 -28.333 -1.5 -43s0.5 -28.834 1.5 -42.501s3.16699 -27.167 6.5 -40.5zM282 170.006l-63 -91.999c-58.667 38 -106.334 86.667 -143.001 146l90 65c28.667 -48.667 67.334 -88.334 116.001 -119.001z
M868 224.007c-36.667 -59.333 -84.334 -108.001 -143.001 -146.001l-63 92c48.667 30.667 87.334 70.334 116.001 119.001zM282 764.006c-48.667 -30 -87.333 -69.334 -116 -118.001l-90 64c18 30.667 38.833 57.834 62.5 81.501s50.5 45.167 80.5 64.5zM868.001 710.005
l-90 -63.999c-29.333 48.667 -68 88 -116 118l63 92c30 -19.333 56.833 -40.833 80.5 -64.5s44.5 -50.834 62.5 -81.501zM931.001 467.006c0 -36 -3.66699 -70.001 -11 -102.001l-109 19c6.66699 26.667 10 54.334 10 83.001s-3.33301 56.667 -10 84l109 19
c7.33301 -32 11 -66.333 11 -103zM572.001 10.0049c-37.333 -8 -70.667 -12 -100 -12c-30 0 -63.667 4 -101 12l18 111c14 -4 27.833 -6.5 41.5 -7.5s27.5 -1.5 41.5 -1.5s27.667 0.5 41 1.5s27 3.5 41 7.5zM572 925.005l-17.999 -111c-14 3.33301 -27.667 5.83301 -41 7.5
s-27 2.5 -41 2.5s-27.833 -0.833008 -41.5 -2.5s-27.5 -4.16699 -41.5 -7.5l-18 111c37.333 8 71 12 101 12c29.333 0 62.666 -4 99.999 -12z" />
    <glyph glyph-name="uni1039_uni1009.liga" unicode="&#x1039;&#x1009;" horiz-adv-x="1126" 
d="M1020 -627l-0.000976562 -23.999c0 -62.667 -34.667 -94 -104 -94h-634c-126.667 0 -190 52 -190 156v165c0 25.333 24.667 38 74 38c11.333 0 19.666 -2 24.999 -6c29.333 -34 79 -51 149 -51c49.333 -2 93.666 12.5 132.999 43.5s59.666 70.5 60.999 118.5
c0 47.333 -21 86.666 -63 117.999c-38 25.333 -81.667 38 -131 38c-62 0 -113.667 -19 -155 -57l-13 -11c0 -6 -4.16699 -11.667 -12.5 -17s-16.166 -8 -23.499 -8c-27.333 0 -42.666 12.667 -45.999 38c0 5.33301 1.66699 11 5 17l-3 2h3h-3l3 3l25 25
c52.667 52.667 126 80 220 82c70.667 0 135 -20.5 193 -61.5s87 -97.167 87 -168.5c1.33301 -68 -29 -126 -91 -174c-55.333 -40 -118.333 -60.667 -189 -62c-57.333 0 -110.666 12.333 -159.999 37v-109c0 -34 7.33301 -56.667 22 -68s41.334 -17 80.001 -17h634
c11.333 0 17 13 17 39s15.333 39 46 39c24 0 37.667 -10.333 41 -31zM132.999 384.001l-109 -18.999c-7.33301 28.667 -11 62.667 -11 102c0 18 0.833008 35.667 2.5 53s4.5 34 8.5 50l109 -19c-3.33301 -13.333 -5.5 -27 -6.5 -41s-1.5 -28.333 -1.5 -43
s0.5 -28.834 1.5 -42.501s3.16699 -27.167 6.5 -40.5zM281.999 170.002l-63 -91.999c-58.667 38 -106.334 86.667 -143.001 146l90 65c28.667 -48.667 67.334 -88.334 116.001 -119.001zM867.999 224.003c-36.667 -59.333 -84.334 -108.001 -143.001 -146.001l-63 92
c48.667 30.667 87.334 70.334 116.001 119.001zM281.999 764.002c-48.667 -30 -87.333 -69.334 -116 -118.001l-90 64c18 30.667 38.833 57.834 62.5 81.501s50.5 45.167 80.5 64.5zM868 710.001l-90 -63.999c-29.333 48.667 -68 88 -116 118l63 92
c30 -19.333 56.833 -40.833 80.5 -64.5s44.5 -50.834 62.5 -81.501zM931 467.002c0 -36 -3.66699 -70.001 -11 -102.001l-109 19c6.66699 26.667 10 54.334 10 83.001s-3.33301 56.667 -10 84l109 19c7.33301 -32 11 -66.333 11 -103zM572 10.001
c-37.333 -8 -70.667 -12 -100 -12c-30 0 -63.667 4 -101 12l18 111c14 -4 27.833 -6.5 41.5 -7.5s27.5 -1.5 41.5 -1.5s27.667 0.5 41 1.5s27 3.5 41 7.5zM571.999 925.001l-17.999 -111c-14 3.33301 -27.667 5.83301 -41 7.5s-27 2.5 -41 2.5s-27.833 -0.833008 -41.5 -2.5
s-27.5 -4.16699 -41.5 -7.5l-18 111c37.333 8 71 12 101 12c29.333 0 62.666 -4 99.999 -12z" />
    <glyph glyph-name="uni1039_uni100A.liga" unicode="&#x1039;&#x100a;" horiz-adv-x="1126" 
d="M1085 -621c0 -40.667 -20.332 -73 -60.999 -97c-32.667 -18.667 -72.667 -28 -120 -28h-942c-38 0 -76.667 11.667 -116 35c-44 27.333 -66 58.333 -66 93v221l102 31c44.667 -66.667 120.667 -101.667 228 -105c60 -2 114.667 11.667 164 41c56 32.667 85 77 87 133
c2 56.667 -27 101 -87 133c-48 27.333 -102.667 42 -164 44c-102.667 3.33301 -178.667 -31.667 -228 -105l-105 30c61.333 99.333 173.333 149.666 336 150.999c88.667 2 167 -17.333 235 -58c82 -46.667 123 -111.667 123 -195c0 -51.333 30.667 -94 92 -128
c48 -25.333 101.667 -39.666 161 -42.999c53.333 -2 109 12.333 167 43c51.333 29.333 78.666 73 81.999 131c1.33301 56 -27 100.333 -85 133c-47.333 25.333 -102 39 -164 41c-42.667 1.33301 -81 -5.66699 -115 -21l-48 74c50.667 15.333 105 23 163 23
c90.667 0 170.334 -19.333 239.001 -58c81.333 -46.667 122 -111.667 122 -195c0 -80 -41.667 -144 -125 -192c-70 -40.667 -148.667 -61 -236 -61c-134.667 0 -237 40 -307 120c-66.667 -76.667 -168 -116 -304 -118c-80.667 -1.33301 -154.334 15 -221.001 49v-119
c0 -32.667 24 -49 72 -49h940c46 0 69 15.333 69 46v64h112v-64zM133.001 384l-109 -18.999c-7.33301 28.667 -11 62.667 -11 102c0 18 0.833008 35.667 2.5 53s4.5 34 8.5 50l109 -19c-3.33301 -13.333 -5.5 -27 -6.5 -41s-1.5 -28.333 -1.5 -43s0.5 -28.834 1.5 -42.501
s3.16699 -27.167 6.5 -40.5zM282.001 170.001l-63 -91.999c-58.667 38 -106.334 86.667 -143.001 146l90 65c28.667 -48.667 67.334 -88.334 116.001 -119.001zM868.001 224.002c-36.667 -59.333 -84.334 -108.001 -143.001 -146.001l-63 92
c48.667 30.667 87.334 70.334 116.001 119.001zM282.001 764.001c-48.667 -30 -87.333 -69.334 -116 -118.001l-90 64c18 30.667 38.833 57.834 62.5 81.501s50.5 45.167 80.5 64.5zM868.002 710l-90 -63.999c-29.333 48.667 -68 88 -116 118l63 92
c30 -19.333 56.833 -40.833 80.5 -64.5s44.5 -50.834 62.5 -81.501zM931.002 467.001c0 -36 -3.66699 -70.001 -11 -102.001l-109 19c6.66699 26.667 10 54.334 10 83.001s-3.33301 56.667 -10 84l109 19c7.33301 -32 11 -66.333 11 -103zM572.002 10
c-37.333 -8 -70.667 -12 -100 -12c-30 0 -63.667 4 -101 12l18 111c14 -4 27.833 -6.5 41.5 -7.5s27.5 -1.5 41.5 -1.5s27.667 0.5 41 1.5s27 3.5 41 7.5zM572.001 925l-17.999 -111c-14 3.33301 -27.667 5.83301 -41 7.5s-27 2.5 -41 2.5s-27.833 -0.833008 -41.5 -2.5
s-27.5 -4.16699 -41.5 -7.5l-18 111c37.333 8 71 12 101 12c29.333 0 62.666 -4 99.999 -12z" />
    <glyph glyph-name="uni1039_uni100E.liga" unicode="&#x1039;&#x100e;" horiz-adv-x="1040" 
d="M834 -380c0 -108 -39.833 -194.168 -119.5 -258.501s-174.167 -96.5 -283.5 -96.5c-84 0 -160 24.333 -228 73c-74.667 51.333 -114 117.666 -118 198.999c-2 66 32 111.333 102 136c55.333 20 84 47 86 81c1.33301 18 -17.667 28 -57 30c-3.33301 0 -18.333 -1 -45 -3
c-8.66699 0 -21 -1 -37 -3c-50.667 0 -77 26 -79 78c-1.33301 44.667 23 68.667 73 72c55.333 4.66699 114.333 -6.66602 177 -33.999c73.333 -32.667 112.666 -78.334 117.999 -137.001c0 -34 -28.667 -67.667 -86 -101s-90.333 -68.666 -99 -105.999
c-5.33301 -44.667 17 -79.334 67 -104.001c37.333 -18 81.333 -28.333 132 -31c62.667 -1.33301 119 17.334 169 56.001s75 88.334 75 149.001c0 84 -39.667 147.667 -119 191c-24.667 14 -39 35.333 -43 64c0 53.333 25.333 80 76 80c10.667 0 23.334 -3.33301 38.001 -10
c134 -70 201 -178.333 201 -325zM133 383.999l-109 -18.999c-7.33301 28.667 -11 62.667 -11 102c0 18 0.833008 35.667 2.5 53s4.5 34 8.5 50l109 -19c-3.33301 -13.333 -5.5 -27 -6.5 -41s-1.5 -28.333 -1.5 -43s0.5 -28.834 1.5 -42.501s3.16699 -27.167 6.5 -40.5z
M282 170l-63 -91.999c-58.667 38 -106.334 86.667 -143.001 146l90 65c28.667 -48.667 67.334 -88.334 116.001 -119.001zM868 224.001c-36.667 -59.333 -84.334 -108.001 -143.001 -146.001l-63 92c48.667 30.667 87.334 70.334 116.001 119.001zM282 764
c-48.667 -30 -87.333 -69.334 -116 -118.001l-90 64c18 30.667 38.833 57.834 62.5 81.501s50.5 45.167 80.5 64.5zM868.001 709.999l-90 -63.999c-29.333 48.667 -68 88 -116 118l63 92c30 -19.333 56.833 -40.833 80.5 -64.5s44.5 -50.834 62.5 -81.501zM931.001 467
c0 -36 -3.66699 -70.001 -11 -102.001l-109 19c6.66699 26.667 10 54.334 10 83.001s-3.33301 56.667 -10 84l109 19c7.33301 -32 11 -66.333 11 -103zM572.001 9.99902c-37.333 -8 -70.667 -12 -100 -12c-30 0 -63.667 4 -101 12l18 111c14 -4 27.833 -6.5 41.5 -7.5
s27.5 -1.5 41.5 -1.5s27.667 0.5 41 1.5s27 3.5 41 7.5zM572 924.999l-17.999 -111c-14 3.33301 -27.667 5.83301 -41 7.5s-27 2.5 -41 2.5s-27.833 -0.833008 -41.5 -2.5s-27.5 -4.16699 -41.5 -7.5l-18 111c37.333 8 71 12 101 12c29.333 0 62.666 -4 99.999 -12z" />
    <glyph glyph-name="uni1039_uni100B.liga" unicode="&#x1039;&#x100b;" horiz-adv-x="1126" 
d="M705 -180c0 -10.667 -3.83398 -19.834 -11.501 -27.501s-17.834 -12.167 -30.501 -13.5l-14 11c-7.33301 9.33301 -17.666 21.333 -30.999 36c-39.333 33.333 -85.666 51 -138.999 53c-50 0 -91.667 -16.333 -125 -49s-50 -74 -50 -124c0 -48 17.167 -89.833 51.5 -125.5
s75.5 -53.5 123.5 -53.5c56 0 101.667 20.667 137 62c1.33301 0 5 3.66699 11 11c7.33301 16.667 19.333 25 36 25c24 0 38 -14 42 -42c0 -8.66699 -8.33301 -23.667 -25 -45c-46.667 -58.667 -113.667 -88 -201 -88c-70.667 -2 -131 22.5 -181 73.5s-75 111.833 -75 182.5
c0 72.667 24.5 133 73.5 181s109.833 72 182.5 72c39.333 0 79.333 -9.33301 120 -28c28 -14.667 55 -35 81 -61l13 -16c4 -9.33301 8 -20.666 12 -33.999zM760.999 -755l-112 0.000976562c-26 0 -39 13.333 -39 40l3 80c-36 -12.667 -79.667 -20 -131 -22
c-76 -2 -147.333 19.333 -214 64c-10 5.33301 -16 15.666 -18 30.999c0 28 13 42 39 42c10 0 17.667 -2 23 -6c50 -35.333 106.667 -53 170 -53c51.333 0 88.333 8.33301 111 25l31 25c11.333 9.33301 22.333 14 33 14c22.667 0 34 -15 34 -45v-116h70
c26 0 39.667 -13 41 -39c0 -26.667 -13.667 -40 -41 -40zM132.999 384.001l-109 -18.999c-7.33301 28.667 -11 62.667 -11 102c0 18 0.833008 35.667 2.5 53s4.5 34 8.5 50l109 -19c-3.33301 -13.333 -5.5 -27 -6.5 -41s-1.5 -28.333 -1.5 -43s0.5 -28.834 1.5 -42.501
s3.16699 -27.167 6.5 -40.5zM281.999 170.002l-63 -91.999c-58.667 38 -106.334 86.667 -143.001 146l90 65c28.667 -48.667 67.334 -88.334 116.001 -119.001zM867.999 224.003c-36.667 -59.333 -84.334 -108.001 -143.001 -146.001l-63 92
c48.667 30.667 87.334 70.334 116.001 119.001zM281.999 764.002c-48.667 -30 -87.333 -69.334 -116 -118.001l-90 64c18 30.667 38.833 57.834 62.5 81.501s50.5 45.167 80.5 64.5zM868 710.001l-90 -63.999c-29.333 48.667 -68 88 -116 118l63 92
c30 -19.333 56.833 -40.833 80.5 -64.5s44.5 -50.834 62.5 -81.501zM931 467.002c0 -36 -3.66699 -70.001 -11 -102.001l-109 19c6.66699 26.667 10 54.334 10 83.001s-3.33301 56.667 -10 84l109 19c7.33301 -32 11 -66.333 11 -103zM572 10.001
c-37.333 -8 -70.667 -12 -100 -12c-30 0 -63.667 4 -101 12l18 111c14 -4 27.833 -6.5 41.5 -7.5s27.5 -1.5 41.5 -1.5s27.667 0.5 41 1.5s27 3.5 41 7.5zM571.999 925.001l-17.999 -111c-14 3.33301 -27.667 5.83301 -41 7.5s-27 2.5 -41 2.5s-27.833 -0.833008 -41.5 -2.5
s-27.5 -4.16699 -41.5 -7.5l-18 111c37.333 8 71 12 101 12c29.333 0 62.666 -4 99.999 -12z" />
    <glyph glyph-name="uni1039_uni100C.liga" unicode="&#x1039;&#x100c;" horiz-adv-x="1126" 
d="M117 -731c-78.667 0 -138.666 19.6689 -179.999 59.002s-62 100.666 -62 183.999v284c0 46.667 23 84.334 69 113.001c40 24.667 87.333 37 142 37c61.333 0 111.5 -20.167 150.5 -60.5s58.5 -91.833 58.5 -154.5c0 -64 -22 -120 -66 -168c-12 -12 -25.667 -18 -41 -18
c-14.667 0 -27.834 5.83301 -39.501 17.5s-17.5 24.834 -17.5 39.501s5.33301 28 16 40c26 24 39 53.667 39 89c0 46 -18.333 78.667 -55 98c-18.667 9.33301 -41.334 14 -68.001 14c-50.667 0 -76 -15.667 -76 -47v-284c0 -50.667 9.33301 -85.167 28 -103.5
s52.667 -27.5 102 -27.5h341c-42 61.333 -63 130 -63 206c0 97.333 36 181.166 108 251.499s157.333 105.5 256 105.5c99.333 0 183.166 -34.167 251.499 -102.5s102.5 -153.166 102.5 -254.499c0 -112.667 -42.333 -205.667 -127 -279c-10 -7.33301 -23.667 -18 -41 -32
c-1.33301 0 -2 0.666992 -2 2c-10.667 -6.66699 -21.667 -10 -33 -10c-36.667 0 -55 18.667 -55 56c0 19.333 10 35.666 30 48.999c2 2 4 2 6 0c0 -1.33301 -1 -2.33301 -3 -3c-0.666992 -2.66699 -1.66699 -2.66699 -3 0c-2 0 -2 0.333008 0 1l6 5l21 19
c60 49.333 90 113.333 90 192c0 70 -23.5 128.5 -70.5 175.5s-104.5 70.5 -172.5 70.5c-67.333 0 -126.166 -24.333 -176.499 -73s-75.5 -106.334 -75.5 -173.001c0 -80 26 -141.667 78 -185c9.33301 -4.66699 14 -16.334 14 -35.001
c0 -20.667 -6.16699 -42.167 -18.5 -64.5s-27.166 -33.5 -44.499 -33.5h-419zM133.001 384.002l-109 -18.999c-7.33301 28.667 -11 62.667 -11 102c0 18 0.833008 35.667 2.5 53s4.5 34 8.5 50l109 -19c-3.33301 -13.333 -5.5 -27 -6.5 -41s-1.5 -28.333 -1.5 -43
s0.5 -28.834 1.5 -42.501s3.16699 -27.167 6.5 -40.5zM282.001 170.003l-63 -91.999c-58.667 38 -106.334 86.667 -143.001 146l90 65c28.667 -48.667 67.334 -88.334 116.001 -119.001zM868.001 224.004c-36.667 -59.333 -84.334 -108.001 -143.001 -146.001l-63 92
c48.667 30.667 87.334 70.334 116.001 119.001zM282.001 764.003c-48.667 -30 -87.333 -69.334 -116 -118.001l-90 64c18 30.667 38.833 57.834 62.5 81.501s50.5 45.167 80.5 64.5zM868.002 710.002l-90 -63.999c-29.333 48.667 -68 88 -116 118l63 92
c30 -19.333 56.833 -40.833 80.5 -64.5s44.5 -50.834 62.5 -81.501zM931.002 467.003c0 -36 -3.66699 -70.001 -11 -102.001l-109 19c6.66699 26.667 10 54.334 10 83.001s-3.33301 56.667 -10 84l109 19c7.33301 -32 11 -66.333 11 -103zM572.002 10.002
c-37.333 -8 -70.667 -12 -100 -12c-30 0 -63.667 4 -101 12l18 111c14 -4 27.833 -6.5 41.5 -7.5s27.5 -1.5 41.5 -1.5s27.667 0.5 41 1.5s27 3.5 41 7.5zM572.001 925.002l-17.999 -111c-14 3.33301 -27.667 5.83301 -41 7.5s-27 2.5 -41 2.5s-27.833 -0.833008 -41.5 -2.5
s-27.5 -4.16699 -41.5 -7.5l-18 111c37.333 8 71 12 101 12c29.333 0 62.666 -4 99.999 -12z" />
    <glyph glyph-name="uni1039_uni100D.liga" unicode="&#x1039;&#x100d;" horiz-adv-x="1078" 
d="M241 -169c0 6 1.66699 11.6689 5 17.002l-3 3c0 -9.33301 1 -7.66602 3 5.00098c14.667 29.333 48 58 100 86c36.667 18 76.334 27 119.001 27c72 0 132.5 -23.833 181.5 -71.5s73.5 -107.5 73.5 -179.5c1.33301 -70 -23.334 -129.833 -74.001 -179.5
s-111 -74.5 -181 -74.5c-57.333 -2.66699 -105.333 12.666 -144 45.999v-64c35.333 -23.333 80.333 -35 135 -35c33.333 0 87 14.667 161 44c4 0 10.667 1 20 3c21.333 0 32 -14 32 -42v-88l53 5c26 4 39.667 -6.66699 41 -32c0 -33.333 -8.33301 -50 -25 -50h-110
c-26 0 -39 12.667 -39 38v77c-24 -6.66699 -67.333 -16.667 -130 -30c-75.333 -2 -127.666 7.33301 -156.999 28l-34 25c-16.667 13.333 -25 34.666 -25 63.999v124c0 26 13 39 39 39h14c13.333 0 23.333 -4.66699 30 -14c35.333 -38.667 81.666 -59.334 138.999 -62.001
c48 0 89 17.667 123 53s52 77 54 125c0 48 -17.5 88.667 -52.5 122s-76.5 51 -124.5 53c-40.667 0 -87 -21.333 -139 -64l-44 -39c-24 0 -37.667 13.667 -41 41zM133 384.002l-109 -18.999c-7.33301 28.667 -11 62.667 -11 102c0 18 0.833008 35.667 2.5 53s4.5 34 8.5 50
l109 -19c-3.33301 -13.333 -5.5 -27 -6.5 -41s-1.5 -28.333 -1.5 -43s0.5 -28.834 1.5 -42.501s3.16699 -27.167 6.5 -40.5zM282 170.003l-63 -91.999c-58.667 38 -106.334 86.667 -143.001 146l90 65c28.667 -48.667 67.334 -88.334 116.001 -119.001zM868 224.004
c-36.667 -59.333 -84.334 -108.001 -143.001 -146.001l-63 92c48.667 30.667 87.334 70.334 116.001 119.001zM282 764.003c-48.667 -30 -87.333 -69.334 -116 -118.001l-90 64c18 30.667 38.833 57.834 62.5 81.501s50.5 45.167 80.5 64.5zM868.001 710.002l-90 -63.999
c-29.333 48.667 -68 88 -116 118l63 92c30 -19.333 56.833 -40.833 80.5 -64.5s44.5 -50.834 62.5 -81.501zM931.001 467.003c0 -36 -3.66699 -70.001 -11 -102.001l-109 19c6.66699 26.667 10 54.334 10 83.001s-3.33301 56.667 -10 84l109 19
c7.33301 -32 11 -66.333 11 -103zM572.001 10.002c-37.333 -8 -70.667 -12 -100 -12c-30 0 -63.667 4 -101 12l18 111c14 -4 27.833 -6.5 41.5 -7.5s27.5 -1.5 41.5 -1.5s27.667 0.5 41 1.5s27 3.5 41 7.5zM572 925.002l-17.999 -111c-14 3.33301 -27.667 5.83301 -41 7.5
s-27 2.5 -41 2.5s-27.833 -0.833008 -41.5 -2.5s-27.5 -4.16699 -41.5 -7.5l-18 111c37.333 8 71 12 101 12c29.333 0 62.666 -4 99.999 -12z" />
    <glyph glyph-name="uni1039_uni100F.liga" unicode="&#x1039;&#x100f;" horiz-adv-x="1232" 
d="M1155 -191c44.667 -55.333 66.998 -121.333 66.998 -198c2 -128 -52.333 -224 -163 -288c-64 -37.333 -134.333 -56 -211 -56c-110.667 0 -166.667 28 -168 84c-1.33301 50.667 23.334 77 74.001 79c9.33301 0 17.333 -1 24 -3c70 -19.333 135.833 -11.333 197.5 24
s93.167 88.666 94.5 159.999c1.33301 66.667 -30.667 119.334 -96 158.001c-36 22 -79 33 -129 33c-54.667 0 -101.667 -13.667 -141 -41c-14.667 -3.33301 -32.667 -16 -54 -38c-1.33301 -4.66699 -5.66602 -12.667 -12.999 -24l-11 -21
c-10.667 -17.333 -17.667 -39.666 -21 -66.999c0 -34 7 -62.333 21 -85c5.33301 -10 9 -22.333 11 -37v-41c0 -49.333 -19.167 -91.5 -57.5 -126.5s-82.5 -53.167 -132.5 -54.5c-49.333 -2 -93.166 15.333 -131.499 52s-57.5 79.667 -57.5 129v43c0 20 2.66699 33.667 8 41
c16 20.667 24 47 24 79c0 14 -8 36.333 -24 67l-4 14c-8.66699 8 -14.667 16 -18 24l-3 6c-14 20 -42.333 37.667 -85 53s-79 23 -109 23c-80 0 -143 -28.333 -189 -85c-21.333 -26 -33 -58 -35 -96c-2 -66.667 32 -119.334 102 -158.001c63.333 -37.333 127 -48 191 -32
c8.66699 0 16.667 1 24 3c48.667 0 73.667 -26.333 75 -79c1.33301 -52 -50.334 -79.333 -155.001 -82c-77.333 -1.33301 -152 19 -224 61c-106.667 64.667 -161.334 160.334 -164.001 287.001c0 72.667 22 136.667 66 192c72.667 91.333 177.334 137.666 314.001 138.999
c85.333 2 158.333 -16.667 219 -56l21 -13c38 48 89.667 72.667 155 74c62 2 113 -23.667 153 -77l24 16c56.667 37.333 129.667 57 219 59c134 1.33301 238 -46 312 -142zM486.998 -535c-20.667 38.667 -31 87.332 -31 145.999c0 38 10.333 80 31 126v41
c0 13.333 -13.333 22 -40 26c-26.667 0 -40 -8.66699 -40 -26v-43c21.333 -43.333 32 -84.666 32 -123.999c0 -48 -10.667 -93.333 -32 -136v-27c0 -20.667 13.333 -31 40 -31s40 10.333 40 31v17zM132.998 383.998l-109 -18.999c-7.33301 28.667 -11 62.667 -11 102
c0 18 0.833008 35.667 2.5 53s4.5 34 8.5 50l109 -19c-3.33301 -13.333 -5.5 -27 -6.5 -41s-1.5 -28.333 -1.5 -43s0.5 -28.834 1.5 -42.501s3.16699 -27.167 6.5 -40.5zM281.998 169.999l-63 -91.999c-58.667 38 -106.334 86.667 -143.001 146l90 65
c28.667 -48.667 67.334 -88.334 116.001 -119.001zM867.998 224c-36.667 -59.333 -84.334 -108.001 -143.001 -146.001l-63 92c48.667 30.667 87.334 70.334 116.001 119.001zM281.998 763.999c-48.667 -30 -87.333 -69.334 -116 -118.001l-90 64
c18 30.667 38.833 57.834 62.5 81.501s50.5 45.167 80.5 64.5zM867.999 709.998l-90 -63.999c-29.333 48.667 -68 88 -116 118l63 92c30 -19.333 56.833 -40.833 80.5 -64.5s44.5 -50.834 62.5 -81.501zM930.999 466.999c0 -36 -3.66699 -70.001 -11 -102.001l-109 19
c6.66699 26.667 10 54.334 10 83.001s-3.33301 56.667 -10 84l109 19c7.33301 -32 11 -66.333 11 -103zM571.999 9.99805c-37.333 -8 -70.667 -12 -100 -12c-30 0 -63.667 4 -101 12l18 111c14 -4 27.833 -6.5 41.5 -7.5s27.5 -1.5 41.5 -1.5s27.667 0.5 41 1.5
s27 3.5 41 7.5zM571.998 924.998l-17.999 -111c-14 3.33301 -27.667 5.83301 -41 7.5s-27 2.5 -41 2.5s-27.833 -0.833008 -41.5 -2.5s-27.5 -4.16699 -41.5 -7.5l-18 111c37.333 8 71 12 101 12c29.333 0 62.666 -4 99.999 -12z" />
    <glyph glyph-name="uni1039_uni1010.liga" unicode="&#x1039;&#x1010;" horiz-adv-x="1126" 
d="M980 -403c0 62.667 -26.667 114.334 -80 155.001c-48.667 33.333 -106 51 -172 53c-56 2 -108.333 -13.333 -157 -46s-82 -74 -100 -124c0 -14.667 1 -26.667 3 -36c0 -94 -36.167 -173.333 -108.5 -238s-162.833 -97 -271.5 -97c-100.667 0 -188.5 31.167 -263.5 93.5
s-113.167 142.833 -114.5 241.5c-2.66699 99.333 36 181 116 245c72 55.333 159.333 84 262 86c135.333 1.33301 241.333 -46.667 318 -144c75.333 97.333 180 146 314 146c100.667 0 189.5 -31.5 266.5 -94.5s116.167 -144.167 117.5 -243.5
c2 -103.333 -43 -186.333 -135 -249c-82.667 -56.667 -177.334 -83.667 -284.001 -81c-62 1.33301 -93.667 17.333 -95 48c0 23.333 6.33301 40 19 50s31.667 15 57 15c64.667 -1.33301 122.334 10.667 173.001 36c90 45.333 135 106.666 135 183.999zM344 -436
c-2 22 -1.99902 45.668 0.000976562 71.001c-9.33301 54 -40 96.333 -92 127c-45.333 25.333 -98 38.666 -158 39.999c-64.667 2 -121.334 -14.667 -170.001 -50c-54 -38.667 -81 -89.667 -81 -153c0 -62.667 27 -114 81 -154c47.333 -36 104 -55 170 -57
c60 -2 113.833 13 161.5 45s77.167 75.667 88.5 131zM133.001 384.001l-109 -18.999c-7.33301 28.667 -11 62.667 -11 102c0 18 0.833008 35.667 2.5 53s4.5 34 8.5 50l109 -19c-3.33301 -13.333 -5.5 -27 -6.5 -41s-1.5 -28.333 -1.5 -43s0.5 -28.834 1.5 -42.501
s3.16699 -27.167 6.5 -40.5zM282.001 170.002l-63 -91.999c-58.667 38 -106.334 86.667 -143.001 146l90 65c28.667 -48.667 67.334 -88.334 116.001 -119.001zM868.001 224.003c-36.667 -59.333 -84.334 -108.001 -143.001 -146.001l-63 92
c48.667 30.667 87.334 70.334 116.001 119.001zM282.001 764.002c-48.667 -30 -87.333 -69.334 -116 -118.001l-90 64c18 30.667 38.833 57.834 62.5 81.501s50.5 45.167 80.5 64.5zM868.002 710.001l-90 -63.999c-29.333 48.667 -68 88 -116 118l63 92
c30 -19.333 56.833 -40.833 80.5 -64.5s44.5 -50.834 62.5 -81.501zM931.002 467.002c0 -36 -3.66699 -70.001 -11 -102.001l-109 19c6.66699 26.667 10 54.334 10 83.001s-3.33301 56.667 -10 84l109 19c7.33301 -32 11 -66.333 11 -103zM572.002 10.001
c-37.333 -8 -70.667 -12 -100 -12c-30 0 -63.667 4 -101 12l18 111c14 -4 27.833 -6.5 41.5 -7.5s27.5 -1.5 41.5 -1.5s27.667 0.5 41 1.5s27 3.5 41 7.5zM572.001 925.001l-17.999 -111c-14 3.33301 -27.667 5.83301 -41 7.5s-27 2.5 -41 2.5s-27.833 -0.833008 -41.5 -2.5
s-27.5 -4.16699 -41.5 -7.5l-18 111c37.333 8 71 12 101 12c29.333 0 62.666 -4 99.999 -12z" />
    <glyph glyph-name="uni1039_uni1011.liga" unicode="&#x1039;&#x1011;" horiz-adv-x="1145" 
d="M1141 -406c1.33301 -101.333 -36.502 -183.001 -113.502 -245.001s-167.167 -93 -270.5 -93c-131.333 0 -234.666 47.333 -309.999 142c-76.667 -92.667 -182 -140 -316 -142c-102 -2 -189.667 28.833 -263 92.5s-110.666 145.5 -111.999 245.5
c-2.66699 100 35.333 181.333 114 244c70.667 56.667 157.667 85.667 261 87c132.667 2.66699 238 -43.333 316 -138c74 92 177.333 138 310 138c107.333 0 196 -28 266 -84c76.667 -61.333 116 -143.666 118 -246.999zM1012 -406.001
c0 67.333 -27.001 119.001 -81.001 155.001c-45.333 30.667 -103.333 47 -174 49c-132.667 2 -214.667 -51.667 -246 -161c0 -18 1.33301 -32.333 4 -43c0 -18.667 -1.33301 -33.334 -4 -44.001c13.333 -52.667 44.333 -94.667 93 -126c44 -26.667 95 -41 153 -43
c66.667 -1.33301 125.834 17.5 177.501 56.5s77.5 91.167 77.5 156.5zM380.997 -363c-23.333 104 -106.669 157.663 -250.002 160.996c-65.333 2 -122.666 -15.667 -171.999 -53s-74.666 -87.666 -75.999 -150.999c-2 -64 22.5 -115 73.5 -153s109.167 -58 174.5 -60
c58 -1.33301 110.5 12.834 157.5 42.501s77.833 71.834 92.5 126.501c0 18.667 -0.666992 33.334 -2 44.001c0 18 0.666992 32.333 2 43zM132.994 383.996l-109 -18.999c-7.33301 28.667 -11 62.667 -11 102c0 18 0.833008 35.667 2.5 53s4.5 34 8.5 50l109 -19
c-3.33301 -13.333 -5.5 -27 -6.5 -41s-1.5 -28.333 -1.5 -43s0.5 -28.834 1.5 -42.501s3.16699 -27.167 6.5 -40.5zM281.994 169.997l-63 -91.999c-58.667 38 -106.334 86.667 -143.001 146l90 65c28.667 -48.667 67.334 -88.334 116.001 -119.001zM867.994 223.998
c-36.667 -59.333 -84.334 -108.001 -143.001 -146.001l-63 92c48.667 30.667 87.334 70.334 116.001 119.001zM281.994 763.997c-48.667 -30 -87.333 -69.334 -116 -118.001l-90 64c18 30.667 38.833 57.834 62.5 81.501s50.5 45.167 80.5 64.5zM867.995 709.996
l-90 -63.999c-29.333 48.667 -68 88 -116 118l63 92c30 -19.333 56.833 -40.833 80.5 -64.5s44.5 -50.834 62.5 -81.501zM930.995 466.997c0 -36 -3.66699 -70.001 -11 -102.001l-109 19c6.66699 26.667 10 54.334 10 83.001s-3.33301 56.667 -10 84l109 19
c7.33301 -32 11 -66.333 11 -103zM571.995 9.99609c-37.333 -8 -70.667 -12 -100 -12c-30 0 -63.667 4 -101 12l18 111c14 -4 27.833 -6.5 41.5 -7.5s27.5 -1.5 41.5 -1.5s27.667 0.5 41 1.5s27 3.5 41 7.5zM571.994 924.996l-17.999 -111
c-14 3.33301 -27.667 5.83301 -41 7.5s-27 2.5 -41 2.5s-27.833 -0.833008 -41.5 -2.5s-27.5 -4.16699 -41.5 -7.5l-18 111c37.333 8 71 12 101 12c29.333 0 62.666 -4 99.999 -12z" />
    <glyph glyph-name="uni1039_uni1012.liga" unicode="&#x1039;&#x1012;" horiz-adv-x="1126" 
d="M428 -740c-162.667 -5.33301 -268.668 48.335 -318.001 161.002c0 5.33301 -2 14.666 -6 27.999c0 37.333 21 57 63 59c25.333 1.33301 44.333 -11.334 57 -38.001c27.333 -56 95.333 -84 204 -84c127.333 0 195.333 25 204 75c7.33301 37.333 -18.667 61 -78 71
c-7.33301 0 -13.666 -1 -18.999 -3h-55c-40 0 -60.667 21 -62 63c-2 44 18.667 66 62 66h68c65.333 6.66699 93.333 29.334 84 68.001c-12.667 59.333 -80.667 90 -204 92c-117.333 1.33301 -184 -29.334 -200 -92.001c-6 -32.667 -27 -50 -63 -52c-18.667 0 -35 8 -49 24
c-11.333 10.667 -16 28.667 -14 54c32.667 126.667 141.334 190 326.001 190c84 0 156.667 -16.667 218 -50c76 -42 115 -101.333 117 -178c1.33301 -46.667 -18.334 -88 -59.001 -124c37.333 -38.667 56 -79.667 56 -123c0 -132 -110.667 -201 -332 -207zM132.999 384.001
l-109 -18.999c-7.33301 28.667 -11 62.667 -11 102c0 18 0.833008 35.667 2.5 53s4.5 34 8.5 50l109 -19c-3.33301 -13.333 -5.5 -27 -6.5 -41s-1.5 -28.333 -1.5 -43s0.5 -28.834 1.5 -42.501s3.16699 -27.167 6.5 -40.5zM281.999 170.002l-63 -91.999
c-58.667 38 -106.334 86.667 -143.001 146l90 65c28.667 -48.667 67.334 -88.334 116.001 -119.001zM867.999 224.003c-36.667 -59.333 -84.334 -108.001 -143.001 -146.001l-63 92c48.667 30.667 87.334 70.334 116.001 119.001zM281.999 764.002
c-48.667 -30 -87.333 -69.334 -116 -118.001l-90 64c18 30.667 38.833 57.834 62.5 81.501s50.5 45.167 80.5 64.5zM868 710.001l-90 -63.999c-29.333 48.667 -68 88 -116 118l63 92c30 -19.333 56.833 -40.833 80.5 -64.5s44.5 -50.834 62.5 -81.501zM931 467.002
c0 -36 -3.66699 -70.001 -11 -102.001l-109 19c6.66699 26.667 10 54.334 10 83.001s-3.33301 56.667 -10 84l109 19c7.33301 -32 11 -66.333 11 -103zM572 10.001c-37.333 -8 -70.667 -12 -100 -12c-30 0 -63.667 4 -101 12l18 111c14 -4 27.833 -6.5 41.5 -7.5
s27.5 -1.5 41.5 -1.5s27.667 0.5 41 1.5s27 3.5 41 7.5zM571.999 925.001l-17.999 -111c-14 3.33301 -27.667 5.83301 -41 7.5s-27 2.5 -41 2.5s-27.833 -0.833008 -41.5 -2.5s-27.5 -4.16699 -41.5 -7.5l-18 111c37.333 8 71 12 101 12c29.333 0 62.666 -4 99.999 -12z" />
    <glyph glyph-name="uni1039_uni1013.liga" unicode="&#x1039;&#x1013;" horiz-adv-x="1126" 
d="M832 -404c1.33301 -100 -39.001 -183.333 -121.001 -250c-74.667 -59.333 -163 -89 -265 -89c-102.667 0 -191.5 31.5 -266.5 94.5s-113.167 144.5 -114.5 244.5c-2 100.667 37.333 182 118 244c72.667 58 160.334 88 263.001 90c103.333 2 193 -27.5 269 -88.5
s115 -142.833 117 -245.5zM702.999 -404c2 66 -25.667 118.001 -83 156.001c-46.667 31.333 -104.667 47.666 -174 48.999c-66.667 2 -125.5 -15.667 -176.5 -53s-76.5 -88 -76.5 -152c0 -29.333 6.66699 -57.666 20 -84.999c56 62 132.667 94 230 96
c94.667 2 174.667 -30 240 -96c13.333 27.333 20 55.666 20 84.999zM592.999 -576.999c-34.667 35.333 -84.667 53.667 -150 55c-53.333 2 -101 -18 -143 -60c46 -22 94.667 -33.667 146 -35c46.667 -2 95.667 11.333 147 40zM132.999 384.002l-109 -18.999
c-7.33301 28.667 -11 62.667 -11 102c0 18 0.833008 35.667 2.5 53s4.5 34 8.5 50l109 -19c-3.33301 -13.333 -5.5 -27 -6.5 -41s-1.5 -28.333 -1.5 -43s0.5 -28.834 1.5 -42.501s3.16699 -27.167 6.5 -40.5zM281.999 170.003l-63 -91.999
c-58.667 38 -106.334 86.667 -143.001 146l90 65c28.667 -48.667 67.334 -88.334 116.001 -119.001zM867.999 224.004c-36.667 -59.333 -84.334 -108.001 -143.001 -146.001l-63 92c48.667 30.667 87.334 70.334 116.001 119.001zM281.999 764.003
c-48.667 -30 -87.333 -69.334 -116 -118.001l-90 64c18 30.667 38.833 57.834 62.5 81.501s50.5 45.167 80.5 64.5zM868 710.002l-90 -63.999c-29.333 48.667 -68 88 -116 118l63 92c30 -19.333 56.833 -40.833 80.5 -64.5s44.5 -50.834 62.5 -81.501zM931 467.003
c0 -36 -3.66699 -70.001 -11 -102.001l-109 19c6.66699 26.667 10 54.334 10 83.001s-3.33301 56.667 -10 84l109 19c7.33301 -32 11 -66.333 11 -103zM572 10.002c-37.333 -8 -70.667 -12 -100 -12c-30 0 -63.667 4 -101 12l18 111c14 -4 27.833 -6.5 41.5 -7.5
s27.5 -1.5 41.5 -1.5s27.667 0.5 41 1.5s27 3.5 41 7.5zM571.999 925.002l-17.999 -111c-14 3.33301 -27.667 5.83301 -41 7.5s-27 2.5 -41 2.5s-27.833 -0.833008 -41.5 -2.5s-27.5 -4.16699 -41.5 -7.5l-18 111c37.333 8 71 12 101 12c29.333 0 62.666 -4 99.999 -12z" />
    <glyph glyph-name="uni1039_uni1014.liga" unicode="&#x1039;&#x1014;" horiz-adv-x="1050" 
d="M868 -695c0 -43.333 -21.0039 -66.001 -63.0039 -68.001c-9.33301 0 -54 22 -134 66c-77.333 -31.333 -173.666 -44.333 -288.999 -39c-211.333 11.333 -318.666 83.666 -321.999 216.999c-1.33301 53.333 17.167 97.5 55.5 132.5s83.833 52.5 136.5 52.5
c91.333 0 209.666 -55 354.999 -165c5.33301 -6 22 -17.333 50 -34v20c-6 38.667 -33 70.667 -81 96c-14 7.33301 -61.667 19.333 -143 36c-88 16 -147.333 48 -178 96c-9.33301 20 -15.666 43.667 -18.999 71c0 102.667 64 154 192 154c58.667 0 108 -13.667 148 -41
c4.66699 -5.33301 10.334 -10.666 17.001 -15.999c26 -7.33301 40.667 -26.666 44 -57.999c0 -44 -20.333 -67 -61 -69c-7.33301 0 -21.666 4.66699 -42.999 14l-6 5c-38 24 -71 36 -99 36c-23.333 0 -44.333 -6.66699 -63 -20v-5c9.33301 -14 76 -35 200 -63
c130.667 -33.333 203 -107.333 217 -222c4.66699 -29.333 -0.666016 -63.333 -15.999 -102c15.333 -7.33301 37.666 -19.333 66.999 -36c20 -14 31.667 -33.333 35 -58zM526.996 -604.001h-2c-33.333 27.333 -87.333 63.333 -162 108
c-38.667 21.333 -74.667 33.666 -108 36.999c-22 0 -40 -8.66699 -54 -26c-33.333 -40.667 -17 -73 49 -97c38.667 -14.667 85 -23.667 139 -27c48 -3.33301 94 -1.66602 138 5.00098zM132.996 383.999l-109 -18.999c-7.33301 28.667 -11 62.667 -11 102
c0 18 0.833008 35.667 2.5 53s4.5 34 8.5 50l109 -19c-3.33301 -13.333 -5.5 -27 -6.5 -41s-1.5 -28.333 -1.5 -43s0.5 -28.834 1.5 -42.501s3.16699 -27.167 6.5 -40.5zM281.996 170l-63 -91.999c-58.667 38 -106.334 86.667 -143.001 146l90 65
c28.667 -48.667 67.334 -88.334 116.001 -119.001zM867.996 224.001c-36.667 -59.333 -84.334 -108.001 -143.001 -146.001l-63 92c48.667 30.667 87.334 70.334 116.001 119.001zM281.996 764c-48.667 -30 -87.333 -69.334 -116 -118.001l-90 64
c18 30.667 38.833 57.834 62.5 81.501s50.5 45.167 80.5 64.5zM867.997 709.999l-90 -63.999c-29.333 48.667 -68 88 -116 118l63 92c30 -19.333 56.833 -40.833 80.5 -64.5s44.5 -50.834 62.5 -81.501zM930.997 467c0 -36 -3.66699 -70.001 -11 -102.001l-109 19
c6.66699 26.667 10 54.334 10 83.001s-3.33301 56.667 -10 84l109 19c7.33301 -32 11 -66.333 11 -103zM571.997 9.99902c-37.333 -8 -70.667 -12 -100 -12c-30 0 -63.667 4 -101 12l18 111c14 -4 27.833 -6.5 41.5 -7.5s27.5 -1.5 41.5 -1.5s27.667 0.5 41 1.5
s27 3.5 41 7.5zM571.996 924.999l-17.999 -111c-14 3.33301 -27.667 5.83301 -41 7.5s-27 2.5 -41 2.5s-27.833 -0.833008 -41.5 -2.5s-27.5 -4.16699 -41.5 -7.5l-18 111c37.333 8 71 12 101 12c29.333 0 62.666 -4 99.999 -12z" />
    <glyph glyph-name="uni1039_uni1015.liga" unicode="&#x1039;&#x1015;" horiz-adv-x="1055" 
d="M829 -398c2 -102.667 -35.499 -186.001 -112.499 -250.001s-167.5 -96 -271.5 -96c-104.667 0 -194.5 32 -269.5 96s-113.5 147.333 -115.5 250c-1.33301 135.333 65.667 242.333 201 321c8.66699 5.33301 18.667 8 30 8c40.667 0 61.667 -22 63 -66
c2 -21.333 -8 -38.666 -30 -51.999c-88 -52.667 -133 -123 -135 -211c-1.33301 -66 25.334 -120 80.001 -162c49.333 -37.333 108 -56.666 176 -57.999c69.333 -2 129.166 18.167 179.499 60.5s75.5 95.5 75.5 159.5c0 88 -45 157.333 -135 208
c-23.333 11.333 -36 29.666 -38 54.999c0 44 22.667 66.667 68 68c9.33301 0 19.666 -2.33301 30.999 -7c133.333 -71.333 201 -179.333 203 -324zM133.001 383.999l-109 -18.999c-7.33301 28.667 -11 62.667 -11 102c0 18 0.833008 35.667 2.5 53s4.5 34 8.5 50l109 -19
c-3.33301 -13.333 -5.5 -27 -6.5 -41s-1.5 -28.333 -1.5 -43s0.5 -28.834 1.5 -42.501s3.16699 -27.167 6.5 -40.5zM282.001 170l-63 -91.999c-58.667 38 -106.334 86.667 -143.001 146l90 65c28.667 -48.667 67.334 -88.334 116.001 -119.001zM868.001 224.001
c-36.667 -59.333 -84.334 -108.001 -143.001 -146.001l-63 92c48.667 30.667 87.334 70.334 116.001 119.001zM282.001 764c-48.667 -30 -87.333 -69.334 -116 -118.001l-90 64c18 30.667 38.833 57.834 62.5 81.501s50.5 45.167 80.5 64.5zM868.002 709.999l-90 -63.999
c-29.333 48.667 -68 88 -116 118l63 92c30 -19.333 56.833 -40.833 80.5 -64.5s44.5 -50.834 62.5 -81.501zM931.002 467c0 -36 -3.66699 -70.001 -11 -102.001l-109 19c6.66699 26.667 10 54.334 10 83.001s-3.33301 56.667 -10 84l109 19c7.33301 -32 11 -66.333 11 -103z
M572.002 9.99902c-37.333 -8 -70.667 -12 -100 -12c-30 0 -63.667 4 -101 12l18 111c14 -4 27.833 -6.5 41.5 -7.5s27.5 -1.5 41.5 -1.5s27.667 0.5 41 1.5s27 3.5 41 7.5zM572.001 924.999l-17.999 -111c-14 3.33301 -27.667 5.83301 -41 7.5s-27 2.5 -41 2.5
s-27.833 -0.833008 -41.5 -2.5s-27.5 -4.16699 -41.5 -7.5l-18 111c37.333 8 71 12 101 12c29.333 0 62.666 -4 99.999 -12z" />
    <glyph glyph-name="uni1039_uni1016.liga" unicode="&#x1039;&#x1016;" horiz-adv-x="1060" 
d="M826 -395c0 -103.333 -36.832 -186.502 -110.499 -249.502s-163.834 -95.167 -270.501 -96.5c-105.333 -2 -195.333 29.333 -270 94s-113 148.667 -115 252c-2 64 15.667 125 53 183s85 102.667 143 134c9.33301 5.33301 19.666 8 30.999 8c40 0 60.667 -22 62 -66
c2 -21.333 -8 -38.333 -30 -51c-87.333 -51.333 -131 -120.666 -131 -207.999c0 -67.333 26.667 -122 80 -164c46.667 -36 105.667 -54.667 177 -56c68.667 -2 129.667 19.667 183 65c-93.333 32.667 -151 90.667 -173 174c-3.33301 10.667 -6.66602 38.334 -9.99902 83.001
c0 76 30.667 141.333 92 196c22 32.667 50 40 84 22c136.667 -69.333 205 -176 205 -320zM698.001 -395.002c0 68 -32.667 128 -98 180c-26.667 -38 -33 -80.333 -19 -127c12.667 -44.667 50 -75.667 112 -93c2 6.66699 3.66699 20 5 40zM133.001 383.998l-109 -18.999
c-7.33301 28.667 -11 62.667 -11 102c0 18 0.833008 35.667 2.5 53s4.5 34 8.5 50l109 -19c-3.33301 -13.333 -5.5 -27 -6.5 -41s-1.5 -28.333 -1.5 -43s0.5 -28.834 1.5 -42.501s3.16699 -27.167 6.5 -40.5zM282.001 169.999l-63 -91.999
c-58.667 38 -106.334 86.667 -143.001 146l90 65c28.667 -48.667 67.334 -88.334 116.001 -119.001zM868.001 224c-36.667 -59.333 -84.334 -108.001 -143.001 -146.001l-63 92c48.667 30.667 87.334 70.334 116.001 119.001zM282.001 763.999
c-48.667 -30 -87.333 -69.334 -116 -118.001l-90 64c18 30.667 38.833 57.834 62.5 81.501s50.5 45.167 80.5 64.5zM868.002 709.998l-90 -63.999c-29.333 48.667 -68 88 -116 118l63 92c30 -19.333 56.833 -40.833 80.5 -64.5s44.5 -50.834 62.5 -81.501zM931.002 466.999
c0 -36 -3.66699 -70.001 -11 -102.001l-109 19c6.66699 26.667 10 54.334 10 83.001s-3.33301 56.667 -10 84l109 19c7.33301 -32 11 -66.333 11 -103zM572.002 9.99805c-37.333 -8 -70.667 -12 -100 -12c-30 0 -63.667 4 -101 12l18 111c14 -4 27.833 -6.5 41.5 -7.5
s27.5 -1.5 41.5 -1.5s27.667 0.5 41 1.5s27 3.5 41 7.5zM572.001 924.998l-17.999 -111c-14 3.33301 -27.667 5.83301 -41 7.5s-27 2.5 -41 2.5s-27.833 -0.833008 -41.5 -2.5s-27.5 -4.16699 -41.5 -7.5l-18 111c37.333 8 71 12 101 12c29.333 0 62.666 -4 99.999 -12z" />
    <glyph glyph-name="uni1039_uni1017.liga" unicode="&#x1039;&#x1017;" horiz-adv-x="1045" 
d="M829 -406c2 -93.333 -32.833 -172.998 -104.5 -238.998s-163.167 -100 -274.5 -102c-106.667 -2 -196.167 28.333 -268.5 91s-109.5 146 -111.5 250c-1.33301 64 16 125.167 52 183.5s81.667 103.166 137 134.499c9.33301 3.33301 23.333 6.66602 42 9.99902
c32 0 48 -23 48 -69c0 -29.333 9 -54.333 27 -75s41.667 -31 71 -31c58 0 87 35.333 87 106c0 44.667 17.333 67.667 52 69c8 0 19.333 -2.33301 34 -7c63.333 -27.333 113.5 -70 150.5 -128s56.5 -122.333 58.5 -193zM702 -405.998c0 60 -22.001 111.666 -66.001 154.999
c-38 -86 -101 -129 -189 -129c-86.667 0 -152.667 41.333 -198 124c-32.667 -43.333 -50 -93.333 -52 -150c-1.33301 -64.667 25 -118 79 -160c48.667 -35.333 106.667 -54 174 -56c68.667 -2 127.834 17.833 177.501 59.5s74.5 93.834 74.5 156.501zM132.999 384.001
l-109 -18.999c-7.33301 28.667 -11 62.667 -11 102c0 18 0.833008 35.667 2.5 53s4.5 34 8.5 50l109 -19c-3.33301 -13.333 -5.5 -27 -6.5 -41s-1.5 -28.333 -1.5 -43s0.5 -28.834 1.5 -42.501s3.16699 -27.167 6.5 -40.5zM281.999 170.002l-63 -91.999
c-58.667 38 -106.334 86.667 -143.001 146l90 65c28.667 -48.667 67.334 -88.334 116.001 -119.001zM867.999 224.003c-36.667 -59.333 -84.334 -108.001 -143.001 -146.001l-63 92c48.667 30.667 87.334 70.334 116.001 119.001zM281.999 764.002
c-48.667 -30 -87.333 -69.334 -116 -118.001l-90 64c18 30.667 38.833 57.834 62.5 81.501s50.5 45.167 80.5 64.5zM868 710.001l-90 -63.999c-29.333 48.667 -68 88 -116 118l63 92c30 -19.333 56.833 -40.833 80.5 -64.5s44.5 -50.834 62.5 -81.501zM931 467.002
c0 -36 -3.66699 -70.001 -11 -102.001l-109 19c6.66699 26.667 10 54.334 10 83.001s-3.33301 56.667 -10 84l109 19c7.33301 -32 11 -66.333 11 -103zM572 10.001c-37.333 -8 -70.667 -12 -100 -12c-30 0 -63.667 4 -101 12l18 111c14 -4 27.833 -6.5 41.5 -7.5
s27.5 -1.5 41.5 -1.5s27.667 0.5 41 1.5s27 3.5 41 7.5zM571.999 925.001l-17.999 -111c-14 3.33301 -27.667 5.83301 -41 7.5s-27 2.5 -41 2.5s-27.833 -0.833008 -41.5 -2.5s-27.5 -4.16699 -41.5 -7.5l-18 111c37.333 8 71 12 101 12c29.333 0 62.666 -4 99.999 -12z" />
    <glyph glyph-name="uni1039_uni1018.liga" unicode="&#x1039;&#x1018;" horiz-adv-x="1160" 
d="M788 -734c-12 0 -25.5029 0.332031 -40.5029 0.999023s-35.667 5 -62 13s-40.166 26.333 -41.499 55c0 43.333 20.667 65 62 65c16 0 32 -3 48 -9c71.333 -6.66699 138.333 15 201 65c42.667 36 65 82.333 67 139c1.33301 61.333 -25 112.333 -79 153
c-46 37.333 -101 56 -165 56c-66 0 -126 -21.333 -180 -64c-35.333 -28.667 -56.666 -70.667 -63.999 -126v-17c0 -98 -39.333 -178 -118 -240c-71.333 -59.333 -158 -89 -260 -89c-114 0 -210.667 38.333 -290 115c-10 14.667 -22.333 28.334 -37 41.001l3 2
c-6 7.33301 -9 17.333 -9 30c0 17.333 7.33301 33.333 22 48c12.667 8.66699 29 15 49 19c21.333 0 37.333 -11.667 48 -35l5 -3c59.333 -59.333 129 -89.666 209 -90.999c70 -2 128.167 15.833 174.5 53.5s71.833 90.5 76.5 158.5
c-3.33301 62.667 -30.666 112.667 -81.999 150c-46.667 30.667 -103 46.667 -169 48c-88 2 -152.333 -20.333 -193 -67c-3.33301 0 -8.66602 -4.33301 -15.999 -13c-14 -28.667 -34.667 -44 -62 -46c-17.333 0 -32 7.66699 -44 23s-16 35.333 -12 60
c2 7.33301 12.667 25.333 32 54c64.667 74.667 163 113 295 115s236.333 -46.333 313 -145c70 96.667 172 145 306 145c102 0 189.667 -30.833 263 -92.5s110 -142.5 110 -242.5c0 -94.667 -35.833 -172.834 -107.5 -234.501s-155.834 -93.167 -252.501 -94.5z
M132.997 383.999l-109 -18.999c-7.33301 28.667 -11 62.667 -11 102c0 18 0.833008 35.667 2.5 53s4.5 34 8.5 50l109 -19c-3.33301 -13.333 -5.5 -27 -6.5 -41s-1.5 -28.333 -1.5 -43s0.5 -28.834 1.5 -42.501s3.16699 -27.167 6.5 -40.5zM281.997 170l-63 -91.999
c-58.667 38 -106.334 86.667 -143.001 146l90 65c28.667 -48.667 67.334 -88.334 116.001 -119.001zM867.997 224.001c-36.667 -59.333 -84.334 -108.001 -143.001 -146.001l-63 92c48.667 30.667 87.334 70.334 116.001 119.001zM281.997 764
c-48.667 -30 -87.333 -69.334 -116 -118.001l-90 64c18 30.667 38.833 57.834 62.5 81.501s50.5 45.167 80.5 64.5zM867.998 709.999l-90 -63.999c-29.333 48.667 -68 88 -116 118l63 92c30 -19.333 56.833 -40.833 80.5 -64.5s44.5 -50.834 62.5 -81.501zM930.998 467
c0 -36 -3.66699 -70.001 -11 -102.001l-109 19c6.66699 26.667 10 54.334 10 83.001s-3.33301 56.667 -10 84l109 19c7.33301 -32 11 -66.333 11 -103zM571.998 9.99902c-37.333 -8 -70.667 -12 -100 -12c-30 0 -63.667 4 -101 12l18 111c14 -4 27.833 -6.5 41.5 -7.5
s27.5 -1.5 41.5 -1.5s27.667 0.5 41 1.5s27 3.5 41 7.5zM571.997 924.999l-17.999 -111c-14 3.33301 -27.667 5.83301 -41 7.5s-27 2.5 -41 2.5s-27.833 -0.833008 -41.5 -2.5s-27.5 -4.16699 -41.5 -7.5l-18 111c37.333 8 71 12 101 12c29.333 0 62.666 -4 99.999 -12z" />
    <glyph glyph-name="uni1039_uni1019.liga" unicode="&#x1039;&#x1019;" horiz-adv-x="1040" 
d="M840 -386c2 -102.667 -35.5 -185.998 -112.5 -249.998s-167.167 -96.667 -270.5 -98c-58.667 -2.66699 -117 8.33301 -175 33s-104 61 -138 109c-46 62 -70 130.667 -72 206c-1.33301 51.333 16.667 109 54 173s86 112.333 146 145c9.33301 5.33301 19.333 8 30 8
c40.667 0 61.667 -22 63 -66c2.66699 -21.333 -7 -38.333 -29 -51c-88 -54 -133 -123.667 -135 -209c0 -18.667 2.66699 -38 8 -58c66 60.667 148.667 91.667 248 93c98 2 180 -29.667 246 -95c5.33301 17.333 8 37.333 8 60c0 89.333 -44.667 157.666 -134 204.999
c-24 13.333 -37 31.666 -39 54.999c0 44 22.667 66.667 68 68c9.33301 0 20 -2.33301 32 -7c132.667 -71.333 200 -178.333 202 -321zM626 -552.998c-44 48.667 -100.332 72.999 -168.999 72.999c-68 0 -126 -24.333 -174 -73c46 -35.333 104 -53.666 174 -54.999
c63.333 -2 119.666 16.333 168.999 55zM133.001 384.001l-109 -18.999c-7.33301 28.667 -11 62.667 -11 102c0 18 0.833008 35.667 2.5 53s4.5 34 8.5 50l109 -19c-3.33301 -13.333 -5.5 -27 -6.5 -41s-1.5 -28.333 -1.5 -43s0.5 -28.834 1.5 -42.501
s3.16699 -27.167 6.5 -40.5zM282.001 170.002l-63 -91.999c-58.667 38 -106.334 86.667 -143.001 146l90 65c28.667 -48.667 67.334 -88.334 116.001 -119.001zM868.001 224.003c-36.667 -59.333 -84.334 -108.001 -143.001 -146.001l-63 92
c48.667 30.667 87.334 70.334 116.001 119.001zM282.001 764.002c-48.667 -30 -87.333 -69.334 -116 -118.001l-90 64c18 30.667 38.833 57.834 62.5 81.501s50.5 45.167 80.5 64.5zM868.002 710.001l-90 -63.999c-29.333 48.667 -68 88 -116 118l63 92
c30 -19.333 56.833 -40.833 80.5 -64.5s44.5 -50.834 62.5 -81.501zM931.002 467.002c0 -36 -3.66699 -70.001 -11 -102.001l-109 19c6.66699 26.667 10 54.334 10 83.001s-3.33301 56.667 -10 84l109 19c7.33301 -32 11 -66.333 11 -103zM572.002 10.001
c-37.333 -8 -70.667 -12 -100 -12c-30 0 -63.667 4 -101 12l18 111c14 -4 27.833 -6.5 41.5 -7.5s27.5 -1.5 41.5 -1.5s27.667 0.5 41 1.5s27 3.5 41 7.5zM572.001 925.001l-17.999 -111c-14 3.33301 -27.667 5.83301 -41 7.5s-27 2.5 -41 2.5s-27.833 -0.833008 -41.5 -2.5
s-27.5 -4.16699 -41.5 -7.5l-18 111c37.333 8 71 12 101 12c29.333 0 62.666 -4 99.999 -12z" />
    <glyph glyph-name="uni1039_uni101A.liga" unicode="&#x1039;&#x101a;" 
d="M771 -734c-128.667 0 -233 53.667 -313 161c-73.333 -104.667 -179 -157 -317 -157c-100.667 0 -188.167 33.333 -262.5 100s-111.5 146.334 -111.5 239.001c0 60.667 18.333 120 55 178s82 102.333 136 133c4.66699 3.33301 15.334 6.66602 32.001 9.99902
c14 0 26.333 -5.33301 37 -16s16.667 -24 18 -40c0 -14 -8 -27.333 -24 -40c-92 -53.333 -138 -128.333 -138 -225c0 -69.333 25.833 -126.333 77.5 -171s111.834 -67 180.501 -67c66.667 0 125 20.833 175 62.5s77.333 95.834 82 162.501c2.66699 5.33301 2.66699 15 0 29
c-3.33301 92.667 -44.333 162.334 -123 209.001c-16 9.33301 -24.667 22.666 -26 39.999c0 36 18.667 54 56 54c10.667 0 21.334 -2.66699 32.001 -8c118 -64 178 -167.667 180 -311v-19c5.33301 -62.667 29.333 -113.334 72 -152.001c53.333 -46 115 -69 185 -69
c68.667 0 128.167 21.167 178.5 63.5s76.166 98.5 77.499 168.5c2 64 -23.833 118.833 -77.5 164.5s-112.5 68.5 -176.5 68.5c-10.667 0 -24.834 -2.33301 -42.501 -7s-30.5 -7 -38.5 -7c-36.667 0 -56 18 -58 54c0 23.333 14.333 40.333 43 51
c8.66699 0 27.334 2.66699 56.001 8c16 0 28.667 0.666992 38 2c97.333 0 183.166 -32 257.499 -96s112.166 -144 113.499 -240c0 -96.667 -37.5 -175.667 -112.5 -237s-162.167 -93.333 -261.5 -96zM133 384l-109 -18.999c-7.33301 28.667 -11 62.667 -11 102
c0 18 0.833008 35.667 2.5 53s4.5 34 8.5 50l109 -19c-3.33301 -13.333 -5.5 -27 -6.5 -41s-1.5 -28.333 -1.5 -43s0.5 -28.834 1.5 -42.501s3.16699 -27.167 6.5 -40.5zM282 170.001l-63 -91.999c-58.667 38 -106.334 86.667 -143.001 146l90 65
c28.667 -48.667 67.334 -88.334 116.001 -119.001zM868 224.002c-36.667 -59.333 -84.334 -108.001 -143.001 -146.001l-63 92c48.667 30.667 87.334 70.334 116.001 119.001zM282 764.001c-48.667 -30 -87.333 -69.334 -116 -118.001l-90 64
c18 30.667 38.833 57.834 62.5 81.501s50.5 45.167 80.5 64.5zM868.001 710l-90 -63.999c-29.333 48.667 -68 88 -116 118l63 92c30 -19.333 56.833 -40.833 80.5 -64.5s44.5 -50.834 62.5 -81.501zM931.001 467.001c0 -36 -3.66699 -70.001 -11 -102.001l-109 19
c6.66699 26.667 10 54.334 10 83.001s-3.33301 56.667 -10 84l109 19c7.33301 -32 11 -66.333 11 -103zM572.001 10c-37.333 -8 -70.667 -12 -100 -12c-30 0 -63.667 4 -101 12l18 111c14 -4 27.833 -6.5 41.5 -7.5s27.5 -1.5 41.5 -1.5s27.667 0.5 41 1.5s27 3.5 41 7.5z
M572 925l-17.999 -111c-14 3.33301 -27.667 5.83301 -41 7.5s-27 2.5 -41 2.5s-27.833 -0.833008 -41.5 -2.5s-27.5 -4.16699 -41.5 -7.5l-18 111c37.333 8 71 12 101 12c29.333 0 62.666 -4 99.999 -12z" />
    <glyph glyph-name="uni1039_uni101B.liga" unicode="&#x1039;&#x101b;" horiz-adv-x="1126" 
d="M773 -742h-105c-27.333 0 -41.666 13.667 -42.999 41v381c0 130 -62.333 196.667 -187 200c-41.333 1.33301 -79.833 -11.167 -115.5 -37.5s-58.834 -59.166 -69.501 -98.499c74 0 131.833 -20 173.5 -60s62.5 -90 62.5 -150s-17 -90 -51 -90
c-70 -1.33301 -131 21 -183 67s-82.333 104 -91 174c-2 6.66699 -2 15.334 0 26.001c3.33301 71.333 31.833 129.666 85.5 174.999s116.5 68.666 188.5 69.999c52.667 2 102.5 -12 149.5 -42s81.5 -68.667 103.5 -116c14 -30.667 21 -70 21 -118v-342h61
c27.333 0 42 -13.667 44 -41c0 -26 -14.667 -39 -44 -39zM402 -476c3.33301 39.333 -10.333 74.999 -41 106.999c-20.667 22.667 -57.334 34 -110.001 34c10 -41.333 35.667 -78 77 -110c18.667 -15.333 43.334 -25.666 74.001 -30.999zM133.001 383.999l-109 -18.999
c-7.33301 28.667 -11 62.667 -11 102c0 18 0.833008 35.667 2.5 53s4.5 34 8.5 50l109 -19c-3.33301 -13.333 -5.5 -27 -6.5 -41s-1.5 -28.333 -1.5 -43s0.5 -28.834 1.5 -42.501s3.16699 -27.167 6.5 -40.5zM282.001 170l-63 -91.999
c-58.667 38 -106.334 86.667 -143.001 146l90 65c28.667 -48.667 67.334 -88.334 116.001 -119.001zM868.001 224.001c-36.667 -59.333 -84.334 -108.001 -143.001 -146.001l-63 92c48.667 30.667 87.334 70.334 116.001 119.001zM282.001 764
c-48.667 -30 -87.333 -69.334 -116 -118.001l-90 64c18 30.667 38.833 57.834 62.5 81.501s50.5 45.167 80.5 64.5zM868.002 709.999l-90 -63.999c-29.333 48.667 -68 88 -116 118l63 92c30 -19.333 56.833 -40.833 80.5 -64.5s44.5 -50.834 62.5 -81.501zM931.002 467
c0 -36 -3.66699 -70.001 -11 -102.001l-109 19c6.66699 26.667 10 54.334 10 83.001s-3.33301 56.667 -10 84l109 19c7.33301 -32 11 -66.333 11 -103zM572.002 9.99902c-37.333 -8 -70.667 -12 -100 -12c-30 0 -63.667 4 -101 12l18 111c14 -4 27.833 -6.5 41.5 -7.5
s27.5 -1.5 41.5 -1.5s27.667 0.5 41 1.5s27 3.5 41 7.5zM572.001 924.999l-17.999 -111c-14 3.33301 -27.667 5.83301 -41 7.5s-27 2.5 -41 2.5s-27.833 -0.833008 -41.5 -2.5s-27.5 -4.16699 -41.5 -7.5l-18 111c37.333 8 71 12 101 12c29.333 0 62.666 -4 99.999 -12z" />
    <glyph glyph-name="uni1039_uni101C.liga" unicode="&#x1039;&#x101c;" horiz-adv-x="1126" 
d="M195 650c-22.667 -36 -46 -94.668 -70 -176.001h-144c4.66699 110.667 41.667 205.334 111 284.001zM468 119.999c44.667 10.667 106.333 36.333 185 77l102 -102c-80 -72 -175.667 -110.333 -287 -115v140zM688.999 235.998c15.333 23.333 28.001 45.334 38.001 66.001
c27.333 49.333 42 88.666 44 117.999l145 -3c-4.66699 -105.333 -45.334 -200 -122.001 -284zM131 798.999c78 70 172.666 109 283.999 117v-145c-29.333 -4 -67.666 -18.667 -114.999 -44c-20.667 -10 -42 -22.667 -64 -38zM652.999 693.999
c-22 13.333 -43.334 25.333 -64.001 36c-49.333 23.333 -89.666 37 -120.999 41v145c108 -4.66699 203.667 -43.667 287 -117zM124.998 419.999c10.667 -41.333 35.668 -100.333 75.001 -177l-103 -102c-70.667 78.667 -109.334 171.667 -116.001 279h144zM232.999 199.999
c37.333 -22.667 98 -47.668 182 -75.001v-145c-104 6.66699 -197 47.334 -279 122.001zM770.999 473.998l-21.001 71c-17.333 53.333 -36 91 -56 113l100 102c74.667 -82 115.334 -177.333 122.001 -286h-145zM754.998 -737.002
c-96.667 -1.33301 -184.665 30.335 -263.998 95.002c-54 42.667 -90 105.667 -108 189c-5.33301 5.33301 -8 15 -8 29c0 70.667 -24.333 126.667 -73 168s-108 62.666 -178 63.999c-64.667 2 -120.334 -16.833 -167.001 -56.5s-71 -91.834 -73 -156.501
c-1.33301 -54 19.334 -99.667 62.001 -137c61.333 -52.667 128.666 -75 201.999 -67c9.33301 0 18 0.833008 26 2.5s16.667 4.16699 26 7.5c42.667 0 64 -21.667 64 -65c0 -32.667 -19.667 -54 -59 -64c-9.33301 -2.66699 -25.333 -4.66699 -48 -6
c-16.667 0 -30.334 -1 -41.001 -3c-94.667 0 -177.667 32 -249 96s-107.666 142.667 -108.999 236c-2.66699 101.333 34 183.333 110 246c68.667 59.333 154 89.666 256 90.999c192.667 2.66699 315 -89 367 -275c6.66699 -10 10 -23.333 10 -40
c-1.33301 -66.667 25 -122.334 79 -167.001c48.667 -39.333 107 -60 175 -62c64.667 -2 120.167 16.333 166.5 55s70.166 89.334 71.499 152.001c2 66.667 -26 119.667 -84 159c-50.667 36 -111 53.333 -181 52c-8.66699 0 -18.334 -1.66699 -29.001 -5
c-21.333 -6 -40.666 -2.66699 -57.999 10s-26 30 -26 52c0 37.333 36 59.666 108 66.999c104.667 10.667 201 -20.666 289 -93.999c70 -59.333 106 -139.666 108 -240.999c1.33301 -100.667 -33.5 -180.667 -104.5 -240s-157.833 -90 -260.5 -92z" />
    <glyph glyph-name="uni1039_uni101E.liga" unicode="&#x1039;&#x101e;" horiz-adv-x="1090" 
d="M1083 -403c0 -94 -33.1689 -173.668 -99.502 -239.001s-146.166 -98.666 -239.499 -99.999c-124.667 -2 -221.334 51.667 -290.001 161c-75.333 -106 -171 -159.667 -287 -161c-118 -2 -208 39.667 -270 125c-8.66699 8.66699 -19 24.667 -31 48
c-12 40.667 5.66699 63.334 53 68.001c20.667 0 35.5 -8 44.5 -24s14.167 -25 15.5 -27l5 -5c40 -51.333 101 -78 183 -80c64.667 -1.33301 119.834 21.834 165.501 69.501s69.5 103.5 71.5 167.5c2 65.333 -20.167 119 -66.5 161s-103.166 63.333 -170.499 64
c-30 0 -68.333 -10.333 -115 -31s-75 -43.5 -85 -68.5s-25.333 -37.5 -46 -37.5c-40 0 -60 19 -60 57c0 12 3.33301 22 10 30l3 -2v-3l-3 -2h-2l5 10l28 33c65.333 77.333 153.666 116.666 264.999 117.999c96 2 175.833 -26 239.5 -84s96.167 -134 97.5 -228
c2 -77.333 25.667 -138.5 71 -183.5s101.666 -68.5 168.999 -70.5c64.667 -1.33301 119.834 21 165.501 67s68.5 101.667 68.5 167s-22 120 -66 164c-48.667 48 -100.667 72 -156 72c-12 0 -23 -1 -33 -3l-14 -2c-10.667 0 -23.667 -2.33301 -39 -7
c-34.667 0 -52 17.667 -52 53c0 30 21.667 48.333 65 55c8.66699 0 18.334 1.16699 29.001 3.5s23 3.5 37 3.5c91.333 0 169.833 -33.833 235.5 -101.5s98.5 -146.834 98.5 -237.501zM132.998 383.999l-109 -18.999c-7.33301 28.667 -11 62.667 -11 102
c0 18 0.833008 35.667 2.5 53s4.5 34 8.5 50l109 -19c-3.33301 -13.333 -5.5 -27 -6.5 -41s-1.5 -28.333 -1.5 -43s0.5 -28.834 1.5 -42.501s3.16699 -27.167 6.5 -40.5zM281.998 170l-63 -91.999c-58.667 38 -106.334 86.667 -143.001 146l90 65
c28.667 -48.667 67.334 -88.334 116.001 -119.001zM867.998 224.001c-36.667 -59.333 -84.334 -108.001 -143.001 -146.001l-63 92c48.667 30.667 87.334 70.334 116.001 119.001zM281.998 764c-48.667 -30 -87.333 -69.334 -116 -118.001l-90 64
c18 30.667 38.833 57.834 62.5 81.501s50.5 45.167 80.5 64.5zM867.999 709.999l-90 -63.999c-29.333 48.667 -68 88 -116 118l63 92c30 -19.333 56.833 -40.833 80.5 -64.5s44.5 -50.834 62.5 -81.501zM930.999 467c0 -36 -3.66699 -70.001 -11 -102.001l-109 19
c6.66699 26.667 10 54.334 10 83.001s-3.33301 56.667 -10 84l109 19c7.33301 -32 11 -66.333 11 -103zM571.999 9.99902c-37.333 -8 -70.667 -12 -100 -12c-30 0 -63.667 4 -101 12l18 111c14 -4 27.833 -6.5 41.5 -7.5s27.5 -1.5 41.5 -1.5s27.667 0.5 41 1.5
s27 3.5 41 7.5zM571.998 924.999l-17.999 -111c-14 3.33301 -27.667 5.83301 -41 7.5s-27 2.5 -41 2.5s-27.833 -0.833008 -41.5 -2.5s-27.5 -4.16699 -41.5 -7.5l-18 111c37.333 8 71 12 101 12c29.333 0 62.666 -4 99.999 -12z" />
    <glyph glyph-name="uni1039_uni101F.liga" unicode="&#x1039;&#x101f;" horiz-adv-x="1160" 
d="M808 -735c-16 0 -30.835 0.500977 -44.502 1.50098s-33.667 6 -60 15s-39.5 24.167 -39.5 45.5c0 32 19.333 48.667 58 50c-14.667 0 2.66602 -3.33301 51.999 -10c67.333 -10.667 135 13.333 203 72c48 41.333 72 95 72 161c0 68 -24.667 124 -74 168
s-109.333 66.667 -180 68c-66.667 2 -123.5 -17.167 -170.5 -57.5s-75.167 -92.833 -84.5 -157.5v-21c0 -96 -37.167 -175.833 -111.5 -239.5s-164.166 -95.5 -269.499 -95.5c-102 0 -187.167 30.833 -255.5 92.5s-103.166 142.5 -104.499 242.5
c-2.66699 123.333 40.666 227.666 129.999 312.999c11.333 11.333 25 17 41 17c38.667 0 59 -17 61 -51c0 -12.667 -6 -25.334 -18 -38.001c-64.667 -60.667 -97.667 -141 -99 -241c-2 -69.333 21.5 -124.666 70.5 -165.999s108.167 -62.666 177.5 -63.999
c66.667 -2 130.334 20.333 191.001 67c42.667 33.333 66.667 81.666 72 144.999v39c-3.33301 84.667 -38.333 158 -105 220c-10 9.33301 -16 22 -18 38c0 34 20.333 51.667 61 53c14 0 27.333 -6.33301 40 -19c36.667 -35.333 66.334 -75.333 89.001 -120
c73.333 96 174.333 144 303 144c98 0 183.167 -32 255.5 -96s109.5 -144.333 111.5 -241c1.33301 -91.333 -34.667 -170 -108 -236s-155.333 -99 -246 -99zM132.998 384.001l-109 -18.999c-7.33301 28.667 -11 62.667 -11 102c0 18 0.833008 35.667 2.5 53s4.5 34 8.5 50
l109 -19c-3.33301 -13.333 -5.5 -27 -6.5 -41s-1.5 -28.333 -1.5 -43s0.5 -28.834 1.5 -42.501s3.16699 -27.167 6.5 -40.5zM281.998 170.002l-63 -91.999c-58.667 38 -106.334 86.667 -143.001 146l90 65c28.667 -48.667 67.334 -88.334 116.001 -119.001zM867.998 224.003
c-36.667 -59.333 -84.334 -108.001 -143.001 -146.001l-63 92c48.667 30.667 87.334 70.334 116.001 119.001zM281.998 764.002c-48.667 -30 -87.333 -69.334 -116 -118.001l-90 64c18 30.667 38.833 57.834 62.5 81.501s50.5 45.167 80.5 64.5zM867.999 710.001
l-90 -63.999c-29.333 48.667 -68 88 -116 118l63 92c30 -19.333 56.833 -40.833 80.5 -64.5s44.5 -50.834 62.5 -81.501zM930.999 467.002c0 -36 -3.66699 -70.001 -11 -102.001l-109 19c6.66699 26.667 10 54.334 10 83.001s-3.33301 56.667 -10 84l109 19
c7.33301 -32 11 -66.333 11 -103zM571.999 10.001c-37.333 -8 -70.667 -12 -100 -12c-30 0 -63.667 4 -101 12l18 111c14 -4 27.833 -6.5 41.5 -7.5s27.5 -1.5 41.5 -1.5s27.667 0.5 41 1.5s27 3.5 41 7.5zM571.998 925.001l-17.999 -111
c-14 3.33301 -27.667 5.83301 -41 7.5s-27 2.5 -41 2.5s-27.833 -0.833008 -41.5 -2.5s-27.5 -4.16699 -41.5 -7.5l-18 111c37.333 8 71 12 101 12c29.333 0 62.666 -4 99.999 -12z" />
    <glyph glyph-name="uni1039_uni1050.liga" unicode="&#x1039;&#x1050;" horiz-adv-x="1153" 
d="M474 -487c-32 0 -58.667 10.667 -80 32s-32 48.333 -32 81c0 30.667 11 57.5 33 80.5s48.333 33.5 79 31.5c32.667 -1.33301 59.667 -13.333 81 -36s32 -49 32 -79c0 -73.333 -37.667 -110 -113 -110zM648 -699c-8.66699 -5.33301 -18.335 -8 -29.002 -8
c-44 0 -66 22.333 -66 67c0 24 12 42 36 54c88 48 132 116 132 204c0 62 -24.167 113 -72.5 153s-107.166 60 -176.499 60c-70 0 -129 -20 -177 -60s-72 -91 -72 -153c0 -86.667 43.667 -155.667 131 -207c20 -12 30 -29 30 -51c0 -42.667 -20.667 -64 -62 -64
c-11.333 0 -21.333 2.66699 -30 8c-130.667 73.333 -196 178 -196 314c0 96 36.167 176.167 108.5 240.5s161.5 96.5 267.5 96.5c106.667 0 195.834 -32.167 267.501 -96.5s107.5 -144.5 107.5 -240.5c0 -141.333 -66.333 -247 -199 -317zM473.999 -340
c-22.667 -2 -34 -13.333 -34 -34c2 -25.333 13.333 -38 34 -38c23.333 0 35 12.667 35 38c-1.33301 22.667 -13 34 -35 34zM132.999 384l-109 -18.999c-7.33301 28.667 -11 62.667 -11 102c0 18 0.833008 35.667 2.5 53s4.5 34 8.5 50l109 -19
c-3.33301 -13.333 -5.5 -27 -6.5 -41s-1.5 -28.333 -1.5 -43s0.5 -28.834 1.5 -42.501s3.16699 -27.167 6.5 -40.5zM281.999 170.001l-63 -91.999c-58.667 38 -106.334 86.667 -143.001 146l90 65c28.667 -48.667 67.334 -88.334 116.001 -119.001zM867.999 224.002
c-36.667 -59.333 -84.334 -108.001 -143.001 -146.001l-63 92c48.667 30.667 87.334 70.334 116.001 119.001zM281.999 764.001c-48.667 -30 -87.333 -69.334 -116 -118.001l-90 64c18 30.667 38.833 57.834 62.5 81.501s50.5 45.167 80.5 64.5zM868 710l-90 -63.999
c-29.333 48.667 -68 88 -116 118l63 92c30 -19.333 56.833 -40.833 80.5 -64.5s44.5 -50.834 62.5 -81.501zM931 467.001c0 -36 -3.66699 -70.001 -11 -102.001l-109 19c6.66699 26.667 10 54.334 10 83.001s-3.33301 56.667 -10 84l109 19c7.33301 -32 11 -66.333 11 -103z
M572 10c-37.333 -8 -70.667 -12 -100 -12c-30 0 -63.667 4 -101 12l18 111c14 -4 27.833 -6.5 41.5 -7.5s27.5 -1.5 41.5 -1.5s27.667 0.5 41 1.5s27 3.5 41 7.5zM571.999 925l-17.999 -111c-14 3.33301 -27.667 5.83301 -41 7.5s-27 2.5 -41 2.5
s-27.833 -0.833008 -41.5 -2.5s-27.5 -4.16699 -41.5 -7.5l-18 111c37.333 8 71 12 101 12c29.333 0 62.666 -4 99.999 -12z" />
    <glyph glyph-name="uni1039_uni1051.liga" unicode="&#x1039;&#x1051;" horiz-adv-x="1131" 
d="M601 -382c0 -30 -10.667 -56.333 -32 -79s-48.333 -34.667 -81 -36c-30.667 -2 -57 8.5 -79 31.5s-33 49.833 -33 80.5c0 32.667 10.667 59.667 32 81s48 32 80 32c75.333 0 113 -36.667 113 -110zM861 -377c0 -96 -35.832 -176.333 -107.499 -241
s-160.834 -97 -267.501 -97c-106 0 -195.167 32.333 -267.5 97s-108.5 145 -108.5 241c0 136 65.333 240.667 196 314c8.66699 5.33301 18.667 8 30 8c41.333 0 62 -21.333 62 -64c0 -22 -10 -39 -30 -51c-87.333 -51.333 -131 -120.333 -131 -207c0 -62 24 -113 72 -153
s107 -60 177 -60c69.333 0 128.166 20 176.499 60s72.5 91 72.5 153c0 88 -44 156 -132 204c-24 12 -36 30 -36 54c0 44 22 66 66 66c10.667 0 20.334 -2.33301 29.001 -7c132.667 -70 199 -175.667 199 -317zM523.001 -385c0 25.333 -11.667 38 -35 38
c-20.667 0 -32 -12.667 -34 -38c0 -20.667 11.333 -32 34 -34c22 0 33.667 11.333 35 34zM133.001 384l-109 -18.999c-7.33301 28.667 -11 62.667 -11 102c0 18 0.833008 35.667 2.5 53s4.5 34 8.5 50l109 -19c-3.33301 -13.333 -5.5 -27 -6.5 -41s-1.5 -28.333 -1.5 -43
s0.5 -28.834 1.5 -42.501s3.16699 -27.167 6.5 -40.5zM282.001 170.001l-63 -91.999c-58.667 38 -106.334 86.667 -143.001 146l90 65c28.667 -48.667 67.334 -88.334 116.001 -119.001zM868.001 224.002c-36.667 -59.333 -84.334 -108.001 -143.001 -146.001l-63 92
c48.667 30.667 87.334 70.334 116.001 119.001zM282.001 764.001c-48.667 -30 -87.333 -69.334 -116 -118.001l-90 64c18 30.667 38.833 57.834 62.5 81.501s50.5 45.167 80.5 64.5zM868.002 710l-90 -63.999c-29.333 48.667 -68 88 -116 118l63 92
c30 -19.333 56.833 -40.833 80.5 -64.5s44.5 -50.834 62.5 -81.501zM931.002 467.001c0 -36 -3.66699 -70.001 -11 -102.001l-109 19c6.66699 26.667 10 54.334 10 83.001s-3.33301 56.667 -10 84l109 19c7.33301 -32 11 -66.333 11 -103zM572.002 10
c-37.333 -8 -70.667 -12 -100 -12c-30 0 -63.667 4 -101 12l18 111c14 -4 27.833 -6.5 41.5 -7.5s27.5 -1.5 41.5 -1.5s27.667 0.5 41 1.5s27 3.5 41 7.5zM572.001 925l-17.999 -111c-14 3.33301 -27.667 5.83301 -41 7.5s-27 2.5 -41 2.5s-27.833 -0.833008 -41.5 -2.5
s-27.5 -4.16699 -41.5 -7.5l-18 111c37.333 8 71 12 101 12c29.333 0 62.666 -4 99.999 -12z" />
    <glyph glyph-name=".notdef" horiz-adv-x="1593" 
d="M284 0v1280h1024v-1280h-1024zM316 32h960v1216h-960v-1216z" />
    <glyph glyph-name="space" unicode=" " horiz-adv-x="512" 
 />
    <glyph glyph-name="exclam" unicode="!" 
d="M336 228c34.667 53.333 82.668 80.0029 144.001 80.0029h8c61.333 -2.66699 108 -33.334 140 -92.001c16 -28 23.333 -54 22 -78c-1.33301 -34.667 -11.333 -65.334 -30 -92.001c-34.667 -50.667 -81.334 -76 -140.001 -76h-12c-61.333 0 -108 30.667 -140 92
c-13.333 25.333 -20 50.666 -20 75.999c0 30.667 9.33301 60.667 28 90zM328.001 1350c-1.33301 12 -2 23.333 -2 34c0 70.667 26.667 106 80 106h142c49.333 0 74 -34.667 74 -104c0 -10.667 -0.666992 -22.667 -2 -36l-96 -866h-110z" />
    <glyph glyph-name="quotedbl" unicode="&#x22;" 
d="M614 1290c0 92 34.667 138 104 138h120c62.667 0 78 -46 46 -138l-182 -522h-88v522zM218 1290c0 92 34.667 138 104 138h120c62.667 0 78 -46 46 -138l-182 -522h-88v522z" />
    <glyph glyph-name="numbersign" unicode="#" 
d="M404 840v-408h318v408h-318zM264 840h-172v140h172v400h140v-400h318v400h144v-400h194v-140h-194v-408h194v-140h-194v-394h-144v394h-318v-394h-140v394h-172v140h172v408z" />
    <glyph glyph-name="dollar" unicode="$" 
d="M504 -338v1970h140v-1970h-140zM148 298c-8 57.333 4 110.668 36 160.001c26.667 38.667 62.334 56.667 107.001 54s80.334 -24 107.001 -64c21.333 -32 30 -75.333 26 -130s-20 -86 -48 -94c74.667 -57.333 146.667 -84 216 -80c120 6.66699 201.333 43.334 244 110.001
c56 86.667 50.667 166 -16 238c-24 24 -53.333 41.333 -88 52l-314 122c-121.333 41.333 -202 126 -242 254c-36 113.333 -16 216 60 308c82.667 104 190.667 156.667 324 158c149.333 2.66699 267.333 -46.666 354 -147.999c30.667 -34.667 48 -68 52 -100
c13.333 -70.667 9.33301 -114 -12 -130c-38.667 -32 -78.667 -55.333 -120 -70c-45.333 -8 -81.333 20 -108 84c-20 46.667 -17.333 100 8 160c-74.667 21.333 -135.334 26.666 -182.001 15.999c-96 -20 -157.333 -50.667 -184 -92c-46.667 -74.667 -46 -138.667 2 -192
c25.333 -29.333 54 -51.333 86 -66l326 -126c113.333 -40 184.666 -100.667 213.999 -182c56 -137.333 57.333 -261.333 4 -372c-68 -142.667 -202.667 -213.334 -404 -212.001c-104 0 -206 38.667 -306 116c-78.667 61.333 -126 136.666 -142 225.999z" />
    <glyph glyph-name="percent" unicode="%" 
d="M928 322c-42.667 37.333 -90.667 46.666 -144 27.999c-53.333 -20 -84.666 -57.333 -93.999 -112c-10.667 -54.667 4.66602 -100 45.999 -136c42.667 -37.333 90.667 -47.333 144 -30c53.333 18.667 86 55.334 98 110.001c10.667 56 -6 102.667 -50 140zM1066 388
c64 -92 73.333 -188.667 28 -290c-46.667 -101.333 -125.334 -157.333 -236.001 -168s-198 29.333 -262 120c-65.333 90.667 -74.666 186.667 -27.999 288c45.333 101.333 123.333 158 234 170c110.667 10.667 198.667 -29.333 264 -120zM286 1292
c-53.333 -17.333 -85.333 -53.999 -96 -109.999c-12 -56 3.33301 -102 46 -138c41.333 -36 89.333 -45.333 144 -28s86.667 54 96 110c10.667 54.667 -5.33301 100.667 -48 138s-90 46.666 -142 27.999zM94 994.001c-65.333 89.333 -74.665 184.667 -27.998 286
c45.333 101.333 123.333 157.333 234 168c112 12 200.667 -27.333 266 -118s74.666 -186.667 27.999 -288s-125.334 -157.333 -236.001 -168s-198.667 29.333 -264 120zM-15.999 -305.998l1012 1970h170l-1012 -1970h-170z" />
    <glyph glyph-name="ampersand" unicode="&#x26;" 
d="M970 824c26.667 -65.333 42.333 -130.669 47 -196.002s0.333984 -132.666 -12.999 -201.999l156 -116l-72 -132l-124 88c-25.333 -89.333 -75.333 -160 -150 -212c-80 -57.333 -180.667 -86 -302 -86c-180 0 -314.667 55.333 -404 166c-53.333 68 -80 149.333 -80 244
c0 140 72 256 216 348c-25.333 20 -48 38.667 -68 56c-84 76 -126 162 -126 258c0 108 56 206 168 294c77.333 62.667 145.333 93.334 204 92.001c145.333 -4 265.333 -58 360 -162c89.333 -98.667 48.666 -235.334 -122.001 -410.001l-106 68
c121.333 122.667 139.333 218.667 54 288c-46.667 41.333 -112 59.333 -196 54c-73.333 -4 -126 -46 -158 -126c-16 -40 -24 -74.667 -24 -104c-2.66699 -82.667 25.333 -142.667 84 -180l548 -338c9.33301 53.333 9.33301 109.333 0 168
c-12 66.667 -27.333 113.334 -46 140.001h154zM819.999 367.997l-427.999 264c-54.667 -20 -101.334 -56 -140.001 -108c-33.333 -42.667 -50 -90 -50 -142c0 -104 48.667 -181.333 146 -232c54.667 -25.333 110 -37.333 166 -36c156 4 258 88.667 306 254z" />
    <glyph glyph-name="quotesingle" unicode="'" 
d="M416 1290c0 92 34.667 138 104 138h120c62.667 0 78 -46 46 -138l-182 -522h-88v522z" />
    <glyph glyph-name="parenleft" unicode="(" 
d="M376 680c1.33301 462.667 166.667 790.666 496 983.999h196c-344 -228 -517.333 -555.333 -520 -982v-10c0 -417.333 173.333 -742.666 520 -975.999h-196c-330.667 190.667 -496 518 -496 982v2z" />
    <glyph glyph-name="parenright" unicode=")" 
d="M804 678c0 -464 -165.332 -791.332 -495.999 -981.999h-196c346.667 233.333 520 558.666 520 975.999v10c-2.66699 426.667 -176 754 -520 982h196c329.333 -193.333 494.666 -521.333 495.999 -984v-2z" />
    <glyph glyph-name="asterisk" unicode="*" 
d="M584 428c-68 5.33301 -94.001 57.334 -78.001 156.001l34 192l-152 -136c-86.667 -76 -148 -80 -184 -12c-44 88 -14 147.333 90 178l200 62l-214 82c-93.333 36 -118.666 88.667 -75.999 158c32 54.667 88.667 50 170 -14l166 -134l-50 206
c-25.333 105.333 5.33398 158 92.001 158c82.667 0 114.667 -52.667 96 -158l-38 -206l162 138c72 60 122.667 60 152 0c48 -82.667 24.667 -139.334 -70 -170.001l-194 -60l188 -72c92 -36 115.333 -84.667 70 -146c-46.667 -65.333 -103.334 -67.333 -170.001 -6l-138 130
l34 -186c18.667 -112 -11.333 -165.333 -90 -160z" />
    <glyph glyph-name="plus" unicode="+" 
d="M494 606v386h164v-386h390v-168h-386v-392h-168v392h-392v168h392z" />
    <glyph glyph-name="comma" unicode="," 
d="M452 -26c-65.333 1.33301 -108.666 32.667 -129.999 94c-6.66699 20 -10 40 -10 60c0 36 11.333 70.667 34 104c33.333 50.667 78 76 134 76h12c62.667 -4 109.334 -34 140.001 -90c12 -22.667 18.667 -48 20 -76v-20c0 -109.333 -24 -206 -72 -290
c-66.667 -117.333 -211.334 -176 -434.001 -176h-28h-20v126l18 2c169.333 16 270.666 52.667 303.999 110c16 25.333 26.667 52 32 80z" />
    <glyph glyph-name="hyphen" unicode="-" 
d="M102 440v166h946v-166h-946z" />
    <glyph glyph-name="period" unicode="." 
d="M330 62c-29.333 57.333 -26.3311 113.001 9.00195 167.001s85.666 80 150.999 78s112.666 -32.333 141.999 -91s26 -115.334 -10 -170.001s-86.333 -80 -151 -76s-111.667 34.667 -141 92z" />
    <glyph glyph-name="slash" unicode="/" 
d="M-16 -306l1012 1970h170l-1012 -1970h-170z" />
    <glyph glyph-name="zero" unicode="0" 
d="M588 1390c117.333 0 221.332 -61.334 311.999 -184.001c105.333 -140 158 -322.667 158 -548c0 -196 -46.667 -365.333 -140 -508c-93.333 -136 -203.333 -204 -330 -204c-130.667 0 -242.667 72 -336 216c-90.667 140 -136 308.667 -136 506
c0 202.667 48.667 375.334 146 518.001c90.667 136 199.334 204 326.001 204zM585.999 1216c-93.333 0 -172.669 -62.667 -238.002 -188c-50.667 -101.333 -76 -218.666 -76 -351.999c0 -172 38.667 -313.333 116 -424c58.667 -82.667 124.667 -124 198 -124
c90.667 0 169.334 62 236.001 186c54.667 102.667 82 220 82 352c0 177.333 -38.667 320.666 -116 429.999c-57.333 80 -124.666 120 -201.999 120zM737.996 925.999c53.333 -2.66699 80 -26.668 80 -72.001c0 -16 -3.33301 -35.333 -10 -58l-356 -356
c-8 -1.33301 -16 -2 -24 -2c-46.667 0 -70 22 -70 66c0 14.667 2.66699 31.334 8 50.001z" />
    <glyph glyph-name="one" unicode="1" 
d="M692 1428v-1254l324 -44v-130h-842v130l340 44v966l-298 -210h-212l528 498h160z" />
    <glyph glyph-name="two" unicode="2" 
d="M168 880c-12 30.667 -17.999 64.667 -17.999 102c0 122.667 52.667 226.667 158 312c42.667 34.667 90.667 59.334 144 74.001c44 13.333 91.333 20 142 20c145.333 0 260 -48.667 344 -146c64 -74.667 96 -168 96 -280c0 -80 -35.333 -155.333 -106 -226l-580 -576h554
l38 228h122v-388h-914v170l694 702c18.667 26.667 28 56 28 88c0 113.333 -46.667 189.333 -140 228c-38.667 16 -84 24 -136 24c-22.667 0 -43.334 -0.666992 -62.001 -2c-97.333 -10.667 -160 -52 -188 -124c-16 -42.667 -24 -78.667 -24 -108
c-1.33301 -34.667 4.66699 -67.334 18 -98.001h-170z" />
    <glyph glyph-name="three" unicode="3" 
d="M480 756c150.667 6.66699 264 46.667 340 120c29.333 30.667 44 66.667 44 108c0 101.333 -45.333 170.666 -136 207.999c-40 16 -85.333 24 -136 24c-110.667 0 -194.667 -44.667 -252 -134h-174c18.667 84 66.667 155.333 144 214c78.667 62.667 172.667 94 282 94
c142.667 0 255.334 -48 338.001 -144c64 -73.333 96 -156.666 96 -249.999c0 -109.333 -66.667 -210.666 -200 -303.999c146.667 -89.333 220 -203.333 220 -342c0 -146.667 -59.333 -257.334 -178 -332.001c-74.667 -45.333 -168 -68 -280 -68c-137.333 0 -238 34 -302 102
c-84 92 -130 166.667 -138 224h172c21.333 -49.333 60.666 -88 117.999 -116c46.667 -22.667 98 -34 154 -34c129.333 0 217.333 41.333 264 124c21.333 41.333 32 74.666 32 99.999c0 82.667 -51.333 154.667 -154 216c-37.333 26.667 -122 41.334 -254 44.001v146z" />
    <glyph glyph-name="four" unicode="4" 
d="M860 630h228v-170h-228v-282l176 -24v-154h-670v134l328 44v276h-616v140l560 834h222v-798zM698 628v598l-418 -598h418z" />
    <glyph glyph-name="five" unicode="5" 
d="M198 1354h764.001v-346h-122l-24 184h-460l-28 -352h200c132 0 237.333 -22.667 316 -68c153.333 -89.333 230 -214 230 -374c0 -157.333 -62 -278 -186 -362c-78.667 -53.333 -178.667 -80 -300 -80c-144 0 -250.667 38 -320 114c-90.667 97.333 -140 179.333 -148 246
h180c24 -53.333 66.667 -96 128 -128c49.333 -26.667 104 -40 164 -40c132 0 225.333 48.667 280 146c24 45.333 35.333 80 34 104c-6.66699 101.333 -59.334 181.333 -158.001 240c-48 28 -121.333 42 -220 42h-384z" />
    <glyph glyph-name="six" unicode="6" 
d="M1038 1180l-158.001 45.998c-140 40 -273.333 -4 -400 -132c-96 -96 -160.667 -225.333 -194 -388c60 74.667 174 121.334 342 140.001c10.667 1.33301 22 2 34 2c124 0 228 -52.667 312 -158c70.667 -85.333 106 -183.333 106 -294
c0 -177.333 -64.667 -305.333 -194 -384c-57.333 -34.667 -131.333 -56 -222 -64c-16 -1.33301 -32 -2 -48 -2c-190.667 0 -326.667 74 -408 222c-68 122.667 -102 261.334 -102 416.001v24c0 184 58 352.667 174 506c182.667 242.667 395.334 320 638.001 232l170 -62z
M301.999 459.998c17.333 -194.667 101.334 -311.334 252.001 -350.001c20 -5.33301 46.667 -8 80 -8c142.667 0 234 57.333 274 172c12 30.667 18 68.667 18 114c0 106.667 -44 186.667 -132 240c-42.667 26.667 -92 40 -148 40c-110.667 0 -203.334 -40 -278.001 -120
c-26.667 -29.333 -48.667 -58.666 -66 -87.999z" />
    <glyph glyph-name="seven" unicode="7" 
d="M486 166c13.333 197.333 44.668 370 94.001 518c65.333 186.667 162 354 290 502h-596l-54 -268h-124v434h1006v-130c-206.667 -232 -331.334 -444 -374.001 -636c-45.333 -217.333 -66 -357.333 -62 -420l212 -22v-144h-628v144z" />
    <glyph glyph-name="eight" unicode="8" 
d="M836 688c138.667 -92 207.998 -207.333 207.998 -346c0 -145.333 -60.667 -256 -182 -332c-80 -46.667 -176.667 -70 -290 -70c-173.333 0 -302.666 54.667 -387.999 164c-53.333 66.667 -80 146 -80 238c0 138.667 70 254 210 346c-126.667 88 -190 190 -190 306
c0 125.333 53.333 230 160 314c82.667 64 180 96 292 96c142.667 0 259.334 -49.333 350.001 -148c65.333 -76 98 -162 98 -258c0 -118.667 -62.667 -222 -188 -310zM575.998 1226c-140 0 -224.669 -42.667 -254.002 -128c-13.333 -29.333 -20.666 -66 -21.999 -110
c0 -94.667 45.333 -164 136 -208c42.667 -20 89.334 -30 140.001 -30c120 0 205.333 42.667 256 128c17.333 30.667 26 66.667 26 108c0 102.667 -47.333 174 -142 214c-40 17.333 -86.667 26 -140 26zM575.996 612c-108 0 -193.333 -42 -256 -126
c-30.667 -41.333 -46 -87.333 -46 -138c0 -102.667 47.333 -178.667 142 -228c48 -22.667 101.333 -34 160 -34c130.667 0 222 44 274 132c21.333 40 32 81.333 32 124c0 114.667 -45.333 190 -136 226c-40 25.333 -96.667 40 -170 44z" />
    <glyph glyph-name="nine" unicode="9" 
d="M192 132l132 -42.001c128 -41.333 258.667 1.33398 392 128.001c88 86.667 149.333 218 184 394c-56 -73.333 -164 -119.333 -324 -138c-12 -4 -24 -6 -36 -6c-116 0 -214.667 54.667 -296 164c-65.333 85.333 -98 183.333 -98 294c0 181.333 60 312 180 392
c58.667 36 129.334 58 212.001 66c16 1.33301 32 2 48 2c181.333 0 310.666 -76 387.999 -228c64 -122.667 96 -262.667 96 -420v-22c0 -188 -54 -360 -162 -516c-176 -248 -378 -326.667 -606 -236l-164 64zM886 863.999c-17.333 196 -97.999 314.666 -241.999 355.999
c-18.667 5.33301 -44 8 -76 8c-134.667 0 -221.334 -58 -260.001 -174c-9.33301 -33.333 -14 -72.666 -14 -117.999c0 -108 42 -189.333 126 -244c38.667 -26.667 83.334 -40 134.001 -40c108 0 197.333 40.667 268 122c25.333 30.667 46.666 60.667 63.999 90z" />
    <glyph glyph-name="colon" unicode=":" 
d="M330 778c-29.333 57.333 -26.3311 113.001 9.00195 167.001s85.666 80 150.999 78s112.666 -32.333 141.999 -91s26 -115.334 -10 -170.001s-86.333 -80 -151 -76s-111.667 34.667 -141 92zM330.002 122.001c-29.333 57.333 -26.3311 113.001 9.00195 167.001
s85.666 80 150.999 78s112.666 -32.333 141.999 -91s26 -115.334 -10 -170.001s-86.333 -80 -151 -76s-111.667 34.667 -141 92z" />
    <glyph glyph-name="semicolon" unicode=";" 
d="M452 36c-65.333 1.33301 -108.666 32.667 -129.999 94c-6.66699 20 -10 40 -10 60c0 36 11.333 70.667 34 104c33.333 50.667 78 76 134 76h12c62.667 -4 109.334 -34 140.001 -90c12 -22.667 18.667 -48 20 -76v-20c0 -109.333 -24 -206 -72 -290
c-66.667 -117.333 -211.334 -176 -434.001 -176h-28h-20v126l18 2c169.333 16 270.666 52.667 303.999 110c16 25.333 26.667 52 32 80zM332 780.001c-29.333 57.333 -26.3311 113.001 9.00195 167.001s85.666 80 150.999 78s112.666 -32.333 141.999 -91
s26 -115.334 -10 -170.001s-86.333 -80 -151 -76s-111.667 34.667 -141 92z" />
    <glyph glyph-name="less" unicode="&#x3c;" 
d="M158 550l-2 2l762 562l98 -134l-576 -430l576 -426l-100 -136z" />
    <glyph glyph-name="equal" unicode="=" 
d="M102 206v166h946v-166h-946zM102 680v166h946v-166h-946z" />
    <glyph glyph-name="greater" unicode="&#x3e;" 
d="M246 -14l-100 136l576 426l-576 430l98 134l762 -562l-2 -2z" />
    <glyph glyph-name="question" unicode="?" 
d="M384 62c-29.333 57.333 -26 113.001 10 167.001s86.333 80 151 78s111.667 -32.333 141 -91s26 -115.334 -10 -170.001s-86 -80 -150 -76s-111.333 34.667 -142 92zM602 566.001l8 -86.001h-148c-32 48 -28 118 12 210c29.333 62.667 78.666 110 147.999 142l108 48
c45.333 20 76 37.333 92 52c72 62.667 78 136 18 220c-46.667 64 -132.667 99.333 -258 106c-72 5.33301 -147.333 -19.334 -226 -74.001c28 -9.33301 44 -38.666 48 -87.999c4 -52 -4 -93.333 -24 -124c-28 -37.333 -65.333 -57.333 -112 -60s-84.667 13.333 -114 48
c-32 46.667 -44 98 -36 154c14.667 86.667 64.667 157.334 150 212.001c116 76 244.667 108.667 386 98c149.333 -14.667 268 -78 356 -190c66.667 -84 74 -184.667 22 -302c-37.333 -89.333 -90.666 -147.333 -159.999 -174l-164 -64c-48 -20 -83.333 -62.667 -106 -128z
" />
    <glyph glyph-name="at" unicode="@" 
d="M986 72c-102.667 -137.333 -227.332 -205.999 -373.999 -205.999c-177.333 0 -328.666 75.333 -453.999 226c-121.333 148 -182 327.333 -182 538c0 214.667 64.667 396.667 194 546c121.333 144 268.666 216 441.999 216c209.333 0 357.333 -62.667 444 -188
c120 -173.333 157.333 -375.333 112 -606c-38.667 -196 -106 -303.333 -202 -322c-88 -18.667 -152 4.66602 -192 69.999c-46.667 -46.667 -120 -74.667 -220 -84c-101.333 -10.667 -170 25.333 -206 108c-13.333 25.333 -20 54.666 -20 87.999
c0 93.333 44.667 162.666 134 207.999c60 28 116.667 39.333 170 34c33.333 -2.66699 67.333 -10 102 -22v62c0 89.333 -27.333 136 -82 140c-108 10.667 -168.667 -24.666 -182 -105.999l-104 60c49.333 134.667 126.666 204 231.999 208
c90.667 5.33301 158 -17.334 202 -68.001c56 -62.667 84 -140.667 84 -234v-190c0 -77.333 19.333 -112.666 58 -105.999c62.667 8 90 130.667 82 368c-1.33301 88 -32 180.667 -92 278c-48 78.667 -156 118 -324 118c-140 0 -256.667 -66.667 -350 -200
c-76 -106.667 -114 -230.667 -114 -372c0 -181.333 56.667 -330.666 170 -447.999c86.667 -88 184.667 -132 294 -132c85.333 0 165.333 40.667 240 122zM724.002 526.001c-24 5.33301 -56.667 8.66699 -98 10c-57.333 5.33301 -99.333 -8.66699 -126 -42
c-8 -8 -12 -17.333 -12 -28c0 -21.333 18 -36 54 -44h30c16 0 66.667 21.333 152 64v40z" />
    <glyph glyph-name="A" unicode="A" 
d="M742 602l-170 620l-172 -620h342zM108 162l382 1264h158l390 -1264l112 -20v-142h-378v142l100 20l-88 294h-434l-84 -294l100 -20v-142h-366v142z" />
    <glyph glyph-name="B" unicode="B" 
d="M678 806c64 0 111.333 36.667 142 110c26.667 60 21.334 122 -15.999 186c-30.667 53.333 -79.334 80 -146.001 80h-330v-376h350zM718 170c85.333 0 147.333 46 186 138c36 80 28.667 157.333 -22 232c-44 64 -112 96 -204 96h-350v-466h390zM902 752
c53.333 -25.333 105.334 -96.001 156.001 -212.001c40 -93.333 41.333 -194.666 4 -303.999c-50.667 -157.333 -163.334 -236 -338.001 -236h-722v124l168 46v1012l-168 44v124h656c113.333 0 204 -49.333 272 -148c64 -93.333 86 -184 66 -272s-51.333 -147.333 -94 -178z
" />
    <glyph glyph-name="C" unicode="C" 
d="M796 1140c-54.667 48 -115.333 72.001 -182 72.001c-97.333 0 -183.333 -62.667 -258 -188c-58.667 -98.667 -88 -214.667 -88 -348c0 -170.667 44 -310 132 -418c60 -72 131.333 -113.333 214 -124c117.333 -17.333 216.666 55.334 297.999 218.001l134 -62
c-21.333 -46.667 -46.666 -91.334 -75.999 -134.001c-100 -134.667 -218 -202 -354 -202c-141.333 0 -260.666 71.333 -357.999 214c-97.333 138.667 -146 306.667 -146 504c0 198.667 51.333 368 154 508c98.667 137.333 215.334 205.333 350.001 204
c89.333 -1.33301 182 -41.333 278 -120c32 -26.667 61.333 -59.334 88 -98.001c30.667 -41.333 42 -89.333 34 -144c-9.33301 -60 -36 -100 -80 -120c-42.667 -21.333 -81.334 -12 -116.001 28s-48 92 -40 156c1.33301 21.333 6.66602 39.333 15.999 54z" />
    <glyph glyph-name="D" unicode="D" 
d="M330 170h237.999c138.667 0 244 84.667 316 254c70.667 173.333 69.334 341.333 -3.99902 504c-74.667 169.333 -180 254 -316 254h-234v-1012zM563.999 1350c196 0 343.333 -112 442 -336c100 -224 101.333 -448.667 4 -674c-100 -226.667 -247.333 -340 -442 -340h-568
v126l170 44v1012l-170 44v124h564z" />
    <glyph glyph-name="E" unicode="E" 
d="M326 610v-440h550l46 236h106v-406h-1028v146l166 24v1016l-166 18v152h1028v-404h-106l-46 234h-550v-418h278l24 136h106v-436h-106l-24 142h-278z" />
    <glyph glyph-name="F" unicode="F" 
d="M664 0h-666v146l168 24v1018l-168 18v150h1028v-402h-102l-48 234h-550v-420h280l18 136h110v-438h-110l-18 144h-280v-440l338 -46v-124z" />
    <glyph glyph-name="G" unicode="G" 
d="M858 318v191.998l-286 52v154h444v-892h-100l-56 270c-78.667 -89.333 -163.334 -132.666 -254.001 -129.999c-134.667 4 -252.667 74 -354 210c-85.333 116 -128 283.333 -128 502c0 197.333 51.333 366 154 506c98.667 136 215.334 203.333 350.001 202
c88 -1.33301 180 -41.333 276 -120c32 -26.667 61.333 -58.667 88 -96c30.667 -41.333 42 -89.333 34 -144c-9.33301 -60 -36 -100 -80 -120c-42.667 -20 -81.334 -10 -116.001 30c-33.333 38.667 -46.666 90 -39.999 154c2.66699 21.333 8 40 16 56
c-53.333 45.333 -113.333 68 -180 68c-98.667 0 -185.334 -62 -260.001 -186c-58.667 -98.667 -88 -214 -88 -346c0 -180 39.333 -318.667 118 -416c70.667 -85.333 140 -126 208 -122c98.667 2.66699 183.334 61.334 254.001 176.001z" />
    <glyph glyph-name="H" unicode="H" 
d="M328 610v-440l160 -22v-148h-488v148l168 22v1018l-168 18v150h488v-150l-160 -18v-420h512v412l-160 24v152h470v-152l-150 -24v-1016l150 -18v-146h-470v146l160 18v446h-512z" />
    <glyph glyph-name="I" unicode="I" 
d="M654 162l294 -34v-128h-746v132l292 30v1018l-292 42v134h746v-130l-294 -46v-1018z" />
    <glyph glyph-name="J" unicode="J" 
d="M226 112c-2.66699 -21.333 -4.00098 -33.333 -4.00098 -36c0 -117.333 47.333 -209.333 142 -276c81.333 -57.333 176.666 -64.666 285.999 -21.999c108 41.333 162 107.333 162 198v1206l-354 44v128h692v-142l-192 -30v-1218c0 -145.333 -82.667 -253.333 -248 -324
c-158.667 -68 -304 -57.333 -436 32c-129.333 88 -192.666 219.333 -189.999 394c1.33301 85.333 28 162.666 80 231.999c29.333 38.667 70 54.667 122 48c50.667 -6.66699 85.334 -32.667 104.001 -78c22.667 -56 14.667 -102.667 -24 -140
c-41.333 -40 -88 -45.333 -140 -16z" />
    <glyph glyph-name="K" unicode="K" 
d="M548 624c-64 -48 -138 -87.332 -222 -117.999v-336l160 -22v-148h-484v148l164 22v1018l-164 20v148h484v-148l-160 -20v-504c134.667 73.333 219.334 130.666 254.001 171.999c148 164 231.333 330.667 250 500h348v-110l-220 -60
c-66.667 -182.667 -163.334 -338.667 -290.001 -468c136 -134.667 253.333 -320 352 -556l158 -14v-148h-470v148l152 14c-72 146.667 -176 300.667 -312 462z" />
    <glyph glyph-name="L" unicode="L" 
d="M326 172h544l50 234h110v-404h-1032v146l168 22v1016l-168 20v150h652v-128l-324 -42v-1014z" />
    <glyph glyph-name="M" unicode="M" 
d="M326 900v-730l160 -22v-148h-486v148l166 22v1016l-166 22v148h268l322 -700l302 700h258v-152l-152 -24v-1018l152 -14v-148h-470v148l158 14v722l-162 -436h-166z" />
    <glyph glyph-name="N" unicode="N" 
d="M842 418v766l-164 20v152h472v-152l-148 -20v-1022l148 -14v-148h-254l-568 942v-772l160 -22v-148h-490v148l166 22v1016l-166 20v150h266z" />
    <glyph glyph-name="O" unicode="O" 
d="M576 1390c117.333 0 221.332 -61.334 311.999 -184.001c105.333 -140 158 -322.667 158 -548c0 -196 -46.667 -365.333 -140 -508c-93.333 -136 -203.333 -204 -330 -204c-130.667 0 -242.667 72 -336 216c-90.667 140 -136 308.667 -136 506
c0 202.667 48.667 375.334 146 518.001c90.667 136 199.334 204 326.001 204zM573.999 1216c-93.333 0 -172.668 -62.667 -238.001 -188c-50.667 -101.333 -76 -218.666 -76 -351.999c0 -172 38.667 -313.333 116 -424c58.667 -82.667 124.667 -124 198 -124
c92 0 170.667 62 236 186c54.667 102.667 82 220 82 352c0 177.333 -38.667 320.666 -116 429.999c-57.333 80 -124.666 120 -201.999 120z" />
    <glyph glyph-name="P" unicode="P" 
d="M710 634h-380.001v-464l426 -44v-126h-756v126l170 44v1012l-170 46v122h692c114.667 0 208.667 -49.333 282 -148c68 -90.667 91.333 -182 70 -274c-45.333 -196 -156.666 -294 -333.999 -294zM709.999 804c64 0 114.667 36.667 152 110
c30.667 60 24.667 122.667 -18 188c-36 53.333 -86.667 80 -152 80h-362v-378h380z" />
    <glyph glyph-name="Q" unicode="Q" 
d="M722 -92v91.999c-56 -36 -99.333 -54 -130 -54c-132 0 -244.667 72 -338 216c-89.333 140 -134 308.667 -134 506c0 202.667 47.333 375.334 142 518.001c90.667 136 200.667 204 330 204c116 0 220 -61.333 312 -184c105.333 -140 158 -322.667 158 -548
c0 -220 -46.667 -389.333 -140 -508l-40 -52v-140c0 -49.333 21.333 -82 64 -98c77.333 -26.667 145.333 -24.667 204 6c20 10.667 31.333 21.334 34 32.001l82 -88c-12 -26.667 -34 -50 -66 -70c-126.667 -84 -244.667 -87.333 -354 -10
c-82.667 57.333 -124 116.666 -124 177.999zM470 177.999c36 -33.333 75.335 -49.999 118.002 -49.999c52 0 98.667 24 140 72v70c0 25.333 -8.66699 50.666 -26 75.999c-34.667 44 -79.334 63.333 -134.001 58s-93.334 -33.333 -116.001 -84s-16.667 -98 18 -142z
M842.002 384c41.333 88 62 181.998 62 281.998c0 181.333 -40 326 -120 434c-58.667 77.333 -124 116 -196 116c-93.333 0 -173.333 -61.333 -240 -184c-50.667 -101.333 -76 -220 -76 -356c0 -108 14.667 -202.667 44 -284c2.66699 6.66699 5.33398 11.334 8.00098 14.001
c48 106.667 121.333 172.667 220 198c77.333 18.667 147.333 -2.66602 210 -63.999c33.333 -30.667 62.666 -82.667 87.999 -156z" />
    <glyph glyph-name="R" unicode="R" 
d="M488 634h-180.001v-464l154 -44v-126l-464 2v122l152 46v1012l-152 46v122h642c108 0 198.667 -50.667 272 -152c64 -92 86 -182 66 -270c-41.333 -185.333 -126.666 -283.333 -255.999 -294l66 -66c65.333 -65.333 106 -137.333 122 -216l32 -174l208 -56v-122h-350
l-34 290c-6.66699 56 -46.667 120 -120 192zM657.999 804c62.667 0 110.667 36.667 144 110c28 58.667 22 120 -18 184c-34.667 56 -82.667 84 -144 84h-332v-378h350z" />
    <glyph glyph-name="S" unicode="S" 
d="M148 298c-8 57.333 4 110.668 36 160.001c26.667 38.667 62.334 56.667 107.001 54s80.334 -24 107.001 -64c21.333 -32 30 -75.333 26 -130s-20 -86 -48 -94c74.667 -57.333 146.667 -84 216 -80c120 6.66699 201.333 43.334 244 110.001c56 86.667 50.667 166 -16 238
c-24 24 -53.333 41.333 -88 52l-314 122c-121.333 41.333 -202 126 -242 254c-36 113.333 -16 216 60 308c82.667 104 190.667 156.667 324 158c149.333 2.66699 267.333 -46.666 354 -147.999c30.667 -34.667 48 -68 52 -100c13.333 -70.667 9.33301 -114 -12 -130
c-38.667 -32 -78.667 -55.333 -120 -70c-45.333 -8 -81.333 20 -108 84c-20 46.667 -17.333 100 8 160c-74.667 21.333 -135.334 26.666 -182.001 15.999c-96 -20 -157.333 -50.667 -184 -92c-46.667 -74.667 -46 -138.667 2 -192c25.333 -29.333 54 -51.333 86 -66
l326 -126c113.333 -40 184.666 -100.667 213.999 -182c56 -137.333 57.333 -261.333 4 -372c-68 -142.667 -202.667 -213.334 -404 -212.001c-104 0 -206 38.667 -306 116c-78.667 61.333 -126 136.666 -142 225.999z" />
    <glyph glyph-name="T" unicode="T" 
d="M240 1184l-50 -252h-102v424h974v-424h-106l-38 252h-256v-1024l296 -30v-130h-738v134l286 26v1024h-266z" />
    <glyph glyph-name="U" unicode="U" 
d="M328 416c0 -101.333 42.667 -177.999 128 -229.999c76 -48 156 -47.333 240 2c98.667 57.333 148 132.666 148 225.999v768l-166 22v152h472v-154l-150 -20v-766c0 -168 -75.333 -294 -226 -378c-136 -77.333 -268 -78 -396 -2c-142.667 82.667 -214 208 -214 376v776
l-162 18v150h486v-150l-160 -18v-772z" />
    <glyph glyph-name="V" unicode="V" 
d="M872 1186l-96 20v148h374v-148l-112 -20l-388 -1256h-156l-384 1256l-108 20l-2 148h366v-148l-100 -20l316 -1040z" />
    <glyph glyph-name="W" unicode="W" 
d="M504 710h146l162 -536l80 1008l-112 26v148h370v-148l-118 -22l-120 -1250h-172l-160 558l-166 -558h-174l-128 1250l-110 22l-2 148h364v-148l-110 -26l96 -1014z" />
    <glyph glyph-name="X" unicode="X" 
d="M672 674l330 -512l148 -18v-144h-472v144l158 16l-258 402l-248 -394l158 -22l-2 -146h-484l-2 144l158 24l318 504l-306 514l-168 22l-2 148h486v-150l-156 -18l244 -402l260 398l-158 20v152h474v-152l-148 -22z" />
    <glyph glyph-name="Y" unicode="Y" 
d="M666 490v-328l292 -32v-130h-738v132l286 30v332l-364 696l-142 18v148h486v-148l-156 -20l256 -536l248 532l-150 20v152h466v-152l-110 -16z" />
    <glyph glyph-name="Z" unicode="Z" 
d="M1062 1228l-746 -1058h604l38 254h110v-424h-980v104l756 1082h-610l-46 -252h-106v422h980v-128z" />
    <glyph glyph-name="bracketleft" unicode="[" 
d="M496 1612h554v-142h-376v-1576h376v-144l-554 2v1860z" />
    <glyph glyph-name="backslash" unicode="\" 
d="M154 1664l1012 -1970h-170l-1012 1970h170z" />
    <glyph glyph-name="bracketright" unicode="]" 
d="M680 -248l-554 -2v144h376v1576h-376v142h554v-1860z" />
    <glyph glyph-name="asciicircum" unicode="^" 
d="M150 830l428 750h2l432 -750h-210l-222 400l-222 -400h-208z" />
    <glyph glyph-name="underscore" unicode="_" 
d="M0 -146h1150v-166h-1150v166z" />
    <glyph glyph-name="grave" unicode="`" 
d="M700 768h-88l-182 522c-32 92 -16.667 138 46 138h120c69.333 0 104 -46 104 -138v-522z" />
    <glyph glyph-name="a" unicode="a" 
d="M808 416h-202c-88 0 -167.333 -16.667 -238 -50c-40 -20 -60 -53.333 -60 -100c1.33301 -44 22 -78 62 -102c41.333 -25.333 96 -32 164 -20c102.667 18.667 200.667 56 294 112zM784 572l-8 66c-6.66699 56 -42 94 -106 114c-89.333 28 -166 28.667 -230 2l-142 -54
l-52 148l152 58c112 41.333 222.667 38.666 332 -8.00098c116 -53.333 182.667 -138 200 -254l60 -456c5.33301 -37.333 23.333 -58 54 -62c18.667 -5.33301 43.334 -4.66602 74.001 2.00098l32 4l36 -82l-16 -14c-54.667 -52 -119.334 -60.667 -194.001 -26
c-40 18.667 -72.667 48.667 -98 90l-32 -12c-160 -68 -270 -106 -330 -114c-92 -9.33301 -166 6.66699 -222 48c-90.667 68 -140 143.333 -148 226c-8 98.667 26 180 102 244c65.333 53.333 165.333 80 300 80h236z" />
    <glyph glyph-name="b" unicode="b" 
d="M464 164c122.667 0 208.001 18.667 256.001 56c62.667 48 104.667 116 126 204c20 88 3.33301 174 -50 258c-52 81.333 -136.667 107.333 -254 78c-82.667 -20 -151.334 -102.667 -206.001 -248c-14.667 -38.667 -22 -98 -22 -178v-170h150zM466.001 0
l-468.001 0.00195312v146l154 24v1020h-154v82l222 84h94v-626c65.333 116 149.333 180.667 252 194c176 21.333 298 -29.334 366 -152.001c74.667 -134.667 99.334 -265.334 74.001 -392.001c-24 -124 -98 -228.667 -222 -314c-64 -44 -170 -66 -318 -66z" />
    <glyph glyph-name="c" unicode="c" 
d="M920 144c-82.667 -116 -188.667 -173.997 -318 -173.997c-166.667 0 -284 46 -352 138c-112 152 -144 313.333 -96 484c52 181.333 161.333 292 328 332c145.333 34.667 286 -16 422 -152c4 -4 12.667 -17.333 26 -40c21.333 -32 29.333 -60.667 24 -86
c-13.333 -62.667 -39.333 -105.334 -78 -128.001s-80.667 -21.334 -126 3.99902c-30.667 16 -48.667 48.667 -54 98c-5.33301 46.667 2.66699 84.667 24 114c-76 48 -153.333 54 -232 18c-102.667 -46.667 -164.667 -114 -186 -202c-26.667 -114.667 -6.66699 -222 60 -322
c45.333 -64 126 -96 242 -96c69.333 1.33301 131.333 34.666 186 99.999l42 50l122 -90z" />
    <glyph glyph-name="d" unicode="d" 
d="M1006 228c0 -37.333 9.33301 -62.667 28 -76c16 -12 34.667 -15.333 56 -10l24 6l36 -84l-16 -14c-73.333 -64 -145.333 -76 -216 -36c-36 20 -56.667 49.333 -62 88l-10 72c-61.333 -114.667 -149.333 -180 -264 -196c-173.333 -24 -294.666 28 -363.999 156
c-74.667 140 -99.334 274 -74.001 402s99.333 236 222 324c62.667 44 162 66 298 66h182v264h-170v82l240 82h90v-1126zM848 579.999l-1.99902 176h-180c-108 0 -187.333 -18.667 -238 -56c-68 -52 -110 -122 -126 -210c-20 -104 -3.33301 -192 50 -264
c65.333 -89.333 152.666 -112 261.999 -68c158.667 64 236.667 204.667 234 422z" />
    <glyph glyph-name="e" unicode="e" 
d="M292 508l567.999 0.000976562c4 5.33301 -2 32 -18 80c-42.667 117.333 -128.667 178.666 -258 183.999c-96 5.33301 -180 -45.334 -252 -152.001c-17.333 -25.333 -30.666 -62.666 -39.999 -111.999zM301.999 360.001l11.999 -32.001c46.667 -124 132 -186.667 256 -188
c165.333 -1.33301 270 16 314 52l58 -128c-96 -65.333 -220.667 -96 -374 -92c-172 4 -298 88 -378 252c-80 160 -75.333 321.333 14 484c85.333 154.667 211.333 229.334 378 224.001c182.667 -6.66699 310.667 -90 384 -250c42.667 -92 57.334 -199.333 44.001 -322h-708z
" />
    <glyph glyph-name="f" unicode="f" 
d="M692 1228c-16 0 -30.667 -0.666992 -44 -2c-141.333 -16 -212 -102.667 -212 -260v-120h512v-162h-512v-516l382 -64v-104h-712v126l172 42v516h-140v162h140v134c0 144 49.333 250 148 318c77.333 50.667 160 76 248 76c125.333 0 212 -34 260 -102
c20 -28 24.667 -63.333 14 -106c-12 -49.333 -43.333 -81.333 -94 -96c-53.333 -16 -98.666 -5.33301 -135.999 32c-30.667 30.667 -39.334 72.667 -26.001 126z" />
    <glyph glyph-name="g" unicode="g" 
d="M832 792c64 -89.333 68.665 -183.334 13.998 -282.001c-56 -102.667 -139.333 -158 -250 -166c-37.333 -9.33301 -74.666 -14 -111.999 -14c-18.667 0 -42 -2 -70 -6c-37.333 -5.33301 -58 -19.333 -62 -42c-2.66699 -12 19.333 -25.333 66 -40
c56 -18.667 107.333 -27.334 154 -26.001c66.667 2.66699 165.334 -17.333 296.001 -60c69.333 -22.667 129.333 -64.667 180 -126c72 -86.667 80 -162 24 -226c-100 -117.333 -232 -188.666 -396 -213.999c-160 -24 -314 2.66699 -462 80
c-117.333 62.667 -176.666 147.334 -177.999 254.001c-1.33301 82.667 54.667 152.667 168 210c-64 48 -84.667 104.667 -62 170c16 46.667 54 85.334 114 116.001l-46 34c-80 97.333 -90 200 -30 308c61.333 109.333 162 168.666 302 177.999
c97.333 6.66699 180.666 -11.333 249.999 -54l80 70h360l-94 -164h-246zM471.998 479.999c56 -5.33301 102.001 0.667969 138.001 18.001c56 28 86.667 60.667 92 98c5.33301 64 -15.334 113.333 -62.001 148c-53.333 38.667 -114 48.667 -182 30
c-50.667 -14.667 -88.667 -51.334 -114 -110.001c-13.333 -37.333 -5.33301 -76 24 -116c25.333 -36 60 -58.667 104 -68zM519.999 44c-144 -16 -242.667 -50.667 -296 -104c-48 -48 -25.333 -94 68 -138c100 -46.667 213.333 -64 340 -52
c137.333 10.667 228 43.334 272 98.001c40 52 18 100 -66 144c-94.667 49.333 -200.667 66.666 -318 51.999z" />
    <glyph glyph-name="h" unicode="h" 
d="M840 422c0 128 -16.667 220.002 -50 276.002c-36 61.333 -118.667 76.666 -248 45.999c-104 -24 -182 -107.333 -234 -250c-13.333 -37.333 -20 -94 -20 -170v-164l170 -38v-122l-460 2v100l128 58v1032h-128v78l196 82h94v-620c68 109.333 175.333 174.666 322 195.999
c125.333 18.667 234 -25.333 326 -132c42.667 -49.333 64 -167.333 64 -354v-286l150 -40v-116h-470v116l160 40v266z" />
    <glyph glyph-name="i" unicode="i" 
d="M426 1192c-28 46.667 -25.666 92.001 7.00098 136.001s79 64.667 139 62s103.667 -27.334 131 -74.001s24.666 -91.667 -8.00098 -135s-79 -64 -139 -62s-103.333 26.333 -130 73zM668.001 164.001l294 -36v-128h-740v134l282 30v570h-206v96l250 68h120v-734z" />
    <glyph glyph-name="j" unicode="j" 
d="M426 1192c-28 46.667 -25.666 92.001 7.00098 136.001s79 64.667 139 62s103.667 -27.334 131 -74.001s24.666 -91.667 -8.00098 -135s-79 -64 -139 -62s-103.333 26.333 -130 73zM666.001 898.001l-0.000976562 -932.001c0 -126.667 -48 -226 -144 -298
c-68 -50.667 -150 -76 -246 -76c-126.667 0 -213.334 34.667 -260.001 104c-20 29.333 -24.667 64 -14 104c14.667 50.667 46.667 83.334 96 98.001c54.667 16 100 6 136 -30c30.667 -30.667 39.334 -74 26.001 -130c14.667 1.33301 29.334 2 44.001 2
c136 0 204 79.333 204 238v756h-208v94l256 70h110z" />
    <glyph glyph-name="k" unicode="k" 
d="M622 542c162.667 -101.333 288.666 -230 377.999 -386l150 -40v-116h-470v116l142 40c-69.333 114.667 -175.333 214.667 -318 300c-61.333 -56 -132.666 -105.333 -213.999 -148v-146l170 -42v-120h-460v102l126 60v1028h-126v82l198 80h92v-868
c168 89.333 310.667 238 428 446h230v-160h-140c-56 -89.333 -118 -165.333 -186 -228z" />
    <glyph glyph-name="l" unicode="l" 
d="M652 164l296 -34v-130h-746v134l284 30v1026h-168v86l234 78h100v-1190z" />
    <glyph glyph-name="m" unicode="m" 
d="M604 758c133.333 216 244.666 228.665 333.999 37.998c38.667 -84 58 -209.333 58 -376v-262l154 -42v-116h-312v488c0 172 -22.667 254.667 -68 248c-88 -13.333 -132 -124.666 -132 -333.999v-240l72 -42v-120h-228v432c-5.33301 218.667 -36.666 312 -93.999 280
c-65.333 -37.333 -98 -138 -98 -302v-246l68 -42v-122h-358v100l126 64v570h-126v80l200 86h90v-104c116 162.667 214 163.334 294 2.00098z" />
    <glyph glyph-name="n" unicode="n" 
d="M836 428c0 129.333 -15.334 219.33 -46.001 269.997c-36 61.333 -116.667 77.333 -242 48c-172 -40 -258 -178 -258 -414v-168l170 -42v-122h-460v100l126 64v570h-126v80l198 86h92v-168c68 110.667 177.333 177.334 328 200.001
c126.667 18.667 233.334 -26.666 320.001 -135.999c38.667 -49.333 58 -164.666 58 -345.999v-292l154 -38v-120h-474v120l160 38v270z" />
    <glyph glyph-name="o" unicode="o" 
d="M850 350c36 117.333 17.332 222 -56.001 314s-164 125.333 -272 100s-179.667 -95.333 -215 -210s-16.666 -218.667 56.001 -312s163 -128 271 -104s180 94.667 216 212zM479.999 922c166.667 40 307.667 -8.66797 423 -146.001s147 -295.333 95 -474
s-161 -288 -327 -328s-307 9 -423 147s-148 296.333 -96 475s161.333 287.334 328 326.001z" />
    <glyph glyph-name="p" unicode="p" 
d="M328 332v-168h180c110.667 0 192 18 244 54c76 52 122 119.333 138 202c5.33301 28 8 54.667 8 80c0 61.333 -18.667 120 -56 176c-42.667 65.333 -102 98 -178 98c-26.667 0 -56 -4.66699 -88 -14c-106.667 -30.667 -182.667 -114.667 -228 -252
c-13.333 -41.333 -20 -100 -20 -176zM166 -238v981.999h-166v84l230 86h98v-172c54.667 106.667 149.334 168.667 284.001 186c170.667 22.667 290 -28 358 -152c73.333 -133.333 97.333 -265.333 72 -396c-24 -125.333 -95.333 -230.666 -214 -315.999
c-58.667 -42.667 -163.334 -64 -314.001 -64h-186v-238l276 -66v-102h-604v102z" />
    <glyph glyph-name="q" unicode="q" 
d="M868 332c0 82.667 -5.33301 141.333 -16 176c-45.333 145.333 -120.666 232 -225.999 260c-124 32 -216 4 -276 -84c-50.667 -74.667 -66 -162 -46 -262c17.333 -84 64.666 -151.333 141.999 -202c56 -36 139.333 -54 250 -54h172v166zM1026 -238.001l128 -66.001v-102
h-564v102l278 66v238h-176c-152 0 -258.667 22 -320 66c-124 88 -198.667 193.333 -224 316c-24 118.667 1.33301 250 76 394c57.333 110.667 179.333 155.334 366 134.001c136 -16 228.667 -72 278 -168v172h92l194 -86v-84h-128v-982z" />
    <glyph glyph-name="r" unicode="r" 
d="M722 774c-38.667 10.667 -92.0039 7.33301 -160.004 -10c-121.333 -32 -206 -120.667 -254 -266c-12 -41.333 -18 -101.333 -18 -180v-150l338 -48v-120h-628v100l126 66v568h-126v78l200 86h90v-170c64 112 176.667 180 338 204c142.667 20 253.334 -26 332.001 -138
c0 -6.66699 4.66699 -15.334 14 -26.001c10.667 -21.333 15.334 -46.666 14.001 -75.999c-4 -58.667 -30.667 -100 -80 -124s-95.666 -19.333 -138.999 14s-63.666 78 -60.999 134c1.33301 22.667 6 42 14 58z" />
    <glyph glyph-name="s" unicode="s" 
d="M682 762c-100 36 -191.998 25.333 -275.998 -32c-28 -17.333 -43.333 -47.333 -46 -90c-1.33301 -24 11.334 -58 38.001 -102c93.333 -44 174.666 -65.333 243.999 -64c68 1.33301 146 -16.667 234 -54c68 -25.333 112.667 -67.333 134 -126
c28 -182.667 -57.333 -286.667 -256 -312c-261.333 -36 -436 -20 -524 48c-74.667 54.667 -117.334 126 -128.001 214l118 64c8 -50.667 36 -100.667 84 -150c54.667 -58.667 182 -70 382 -34c94.667 17.333 138.667 58.666 132 123.999c-4 21.333 -16 36.666 -36 45.999
c-64 30.667 -140 46 -228 46c-80 0 -161.333 23.333 -244 70c-84 49.333 -130.667 111.333 -140 186c-12 110.667 15.333 188.667 82 234c208 144 424.667 140 650 -12c14.667 -10.667 28 -22 40 -34c33.333 -33.333 49.333 -60.666 48 -81.999
c-6.66699 -65.333 -29.334 -110.666 -68.001 -135.999c-44 -28 -98.667 -33.333 -164 -16c-41.333 10.667 -70 40.667 -86 90c-17.333 48 -14 88.667 10 122z" />
    <glyph glyph-name="t" unicode="t" 
d="M406 1326l-0.00195312 -414h566v-168h-566v-408c0 -134.667 76.667 -202 230 -202h48c-14.667 56 -4 102 32 138c40 40 90.667 52 152 36c54.667 -14.667 89.334 -50.667 104.001 -108c12 -45.333 6 -84 -18 -116c-53.333 -77.333 -150 -116 -290 -116
c-109.333 0 -200.666 28 -273.999 84c-96 72 -144 152.667 -144 242l2 452h-178v164h178v264z" />
    <glyph glyph-name="u" unicode="u" 
d="M770 66c-52 -45.333 -131.999 -75.334 -239.999 -90.001c-157.333 -22.667 -275.333 21.333 -354 132c-33.333 50.667 -50 160.667 -50 330v298l-126 -2v82l200 86h92v-446c0 -110.667 12.667 -190.667 38 -240c38.667 -66.667 125.667 -83.667 261 -51
s219.666 110.334 252.999 233.001c12 48 18 106 18 174v166h-154v102l210 64h108v-684c0 -30.667 8.66699 -54.667 26 -72c17.333 -10.667 36 -14 56 -10l24 8l34 -84l-16 -12c-54.667 -45.333 -120 -61.333 -196 -48c-38.667 8 -64.667 41.333 -78 100l-16 72
c-21.333 -45.333 -51.333 -81.333 -90 -108z" />
    <glyph glyph-name="v" unicode="v" 
d="M840 734l-148 24v144h458v-152l-126 -22l-370 -796h-162l-370 808l-122 12v150h462v-144l-168 -22l280 -624z" />
    <glyph glyph-name="w" unicode="w" 
d="M402 266l116 362h112l142 -368l86 480l-164 28v132h456v-134l-130 -24l-164 -810h-110l-168 456l-142 -456h-112l-196 808l-128 14v148h464v-134l-172 -26z" />
    <glyph glyph-name="x" unicode="x" 
d="M464 444l-382 322l-80 22v114h462v-114l-144 -22l250 -218l250 218l-126 22v114h456v-114l-82 -22l-388 -322l366 -306l104 -26v-112h-456v112l108 26l-232 198l-230 -198l126 -26v-112h-464v112l100 26z" />
    <glyph glyph-name="y" unicode="y" 
d="M514 44l-387.998 695.998l-124 16v148h466v-144l-168 -22l302 -546l242 536l-148 34v142h456v-158l-130 -20l-462 -952c-46.667 -97.333 -121.334 -156 -224.001 -176c-80 -16 -165.333 -3.33301 -256 38c-117.333 54.667 -181.333 124 -192 208
c-4 34.667 7.33301 67.334 34 98.001c32 40 74.667 56 128 48c54.667 -9.33301 90.667 -38.666 108 -87.999c14.667 -41.333 4.66699 -84 -30 -128l40 -16c117.333 -46.667 202.666 -14.667 255.999 96z" />
    <glyph glyph-name="z" unicode="z" 
d="M1028 804l-656 -640h570l32 152h94v-316h-984v102l654 632h-500l-46 -164h-92v332h928v-98z" />
    <glyph glyph-name="braceleft" unicode="{" 
d="M508 964v475.998c0 110.667 90.667 166 272 166h168v-144h-66c-125.333 0 -188 -38 -188 -114v-374c0 -109.333 -50.667 -198.666 -152 -267.999c101.333 -58.667 152 -152.667 152 -282v-442c17.333 -57.333 86 -88.666 206 -93.999l48 -2v-144h-130
c-205.333 0 -308 64 -308 192v488c0 140 -63.333 210 -190 210h-82v142h86c122.667 0 184 63.333 184 190z" />
    <glyph glyph-name="bar" unicode="|" 
d="M504 -338v1970h140v-1970h-140z" />
    <glyph glyph-name="braceright" unicode="}" 
d="M618 964c0 -126.667 61.333 -189.998 184 -189.998h86v-142h-82c-126.667 0 -190 -70 -190 -210v-488c0 -128 -102.667 -192 -308 -192h-130v144l48 2c120 5.33301 188.667 36.666 206 93.999v442c0 129.333 50.667 223.333 152 282
c-101.333 69.333 -152 158.666 -152 267.999v374c0 76 -62.667 114 -188 114h-66v144h168c181.333 0 272 -55.333 272 -166v-476z" />
    <glyph glyph-name="asciitilde" unicode="~" 
d="M186 406c17.333 241.333 98.001 362 242.001 362c86.667 0 142 -15.333 166 -46l46 -58c36 -45.333 79.333 -61.333 130 -48c46.667 12 70.667 54.667 72 128h122c0 -216 -69.333 -326.667 -208 -332c-68 -2.66699 -127.333 24 -178 80l-42 46
c-28 30.667 -63.333 44 -106 40c-62.667 -4 -101.334 -61.333 -116.001 -172h-128z" />
    <glyph glyph-name="multiply" unicode="&#xd7;" horiz-adv-x="1190" 
d="M100 799l89 97l308 -292l286 302l95 -89l-287 -302l305 -290l-92 -97l-305 289l-289 -304l-95 89l289 305z" />
    <glyph glyph-name="uni1000" unicode="&#x1000;" horiz-adv-x="1920" 
d="M1577 125c-97.333 -95.333 -207.331 -142.999 -329.998 -142.999c-22.667 0 -51 2.66699 -85 8c-10 1.33301 -21 3.66602 -33 6.99902c-36 12 -54 35.333 -54 70c0 50.667 24 76 72 76c10 0 26.5 -3 49.5 -9s40.5 -9 52.5 -9c84 0 159.333 34.333 226 103
c62.667 63.333 94 140 94 230c0 92 -31.5 170 -94.5 234s-138.833 96 -227.5 96c-90.667 0 -168.334 -33 -233.001 -99c-53.333 -51.333 -84 -123 -92 -215v-29c0 -202.667 -75.333 -350 -226 -442c-13.333 -7.33301 -26 -11 -38 -11c-20.667 0 -37.834 7.66699 -51.501 23
s-20.5 32.666 -20.5 51.999c0 23.333 11.333 42.666 34 57.999c96.667 62 148.667 161 156 297c-2 14 -2 28.667 0 44c-5.33301 86.667 -39.166 161.667 -101.499 225s-136.833 95 -223.5 95c-89.333 0 -166 -33.667 -230 -101s-96 -147.333 -96 -240
c0 -58 15.5 -116.833 46.5 -176.5s73.833 -107.5 128.5 -143.5c20 -15.333 30 -34.666 30 -57.999c0 -20.667 -6.83301 -38.667 -20.5 -54s-30.5 -23 -50.5 -23c-14 0 -27.667 4.33301 -41 13c-73.333 50.667 -131.333 117 -174 199s-64 163 -64 243
c0 132 46 245.667 138 341s203 143 333 143c172 0 304 -74 396 -222c19.333 30.667 40.666 58.667 63.999 84c96 94 207 141 333 141c128 0 238.167 -45.667 330.5 -137s138.5 -203.666 138.5 -336.999c0 -131.333 -45.333 -242.333 -136 -333z" />
    <glyph glyph-name="uni1001" unicode="&#x1001;" horiz-adv-x="1126" 
d="M901 448c0 -128 -46.501 -238.501 -139.501 -331.501s-203.5 -139.5 -331.5 -139.5c-176 0 -311.667 76.667 -407 230c-22 42.667 -33 89 -33 139c0 22 3.33301 36.333 10 43c90.667 88.667 190.667 133 300 133c50.667 0 101.667 -9.33301 153 -28
c104 -39.333 182.667 -118.666 236 -237.999c44 58 66 122 66 192c0 90.667 -31.167 167.167 -93.5 229.5s-139.5 93.5 -231.5 93.5c-102.667 0 -187 -40.333 -253 -121l-29 -33l-2 3c-2 0 -1.33301 1.66699 2 5c4 3.33301 6 2.33301 6 -3c-14 -28.667 -34.667 -43 -62 -43
c-20.667 0 -39 7.66699 -55 23s-24 33 -24 53c0 12 3.33301 23.333 10 34c-2 1.33301 -3 3 -3 5l3 2c5.33301 7.33301 19 24.666 41 51.999c97.333 112 219.333 168 366 168c134.667 0 246.834 -45.167 336.501 -135.5s134.5 -201.166 134.5 -332.499zM567.999 153.999
c-27.333 104 -82.665 171.335 -165.998 202.002c-44.667 15.333 -82.334 23 -113.001 23c-52.667 0 -104.667 -24.667 -156 -74c0 1.33301 7 -8.33398 21 -29.001c3.33301 -6.66699 12.666 -18.334 27.999 -35.001c68 -78.667 150.667 -118 248 -118
c41.333 0 87.333 10.333 138 31z" />
    <glyph glyph-name="uni1002" unicode="&#x1002;" horiz-adv-x="1126" 
d="M916 445c0 -174 -55.332 -322.334 -165.999 -445.001c-15.333 -15.333 -33.333 -23 -54 -23c-18.667 0 -35.667 7.66699 -51 23s-23 32.333 -23 51s7 35.667 21 51c85.333 90.667 128 205 128 343c0 99.333 -29 175.333 -87 228c-68.667 63.333 -148.334 95 -239.001 95
c-86.667 0 -160 -28 -220 -84c-66.667 -62 -100 -141.667 -100 -239c0 -139.333 43.667 -253.666 131 -342.999c13.333 -15.333 20 -32.333 20 -51c0 -20.667 -7.66699 -38.167 -23 -52.5s-32.333 -21.5 -51 -21.5c-20 0 -38 7.66699 -54 23c-112 122.667 -168 271 -168 445
c0 60 13.5 122.833 40.5 188.5s61.167 118.167 102.5 157.5c88.667 82 195.334 123 320.001 123c131.333 0 245.666 -44.333 342.999 -133c86.667 -80.667 130 -192.667 130 -336z" />
    <glyph glyph-name="uni1003" unicode="&#x1003;" horiz-adv-x="1905" 
d="M1229 -23c-126.667 0 -237.666 47.6641 -332.999 142.997c-24 26 -45.333 54.333 -64 85c-92 -152 -224.333 -228 -397 -228c-100.667 0 -195 35.333 -283 106s-143 151.334 -165 242.001c-10 20.667 -12.333 52.334 -7 95.001c10 61.333 30.333 101.333 61 120
c18.667 22 48.667 40.667 90 56c78 32.667 118.667 69.667 122 111c0 18.667 -15.333 36.334 -46 53.001c-20 10.667 -40.333 15 -61 13c-24 -1.33301 -36 -9.66602 -36 -24.999c0 -50 -24 -75 -72 -75c-49.333 0 -74 25 -74 75c0 46 22.667 84.333 68 115s95.333 46 150 46
c36 0 66.667 -7 92 -21c85.333 -44 126.333 -106.333 123 -187c-3.33301 -74.667 -39.333 -136.667 -108 -186c-13.333 -8.66699 -49 -25 -107 -49c-15.333 -5.33301 -28.333 -14.666 -39 -27.999c-16.667 -27.333 -23.834 -48.333 -21.501 -63s1.83301 -28 -1.5 -40
c14 -52.667 53 -101.167 117 -145.5s130 -66.5 198 -66.5c87.333 0 162.166 31.5 224.499 94.5s95.833 138.167 100.5 225.5c-1.33301 15.333 -1.33301 29.666 0 42.999c-6.66699 136.667 -58.667 235.667 -156 297c-22 15.333 -33 35 -33 59
c0 18.667 6.83301 35.667 20.5 51s30.834 23 51.501 23c11.333 0 24 -3.33301 38 -10c150 -92 225 -239.667 225 -443v-28c8.66699 -88.667 39.334 -159.334 92.001 -212.001c66.667 -66.667 143.667 -100 231 -100c86.667 0 162 32 226 96s96 141.333 96 232
c0 90 -32.333 167.833 -97 233.5s-138 98.5 -220 98.5c-10 0 -19.833 -0.333008 -29.5 -1s-21.334 -3.66699 -35.001 -9s-26.167 -8 -37.5 -8c-46.667 0 -70 25.667 -70 77c0 30.667 15.833 52.5 47.5 65.5s71.5 19.5 119.5 19.5c122.667 0 232.667 -48 330 -144
c90.667 -90 136 -200.667 136 -332c0 -132 -46.167 -244 -138.5 -336s-201.5 -138 -327.5 -138z" />
    <glyph glyph-name="uni1004" unicode="&#x1004;" horiz-adv-x="1126" 
d="M860 694c0 -2 -1.66406 -2.99805 -4.99707 -2.99805h-3v3v2c8.66699 -13.333 13 -26 13 -38c0 -20.667 -8 -38.667 -24 -54s-34.333 -23 -55 -23c-27.333 0 -48 14.667 -62 44c-1.33301 1.33301 -1.33301 3 0 5l-20 23c-64.667 78.667 -149 118 -253 118
c-92.667 0 -170.167 -31.167 -232.5 -93.5s-93.5 -137.833 -93.5 -226.5c0 -89.333 32.5 -166.333 97.5 -231s141.167 -97 228.5 -97c114 0 196.667 35.667 248 107c5.33301 5.33301 12 15 20 29c12 35.333 35 53 69 53c50 0 75 -23.667 75 -71
c0 -20.667 -14.667 -52.334 -44 -95.001c-78.667 -112.667 -201.334 -169 -368.001 -169c-128 0 -238.5 47 -331.5 141s-139.5 205 -139.5 333c0 129.333 45.167 239.166 135.5 329.499s202.166 135.5 335.499 135.5c73.333 0 145.666 -17.667 216.999 -53
c61.333 -32.667 111 -70.334 149 -113.001l23 -28c4.66699 -6.66699 8.66699 -12.667 12 -18l3 -3c2 -3.33301 3.66699 -5.66602 5 -6.99902z" />
    <glyph glyph-name="uni1005" unicode="&#x1005;" horiz-adv-x="1128" 
d="M916 445c0 -129.333 -46.8311 -239.667 -140.498 -331s-203.834 -137 -330.501 -137c-126 0 -234.667 45.667 -326 137s-137 204.333 -137 339c0 133.333 45.167 243.833 135.5 331.5s200.5 131.5 330.5 131.5c133.333 0 244.666 -46.5 333.999 -139.5
s134 -203.5 134 -331.5zM676.002 222.999c63.333 59.333 95.001 133.333 95.001 222c0 89.333 -30.333 165.5 -91 228.5s-135.334 94.5 -224.001 94.5c-32.667 0 -64.334 -4.33301 -95.001 -13c94 -80 141 -182.333 141 -307s-48.667 -228.667 -146 -312
c27.333 -8.66699 55.333 -13 84 -13c88.667 0 167.334 33.333 236.001 100zM356.003 447.999c0 97.333 -46 174 -138 230c0 -1.33301 -1 -3.66602 -3 -6.99902l-8 -13c-39.333 -66.667 -62.333 -133.334 -69 -200.001c-10 -97.333 18.333 -178.333 85 -243
c88.667 60 133 137.667 133 233z" />
    <glyph glyph-name="uni1006" unicode="&#x1006;" horiz-adv-x="1887" 
d="M1679 451c0 -128 -46.5029 -238.501 -139.503 -331.501s-204.167 -139.5 -333.5 -139.5c-167.333 0 -298 71.667 -392 215c-95.333 -145.333 -226.666 -218 -393.999 -218c-145.333 0 -265.666 55.333 -360.999 166c-12 15.333 -25.667 34.333 -41 57
c-30.667 49.333 -36.667 97 -18 143c85.333 78.667 175 118 269 118c40.667 0 85.667 -7 135 -21c112.667 -30.667 191.334 -107.334 236.001 -230.001c54.667 51.333 88.667 111 102 179c-3.33301 20.667 -5 41.334 -5 62.001c0 20 1.66699 41.333 5 64
c-15.333 73.333 -52.833 134.333 -112.5 183s-129.5 73 -209.5 73c-104 0 -188.667 -39.333 -254 -118l-23 -23c2 -12 -4.66699 -23.167 -20 -33.5s-29 -15.5 -41 -15.5c-20.667 0 -39 7.66699 -55 23s-24 33.333 -24 54c0 10 2.33301 21 7 33c-1.33301 2 -1.33301 3 0 3v2
c2 2 16.667 20 44 54c37.333 42.667 86.666 80.334 147.999 113.001c72 35.333 144.667 53 218 53c170.667 0 302 -68 394 -204c90.667 138 221.334 207 392.001 207c129.333 0 240.5 -46 333.5 -138s139.5 -202 139.5 -330zM1533 450.999c0 86.667 -32 162.002 -96 226.002
s-141 96 -231 96c-80.667 0 -150 -24.333 -208 -73s-94.667 -110.334 -110 -185.001c3.33301 -22.667 5 -44 5 -64c0 -20.667 -1.66699 -41.334 -5 -62.001c15.333 -75.333 53 -138.5 113 -189.5s128.333 -76.5 205 -76.5c90 0 167 32.333 231 97s96 141.667 96 231z
M511.997 136.001c-25.333 85.333 -76.668 140.667 -154.001 166c-28.667 10 -56.667 15 -84 15c-46 0 -89.667 -14.333 -131 -43c7.33301 -10 17 -21 29 -33c66 -78.667 148.667 -118 248 -118c30.667 0 61.334 4.33301 92.001 13z" />
    <glyph glyph-name="uni1007" unicode="&#x1007;" horiz-adv-x="1091" 
d="M937 269c0 -20.667 -7.66504 -38.168 -22.998 -52.501s-33.333 -21.5 -54 -21.5c-22 0 -43.333 13.667 -64 41l-43 69c-56.667 -36 -130.334 -51.333 -221.001 -46c-61.333 3.33301 -115 27.5 -161 72.5s-69 94.167 -69 147.5c0 54.667 23 99.5 69 134.5
s98 52.5 156 52.5c73.333 0 144.333 -36.667 213 -110c-3.33301 52.667 -22 94.334 -56 125.001c-68.667 63.333 -146.334 95 -233.001 95c-90.667 0 -167.667 -32 -231 -96s-95 -139.667 -95 -227c0 -88.667 32 -166.334 96 -233.001s144 -100 240 -100
c66.667 0 119.667 16.333 159 49c16.667 12 32.667 18 48 18c46 0 69 -24.667 69 -74c0 -44.667 -38.333 -79.667 -115 -105c-58 -18.667 -113.333 -28 -166 -28c-136.667 0 -250.167 46.5 -340.5 139.5s-135.5 203.5 -135.5 331.5s46 238 138 330s202 138 330 138
c122.667 0 233.667 -42.667 333 -128c18.667 -17.333 39 -50.666 61 -99.999c27.333 -58 41 -111 41 -159c0 -34 -10.333 -72.333 -31 -115c56.667 -80 85 -129.333 85 -148zM666.002 424.999c-53.333 64.667 -101.998 96.999 -145.998 96.999
c-39.333 0 -63.333 -13.667 -72 -41c-6.66699 -20 0.166016 -37.833 20.499 -53.5s44.166 -24.167 71.499 -25.5c51.333 -3.33301 93.333 4.33398 126 23.001z" />
    <glyph glyph-name="uni1008" unicode="&#x1008;" horiz-adv-x="1434" 
d="M1231 -438c0 -87.333 -28.168 -160.331 -84.501 -218.998s-126.166 -88 -209.499 -88c-85.333 0 -156.666 28.167 -213.999 84.5s-86 127.166 -86 212.499v481c-44 -18.667 -101 -28 -171 -28c-133.333 0 -243.5 45.667 -330.5 137s-131.167 203.666 -132.5 336.999
c-2 131.333 42.167 241 132.5 329s201.166 132.667 332.499 134c133.333 2 244 -43.167 332 -135.5s132.667 -205.833 134 -340.5c2 -138 -47.333 -255.667 -148 -353v-551c0 -42.667 14.5 -78.5 43.5 -107.5s64.833 -43.5 107.5 -43.5s78 14.5 106 43.5s42 64.833 42 107.5
v1308c0 48 25 73 75 75c47.333 1.33301 71 -23.667 71 -75v-1308zM790.999 471.002c2 88.667 -29.001 164.668 -93.001 228.001s-141.333 95.666 -232 96.999c-32.667 0 -61 -5 -85 -15c92.667 -80.667 139.667 -183 141 -307c2 -120 -46.667 -224.333 -146 -313
c26 -8.66699 54.333 -13 85 -13c88.667 -1.33301 165.334 30 230.001 94s98 140.333 100 229zM375.998 474.003c2 97.333 -43.999 174.002 -137.999 230.002c-24 -20.667 -46.667 -57.334 -68 -110.001s-32 -95.334 -32 -128.001c-1.33301 -80 33.667 -155 105 -225
c87.333 59.333 131.666 137 132.999 233z" />
    <glyph glyph-name="uni1009" unicode="&#x1009;" horiz-adv-x="1126" 
d="M1667 -504c1.33301 -16.667 2 -33.668 2 -51.001c0 -126 -59 -189 -177 -189h-1198c-108.667 0 -188.167 26.333 -238.5 79s-75.5 132 -75.5 238v591c0 22 13.167 40.667 39.5 56s53.833 23 82.5 23c19.333 0 33 -3.33301 41 -10c53.333 -73.333 136.333 -110 249 -110
c86.667 0 162.5 32.833 227.5 98.5s97.5 142.834 97.5 231.501c0 90.667 -31.167 166.334 -93.5 227.001s-139.5 91 -231.5 91c-104 0 -188.667 -39.333 -254 -118l-23 -23c2 -12 -4.66699 -23.167 -20 -33.5s-29 -15.5 -41 -15.5c-20.667 0 -39.167 7.66699 -55.5 23
s-24.5 33.333 -24.5 54c0 12 3.66699 23 11 33c-2 2 -3 3.66699 -3 5h3v-2c-2 0 -3 0.666992 -3 2l3 3c1.33301 1.33301 15 18.333 41 51c93.333 110.667 215.333 166 366 166c132.667 0 244.334 -44.667 335.001 -134s136 -199 136 -329c0 -128 -47 -239.333 -141 -334
s-204 -142 -330 -142c-99.333 0 -188.333 25.667 -267 77v-481c0 -66.667 11.667 -111.834 35 -135.501s68 -35.5 134 -35.5h1198c26 0 36 26 30 78s19 78 75 78c41.333 0 64.666 -20.667 69.999 -62z" />
    <glyph glyph-name="uni100A" unicode="&#x100a;" horiz-adv-x="1859" 
d="M1667 -504c1.33301 -16.667 2.00098 -33.666 2.00098 -50.999c0 -126 -59 -189 -177 -189h-1198c-108.667 0 -188.167 26.333 -238.5 79s-75.5 132 -75.5 238v591c0 22 13.167 40.667 39.5 56s53.833 23 82.5 23c19.333 0 33 -3.33301 41 -10
c53.333 -73.333 136.333 -110 249 -110c83.333 0 157 31.167 221 93.5s98.667 136.166 104 221.499c-2 13.333 -2 27 0 41c-6.66699 83.333 -40.834 152.833 -102.501 208.5s-135.834 83.5 -222.501 83.5c-104 0 -188.667 -39.333 -254 -118l-23 -23
c2 -12 -4.66699 -23.167 -20 -33.5s-29 -15.5 -41 -15.5c-20.667 0 -39.167 7.66699 -55.5 23s-24.5 33.333 -24.5 54c0 12 3.66699 23 11 33c-2 2 -3 3.66699 -3 5h3v-2c-2 0 -3 0.666992 -3 2l3 3c1.33301 1.33301 15 18.333 41 51c93.333 110.667 215.333 166 366 166
c132.667 0 244.334 -44.667 335.001 -134s136 -199 136 -329v-23c8.66699 -88.667 38.334 -157.667 89.001 -207c66.667 -66.667 143.667 -100 231 -100c86.667 0 162 32 226 96s96 142 96 234c0 90.667 -31.5 168 -94.5 232s-135.5 96 -217.5 96
c-12 0 -23.167 -0.5 -33.5 -1.5s-22.333 -4 -36 -9s-26.5 -7.5 -38.5 -7.5c-46 0 -69 25.667 -69 77c0 30.667 15.833 52.334 47.5 65.001s73.167 19 124.5 19c122.667 0 232 -47 328 -141c88.667 -90 133 -200 133 -330c0 -131.333 -46.167 -243.5 -138.5 -336.5
s-201.5 -139.5 -327.5 -139.5c-126.667 0 -237.667 47.667 -333 143c-24 24 -44.667 51.333 -62 82c-95.333 -150 -227.333 -225 -396 -225c-99.333 0 -188.333 25.667 -267 77v-481c0 -66.667 11.667 -111.834 35 -135.501s68 -35.5 134 -35.5h1198c26 0 36 26 30 78
s19 78 75 78c41.333 0 64.666 -20.667 69.999 -62z" />
    <glyph glyph-name="uni100B" unicode="&#x100b;" horiz-adv-x="1126" 
d="M993 -704l-204.998 0.00585938c-47.333 0 -71 24.667 -71 74v190c-75.333 -30.667 -163.333 -44.334 -264 -41.001c-141.333 3.33301 -272 41.666 -392 114.999c-20 13.333 -30 33.666 -30 60.999v259c0 54.667 20.333 82 61 82c22 0 43.333 -10.333 64 -31
c76.667 -82 175 -123.667 295 -125c76.667 -2 155 27.667 235 89l31 21v61c-75.333 -49.333 -164 -74 -266 -74c-128 0 -238.5 47 -331.5 141s-139.5 205 -139.5 333c0 129.333 45.167 239.166 135.5 329.499s202.166 135.5 335.499 135.5
c73.333 0 145.666 -17.667 216.999 -53c61.333 -32.667 111 -70.334 149 -113.001l23 -28c4.66699 -6.66699 8.66699 -12.667 12 -18l3 -3c2 -3.33301 3.66699 -5.66602 5 -6.99902c0 -2 -1.66699 -3 -5 -3c6.66699 -12 10 -23 10 -33c0 -20.667 -8 -38.667 -24 -54
s-34.333 -23 -55 -23c-27.333 0 -48 14.667 -62 44c-1.33301 1.33301 -1.33301 3 0 5l-20 23c-64.667 78.667 -149 118 -253 118c-92.667 0 -170.167 -31.167 -232.5 -93.5s-93.5 -137.833 -93.5 -226.5c0 -89.333 32.5 -166.333 97.5 -231s141.167 -97 228.5 -97
c107.333 0 191.666 36.667 252.999 110c15.333 17.333 34 26 56 26h28c50 0 75 -24 75 -72v-233c0 -24 -10.333 -43.667 -31 -59c-83.333 -60 -142.333 -98.333 -177 -115c-61.333 -30.667 -130.333 -45.334 -207 -44.001c-110.667 3.33301 -201 24.666 -271 63.999v-64
c83.333 -47.333 176.333 -72 279 -74c112.667 -1.33301 188.667 14 228 46l58 46c20.667 15.333 40.334 23 59.001 23c41.333 0 62 -27.333 62 -82v-253h130c50 0 75 -25 75 -75c0 -47.333 -25 -71 -75 -71z" />
    <glyph glyph-name="uni100C" unicode="&#x100c;" horiz-adv-x="1126" 
d="M863 -387c0 -104 -25.667 -182.831 -77 -236.498s-131.666 -80.5 -240.999 -80.5h-371c-61.333 0 -110.666 29.667 -147.999 89c-32.667 53.333 -49 115.666 -49 186.999c0 80.667 26.5 146.5 79.5 197.5s120.5 76.5 202.5 76.5c83.333 0 156.666 -29 219.999 -87
c15.333 -15.333 23 -33.333 23 -54c0 -18.667 -7.66699 -35.667 -23 -51s-32.333 -23 -51 -23c-19.333 0 -36.666 7 -51.999 21c-32 34 -71 51 -117 51c-60 0 -102.667 -24 -128 -72c-12 -24 -18 -53.667 -18 -89c0 -66.667 20.333 -100 61 -100h371
c66.667 0 112 12.333 136 37s36 69.334 36 134.001v446c-80.667 -54.667 -170.334 -82 -269.001 -82c-128 0 -238 47 -330 141s-138 205.667 -138 335c0 130 44.667 239.667 134 329s200.666 134 333.999 134c146.667 0 268 -55.333 364 -166
c10 -13.333 24.333 -31.333 43 -54c0 -1.33301 -1 -2 -3 -2c8.66699 -14 13 -28.667 13 -44c0 -47.333 -24.667 -71 -74 -71c-25.333 0 -46.666 12.667 -63.999 38c-2 3.33301 -2 6 0 8c2 0 3.66699 -1 5 -3c3.33301 -1.33301 3.33301 -3 0 -5c0 -2 -0.666992 -2 -2 0l-6 8
l-25 28c-64.667 78.667 -148.334 118 -251.001 118c-92 0 -168.833 -30.833 -230.5 -92.5s-92.5 -136.834 -92.5 -225.501s32 -165.834 96 -231.501s139.667 -98.5 227 -98.5c104 0 184.333 34 241 102c6.66699 12 22 18 46 18c27.333 0 55.5 -8 84.5 -24
s43.5 -35.333 43.5 -58v-548z" />
    <glyph glyph-name="uni100D" unicode="&#x100d;" horiz-adv-x="1070" 
d="M970 -670c0 -49.333 -24.6699 -73.999 -74.0029 -73.999h-205c-47.333 0 -71 24.667 -71 74v442c-53.333 -30.667 -133.666 -49.667 -240.999 -57c-133.333 -4.66699 -229.666 12.333 -288.999 51l-64 46c-30.667 20.667 -46 43 -46 67v308c0 48 23.667 72 71 72h28
c22.667 0 41.667 -8.66699 57 -26c61.333 -73.333 145.666 -110 252.999 -110c88.667 0 165.5 32.333 230.5 97s97.5 141.667 97.5 231c0 88.667 -31.667 164.167 -95 226.5s-141 93.5 -233 93.5c-104 0 -188.333 -39.333 -253 -118l-21 -23c2 -2 2 -3.66699 0 -5
c-13.333 -29.333 -33.666 -44 -60.999 -44c-20.667 0 -39.167 7.66699 -55.5 23s-24.5 33.333 -24.5 54c0 10 3.66699 21 11 33c-2 0 -3.66699 1 -5 3c1.33301 1.33301 3 3.66602 5 6.99902l2 3c3.33301 5.33301 15.333 20.666 36 45.999
c37.333 42.667 87 80.334 149 113.001c71.333 35.333 143.666 53 216.999 53c134.667 0 247.334 -45.167 338.001 -135.5s136 -200.166 136 -329.499c0 -128 -47 -239 -141 -333s-205 -141 -333 -141c-109.333 0 -198 29 -266 87v-147
c66.667 -47.333 150.334 -69.333 251.001 -66c44 1.33301 94.333 11.666 151 30.999l148 51c12 3.33301 24 5 36 5c39.333 0 59 -24.667 59 -74v-465l128 3c49.333 1.33301 74 -22.667 74 -72z" />
    <glyph glyph-name="uni100E" unicode="&#x100e;" horiz-adv-x="1126" 
d="M919 463c0 -131.333 -47.334 -245.167 -142.001 -341.5s-208.667 -144.5 -342 -144.5c-98.667 0 -192 33.667 -280 101s-144 145.333 -168 234c0 7.33301 -0.666992 17.666 -2 30.999c-7.33301 46 -5 85.333 7 118c14 39.333 29.333 65 46 77
c20.667 22 51.667 41.333 93 58c80 34.667 121.667 71.667 125 111c0 20 -16.333 38.667 -49 56c-15.333 8.66699 -32.333 10.334 -51 5.00098c-20.667 -5.33301 -31 -15.666 -31 -30.999c0 -49.333 -23.667 -74 -71 -74c-49.333 0 -74 24.667 -74 74
c0 50 21.667 91.5 65 124.5s91.333 49.5 144 49.5c54.667 0 104.167 -21.333 148.5 -64s64.833 -91.334 61.5 -146.001c-3.33301 -73.333 -40 -135.333 -110 -186c-18.667 -12 -53.667 -28.333 -105 -49c-15.333 -6.66699 -26.833 -14.667 -34.5 -24s-16.5 -27 -26.5 -53
c-2 -5.33301 -2.16699 -11.833 -0.5 -19.5s1.83398 -17.5 0.500977 -29.5c13.333 -56 51.666 -106.167 114.999 -150.5s129 -66.5 197 -66.5c94 0 173.833 33.667 239.5 101s98.5 147 98.5 239c0 143.333 -56.333 250 -169 320c-22 15.333 -33 35 -33 59
c0 18.667 6.83301 35.667 20.5 51s30.834 23 51.501 23c11.333 0 24 -3.33301 38 -10c75.333 -46 133.833 -109.167 175.5 -189.5s62.5 -164.833 62.5 -253.5z" />
    <glyph glyph-name="uni100F" unicode="&#x100f;" horiz-adv-x="2135" 
d="M1843 714c53.333 -78.667 79.9971 -166.328 79.9971 -262.995c0 -170.667 -66.667 -302.334 -200 -395.001c-80 -52.667 -167 -79 -261 -79c-48 0 -93.333 6.66699 -136 20c-34 12 -51 35.333 -51 70c0 49.333 23 74 69 74c12 0 30.833 -3.5 56.5 -10.5
s45.167 -10.5 58.5 -10.5c64.667 0 124.334 19.667 179.001 59c92.667 61.333 139 151 139 269c0 68 -19 128.667 -57 182c-62.667 94 -148.667 141 -258 141c-70 0 -133.333 -21.333 -190 -64l-48 -34c-12 -10 -29.333 -33 -52 -69c0 -10 -3.33301 -21 -10 -33
c-24 -42.667 -36 -83.667 -36 -123c0 -52.667 12 -102 36 -148c6.66699 -12 10 -23.333 10 -34v-59c0 -61.333 -21.667 -115 -65 -161s-95 -69 -155 -69c-59.333 0 -110.333 23 -153 69s-64 99.667 -64 161v62c0 13.333 1.66699 23.666 5 30.999
c24 47.333 36 96.666 36 147.999c0 25.333 -6 52.166 -18 80.499s-19 49.166 -21 62.499c-8.66699 15.333 -21.334 36 -38.001 62c-5.33301 8.66699 -27.666 25.667 -66.999 51c-58 40.667 -122 61 -192 61c-109.333 0 -194.666 -45 -255.999 -135
c-37.333 -53.333 -56 -113 -56 -179c0 -111.333 45.333 -197.666 136 -258.999c64.667 -46 130.334 -69 197.001 -69c12 0 29 3 51 9s38.333 9 49 9c46 0 69 -24.667 69 -74c0 -34.667 -17.5 -57.834 -52.5 -69.501s-73.833 -17.5 -116.5 -17.5
c-99.333 0 -193.333 29.667 -282 89c-131.333 90.667 -197 218.667 -197 384c0 95.333 26.333 182.333 79 261c92.667 131.333 220 197 382 197c100.667 0 192.667 -28 276 -84c19.333 -14 33 -24.333 41 -31c42.667 80 106.667 120 192 120c87.333 0 152.333 -40 195 -120
l38 28c84 60 176.333 90 277 90c162 0 289 -66.667 381 -200zM1029 248.006c-32.667 58 -46.999 125.667 -42.999 203c1.33301 62.667 15.666 119.667 42.999 171v72c0 20 -7.66699 38.167 -23 54.5s-33.333 24.5 -54 24.5c-20 0 -37.333 -8.16699 -52 -24.5
s-22 -34.5 -22 -54.5v-74c27.333 -60 41 -117.333 41 -172c0 -73.333 -13.667 -138.333 -41 -195v-46c0 -22 7.33301 -42 22 -60s32 -27 52 -27c20.667 0 38.667 9 54 27s23 38 23 60v41z" />
    <glyph glyph-name="uni1010" unicode="&#x1010;" horiz-adv-x="1930" 
d="M1582 118c-102.667 -102.667 -229 -148.667 -379 -138l-46 2c-5.33301 0 -8 1 -8 3c0 1.33301 2.66699 2 8 2h3h2l-2 -2v-3c-18.667 0 -36.667 9.83301 -54 29.5s-26 39.834 -26 60.501c0 27.333 23 46 69 56h6h7c14 -2 31 -3.66699 51 -5
c106 -6.66699 195 25.666 267 96.999c66.667 64.667 100 141.667 100 231c0 88.667 -32.5 165 -97.5 229s-142.833 96 -233.5 96c-90 0 -166.667 -31.667 -230 -95c-58 -56.667 -92.333 -119 -103 -187c14 -134.667 -25.5 -254.5 -118.5 -359.5
s-207.833 -157.5 -344.5 -157.5c-128 0 -238.833 47 -332.5 141s-140.5 205.667 -140.5 335c0 131.333 44.667 241.333 134 330s202.333 133 339 133c172.667 0 304 -73.333 394 -220c96 148.667 230 223 402 223c131.333 0 242.333 -45.333 333 -136
c94 -95.333 141 -206 141 -332c0 -126.667 -47 -237.667 -141 -333zM773 410c-3.33301 27.333 -3.33301 56.335 0 87.002c-12 78 -48.333 143.167 -109 195.5s-131 78.5 -211 78.5c-95.333 0 -173.833 -30.333 -235.5 -91s-92.5 -136.334 -92.5 -227.001
s32.5 -168.334 97.5 -233.001s141.833 -97 230.5 -97c80 0 150.833 27.667 212.5 83s97.5 123.333 107.5 204z" />
    <glyph glyph-name="uni1011" unicode="&#x1011;" horiz-adv-x="1910" 
d="M1700 451c1.33301 -128 -43.6699 -238.499 -135.003 -331.499s-202.666 -139.5 -333.999 -139.5c-165.333 0 -295.666 70.667 -390.999 212c-94 -143.333 -225.667 -215 -395 -215c-126 0 -235 47 -327 141s-138 205 -138 333c0 131.333 44.333 241.666 133 330.999
s199.334 134 332.001 134c167.333 0 298 -69.667 392 -209c88.667 139.333 220 209 394 209c130 0 240.167 -45.5 330.5 -136.5s136.5 -200.5 138.5 -328.5zM1556 451.001c0 88.667 -31.5 164.167 -94.5 226.5s-139.833 93.5 -230.5 93.5c-82 0 -152.333 -25.167 -211 -75.5
s-94 -114.833 -106 -193.5c3.33301 -36 3.33301 -72 0 -108c13.333 -76.667 50 -141 110 -193s129 -78 207 -78c88.667 0 165 32.833 229 98.5s96 142.167 96 229.5zM767.997 387.001c-3.33301 22 -5 43.334 -5 64.001c0 20 0.666992 40.333 2 61
c-13.333 73.333 -50.333 134.833 -111 184.5s-130.334 74.5 -209.001 74.5c-90 0 -165.833 -30.833 -227.5 -92.5s-92.5 -137.5 -92.5 -227.5c0 -89.333 31.667 -166.333 95 -231s138.333 -97 225 -97c78.667 0 148.334 25.167 209.001 75.5s98.667 113.166 114 188.499z
" />
    <glyph glyph-name="uni1012" unicode="&#x1012;" horiz-adv-x="1126" 
d="M819 673c3.33301 -18.667 4.99609 -36.335 4.99609 -53.002c0 -72 -29.667 -131 -89 -177c59.333 -51.333 89 -109.333 89 -174c0 -15.333 -1.66699 -30.666 -5 -45.999c-34 -158.667 -169.667 -239.667 -407 -243c-201.333 -4 -333.666 71.667 -396.999 227
c-3.33301 10.667 -5 20.334 -5 29.001c0 47.333 25.667 71 77 71c32.667 0 55 -16 67 -48c35.333 -92.667 121.333 -138 258 -136c160.667 1.33301 248.667 44 264 128c12 58 -26.333 99.667 -115 125c-7.33301 -1.33301 -12.666 -2 -15.999 -2h-69
c-49.333 0 -74 24.667 -74 74c0 48 24.667 72 74 72h69h11h2c92 15.333 131.333 56.333 118 123c-18.667 86.667 -106.667 130 -264 130c-155.333 0 -241.333 -42.667 -258 -128c-8.66699 -39.333 -32 -59 -70 -59c-23.333 0 -42.666 7.66699 -57.999 23
s-20.666 36 -15.999 62c32.667 165.333 166.667 247 402 245c239.333 -1.33301 375 -82.333 407 -243z" />
    <glyph glyph-name="uni1013" unicode="&#x1013;" horiz-adv-x="1126" 
d="M919 451c0 -128 -46.499 -238.5 -139.499 -331.5s-204.5 -139.5 -334.5 -139.5c-128 0 -237.5 46.833 -328.5 140.5s-136.5 203.834 -136.5 330.501c0 131.333 44.667 241.666 134 330.999s199.666 134 330.999 134c130 0 241.5 -45.5 334.5 -136.5
s139.5 -200.5 139.5 -328.5zM773.001 451c0 86.667 -32.001 161.667 -96.001 225s-141.333 95 -232 95c-90 0 -165.833 -30.833 -227.5 -92.5s-92.5 -137.5 -92.5 -227.5c0 -48 10.333 -93.333 31 -136c72 86.667 167.667 130 287 130
c122.667 0 222.334 -44.333 299.001 -133c20.667 44.667 31 91 31 139zM648 195c-51.333 70 -119.668 105 -205.001 105c-84 0 -148 -34.333 -192 -103v-2c66.667 -48 131.334 -72 194.001 -72c75.333 0 143 24 203 72z" />
    <glyph glyph-name="uni1014" unicode="&#x1014;" horiz-adv-x="1126" 
d="M870 297c12 -94 -19.3291 -173.332 -93.9961 -237.999c-32.667 -27.333 -88.334 -48.666 -167.001 -63.999v-665c0 -49.333 -23.667 -74 -71 -74c-50 0 -75 24.667 -75 74v647c-74.667 -2 -149.667 5.66699 -225 23c-95.333 20.667 -160 53 -194 97
c-41.333 54.667 -62 112.667 -62 174c0 50 14.667 98 44 144c42.667 64.667 109 97 199 97c76.667 0 147.667 -22.333 213 -67c32 -22 64.333 -60.333 97 -115c29.333 -46 48.166 -83 56.499 -111s14.166 -55 17.499 -81c87.333 24 126.666 72 117.999 144
c-8.66699 68 -45.334 120.667 -110.001 158c-24 15.333 -51.833 26 -83.5 32l-90.5 17c-109.333 27.333 -182.666 73.333 -219.999 138c-15.333 26 -23 54.333 -23 85c0 52.667 18.667 97.667 56 135c48 46 107.667 69 179 69c78.667 0 139.334 -20.333 182.001 -61
s64 -73 64 -97c0 -42.667 -22.333 -64 -67 -64c-18.667 0 -36.334 5 -53.001 15c-8.66699 8.66699 -22.334 21.167 -41.001 37.5s-47 24.5 -85 24.5c-32 0 -56.667 -8.66699 -74 -26s-21.666 -32 -12.999 -44c18.667 -28.667 61.334 -51.667 128.001 -69
c37.333 -8 75.666 -16.833 114.999 -26.5s74.333 -23.834 105 -42.501c102.667 -64.667 160.667 -153.334 174 -266.001zM463.004 120.001c-1.33301 17.333 -5.33398 36.334 -12.001 57.001c-24 71.333 -56.667 120 -98 146c-47.333 32 -91.666 48 -132.999 48
c-32 0 -56 -12.667 -72 -38c-11.333 -18.667 -17 -39.334 -17 -62.001c0 -28.667 10 -56 30 -82c39.333 -49.333 140 -72.333 302 -69z" />
    <glyph glyph-name="uni1015" unicode="&#x1015;" horiz-adv-x="1126" 
d="M922 461c0 -131.333 -45.333 -244.332 -136 -338.999s-202.334 -142 -335.001 -142c-130 0 -241 47.333 -333 142s-138 207.667 -138 339c0 82 21.333 164.333 64 247s100.667 148.667 174 198c13.333 8.66699 27 13 41 13c20 0 36.833 -7.66699 50.5 -23
s20.5 -33.333 20.5 -54c0 -24 -10 -43.667 -30 -59c-116.667 -76.667 -175 -184 -175 -322c0 -92 31.667 -171.333 95 -238s140.333 -100 231 -100c90 0 166.667 33.667 230 101s95 146.333 95 237c0 141.333 -59 248.666 -177 321.999c-22 15.333 -33 35 -33 59
c0 18.667 6.83301 35.667 20.5 51s30.5 23 50.5 23c12 0 25 -3.33301 39 -10c76.667 -46 136.834 -109.5 180.501 -190.5s65.5 -165.833 65.5 -254.5z" />
    <glyph glyph-name="uni1016" unicode="&#x1016;" horiz-adv-x="1126" 
d="M922 463c0 -131.333 -45.333 -244.666 -136 -339.999s-202.334 -143 -335.001 -143c-130 0 -241 47.667 -333 143s-138 208.666 -138 339.999c0 80.667 20.833 161.834 62.5 243.501s99.167 148.167 172.5 199.5c14 8.66699 27.667 13 41 13
c20.667 0 37.834 -7.66699 51.501 -23s20.5 -33.333 20.5 -54c0 -24 -10.333 -43.667 -31 -59c-114.667 -74.667 -172 -181.334 -172 -320.001c0 -92 31.667 -171.667 95 -239s140.333 -101 231 -101c104 0 188.333 43.333 253 130c-118 44.667 -194 125 -228 241
c-12 41.333 -18 81.333 -18 120c0 106 42.667 201 128 285c15.333 13.333 32.333 20 51 20c20.667 0 38.667 -7.66699 54 -23c154 -102.667 231 -247 231 -433zM776 463c0 112.667 -42.667 207.667 -128 285c-29.333 -42.667 -44 -89 -44 -139
c0 -59.333 17 -109.666 51 -150.999c27.333 -32 65 -55.667 113 -71c5.33301 25.333 8 50.666 8 75.999z" />
    <glyph glyph-name="uni1017" unicode="&#x1017;" horiz-adv-x="1126" 
d="M922 463c0 -131.333 -45.334 -244.664 -136.001 -339.997s-202.334 -143 -335.001 -143c-130 0 -241 47.667 -333 143s-138 208.666 -138 339.999c0 84 17.667 164.333 53 241c41.333 87.333 98.666 154.666 171.999 201.999c42.667 27.333 72.334 30.666 89.001 9.99902
c8.66699 -10 16.334 -39.667 23.001 -89c15.333 -109.333 58 -163 128 -161c34.667 0 63.834 14 87.501 42s35.5 59 35.5 93c0 5.33301 -0.833008 14.333 -2.5 27s-2.5 22.667 -2.5 30c0 44 19.667 66 59 66c17.333 0 34.333 -5 51 -15c166 -96 249 -244.667 249 -446z
M775.999 463.002c0 90.667 -27.333 170.001 -82 238.001c-49.333 -116 -130.333 -175.667 -243 -179c-53.333 -1.33301 -103.833 14.167 -151.5 46.5s-82.5 74.166 -104.5 125.499c-46.667 -66.667 -70 -143.667 -70 -231c0 -92 31.667 -171.667 95 -239
s140.333 -101 231 -101c90 0 166.667 33.667 230 101s95 147 95 239z" />
    <glyph glyph-name="uni1018" unicode="&#x1018;" horiz-adv-x="1859" 
d="M1516 113c-96 -94 -205.334 -141.003 -328.001 -141.003c-51.333 0 -92.833 6.33301 -124.5 19s-47.5 34.334 -47.5 65.001c0 51.333 23 77 69 77c12 0 23.167 -2.16699 33.5 -6.5s22.333 -7.33301 36 -9s26.5 -2.5 38.5 -2.5c82 0 155.333 33.333 220 100
c63.333 61.333 95 137.333 95 228c0 92 -32.5 170.5 -97.5 235.5s-140.833 97.5 -227.5 97.5c-87.333 0 -163.333 -33.333 -228 -100c-52.667 -51.333 -82.667 -118 -90 -200v-33c0 -130 -45.167 -240.167 -135.5 -330.5s-202.833 -135.5 -337.5 -135.5
c-73.333 0 -146 18.667 -218 56c-61.333 30.667 -110.666 68.334 -147.999 113.001c-10.667 12 -25.334 30.667 -44.001 56v3c-5.33301 12 -8 23 -8 33c0 20.667 8.16699 38.667 24.5 54s34.833 23 55.5 23c27.333 0 47.666 -14.667 60.999 -44
c0 -1.33301 -1.66699 -2 -5 -2l-5 2v3l3 2l7 -7l23 -26c66.667 -80 151.334 -120 254.001 -120c86.667 0 160.834 28.167 222.501 84.5s96.5 125.5 104.5 207.5c-1.33301 18.667 -1.33301 37.334 0 56.001c-8 82 -43.667 152.5 -107 211.5s-136.666 88.5 -219.999 88.5
c-118 0 -201.667 -35 -251 -105c-5.33301 -4 -11.333 -11.667 -18 -23c-6.66699 -39.333 -29.667 -59 -69 -59c-51.333 0 -77 23.667 -77 71c0 20.667 14.333 52.334 43 95.001c80.667 110.667 204.667 166 372 166c168.667 0 300.667 -73.333 396 -220
c19.333 29.333 40.666 56.666 63.999 81.999c96 94 206.333 141 331 141s234.667 -47 330 -141c90.667 -92 136 -203.667 136 -335c0 -130 -44.333 -240 -133 -330z" />
    <glyph glyph-name="uni1019" unicode="&#x1019;" horiz-adv-x="1126" 
d="M922 463c0 -131.333 -45.335 -244.669 -136.002 -340.002s-202.334 -143 -335.001 -143c-147.333 0 -268.666 58.667 -363.999 176c-13.333 10.667 -22.666 24.334 -27.999 41.001c-52.667 73.333 -79 162 -79 266c0 80.667 21.333 161.834 64 243.501
s100.667 148.167 174 199.5c13.333 8.66699 27 13 41 13c20 0 36.833 -7.66699 50.5 -23s20.5 -33.333 20.5 -54c0 -24 -10 -43.667 -30 -59c-54.667 -35.333 -97.5 -83 -128.5 -143s-46.5 -119 -46.5 -177c0 -35.333 5.33301 -70.333 16 -105
c80 92.667 183.333 139 310 139c126 0 228.333 -47 307 -141c12 36 18 71.667 18 107c0 140 -59 246.667 -177 320c-22 15.333 -33 35 -33 59c0 18.667 6.83301 35.667 20.5 51s30.5 23 50.5 23c12 0 25 -3.33301 39 -10c76.667 -46 136.834 -109.167 180.501 -189.5
s65.5 -164.833 65.5 -253.5zM677.998 222.997c-58 85.333 -133.668 128 -227.001 128c-94 0 -171 -42.667 -231 -128c63.333 -66.667 140.333 -100 231 -100c86.667 0 162.334 33.333 227.001 100z" />
    <glyph glyph-name="uni101A" unicode="&#x101a;" horiz-adv-x="1925" 
d="M1244 -23c-126 0 -237 47.001 -333 141.001c-23.333 25.333 -44.666 53.333 -63.999 84c-92 -148 -224 -222 -396 -222c-130 0 -241 47.667 -333 143s-138 208.666 -138 339.999c0 80.667 21.333 161.834 64 243.501s100.667 148.167 174 199.5
c13.333 8.66699 27 13 41 13c20 0 36.833 -7.66699 50.5 -23s20.5 -33.333 20.5 -54c0 -24 -10 -43.667 -30 -59c-54.667 -35.333 -97.5 -83 -128.5 -143s-46.5 -119 -46.5 -177c0 -92 32 -171.667 96 -239s140.667 -101 230 -101c86.667 0 161.167 31.5 223.5 94.5
s96.166 138.167 101.499 225.5c-2 15.333 -2 29.666 0 42.999c-7.33301 136.667 -59.333 235.667 -156 297c-22.667 15.333 -34 35 -34 59c0 18.667 6.83301 35.667 20.5 51s30.834 23 51.501 23c12 0 24.667 -3.33301 38 -10c150.667 -92 226 -239.667 226 -443v-28
c8 -92 38.667 -163.667 92 -215c64.667 -66.667 142.334 -100 233.001 -100c88.667 0 164.5 32 227.5 96s94.5 142.333 94.5 235c0 90 -32.333 167.833 -97 233.5s-139 98.5 -223 98.5c-30.667 0 -52.334 -3 -65.001 -9s-25 -9 -37 -9c-48 0 -72 25.667 -72 77
c0 34 18 57 54 69c10 3.33301 33 7.66602 69 12.999c15.333 2 31.666 3 48.999 3c122.667 0 232.667 -48 330 -144c90.667 -90 136 -201.667 136 -335c0 -131.333 -46.167 -242.666 -138.5 -333.999s-202.5 -137 -330.5 -137z" />
    <glyph glyph-name="uni101B" unicode="&#x101b;" horiz-adv-x="1142" 
d="M1057 -734l-180.998 0.000976562c-48 0 -72 24.667 -72 74v1070c0 119.333 -31.167 210.166 -93.5 272.499s-137.166 93.5 -224.499 93.5c-73.333 0 -139.833 -23.167 -199.5 -69.5s-98.834 -106.166 -117.501 -179.499c130 2 228 -33.667 294 -107
c73.333 -82 110 -174.333 110 -277c0 -39.333 -6.33301 -76.833 -19 -112.5s-36 -53.5 -70 -53.5c-80 0 -140.5 9.33301 -181.5 28s-90.5 57 -148.5 115c-82 84 -126.667 184 -134 300c-6.66699 16.667 -7.33398 32.667 -2.00098 48
c5.33301 121.333 50.666 225.666 135.999 312.999c93.333 92 203.333 138 330 138c126 0 235.167 -46 327.5 -138s138.5 -215.667 138.5 -371v-998h107c50 0 75 -25 75 -75c0 -47.333 -25 -71 -75 -71zM425.002 125.001c6.66699 70 -17.334 135.999 -72.001 197.999
c-37.333 44 -98.666 63.333 -183.999 58c15.333 -73.333 59 -139.666 131 -198.999c37.333 -32.667 79 -51.667 125 -57z" />
    <glyph glyph-name="uni101C" unicode="&#x101c;" horiz-adv-x="1910" 
d="M1567 781c88.667 -90.667 133 -200.669 133 -330.002c0 -132 -45.667 -244 -137 -336s-200.333 -138 -327 -138c-76.667 0 -150.334 19.667 -221.001 59s-126.667 92.333 -168 159c-34 54 -57.667 117 -71 189c-5.33301 10 -8 22 -8 36
c3.33301 109.333 -27.834 196.833 -93.501 262.5s-142.167 98.5 -229.5 98.5c-86.667 0 -161.667 -32 -225 -96s-95 -142 -95 -234c0 -90.667 31 -166.667 93 -228c64.667 -66.667 137 -100 217 -100c34 0 57.5 3.33301 70.5 10s25.5 10 37.5 10c46 0 69 -25.333 69 -76
c0 -31.333 -17.167 -53.666 -51.5 -66.999s-75.166 -20 -122.499 -20c-119.333 0 -227 46.667 -323 140c-88.667 88.667 -133 199 -133 331c0 131.333 46.167 243 138.5 335s200.5 138 324.5 138c124.667 0 235 -47 331 -141c61.333 -62.667 104 -148.667 128 -258
c8 -15.333 11.333 -30 10 -44c-6.66699 -105.333 25 -192.333 95 -261c64.667 -64.667 140.334 -97 227.001 -97c87.333 0 163 31.5 227 94.5s96 140.833 96 233.5c0 90 -32 167 -96 231s-138.667 96 -224 96c-30.667 0 -52 -3.33301 -64 -10s-24 -10 -36 -10
c-46 0 -69 25.667 -69 77c0 30.667 16.667 52.834 50 66.501s72 20.5 116 20.5c124.667 0 235 -47 331 -141z" />
    <glyph glyph-name="uni101D" unicode="&#x101d;" horiz-adv-x="1126" 
d="M916 451c2 -128 -43.498 -238.499 -136.498 -331.499s-204.5 -139.5 -334.5 -139.5c-126 0 -235 46.5 -327 139.5s-138 203.5 -138 331.5c0 131.333 44.667 241.666 134 330.999s199.666 134 330.999 134c130 0 240.667 -45.5 332 -136.5s137.666 -200.5 138.999 -328.5z
M773.002 451.001c0 86.667 -32 161.667 -96 225s-141.333 95 -232 95c-90 0 -165.833 -30.833 -227.5 -92.5s-92.5 -137.5 -92.5 -227.5c0 -89.333 31.667 -166.333 95 -231s138.333 -97 225 -97c90.667 0 168 32.333 232 97s96 141.667 96 231z" />
    <glyph glyph-name="uni101E" unicode="&#x101e;" horiz-adv-x="1864" 
d="M1518 783c88.667 -90 132.994 -200.669 132.994 -332.002c0 -132 -46 -244 -138 -336s-201.333 -138 -328 -138c-126 0 -237 47 -333 141c-23.333 24 -43.666 51.333 -60.999 82c-46 -63.333 -104 -115.333 -174 -156c-75.333 -44.667 -149.666 -67 -222.999 -67
c-162 0 -285.667 58 -371 174c-30.667 44.667 -46 74.667 -46 90c0 47.333 25.667 71 77 71c39.333 0 62.333 -19.667 69 -59c5.33301 -3.33301 12 -9 20 -17c54.667 -75.333 138.334 -113 251.001 -113c87.333 0 163.333 32.833 228 98.5s97 142.834 97 231.501
s-31.167 163.834 -93.5 225.501s-139.5 92.5 -231.5 92.5c-46 0 -99.667 -15 -161 -45s-100.666 -63.667 -117.999 -101c-13.333 -29.333 -33 -44 -59 -44c-20 0 -38.667 7.66699 -56 23s-26 33.333 -26 54c0 13.333 4.33301 27 13 41h3c1.33301 1.33301 2 0.333008 2 -3
l-2 3l2 -3l-5 -5h-5c2 2 5.33301 6.33301 10 13l36 46c94 110.667 216 166 366 166c133.333 0 244.333 -41.667 333 -125s132.334 -187.333 131.001 -312c0 -108 32.333 -194.833 97 -260.5s141.334 -98.5 230.001 -98.5s164.667 32 228 96s95 142.333 95 235
c0 92 -31.667 170 -95 234s-136.666 96 -219.999 96c-32.667 0 -57.334 -3.33301 -74.001 -10c-10.667 -5.33301 -22 -8 -34 -8c-47.333 0 -71 25.667 -71 77c0 34 18 57 54 69c30.667 10 70.667 15 120 15c124.667 0 234.667 -47 330 -141z" />
    <glyph glyph-name="uni101F" unicode="&#x101f;" horiz-adv-x="1917" 
d="M1574 120c-97.333 -95.333 -207.332 -143 -329.999 -143c-27.333 0 -54.666 2.66699 -81.999 8c-56 10 -84 36.333 -84 79c0 48 23.667 72 71 72c10.667 0 20.667 -1.33301 30 -4s21.666 -5.66699 36.999 -9c10 -2 21 -3 33 -3c82 0 156.333 34.333 223 103
c63.333 61.333 95 137.333 95 228c0 93.333 -32.5 172 -97.5 236s-140.833 96 -227.5 96c-99.333 0 -181.333 -38.333 -246 -115c-42.667 -49.333 -67.334 -110.666 -74.001 -183.999v-33c0 -62 -12.833 -124 -38.5 -186s-59.167 -112.667 -100.5 -152
c-98.667 -88.667 -213 -133 -343 -133c-124.667 0 -232.5 42.167 -323.5 126.5s-136.5 199.166 -136.5 344.499c0 175.333 55.333 323.666 166 444.999c15.333 15.333 33.333 23 54 23c18.667 0 35.667 -7.16699 51 -21.5s23 -31.833 23 -52.5c0 -18.667 -7 -35.667 -21 -51
c-85.333 -87.333 -128 -201.666 -128 -342.999c0 -102.667 31.167 -183 93.5 -241s136.166 -87 221.499 -87c92.667 0 174 32.333 244 97c52.667 46 83.334 114.333 92.001 205c-2 17.333 -2 36 0 56c-8.66699 121.333 -54 225.666 -136 312.999
c-13.333 15.333 -20 32.333 -20 51s7.66699 35.667 23 51s32.333 23 51 23c20 0 38 -7.66699 54 -23c44 -49.333 81.333 -106.666 112 -171.999c94 136.667 221.333 205 382 205c126 0 235.167 -46.5 327.5 -139.5s138.5 -205.833 138.5 -338.5
c0 -130 -44.667 -240.333 -134 -331z" />
    <glyph glyph-name="uni1020" unicode="&#x1020;" horiz-adv-x="1126" 
d="M916 -46c0 -24 -10.001 -43.665 -30.001 -58.998l-59 -43c-111.333 -80.667 -237.666 -119.334 -378.999 -116.001c-109.333 3.33301 -199.666 26.333 -270.999 69v-232c0 -66.667 11.5 -111.834 34.5 -135.501s67.833 -35.5 134.5 -35.5h394c30.667 0 41 22 31 66
c-2 5.33301 -7.33301 5.33301 -16 0l-5 -2c-25.333 -14 -44 -21 -56 -21c-42.667 0 -64 24 -64 72c0 30.667 13.167 53.667 39.5 69s54.833 23 85.5 23c90.667 0 143.667 -37.667 159 -113c3.33301 -15.333 5 -30.666 5 -45.999c0 -54.667 -17 -100.667 -51 -138
s-76.667 -56 -128 -56h-394c-109.333 0 -189.166 26.333 -239.499 79s-75.5 132 -75.5 238v381c0 54.667 20.333 82 61 82c20.667 0 41.334 -9.33301 62.001 -28c86.667 -84 185.667 -126.667 297 -128c112.667 -2 209 27.667 289 89l31 21v102
c-85.333 -76.667 -192 -115 -320 -115s-238.5 47 -331.5 141s-139.5 205 -139.5 333c0 129.333 45.167 239.166 135.5 329.499s202.166 135.5 335.499 135.5c73.333 0 145.666 -17.667 216.999 -53c61.333 -32.667 111 -70.334 149 -113.001l23 -28
c4.66699 -6.66699 8.66699 -12.667 12 -18l3 -3c2 -3.33301 3.66699 -5.66602 5 -6.99902c0 -2 -1.66699 -3 -5 -3c6.66699 -12 10 -23 10 -33c0 -20.667 -8 -38.667 -24 -54s-34.333 -23 -55 -23c-27.333 0 -48 14.667 -62 44c-1.33301 1.33301 -1.33301 3 0 5l-20 23
c-64.667 78.667 -149 118 -253 118c-92.667 0 -170.167 -31.167 -232.5 -93.5s-93.5 -137.833 -93.5 -226.5c0 -89.333 32.5 -166.333 97.5 -231s141.167 -97 228.5 -97c114 0 196.667 35.667 248 107c13.333 17.333 34.666 27 63.999 29c-10 0 16.333 0 79 0
c49.333 0 74 -24 74 -72v-233z" />
    <glyph glyph-name="uni1021" unicode="&#x1021;" horiz-adv-x="1741" 
d="M1457 727c52.667 -78.667 79.001 -166.665 79.001 -263.998c0 -170.667 -66.667 -302 -200 -394c-88.667 -59.333 -182.334 -89 -281.001 -89c-46 0 -99 11 -159 33c-8.66699 1.33301 -17.334 4.66602 -26.001 9.99902c-37.333 22 -45.666 53.667 -24.999 95
c15.333 138 91.333 239.333 228 304c37.333 19.333 80 29 128 29c59.333 0 120.666 -14.667 183.999 -44c3.33301 18.667 5 36.667 5 54c0 68 -18.667 128.667 -56 182c-61.333 90 -146.666 135 -255.999 135c-111.333 0 -199.333 -39.333 -264 -118
c-6.66699 -6.66699 -14.334 -19.334 -23.001 -38.001c-2 -76.667 -32 -137.334 -90 -182.001c60 -52.667 90 -111.334 90 -176.001c0 -14 -1.66699 -27.667 -5 -41c-34 -160.667 -170.667 -241.667 -410 -243c-199.333 -2 -330.666 73.667 -393.999 227
c-3.33301 10.667 -5 20.334 -5 29.001c0 47.333 25.667 71 77 71c32 0 54 -16 66 -48c36 -92.667 121.333 -138 256 -136c162.667 1.33301 251.667 44 267 128c6.66699 34 -5.33301 63 -36 87c-22.667 18.667 -48.334 31.334 -77.001 38.001
c-6.66699 -1.33301 -12.667 -2 -18 -2h-69c-49.333 0 -74 24.667 -74 74c0 48 24.667 72 74 72h77c30.667 6.66699 53.667 15 69 25c30.667 17.333 49.334 40.333 56.001 69c-3.33301 10.667 -4 21 -2 31c-24 84 -113 126 -267 126c-152 0 -236.333 -42 -253 -126
c-8.66699 -39.333 -31.667 -59 -69 -59c-24 0 -43.667 7.66699 -59 23s-20.333 36 -15 62c32 163.333 164 245 396 245c170.667 0 290.334 -42.667 359.001 -128c15.333 16 36.666 33.333 63.999 52c83.333 56 175.333 84 276 84c162 0 289.333 -65.667 382 -197z
M1334 271.002c-46 22.667 -88.667 34 -128 34c-26 0 -50 -5.33301 -72 -16c-71.333 -32 -118.333 -84 -141 -156c20.667 -6.66699 42 -10 64 -10c51.333 0 103 14 155 42s92.667 63.333 122 106z" />
    <glyph glyph-name="uni1023" unicode="&#x1023;" horiz-adv-x="1923" 
d="M1715 433c0 -203.333 -74.999 -351.004 -224.999 -443.004c-14 -6.66699 -26.667 -10 -38 -10c-20.667 0 -37.834 7.66699 -51.501 23s-20.5 32.333 -20.5 51c0 24 11 43.667 33 59c104 64.667 156 171.334 156 320.001c0 92 -31.167 171.667 -93.5 239
s-139.5 101 -231.5 101c-82 0 -154.167 -29.5 -216.5 -88.5s-97.5 -131.167 -105.5 -216.5c1.33301 -25.333 2 -73.666 2 -144.999c0 -10.667 -2.66699 -28.667 -8 -54c-6.66699 -41.333 -29.667 -62 -69 -62c-22 0 -41.167 8.16699 -57.5 24.5s-21.833 37.166 -16.5 62.499
c3.33301 20.667 5 34.334 5 41.001c0 8.66699 -0.666992 33.667 -2 75c-2 6.66699 -3 14.334 -3 23.001c0 13.333 1 26 3 38c-7.33301 87.333 -41.666 161.666 -102.999 222.999s-135.333 92 -222 92c-89.333 0 -166 -33.667 -230 -101s-96 -147.333 -96 -240
c0 -58 15.5 -116.833 46.5 -176.5s73.833 -107.5 128.5 -143.5c20 -15.333 30 -34.666 30 -57.999c0 -20.667 -6.83301 -38.667 -20.5 -54s-30.5 -23 -50.5 -23c-14 0 -27.667 4.33301 -41 13c-73.333 50.667 -131.333 117 -174 199s-64 163 -64 243
c0 132 46 245.667 138 341s203 143 333 143c177.333 -1.33301 311 -78 401 -230c96 144.667 226.667 217 392 217c133.333 0 245.166 -47.667 335.499 -143s135.5 -208.666 135.5 -339.999zM1748 -667.004c0 -51.333 -24.666 -77.001 -73.999 -77.001h-238
c-34 0 -52 52.667 -54 158v168c0 44.667 -2.33301 76.334 -7 95.001c-38 111.333 -115 167.666 -231 168.999c-132.667 2 -206.667 -42.333 -222 -133v-18c0 -46 -2 -81 -6 -105c-4.66699 -38.667 -27.667 -58 -69 -58c-22 0 -41.167 7.66699 -57.5 23
s-21.833 35.666 -16.5 60.999c2 5.33301 3 11.333 3 18v31c-2 6.66699 -3 14.334 -3 23.001c0 8 1 17.333 3 28c-14 92 -89.333 139 -226 141c-64.667 0 -118.334 -14.167 -161.001 -42.5s-64 -68.166 -64 -119.499c0 -71.333 15.333 -128.333 46 -171
c10.667 -15.333 16 -30.666 16 -45.999c0 -49.333 -25 -74 -75 -74c-42.667 0 -77.667 40 -105 120c-18.667 59.333 -28 116.333 -28 171c0 92.667 35 166.667 105 222s158.667 83 266 83c133.333 0 234 -38.333 302 -115c70 70 167.333 105 292 105
c189.333 -2 312.333 -92.667 369 -272c12 -40.667 13 -151.334 3 -332.001l158 16c49.333 4.66699 74 -18.333 74 -69z" />
    <glyph glyph-name="uni1024" unicode="&#x1024;" horiz-adv-x="2278" 
d="M2071 -670c0 -49.333 -24 -74 -72 -74c-49.333 0 -74 24.667 -74 74v1361c0 104 -41.667 201.333 -125 292l-246 213c-52.667 46 -85.5 88.167 -98.5 126.5s-19.5 76.166 -19.5 113.499c0 78.667 29 149.667 87 213c54.667 56 128 84 220 84c147.333 0 249 -59 305 -177
c5.33301 -10 8 -21 8 -33c0 -20.667 -7.66699 -37.667 -23 -51s-33.333 -20 -54 -20c-29.333 0 -50.666 14.333 -63.999 43c-30.667 64.667 -86.334 97 -167.001 97c-49.333 0 -89.333 -15.667 -120 -47s-46 -68.333 -46 -111c0 -65.333 36.667 -132 110 -200l251 -233
c85.333 -97.333 128 -200.666 128 -309.999v-1361zM1713 -511c0 -66.667 -11.9961 -118.667 -35.9961 -156c-34 -51.333 -91.333 -77 -172 -77h-1323c-46 0 -88.667 25.167 -128 75.5s-59 107.166 -59 170.499c0 18.667 1.66699 36.334 5 53.001
c37.333 167.333 187.666 251 450.999 251c236.667 0 461.667 -31.667 675 -95c36 -10 54 -32 54 -66c0 -49.333 -24 -74 -72 -74c-8 0 -15.667 0.666992 -23 2c-198 58 -409.333 87 -634 87c-184.667 0 -287.334 -45 -308.001 -135
c-6.66699 -29.333 -6.66699 -56.666 0 -81.999c8.66699 -27.333 21.667 -41 39 -41h1323c26 0 42.833 5.5 50.5 16.5s11.5 34.5 11.5 70.5v977c0 90.667 -31.167 167 -93.5 229s-137.833 93 -226.5 93c-90.667 0 -168.334 -33 -233.001 -99
c-53.333 -51.333 -84 -123 -92 -215v-29c0 -202.667 -75.333 -350 -226 -442c-13.333 -7.33301 -26 -11 -38 -11c-20.667 0 -37.834 7.66699 -51.501 23s-20.5 32.666 -20.5 51.999c0 23.333 11.333 42.666 34 57.999c96.667 62 148.667 161 156 297c-2 14 -2 28.667 0 44
c-5.33301 86.667 -39.166 161.667 -101.499 225s-136.833 95 -223.5 95c-89.333 0 -166 -33.667 -230 -101s-96 -147.333 -96 -240c0 -58 15.5 -116.833 46.5 -176.5s73.833 -107.5 128.5 -143.5c20 -15.333 30 -34.666 30 -57.999c0 -20.667 -6.83301 -38.667 -20.5 -54
s-30.5 -23 -50.5 -23c-14 0 -27.667 4.33301 -41 13c-73.333 50.667 -131.333 117 -174 199s-64 163 -64 243c0 132 46 245.667 138 341s203 143 333 143c172 0 304 -74 396 -222c19.333 30.667 40.666 58.667 63.999 84c96 94 207 141 333 141
c128 0 238.167 -46.167 330.5 -138.5s138.5 -201.5 138.5 -327.5v-977z" />
    <glyph glyph-name="uni1025" unicode="&#x1025;" horiz-adv-x="1126" 
d="M863 453c0 -128 -46.5 -239.334 -139.5 -334.001s-203.5 -142 -331.5 -142c-97.333 0 -186.333 26.333 -267 79v-483c0 -66.667 11.667 -111.834 35 -135.501s68 -35.5 134 -35.5h392c25.333 0 35.166 26 29.499 78s19.5 78 75.5 78c40.667 0 63.667 -20.667 69 -62
c2 -15.333 3 -30.666 3 -45.999c0 -59.333 -16.333 -106.5 -49 -141.5s-75.334 -52.5 -128.001 -52.5h-392c-108.667 0 -188.167 26.333 -238.5 79s-75.5 132 -75.5 238v588c0 22.667 14 41.667 42 57s56.667 23 86 23c16.667 0 29.334 -3.66699 38.001 -11
c54.667 -71.333 136.667 -107 246 -107c86.667 0 162.5 32.833 227.5 98.5s97.5 142.834 97.5 231.501s-31.167 163.834 -93.5 225.501s-139.5 92.5 -231.5 92.5c-102.667 0 -186.334 -39.333 -251.001 -118l-26 -31c-4.66699 -5.33301 -8 -7 -10 -5
c0 2 1.66699 4.66699 5 8c2 1.33301 3 0.333008 3 -3c3.33301 -8.66699 -4 -18 -22 -28s-32 -15 -42 -15c-19.333 0 -36.666 7.16699 -51.999 21.5s-23 30.833 -23 49.5c0 15.333 5.33301 30.666 16 45.999v-2c0 1.33301 0.666992 1.33301 2 0h-2h-3l-2 2l2 3l41 51
c96 110.667 217.333 166 364 166c134.667 0 246.834 -44.667 336.501 -134s134.5 -199 134.5 -329z" />
    <glyph glyph-name="uni1026" unicode="&#x1026;" horiz-adv-x="1126" 
d="M863 453c0 -128 -46.5 -239.334 -139.5 -334.001s-203.5 -142 -331.5 -142c-97.333 0 -186.333 26.333 -267 79v-483c0 -66.667 11.667 -111.834 35 -135.501s68 -35.5 134 -35.5h392c25.333 0 35.166 26 29.499 78s19.5 78 75.5 78c40.667 0 63.667 -20.667 69 -62
c2 -15.333 3 -30.666 3 -45.999c0 -59.333 -16.333 -106.5 -49 -141.5s-75.334 -52.5 -128.001 -52.5h-392c-108.667 0 -188.167 26.333 -238.5 79s-75.5 132 -75.5 238v588c0 22.667 14 41.667 42 57s56.667 23 86 23c16.667 0 29.334 -3.66699 38.001 -11
c54.667 -71.333 136.667 -107 246 -107c86.667 0 162.5 32.833 227.5 98.5s97.5 142.834 97.5 231.501s-31.167 163.834 -93.5 225.501s-139.5 92.5 -231.5 92.5c-102.667 0 -186.334 -39.333 -251.001 -118l-26 -31c-4.66699 -5.33301 -8 -7 -10 -5
c0 2 1.66699 4.66699 5 8c2 1.33301 3 0.333008 3 -3c3.33301 -8.66699 -4 -18 -22 -28s-32 -15 -42 -15c-19.333 0 -36.666 7.16699 -51.999 21.5s-23 30.833 -23 49.5c0 15.333 5.33301 30.666 16 45.999v-2c0 1.33301 0.666992 1.33301 2 0h-2h-3l-2 2l2 3l41 51
c96 110.667 217.333 166 364 166c134.667 0 246.834 -44.667 336.501 -134s134.5 -199 134.5 -329zM778 1354c0 -102 -36.167 -189.834 -108.5 -263.501s-161.5 -111.167 -267.5 -112.5c-102.667 -2 -190.667 33.667 -264 107c-10 8.66699 -17.667 18.334 -23 29.001
c-58 70 -87 150 -87 240c0 106 35.833 196.167 107.5 270.5s160.5 111.5 266.5 111.5c104 0 192.667 -37.667 266 -113s110 -165 110 -269zM632 1354c0 63.333 -22.499 118.5 -67.499 165.5s-99.167 70.5 -162.5 70.5c-64.667 0 -118.834 -22.667 -162.501 -68
s-65.5 -101.333 -65.5 -168c0 -25.333 4.33301 -50 13 -74c54.667 54.667 122 82.667 202 84c84 2 160 -29.333 228 -94c10 27.333 15 55.333 15 84zM522.001 1157c-37.333 42.667 -80.001 64 -128.001 64c-47.333 0 -86.666 -20.333 -117.999 -61c38 -26 79 -39 123 -39
c44.667 0 85.667 12 123 36z" />
    <glyph glyph-name="uni1027" unicode="&#x1027;" horiz-adv-x="1088" 
d="M883 612c0 -32.667 -13.6709 -54.9971 -41.0039 -66.9971c-61.333 -58 -128.666 -93 -201.999 -105c76.667 -13.333 149.334 -54.333 218.001 -123c10 -8 15 -23.333 15 -46c0 -27.333 -11 -58 -33 -92c-12 -16.667 -26.667 -34.667 -44 -54
c-97.333 -100.667 -218.333 -149 -363 -145c-54.667 1.33301 -111 13 -169 35c-32.667 2 -54 13.333 -64 34c-72 35.333 -127.667 90.166 -167 164.499s-57 154.166 -53 239.499c8 179.333 86.333 312.333 235 399c8.66699 8.66699 17.334 14 26.001 16
c62.667 34 135 50 217 48c130 -1.33301 234.333 -44 313 -128c18.667 -23.333 48.334 -58 89.001 -104c6.66699 -8.66699 9.33398 -14 8.00098 -16c3.33301 -3.33301 6.66602 -11.833 9.99902 -25.5s5 -23.834 5 -30.501zM716.996 627.003l-8 8
c-42.667 51.333 -77.667 85.333 -105 102c-37.333 24 -86 36 -146 36c-39.333 0 -76.666 -6 -111.999 -18c22 -80 71.333 -133 148 -159c29.333 -10 56.666 -15 81.999 -15c49.333 0 96.333 15.333 141 46zM519.996 440.003c-24 3.33301 -48.001 9.33398 -72.001 18.001
c-114.667 41.333 -190.667 113 -228 215c-59.333 -61.333 -91.666 -136.333 -96.999 -225c-5.33301 -90.667 27 -169.334 97 -236.001c54.667 130 154.667 206 300 228zM713.995 251.004c-44 30.667 -90 46 -138 46c-24 0 -48.667 -3.33301 -74 -10
c-76.667 -22.667 -128 -73 -154 -151c29.333 -8.66699 58.333 -13 87 -13c104 -2 187.667 31.333 251 100c6.66699 4.66699 16 14 28 28z" />
    <glyph glyph-name="uni1029" unicode="&#x1029;" horiz-adv-x="2109" 
d="M1751 -342c0 -110.667 -39.666 -204.837 -118.999 -282.504s-174.333 -116.5 -285 -116.5h-966c-117.333 0 -213.5 40.167 -288.5 120.5s-112.5 177.5 -112.5 291.5v1665c0 116 37 211.667 111 287s170 113 288 113h1201c95.333 0 173.666 -38.667 234.999 -116
c3.33301 -3.33301 -2.16699 -24.166 -16.5 -62.499s-25.166 -59.166 -32.499 -62.499c-47.333 63.333 -109.333 95 -186 95h-1201c-76.667 0 -138.167 -23 -184.5 -69s-69.5 -107.667 -69.5 -185v-1665c0 -75.333 24 -138.5 72 -189.5s109.333 -76.5 184 -76.5h966
c83.333 0 147.166 28.167 191.499 84.5s66.5 112.5 66.5 168.5l-2 355c-42.667 -14 -78.667 -21 -108 -21c-126 0 -237 47 -333 141c-24 24 -44.333 51.333 -61 82c-109.333 -146.667 -241.666 -221 -396.999 -223c-160.667 -1.33301 -284.334 56.667 -371.001 174
c-30.667 41.333 -46 71.333 -46 90c0 46 25.667 70 77 72c38.667 0 61.667 -19.667 69 -59c3.33301 -2 10 -8 20 -18c52.667 -73.333 136.334 -111 251.001 -113c88.667 -1.33301 164.667 30.834 228 96.501s95.666 143.5 96.999 233.5c2 89.333 -29 164.666 -93 225.999
s-141.333 92 -232 92c-44.667 0 -96.667 -14.667 -156 -44c-64.667 -30.667 -105.667 -64.667 -123 -102c-12 -27.333 -31.667 -42 -59 -44c-48 0 -75.333 25.667 -82 77c0 8.66699 7 25 21 49l33 43c88.667 109.333 210.667 165 366 167c131.333 0 241.333 -41 330 -123
s133 -187 133 -315c0 -100.667 30 -185.167 90 -253.5s139.333 -103.166 238 -104.499c92 -2 168.333 29.5 229 94.5s92 143.5 94 235.5c1.33301 88.667 -29.5 165.5 -92.5 230.5s-137.167 98.167 -222.5 99.5c-29.333 0 -54.333 -3.33301 -75 -10
c-10 -5.33301 -21 -8 -33 -8c-46 0 -69.667 25.667 -71 77c-2 56.667 56 85 174 85c131.333 0 240.833 -46.167 328.5 -138.5s132.5 -204.166 134.5 -335.499c2 -130 -44 -241.667 -138 -335c-22.667 -24 -46.667 -44.667 -72 -62v-411z" />
    <glyph glyph-name="uni102A" unicode="&#x102a;" horiz-adv-x="3991" 
d="M2158 118c-24 24 -45.3311 51.3311 -63.998 81.998c-110.667 -146.667 -243 -221 -397 -223c-162 -2 -284.667 56 -368 174c-30.667 42.667 -47 72.667 -49 90c0 46 26.333 69.667 79 71c34.667 2 57 -17.667 67 -59c3.33301 -1.33301 10 -7 20 -17
c53.333 -74 137 -111.667 251 -113c88.667 -2 164.667 29.833 228 95.5s95.666 143.834 96.999 234.501c2 88.667 -29 163.834 -93 225.501s-141.333 92.5 -232 92.5c-46 0 -98 -14.667 -156 -44c-64.667 -30.667 -105.667 -64.667 -123 -102
c-10 -30.667 -29.667 -46 -59 -46c-52.667 0 -79 26.333 -79 79c0 15.333 4.33301 29 13 41c1.33301 0 2 -1 2 -3l-2 -5h-3h-2c1.33301 2 3.66602 6.33301 6.99902 13l39 46c92 109.333 213 164.666 363 165.999c130 2 239.833 -38 329.5 -120s134.5 -187.667 134.5 -317
c0 -100.667 29.833 -185.167 89.5 -253.5s139.834 -103.5 240.5 -105.5c90.667 -1.33301 166.667 30.834 228 96.501s92.666 143.834 94 234.501c2 88.667 -28.5 165.834 -91.5 231.501s-138.167 98.5 -225.5 98.5c-15.333 0 -34.166 -3 -56.499 -9s-38.5 -9 -48.5 -9
c-46 0 -70 25.667 -72 77c-1.33301 54.667 56 82.667 172 84c129.333 2 238.5 -43.5 327.5 -136.5s134.167 -205.167 135.5 -336.5c2 -130 -43 -242 -135 -336c-31.333 -16.667 -47 -32.667 -47 -48v-409c0 -110.667 -39.667 -204.834 -119 -282.501
s-174.333 -116.5 -285 -116.5h-965c-118 0 -214.5 40.167 -289.5 120.5s-112.5 177.5 -112.5 291.5v1665c0 116 37.167 211.667 111.5 287s170.166 113 287.499 113h1201c97.333 0 176.666 -38.667 238 -116c0 -8 -7.16699 -30.333 -21.5 -67s-24.166 -56 -29.5 -58
c-44.667 63.333 -107 95 -187 95h-1201c-76.667 0 -138 -23 -184 -69s-69 -107.667 -69 -185v-1665c0 -75.333 23.833 -138.5 71.5 -189.5s109.167 -76.5 184.5 -76.5h965c83.333 0 149 29 197 87c41.333 49.333 62 104.666 62 165.999v342
c-44.667 -13.333 -91 -20 -139 -20c-126 -2 -236 44 -330 138zM863.002 677.998c10 -15.333 15.002 -31.3301 15.002 -47.9971c0 -48 -24.667 -72.667 -74 -74c-8.66699 0 -22.334 5 -41.001 15c-12 8.66699 -20.667 19 -26 31c-52.667 64.667 -91 105.334 -115 122.001
c-44 31.333 -98.667 47.666 -164 48.999c-92 2 -169.167 -28.667 -231.5 -92s-96.833 -141 -103.5 -233c-6.66699 -88.667 25.666 -167.334 96.999 -236.001c46 111.333 127 183.333 243 216c41.333 11.333 80.666 17 117.999 17c99.333 2 191.666 -40.667 276.999 -128
c10 -6.66699 15 -22 15 -46c0 -27.333 -11 -58 -33 -92c-12 -18.667 -26.667 -36.667 -44 -54c-97.333 -98.667 -218.333 -147 -363 -145c-60 0 -116.333 11.667 -169 35c-30.667 0 -52 11.333 -64 34c-73.333 37.333 -129.333 92.666 -168 165.999s-56 152.666 -52 237.999
c4.66699 133.333 52.334 243.833 143.001 331.5s202.334 131.5 335.001 131.5c128 0 232.333 -42.667 313 -128c8 -8 25 -27.333 51 -58l33 -44h3l2 -5zM714.004 251.001c-42.667 30.667 -88.667 46 -138 46c-118 0 -194 -53.667 -228 -161
c29.333 -8.66699 58.333 -13 87 -13c99.333 -2 183 31.333 251 100zM3802 717.001c50.667 -75.333 77 -163.334 79 -264.001c2 -165.333 -65.333 -295 -202 -389c-84 -58 -178 -88 -282 -90c-70 -1.33301 -129 14 -177 46c-15.333 14 -24.666 33 -28 57
c0 46 25 72.333 75 79c15.333 0 29.666 -6 43 -18c3.33301 0 11.833 -2.5 25.5 -7.5s35.167 -9.16699 64.5 -12.5c82 0 159.667 32.333 233 97c68 60 102 139.333 102 238c0 64.667 -18.667 124.334 -56 179.001c-61.333 88.667 -146 134 -254 136
c-66.667 2 -130.667 -18.333 -192 -61c-32 -22.667 -68.5 -60 -109.5 -112s-68.5 -96.667 -82.5 -134c-18.667 -48 -46 -68.667 -82 -62c-42.667 8.66699 -64.667 33.667 -66 75c-2 27.333 35.333 97.333 112 210c104.667 153.333 243 230 415 230
c162 0 289.333 -65.667 382 -197zM3694 1485c5.33301 -48 -16.667 -73.667 -66 -77c-46.667 -3.33301 -72.334 19 -77 67c0 34 -22.333 62 -67 84c-36 18.667 -73.333 29 -112 31c-41.333 1.33301 -77 -11.667 -107 -39s-47.333 -57 -52 -89
c-12 -68.667 20.333 -138 97 -208c12 -10 83 -52.667 213 -128c23.333 -13.333 37 -33.666 41 -60.999c0 -51.333 -24 -77 -72 -77c-15.333 0 -67.333 24.667 -156 74c-61.333 34.667 -103.333 62 -126 82c-97.333 87.333 -146 183 -146 287c0 85.333 30 157 90 215
s132.667 88 218 90c73.333 1.33301 143.666 -22.334 211 -71.001c67.333 -48.667 104.333 -108.667 111 -180z" />
    <glyph glyph-name="uni102B" unicode="&#x102b;" horiz-adv-x="1353" 
d="M1181 44c0 -48 -24 -73 -72 -75c-49.333 -1.33301 -74 23.667 -74 75v1397c0 42.667 -20.667 77.667 -62 105c-34 24 -74 37 -120 39c-42.667 1.33301 -83.167 -11.667 -121.5 -39s-58.5 -61.333 -60.5 -102c-1.33301 -48 -26 -72.667 -74 -74
c-44.667 -2 -67.667 21 -69 69c-2 76.667 33.667 145 107 205c66.667 54 140 82 220 84c80.667 2 155.167 -25.667 223.5 -83s102.5 -125.333 102.5 -204v-1397zM133 384l-109 -18.999c-7.33301 28.667 -11 62.667 -11 102c0 18 0.833008 35.667 2.5 53s4.5 34 8.5 50
l109 -19c-3.33301 -13.333 -5.5 -27 -6.5 -41s-1.5 -28.333 -1.5 -43s0.5 -28.834 1.5 -42.501s3.16699 -27.167 6.5 -40.5zM282 170.001l-63 -91.999c-58.667 38 -106.334 86.667 -143.001 146l90 65c28.667 -48.667 67.334 -88.334 116.001 -119.001zM868 224.002
c-36.667 -59.333 -84.334 -108.001 -143.001 -146.001l-63 92c48.667 30.667 87.334 70.334 116.001 119.001zM282 764.001c-48.667 -30 -87.333 -69.334 -116 -118.001l-90 64c18 30.667 38.833 57.834 62.5 81.501s50.5 45.167 80.5 64.5zM868.001 710l-90 -63.999
c-29.333 48.667 -68 88 -116 118l63 92c30 -19.333 56.833 -40.833 80.5 -64.5s44.5 -50.834 62.5 -81.501zM931.001 467.001c0 -36 -3.66699 -70.001 -11 -102.001l-109 19c6.66699 26.667 10 54.334 10 83.001s-3.33301 56.667 -10 84l109 19
c7.33301 -32 11 -66.333 11 -103zM572.001 10c-37.333 -8 -70.667 -12 -100 -12c-30 0 -63.667 4 -101 12l18 111c14 -4 27.833 -6.5 41.5 -7.5s27.5 -1.5 41.5 -1.5s27.667 0.5 41 1.5s27 3.5 41 7.5zM572 925l-17.999 -111c-14 3.33301 -27.667 5.83301 -41 7.5
s-27 2.5 -41 2.5s-27.833 -0.833008 -41.5 -2.5s-27.5 -4.16699 -41.5 -7.5l-18 111c37.333 8 71 12 101 12c29.333 0 62.666 -4 99.999 -12z" />
    <glyph glyph-name="uni102C" unicode="&#x102c;" horiz-adv-x="2115" 
d="M1894 707c51.333 -75.333 78 -163.333 80 -264c1.33301 -167.333 -65.334 -297 -200.001 -389c-83.333 -58 -178 -88 -284 -90c-70 -1.33301 -129 14 -177 46c-15.333 14 -24.666 33 -27.999 57c0 46 24.667 72.333 74 79c15.333 0 30 -6 44 -18
c3.33301 0 11.833 -2.5 25.5 -7.5s34.834 -9.16699 63.501 -12.5c82 0 159.667 32.333 233 97c68.667 59.333 103 138.666 103 237.999c0 64.667 -18.667 124.334 -56 179.001c-62 88.667 -146.667 134 -254 136c-66.667 1.33301 -130.667 -19.334 -192 -62.001
c-32.667 -22 -69.334 -59 -110.001 -111s-68 -96.667 -82 -134c-18.667 -48 -46 -68.667 -82 -62c-42.667 8.66699 -64.667 33.334 -66 74.001c-2 27.333 35.333 97.333 112 210c104 154 242.333 231 415 231c162 0 289 -65.667 381 -197zM133 384l-109 -18.999
c-7.33301 28.667 -11 62.667 -11 102c0 18 0.833008 35.667 2.5 53s4.5 34 8.5 50l109 -19c-3.33301 -13.333 -5.5 -27 -6.5 -41s-1.5 -28.333 -1.5 -43s0.5 -28.834 1.5 -42.501s3.16699 -27.167 6.5 -40.5zM282 170.001l-63 -91.999
c-58.667 38 -106.334 86.667 -143.001 146l90 65c28.667 -48.667 67.334 -88.334 116.001 -119.001zM868 224.002c-36.667 -59.333 -84.334 -108.001 -143.001 -146.001l-63 92c48.667 30.667 87.334 70.334 116.001 119.001zM282 764.001
c-48.667 -30 -87.333 -69.334 -116 -118.001l-90 64c18 30.667 38.833 57.834 62.5 81.501s50.5 45.167 80.5 64.5zM868.001 710l-90 -63.999c-29.333 48.667 -68 88 -116 118l63 92c30 -19.333 56.833 -40.833 80.5 -64.5s44.5 -50.834 62.5 -81.501zM931.001 467.001
c0 -36 -3.66699 -70.001 -11 -102.001l-109 19c6.66699 26.667 10 54.334 10 83.001s-3.33301 56.667 -10 84l109 19c7.33301 -32 11 -66.333 11 -103zM572.001 10c-37.333 -8 -70.667 -12 -100 -12c-30 0 -63.667 4 -101 12l18 111c14 -4 27.833 -6.5 41.5 -7.5
s27.5 -1.5 41.5 -1.5s27.667 0.5 41 1.5s27 3.5 41 7.5zM572 925l-17.999 -111c-14 3.33301 -27.667 5.83301 -41 7.5s-27 2.5 -41 2.5s-27.833 -0.833008 -41.5 -2.5s-27.5 -4.16699 -41.5 -7.5l-18 111c37.333 8 71 12 101 12c29.333 0 62.666 -4 99.999 -12z" />
    <glyph glyph-name="uni102D" unicode="&#x102d;" horiz-adv-x="1068" 
d="M835 1347c1.33301 -106 -34.667 -194.501 -108 -265.501s-163 -108.167 -269 -111.5c-102 -1.33301 -189.333 35 -262 109s-110 163.333 -112 268c-1.33301 104 34.667 193 108 267s162 112 266 114s192.333 -34.667 265 -110s110 -165.666 112 -270.999zM689 1347
c1.33301 62.667 -21 117.168 -67 163.501s-100.667 70.166 -164 71.499c-61.333 2 -114.166 -20.167 -158.499 -66.5s-67.5 -102.5 -69.5 -168.5c-1.33301 -63.333 20.667 -118 66 -164s99.333 -69 162 -69c65.333 0 119.666 22.5 162.999 67.5s66 100.167 68 165.5z
M133 384l-109 -18.999c-7.33301 28.667 -11 62.667 -11 102c0 18 0.833008 35.667 2.5 53s4.5 34 8.5 50l109 -19c-3.33301 -13.333 -5.5 -27 -6.5 -41s-1.5 -28.333 -1.5 -43s0.5 -28.834 1.5 -42.501s3.16699 -27.167 6.5 -40.5zM282 170.001l-63 -91.999
c-58.667 38 -106.334 86.667 -143.001 146l90 65c28.667 -48.667 67.334 -88.334 116.001 -119.001zM868 224.002c-36.667 -59.333 -84.334 -108.001 -143.001 -146.001l-63 92c48.667 30.667 87.334 70.334 116.001 119.001zM282 764.001
c-48.667 -30 -87.333 -69.334 -116 -118.001l-90 64c18 30.667 38.833 57.834 62.5 81.501s50.5 45.167 80.5 64.5zM868.001 710l-90 -63.999c-29.333 48.667 -68 88 -116 118l63 92c30 -19.333 56.833 -40.833 80.5 -64.5s44.5 -50.834 62.5 -81.501zM931.001 467.001
c0 -36 -3.66699 -70.001 -11 -102.001l-109 19c6.66699 26.667 10 54.334 10 83.001s-3.33301 56.667 -10 84l109 19c7.33301 -32 11 -66.333 11 -103zM572.001 10c-37.333 -8 -70.667 -12 -100 -12c-30 0 -63.667 4 -101 12l18 111c14 -4 27.833 -6.5 41.5 -7.5
s27.5 -1.5 41.5 -1.5s27.667 0.5 41 1.5s27 3.5 41 7.5zM572 925l-17.999 -111c-14 3.33301 -27.667 5.83301 -41 7.5s-27 2.5 -41 2.5s-27.833 -0.833008 -41.5 -2.5s-27.5 -4.16699 -41.5 -7.5l-18 111c37.333 8 71 12 101 12c29.333 0 62.666 -4 99.999 -12z" />
    <glyph glyph-name="uni102E" unicode="&#x102e;" horiz-adv-x="1075" 
d="M845 1362c1.33301 -106 -34.667 -194.332 -108 -264.999s-163 -107.667 -269 -111c-96.667 -2 -183.667 33.667 -261 107c-10 8.66699 -18.333 18 -25 28c-56.667 70 -85.667 150.333 -87 241c-2 104 33.667 193.167 107 267.5s162 112.166 266 113.499
c104.667 2 193.167 -34.5 265.5 -109.5s109.5 -165.5 111.5 -271.5zM699 1362c0 64.667 -22.1709 119.668 -66.5039 165.001s-99.166 68.666 -164.499 69.999c-61.333 2 -114.166 -20 -158.499 -66s-67.166 -102.333 -68.499 -169c0 -25.333 4 -50 12 -74
c54.667 54.667 122.334 82.667 203.001 84c80 2 156 -29.667 228 -95c10 26 15 54.333 15 85zM590.996 1165c-39.333 40.667 -82.667 62.001 -130 64.001c-44.667 1.33301 -84 -19.334 -118 -62.001c36 -25.333 77.667 -38 125 -38c44.667 0 85.667 12 123 36z
M132.995 384.003l-109 -18.999c-7.33301 28.667 -11 62.667 -11 102c0 18 0.833008 35.667 2.5 53s4.5 34 8.5 50l109 -19c-3.33301 -13.333 -5.5 -27 -6.5 -41s-1.5 -28.333 -1.5 -43s0.5 -28.834 1.5 -42.501s3.16699 -27.167 6.5 -40.5zM281.995 170.004l-63 -91.999
c-58.667 38 -106.334 86.667 -143.001 146l90 65c28.667 -48.667 67.334 -88.334 116.001 -119.001zM867.995 224.005c-36.667 -59.333 -84.334 -108.001 -143.001 -146.001l-63 92c48.667 30.667 87.334 70.334 116.001 119.001zM281.995 764.004
c-48.667 -30 -87.333 -69.334 -116 -118.001l-90 64c18 30.667 38.833 57.834 62.5 81.501s50.5 45.167 80.5 64.5zM867.996 710.003l-90 -63.999c-29.333 48.667 -68 88 -116 118l63 92c30 -19.333 56.833 -40.833 80.5 -64.5s44.5 -50.834 62.5 -81.501zM930.996 467.004
c0 -36 -3.66699 -70.001 -11 -102.001l-109 19c6.66699 26.667 10 54.334 10 83.001s-3.33301 56.667 -10 84l109 19c7.33301 -32 11 -66.333 11 -103zM571.996 10.0029c-37.333 -8 -70.667 -12 -100 -12c-30 0 -63.667 4 -101 12l18 111c14 -4 27.833 -6.5 41.5 -7.5
s27.5 -1.5 41.5 -1.5s27.667 0.5 41 1.5s27 3.5 41 7.5zM571.995 925.003l-17.999 -111c-14 3.33301 -27.667 5.83301 -41 7.5s-27 2.5 -41 2.5s-27.833 -0.833008 -41.5 -2.5s-27.5 -4.16699 -41.5 -7.5l-18 111c37.333 8 71 12 101 12c29.333 0 62.666 -4 99.999 -12z" />
    <glyph glyph-name="uni102F" unicode="&#x102f;" horiz-adv-x="1068" 
d="M704 -739h-218c-47.333 0 -71 24.667 -71 74v570c0 48 23.667 73 71 75c50 1.33301 75 -23.667 75 -75v-498h143c48 0 72.667 -24.667 74 -74c2 -48 -22.667 -72 -74 -72zM133 384l-109 -18.999c-7.33301 28.667 -11 62.667 -11 102c0 18 0.833008 35.667 2.5 53
s4.5 34 8.5 50l109 -19c-3.33301 -13.333 -5.5 -27 -6.5 -41s-1.5 -28.333 -1.5 -43s0.5 -28.834 1.5 -42.501s3.16699 -27.167 6.5 -40.5zM282 170.001l-63 -91.999c-58.667 38 -106.334 86.667 -143.001 146l90 65c28.667 -48.667 67.334 -88.334 116.001 -119.001z
M868 224.002c-36.667 -59.333 -84.334 -108.001 -143.001 -146.001l-63 92c48.667 30.667 87.334 70.334 116.001 119.001zM282 764.001c-48.667 -30 -87.333 -69.334 -116 -118.001l-90 64c18 30.667 38.833 57.834 62.5 81.501s50.5 45.167 80.5 64.5zM868.001 710
l-90 -63.999c-29.333 48.667 -68 88 -116 118l63 92c30 -19.333 56.833 -40.833 80.5 -64.5s44.5 -50.834 62.5 -81.501zM931.001 467.001c0 -36 -3.66699 -70.001 -11 -102.001l-109 19c6.66699 26.667 10 54.334 10 83.001s-3.33301 56.667 -10 84l109 19
c7.33301 -32 11 -66.333 11 -103zM572.001 10c-37.333 -8 -70.667 -12 -100 -12c-30 0 -63.667 4 -101 12l18 111c14 -4 27.833 -6.5 41.5 -7.5s27.5 -1.5 41.5 -1.5s27.667 0.5 41 1.5s27 3.5 41 7.5zM572 925l-17.999 -111c-14 3.33301 -27.667 5.83301 -41 7.5
s-27 2.5 -41 2.5s-27.833 -0.833008 -41.5 -2.5s-27.5 -4.16699 -41.5 -7.5l-18 111c37.333 8 71 12 101 12c29.333 0 62.666 -4 99.999 -12z" />
    <glyph glyph-name="uni1030" unicode="&#x1030;" horiz-adv-x="1093" 
d="M794 -751l-217.999 0.000976562c-48 0 -72 24.667 -72 74v606c0 47.333 24 72 72 74c49.333 1.33301 74 -23.334 74 -74.001v-534h144c47.333 0 72 -25 74 -75c1.33301 -47.333 -23.334 -71 -74.001 -71zM394.001 -676.999c0 -48 -24.667 -72.666 -74 -73.999
c-48 -2 -72 22.667 -72 74v606c0 47.333 24 72 72 74c49.333 1.33301 74 -23.334 74 -74.001v-606zM133.001 384.002l-109 -18.999c-7.33301 28.667 -11 62.667 -11 102c0 18 0.833008 35.667 2.5 53s4.5 34 8.5 50l109 -19c-3.33301 -13.333 -5.5 -27 -6.5 -41
s-1.5 -28.333 -1.5 -43s0.5 -28.834 1.5 -42.501s3.16699 -27.167 6.5 -40.5zM282.001 170.003l-63 -91.999c-58.667 38 -106.334 86.667 -143.001 146l90 65c28.667 -48.667 67.334 -88.334 116.001 -119.001zM868.001 224.004
c-36.667 -59.333 -84.334 -108.001 -143.001 -146.001l-63 92c48.667 30.667 87.334 70.334 116.001 119.001zM282.001 764.003c-48.667 -30 -87.333 -69.334 -116 -118.001l-90 64c18 30.667 38.833 57.834 62.5 81.501s50.5 45.167 80.5 64.5zM868.002 710.002
l-90 -63.999c-29.333 48.667 -68 88 -116 118l63 92c30 -19.333 56.833 -40.833 80.5 -64.5s44.5 -50.834 62.5 -81.501zM931.002 467.003c0 -36 -3.66699 -70.001 -11 -102.001l-109 19c6.66699 26.667 10 54.334 10 83.001s-3.33301 56.667 -10 84l109 19
c7.33301 -32 11 -66.333 11 -103zM572.002 10.002c-37.333 -8 -70.667 -12 -100 -12c-30 0 -63.667 4 -101 12l18 111c14 -4 27.833 -6.5 41.5 -7.5s27.5 -1.5 41.5 -1.5s27.667 0.5 41 1.5s27 3.5 41 7.5zM572.001 925.002l-17.999 -111
c-14 3.33301 -27.667 5.83301 -41 7.5s-27 2.5 -41 2.5s-27.833 -0.833008 -41.5 -2.5s-27.5 -4.16699 -41.5 -7.5l-18 111c37.333 8 71 12 101 12c29.333 0 62.666 -4 99.999 -12z" />
    <glyph glyph-name="uni1031" unicode="&#x1031;" horiz-adv-x="2020" 
d="M886 701c10 -15.333 15.002 -31.3311 15.002 -47.998c0 -48 -24.667 -72.667 -74 -74c-8.66699 0 -22.334 5 -41.001 15c-12 8.66699 -20.667 19 -26 31c-52.667 64.667 -91 105.667 -115 123c-44 30.667 -98.667 46.667 -164 48c-92 2 -169.167 -28.667 -231.5 -92
s-96.833 -141 -103.5 -233c-6.66699 -88.667 25.666 -167 96.999 -235c46 110.667 127 182.334 243 215.001c41.333 11.333 80.666 17 117.999 17c99.333 2 191.666 -40.667 276.999 -128c10 -6.66699 15 -22 15 -46c0 -27.333 -11 -58 -33 -92
c-12 -18.667 -26.667 -36.667 -44 -54c-97.333 -98.667 -218.333 -147 -363 -145c-60 0 -116.333 11.667 -169 35c-30.667 0 -52 11.333 -64 34c-73.333 37.333 -129.333 92.666 -168 165.999s-56 152.666 -52 237.999c4.66699 133.333 52.334 244 143.001 332
s202.334 132 335.001 132c128 0 232.333 -42.667 313 -128c8 -8.66699 25 -28.334 51 -59.001l33 -44h3l2 -5zM737.002 274.002c-42.667 30.667 -88.667 46 -138 46c-118 0 -194 -53.667 -228 -161c29.333 -8.66699 58.333 -13 87 -13c99.333 -2 183 31.333 251 100z
M1085 384.002l-109 -18.999c-7.33301 28.667 -11 62.667 -11 102c0 18 0.833008 35.667 2.5 53s4.5 34 8.5 50l109 -19c-3.33301 -13.333 -5.5 -27 -6.5 -41s-1.5 -28.333 -1.5 -43s0.5 -28.834 1.5 -42.501s3.16699 -27.167 6.5 -40.5zM1234 170.003l-63 -91.999
c-58.667 38 -106.334 86.667 -143.001 146l90 65c28.667 -48.667 67.334 -88.334 116.001 -119.001zM1820 224.004c-36.667 -59.333 -84.334 -108.001 -143.001 -146.001l-63 92c48.667 30.667 87.334 70.334 116.001 119.001zM1234 764.003
c-48.667 -30 -87.333 -69.334 -116 -118.001l-90 64c18 30.667 38.833 57.834 62.5 81.501s50.5 45.167 80.5 64.5zM1820 710.002l-90 -63.999c-29.333 48.667 -68 88 -116 118l63 92c30 -19.333 56.833 -40.833 80.5 -64.5s44.5 -50.834 62.5 -81.501zM1883 467.003
c0 -36 -3.66699 -70.001 -11 -102.001l-109 19c6.66699 26.667 10 54.334 10 83.001s-3.33301 56.667 -10 84l109 19c7.33301 -32 11 -66.333 11 -103zM1524 10.002c-37.333 -8 -70.667 -12 -100 -12c-30 0 -63.667 4 -101 12l18 111c14 -4 27.833 -6.5 41.5 -7.5
s27.5 -1.5 41.5 -1.5s27.667 0.5 41 1.5s27 3.5 41 7.5zM1524 925.002l-17.999 -111c-14 3.33301 -27.667 5.83301 -41 7.5s-27 2.5 -41 2.5s-27.833 -0.833008 -41.5 -2.5s-27.5 -4.16699 -41.5 -7.5l-18 111c37.333 8 71 12 101 12c29.333 0 62.666 -4 99.999 -12z" />
    <glyph glyph-name="uni1032" unicode="&#x1032;" horiz-adv-x="1075" 
d="M727 1142c15.333 -12 24.666 -31 27.999 -57c0 -20 -7.16699 -37.667 -21.5 -53s-31.833 -23 -52.5 -23c-17.333 0 -32.666 5 -45.999 15l-448 346c-15.333 12 -24.666 30.667 -27.999 56c0 20.667 7.16699 38.667 21.5 54s31.833 23 52.5 23
c17.333 0 32.666 -5.33301 45.999 -16zM133 384l-109 -18.999c-7.33301 28.667 -11 62.667 -11 102c0 18 0.833008 35.667 2.5 53s4.5 34 8.5 50l109 -19c-3.33301 -13.333 -5.5 -27 -6.5 -41s-1.5 -28.333 -1.5 -43s0.5 -28.834 1.5 -42.501s3.16699 -27.167 6.5 -40.5z
M282 170.001l-63 -91.999c-58.667 38 -106.334 86.667 -143.001 146l90 65c28.667 -48.667 67.334 -88.334 116.001 -119.001zM868 224.002c-36.667 -59.333 -84.334 -108.001 -143.001 -146.001l-63 92c48.667 30.667 87.334 70.334 116.001 119.001zM282 764.001
c-48.667 -30 -87.333 -69.334 -116 -118.001l-90 64c18 30.667 38.833 57.834 62.5 81.501s50.5 45.167 80.5 64.5zM868.001 710l-90 -63.999c-29.333 48.667 -68 88 -116 118l63 92c30 -19.333 56.833 -40.833 80.5 -64.5s44.5 -50.834 62.5 -81.501zM931.001 467.001
c0 -36 -3.66699 -70.001 -11 -102.001l-109 19c6.66699 26.667 10 54.334 10 83.001s-3.33301 56.667 -10 84l109 19c7.33301 -32 11 -66.333 11 -103zM572.001 10c-37.333 -8 -70.667 -12 -100 -12c-30 0 -63.667 4 -101 12l18 111c14 -4 27.833 -6.5 41.5 -7.5
s27.5 -1.5 41.5 -1.5s27.667 0.5 41 1.5s27 3.5 41 7.5zM572 925l-17.999 -111c-14 3.33301 -27.667 5.83301 -41 7.5s-27 2.5 -41 2.5s-27.833 -0.833008 -41.5 -2.5s-27.5 -4.16699 -41.5 -7.5l-18 111c37.333 8 71 12 101 12c29.333 0 62.666 -4 99.999 -12z" />
    </font>
</defs>
</svg>
